<?xml version="1.0" encoding="UTF-8" standalone="no"?>
<!-- Created with Inkscape (http://www.inkscape.org/) -->

<svg
   xmlns:ns0="http://www.iki.fi/pav/software/textext/"
   xmlns:dc="http://purl.org/dc/elements/1.1/"
   xmlns:cc="http://creativecommons.org/ns#"
   xmlns:rdf="http://www.w3.org/1999/02/22-rdf-syntax-ns#"
   xmlns:svg="http://www.w3.org/2000/svg"
   xmlns="http://www.w3.org/2000/svg"
   xmlns:xlink="http://www.w3.org/1999/xlink"
   xmlns:sodipodi="http://sodipodi.sourceforge.net/DTD/sodipodi-0.dtd"
   xmlns:inkscape="http://www.inkscape.org/namespaces/inkscape"
   sodipodi:docname="comp.svg"
   inkscape:version="0.91 r13725"
   version="1.1"
   id="svg2"
   viewBox="0 0 265 80"
   height="80"
   width="265">
  <sodipodi:namedview
     units="px"
     inkscape:window-maximized="1"
     inkscape:window-y="25"
     inkscape:window-x="0"
     inkscape:window-height="917"
     inkscape:window-width="952"
     inkscape:snap-grids="true"
     inkscape:object-paths="true"
     inkscape:snap-intersection-paths="true"
     inkscape:object-nodes="true"
     inkscape:snap-smooth-nodes="false"
     inkscape:snap-midpoints="false"
     showgrid="true"
     inkscape:current-layer="layer1"
     inkscape:document-units="px"
     inkscape:cy="17.08631"
     inkscape:cx="103.64841"
     inkscape:zoom="1.4"
     inkscape:pageshadow="2"
     inkscape:pageopacity="0.0"
     borderopacity="1.0"
     bordercolor="#666666"
     pagecolor="#ffffff"
     id="base"
     inkscape:snap-bbox="false"
     inkscape:bbox-nodes="true"
     inkscape:snap-nodes="true"
     inkscape:bbox-paths="true">
    <inkscape:grid
       id="grid4136"
       type="xygrid" />
  </sodipodi:namedview>
  <defs
     id="defs4">
    <defs
       id="defs4561">
      <g
         id="g4563">
        <symbol
           id="textext-76539538-0"
           overflow="visible"
           style="overflow:visible">
          <path
             id="path4566"
             d=""
             style="stroke:none"
             inkscape:connector-curvature="0" />
        </symbol>
        <symbol
           id="textext-76539538-1"
           overflow="visible"
           style="overflow:visible">
          <path
             id="path4569"
             d="m 2.234375,-3.515625 0,-2.578125 c 0,-0.234375 0,-0.359375 0.21875,-0.390625 C 2.546875,-6.5 2.84375,-6.5 3.046875,-6.5 c 0.890625,0 2,0.046875 2,1.484375 0,0.6875 -0.234375,1.5 -1.703125,1.5 z m 2.109375,0.125 c 0.953125,-0.234375 1.734375,-0.84375 1.734375,-1.625 0,-0.953125 -1.140625,-1.796875 -2.59375,-1.796875 l -3.140625,0 0,0.3125 0.25,0 c 0.765625,0 0.78125,0.109375 0.78125,0.46875 l 0,5.25 c 0,0.359375 -0.015625,0.46875 -0.78125,0.46875 l -0.25,0 0,0.3125 c 0.359375,-0.03125 1.078125,-0.03125 1.453125,-0.03125 0.390625,0 1.109375,0 1.46875,0.03125 l 0,-0.3125 -0.25,0 c -0.765625,0 -0.78125,-0.109375 -0.78125,-0.46875 l 0,-2.515625 1.140625,0 c 0.15625,0 0.578125,0 0.9375,0.34375 0.375,0.34375 0.375,0.65625 0.375,1.328125 0,0.640625 0,1.046875 0.40625,1.421875 0.40625,0.359375 0.953125,0.421875 1.25,0.421875 0.78125,0 0.953125,-0.8125 0.953125,-1.09375 0,-0.0625 0,-0.171875 -0.125,-0.171875 -0.109375,0 -0.109375,0.09375 -0.125,0.15625 C 6.984375,-0.171875 6.640625,0 6.390625,0 5.90625,0 5.828125,-0.515625 5.6875,-1.4375 L 5.546875,-2.234375 C 5.375,-2.875 4.890625,-3.203125 4.34375,-3.390625 Z m 0,0"
             style="stroke:none"
             inkscape:connector-curvature="0" />
        </symbol>
        <symbol
           id="textext-76539538-2"
           overflow="visible"
           style="overflow:visible">
          <path
             id="path4572"
             d="m 3.96875,-6.9375 c -0.046875,-0.125 -0.078125,-0.203125 -0.234375,-0.203125 -0.15625,0 -0.1875,0.0625 -0.234375,0.203125 L 1.4375,-0.984375 C 1.25,-0.46875 0.859375,-0.3125 0.3125,-0.3125 l 0,0.3125 c 0.234375,-0.015625 0.671875,-0.03125 1.015625,-0.03125 0.3125,0 0.828125,0.015625 1.15625,0.03125 l 0,-0.3125 c -0.5,0 -0.75,-0.25 -0.75,-0.5 0,-0.03125 0.015625,-0.140625 0.015625,-0.15625 l 0.46875,-1.296875 2.453125,0 0.53125,1.515625 c 0.015625,0.046875 0.03125,0.109375 0.03125,0.140625 0,0.296875 -0.5625,0.296875 -0.828125,0.296875 l 0,0.3125 c 0.359375,-0.03125 1.0625,-0.03125 1.4375,-0.03125 0.421875,0 0.890625,0.015625 1.296875,0.03125 l 0,-0.3125 -0.171875,0 C 6.375,-0.3125 6.234375,-0.375 6.125,-0.703125 Z m -0.53125,1.109375 1.125,3.25 -2.234375,0 z m 0,0"
             style="stroke:none"
             inkscape:connector-curvature="0" />
        </symbol>
        <symbol
           id="textext-76539538-3"
           overflow="visible"
           style="overflow:visible">
          <path
             id="path4575"
             d="M 2.40625,-6.59375 C 2.3125,-6.8125 2.28125,-6.8125 2.046875,-6.8125 l -1.671875,0 0,0.3125 0.234375,0 c 0.765625,0 0.78125,0.109375 0.78125,0.46875 l 0,4.984375 c 0,0.265625 0,0.734375 -1.015625,0.734375 L 0.375,0 c 0.34375,-0.015625 0.828125,-0.03125 1.15625,-0.03125 0.328125,0 0.828125,0.015625 1.171875,0.03125 l 0,-0.3125 c -1.03125,0 -1.03125,-0.46875 -1.03125,-0.734375 l 0,-5.375 0.015625,0 2.40625,6.203125 C 4.140625,-0.09375 4.1875,0 4.28125,0 4.390625,0 4.421875,-0.078125 4.46875,-0.1875 L 6.921875,-6.5 l 0,5.71875 c 0,0.359375 -0.015625,0.46875 -0.78125,0.46875 l -0.234375,0 0,0.3125 c 0.359375,-0.03125 1.046875,-0.03125 1.4375,-0.03125 0.375,0 1.046875,0 1.421875,0.03125 l 0,-0.3125 -0.25,0 c -0.765625,0 -0.78125,-0.109375 -0.78125,-0.46875 l 0,-5.25 C 7.734375,-6.390625 7.75,-6.5 8.515625,-6.5 l 0.25,0 0,-0.3125 -1.6875,0 C 6.8125,-6.8125 6.8125,-6.796875 6.75,-6.625 L 4.5625,-1 Z m 0,0"
             style="stroke:none"
             inkscape:connector-curvature="0" />
        </symbol>
        <symbol
           id="textext-76539538-4"
           overflow="visible"
           style="overflow:visible">
          <path
             id="path4578"
             d="m 2.75,-1.859375 0,-0.578125 -2.640625,0 0,0.578125 z m 0,0"
             style="stroke:none"
             inkscape:connector-curvature="0" />
        </symbol>
      </g>
    </defs>
    <defs
       id="defs10432">
      <g
         id="g10434">
        <symbol
           id="textext-20461d03-0"
           overflow="visible"
           style="overflow:visible">
          <path
             id="path10437"
             d="m 0.5,1.765625 4.984375,0 0,-8.796875 -4.984375,0 z m 0.5625,-0.5625 0,-7.671875 3.859375,0 0,7.671875 z m 0,0"
             style="stroke:none"
             inkscape:connector-curvature="0" />
        </symbol>
        <symbol
           id="textext-20461d03-1"
           overflow="visible"
           style="overflow:visible">
          <path
             id="path10440"
             d="m 5.234375,-5.21875 c 0,0.96875 -0.515625,1.515625 -1.484375,1.515625 l -1.28125,0 0,-3.046875 1.28125,0 c 0.96875,0 1.484375,0.546875 1.484375,1.53125 z m 1.109375,0 c 0,-1.328125 -0.984375,-2.046875 -2.359375,-2.046875 l -3.4375,0 0,0.515625 0.921875,0 0,6.234375 -0.921875,0 0,0.515625 3.046875,0 0,-0.515625 -1.125,0 0,-2.671875 1.515625,0 c 1.375,0 2.359375,-0.71875 2.359375,-2.03125 z m 0,0"
             style="stroke:none"
             inkscape:connector-curvature="0" />
        </symbol>
        <symbol
           id="textext-20461d03-2"
           overflow="visible"
           style="overflow:visible">
          <path
             id="path10443"
             d="M 2.71875,-0.375 C 1.984375,-0.375 1.5,-0.828125 1.5,-1.5625 1.5,-2.375 1.96875,-2.71875 2.8125,-2.71875 l 1.15625,0 0,1.09375 c 0,0.734375 -0.515625,1.25 -1.25,1.25 z m -0.0625,-4.9375 c -0.671875,0 -1.234375,0.171875 -1.765625,0.390625 l 0,1.046875 0.46875,0 c 0.09375,-0.625 0.515625,-0.953125 1.25,-0.953125 0.8125,0 1.359375,0.40625 1.359375,1.234375 l 0,0.359375 -1.25,0 c -1.265625,0 -2.21875,0.5 -2.21875,1.671875 0,1.078125 0.78125,1.703125 1.875,1.703125 0.75,0 1.234375,-0.265625 1.59375,-0.703125 l 0,0.5625 1.6875,0 0,-0.515625 -0.796875,0 0,-2.71875 c 0,-1.375 -0.796875,-2.078125 -2.203125,-2.078125 z m 0,0"
             style="stroke:none"
             inkscape:connector-curvature="0" />
        </symbol>
        <symbol
           id="textext-20461d03-3"
           overflow="visible"
           style="overflow:visible">
          <path
             id="path10446"
             d="m 2.671875,-0.34375 c -0.78125,0 -1.3125,-0.296875 -1.515625,-0.90625 l -0.71875,0 c 0.09375,0.375 0.328125,0.71875 0.71875,0.984375 C 1.546875,0 2.046875,0.140625 2.640625,0.140625 c 1.140625,0 2.296875,-0.421875 2.296875,-1.5 0,-0.484375 -0.125,-0.828125 -0.359375,-1 -0.234375,-0.1875 -0.59375,-0.296875 -1.078125,-0.375 0.078125,0 0.28125,-0.09375 0.640625,-0.21875 0.34375,-0.140625 0.515625,-0.484375 0.515625,-1 0,-0.90625 -0.6875,-1.359375 -2.046875,-1.359375 -0.75,0 -1.40625,0.125 -1.96875,0.359375 l 0,0.984375 0.53125,0 c 0.0625,-0.5625 0.515625,-0.828125 1.34375,-0.828125 0.703125,0 1.296875,0.28125 1.296875,0.9375 0,0.265625 -0.140625,0.46875 -0.40625,0.640625 -0.28125,0.171875 -0.6875,0.25 -1.265625,0.25 l -0.234375,0 0,0.5 0.453125,0 c 0.5625,0 0.984375,0.109375 1.265625,0.328125 0.28125,0.203125 0.4375,0.453125 0.4375,0.75 0,0.640625 -0.6875,1.046875 -1.390625,1.046875 z m 0,0"
             style="stroke:none"
             inkscape:connector-curvature="0" />
        </symbol>
        <symbol
           id="textext-20461d03-4"
           overflow="visible"
           style="overflow:visible">
          <path
             id="path10449"
             d="m 3.4375,-0.421875 c -1.015625,0 -1.390625,-0.8125 -1.390625,-1.90625 l 0,-0.515625 c 0,-1.09375 0.375,-1.90625 1.390625,-1.90625 0.453125,0 0.796875,0.1875 1.03125,0.546875 0.25,0.359375 0.359375,0.890625 0.359375,1.609375 0,1.1875 -0.328125,2.171875 -1.390625,2.171875 z m 0.28125,0.5625 c 0.640625,0 1.15625,-0.25 1.5625,-0.765625 0.390625,-0.5 0.59375,-1.15625 0.59375,-1.96875 0,-0.8125 -0.203125,-1.46875 -0.59375,-1.96875 -0.40625,-0.5 -0.921875,-0.75 -1.5625,-0.75 -0.875,0 -1.359375,0.34375 -1.671875,0.953125 l 0,-0.8125 -1.75,0 0,0.515625 0.84375,0 0,6.21875 -0.84375,0 0,0.515625 2.59375,0 0,-0.515625 -0.84375,0 0,-2.375 c 0.3125,0.609375 0.796875,0.953125 1.671875,0.953125 z m 0,0"
             style="stroke:none"
             inkscape:connector-curvature="0" />
        </symbol>
        <symbol
           id="textext-20461d03-5"
           overflow="visible"
           style="overflow:visible">
          <path
             id="path10452"
             d="m 5.3125,-1.5625 -0.71875,0 c -0.171875,0.734375 -0.625,1.21875 -1.5,1.21875 -1.140625,0 -1.546875,-0.875 -1.546875,-2.109375 l 0,-0.046875 3.859375,0 C 5.375,-4.203125 4.625,-5.3125 2.953125,-5.3125 c -0.734375,0 -1.328125,0.25 -1.78125,0.75 C 0.734375,-4.0625 0.5,-3.40625 0.5,-2.59375 c 0,0.828125 0.234375,1.484375 0.6875,1.984375 0.453125,0.5 1.0625,0.75 1.828125,0.75 1.3125,0 2.03125,-0.625 2.296875,-1.703125 z m -0.96875,-1.453125 -2.796875,0 c 0.09375,-0.984375 0.4375,-1.8125 1.40625,-1.8125 1,0 1.359375,0.765625 1.390625,1.8125 z m 0,0"
             style="stroke:none"
             inkscape:connector-curvature="0" />
        </symbol>
        <symbol
           id="textext-20461d03-6"
           overflow="visible"
           style="overflow:visible">
          <path
             id="path10455"
             d="m 5.125,-0.59375 0,-4.0625 0.8125,0 0,-0.515625 -2.515625,0 0,0.515625 0.8125,0 0,4.0625 -2.171875,0 0,-4.0625 0.8125,0 0,-0.515625 -2.515625,0 0,0.515625 0.8125,0 0,4.140625 -0.8125,0 0,0.515625 8.625,0 0,-0.515625 -0.796875,0 0,-4.140625 0.796875,0 0,-0.515625 -2.5,0 0,0.515625 0.796875,0 0,4.0625 z m 0,0"
             style="stroke:none"
             inkscape:connector-curvature="0" />
        </symbol>
        <symbol
           id="textext-20461d03-7"
           overflow="visible"
           style="overflow:visible">
          <path
             id="path10458"
             d="m 5.3125,-4.65625 0.8125,0 0,-0.515625 -2.515625,0 0,0.515625 0.8125,0 0,1.546875 -2.375,0 0,-1.546875 0.796875,0 0,-0.515625 -2.5,0 0,0.515625 0.796875,0 0,4.140625 -0.796875,0 0,0.515625 2.5,0 0,-0.515625 -0.796875,0 0,-2 2.375,0 0,2 -0.8125,0 0,0.515625 2.515625,0 0,-0.515625 -0.8125,0 z m 0,0"
             style="stroke:none"
             inkscape:connector-curvature="0" />
        </symbol>
        <symbol
           id="textext-20461d03-8"
           overflow="visible"
           style="overflow:visible">
          <path
             id="path10461"
             d="m 0.34375,0 2.5,0 0,-0.515625 -0.796875,0 0,-0.375 2.375,-2.515625 0,2.890625 -0.8125,0 0,0.515625 2.515625,0 0,-0.515625 -0.8125,0 0,-4.140625 0.8125,0 0,-0.515625 -2.515625,0 0,0.515625 0.8125,0 0,0.453125 -2.375,2.515625 0,-2.96875 0.796875,0 0,-0.515625 -2.5,0 0,0.515625 0.796875,0 0,4.140625 -0.796875,0 z m 0,0"
             style="stroke:none"
             inkscape:connector-curvature="0" />
        </symbol>
        <symbol
           id="textext-20461d03-9"
           overflow="visible"
           style="overflow:visible">
          <path
             id="path10464"
             d="m 6.0625,-5.171875 -2.484375,0 0,0.515625 0.78125,0 0,2.015625 -1.6875,0 c -0.203125,0 -0.34375,-0.078125 -0.453125,-0.203125 -0.109375,-0.125 -0.171875,-0.375 -0.171875,-0.75 l 0,-1.0625 0.78125,0 0,-0.515625 -2.484375,0 0,0.515625 0.796875,0 0,1.5625 c 0,0.25 0.125,0.484375 0.375,0.71875 0.25,0.21875 0.515625,0.328125 0.828125,0.328125 l 2.015625,0 0,1.53125 -0.8125,0 0,0.515625 2.515625,0 0,-0.515625 -0.8125,0 0,-4.140625 0.8125,0 z m 0,0"
             style="stroke:none"
             inkscape:connector-curvature="0" />
        </symbol>
        <symbol
           id="textext-20461d03-10"
           overflow="visible"
           style="overflow:visible">
          <path
             id="path10467"
             d="m 5.140625,-5.171875 -4.734375,0 0,1.40625 0.515625,0 0,-0.8125 1.40625,0 0,4.0625 -0.8125,0 0,0.515625 2.515625,0 0,-0.515625 -0.8125,0 0,-4.0625 1.40625,0 0,0.8125 0.515625,0 z m 0,0"
             style="stroke:none"
             inkscape:connector-curvature="0" />
        </symbol>
        <symbol
           id="textext-20461d03-11"
           overflow="visible"
           style="overflow:visible">
          <path
             id="path10470"
             d="m 1.859375,-3.78125 c 0,-0.578125 0.390625,-0.875 1.015625,-0.875 l 1.125,0 0,1.75 -1.125,0 c -0.625,0 -1.015625,-0.296875 -1.015625,-0.875 z M 0.890625,-3.875 c 0,0.453125 0.171875,0.796875 0.5,1 0.34375,0.21875 0.625,0.34375 0.859375,0.40625 l -1.21875,1.953125 -0.71875,0 0,0.515625 1.40625,0 1.484375,-2.40625 0.796875,0 0,1.890625 -0.765625,0 0,0.515625 2.484375,0 0,-0.515625 -0.8125,0 0,-4.140625 0.859375,0 0,-0.515625 -3.296875,0 c -0.90625,0 -1.578125,0.4375 -1.578125,1.296875 z m 0,0"
             style="stroke:none"
             inkscape:connector-curvature="0" />
        </symbol>
        <symbol
           id="textext-20461d03-12"
           overflow="visible"
           style="overflow:visible">
          <path
             id="path10473"
             d="m 0.34375,1.234375 3.484375,0 0,-6.140625 -3.484375,0 z m 0.390625,-0.390625 0,-5.359375 2.703125,0 0,5.359375 z m 0,0"
             style="stroke:none"
             inkscape:connector-curvature="0" />
        </symbol>
        <symbol
           id="textext-20461d03-13"
           overflow="visible"
           style="overflow:visible">
          <path
             id="path10476"
             d="m 3.65625,-3.65625 c 0,0.6875 -0.359375,1.078125 -1.03125,1.078125 l -0.90625,0 0,-2.140625 0.90625,0 c 0.671875,0 1.03125,0.375 1.03125,1.0625 z m 0.78125,0 c 0,-0.921875 -0.6875,-1.421875 -1.65625,-1.421875 l -2.390625,0 0,0.359375 0.640625,0 0,4.359375 -0.640625,0 0,0.359375 2.125,0 0,-0.359375 -0.796875,0 0,-1.859375 1.0625,0 c 0.96875,0 1.65625,-0.515625 1.65625,-1.4375 z m 0,0"
             style="stroke:none"
             inkscape:connector-curvature="0" />
        </symbol>
        <symbol
           id="textext-20461d03-14"
           overflow="visible"
           style="overflow:visible">
          <path
             id="path10479"
             d="m 1.90625,-0.265625 c -0.515625,0 -0.859375,-0.3125 -0.859375,-0.828125 0,-0.578125 0.328125,-0.8125 0.921875,-0.8125 l 0.8125,0 0,0.765625 c 0,0.515625 -0.359375,0.875 -0.875,0.875 z M 1.859375,-3.71875 C 1.390625,-3.71875 1,-3.59375 0.625,-3.4375 l 0,0.734375 0.328125,0 C 1.015625,-3.140625 1.3125,-3.375 1.8125,-3.375 c 0.578125,0 0.96875,0.28125 0.96875,0.859375 l 0,0.25 -0.890625,0 c -0.875,0 -1.546875,0.34375 -1.546875,1.171875 0,0.765625 0.546875,1.1875 1.3125,1.1875 0.53125,0 0.859375,-0.171875 1.125,-0.484375 l 0,0.390625 1.171875,0 0,-0.359375 -0.546875,0 0,-1.90625 c 0,-0.953125 -0.5625,-1.453125 -1.546875,-1.453125 z m 0,0"
             style="stroke:none"
             inkscape:connector-curvature="0" />
        </symbol>
        <symbol
           id="textext-20461d03-15"
           overflow="visible"
           style="overflow:visible">
          <path
             id="path10482"
             d="m 1.875,-0.234375 c -0.5625,0 -0.921875,-0.21875 -1.0625,-0.640625 l -0.5,0 c 0.0625,0.265625 0.21875,0.5 0.5,0.6875 C 1.078125,0 1.421875,0.09375 1.84375,0.09375 c 0.796875,0 1.609375,-0.28125 1.609375,-1.046875 0,-0.34375 -0.09375,-0.578125 -0.25,-0.703125 -0.171875,-0.125 -0.421875,-0.203125 -0.75,-0.25 C 2.5,-1.921875 2.640625,-1.96875 2.890625,-2.0625 3.140625,-2.171875 3.25,-2.40625 3.25,-2.765625 3.25,-3.40625 2.78125,-3.71875 1.8125,-3.71875 c -0.515625,0 -0.96875,0.09375 -1.359375,0.25 l 0,0.6875 0.359375,0 c 0.046875,-0.375 0.359375,-0.578125 0.953125,-0.578125 0.484375,0 0.890625,0.203125 0.890625,0.65625 C 2.65625,-2.515625 2.5625,-2.375 2.375,-2.25 2.1875,-2.125 1.890625,-2.078125 1.5,-2.078125 l -0.171875,0 0,0.359375 0.3125,0 c 0.40625,0 0.703125,0.078125 0.890625,0.21875 0.203125,0.140625 0.3125,0.328125 0.3125,0.53125 0,0.453125 -0.484375,0.734375 -0.96875,0.734375 z m 0,0"
             style="stroke:none"
             inkscape:connector-curvature="0" />
        </symbol>
        <symbol
           id="textext-20461d03-16"
           overflow="visible"
           style="overflow:visible">
          <path
             id="path10485"
             d="m 2.40625,-0.296875 c -0.71875,0 -0.984375,-0.5625 -0.984375,-1.328125 l 0,-0.359375 c 0,-0.765625 0.265625,-1.34375 0.984375,-1.34375 0.3125,0 0.5625,0.140625 0.71875,0.390625 0.171875,0.25 0.25,0.625 0.25,1.125 0,0.828125 -0.21875,1.515625 -0.96875,1.515625 z m 0.1875,0.390625 c 0.453125,0 0.8125,-0.171875 1.09375,-0.53125 0.28125,-0.34375 0.421875,-0.8125 0.421875,-1.375 0,-0.5625 -0.140625,-1.03125 -0.421875,-1.375 -0.28125,-0.359375 -0.640625,-0.53125 -1.09375,-0.53125 -0.59375,0 -0.9375,0.25 -1.171875,0.671875 l 0,-0.5625 -1.21875,0 0,0.359375 0.59375,0 0,4.34375 -0.59375,0 0,0.359375 1.8125,0 0,-0.359375 -0.59375,0 0,-1.65625 C 1.65625,-0.140625 2,0.09375 2.59375,0.09375 Z m 0,0"
             style="stroke:none"
             inkscape:connector-curvature="0" />
        </symbol>
        <symbol
           id="textext-20461d03-17"
           overflow="visible"
           style="overflow:visible">
          <path
             id="path10488"
             d="m 3.71875,-1.09375 -0.5,0 c -0.125,0.515625 -0.4375,0.859375 -1.046875,0.859375 -0.8125,0 -1.09375,-0.609375 -1.09375,-1.484375 l 0,-0.015625 2.703125,0 C 3.75,-2.9375 3.234375,-3.71875 2.0625,-3.71875 c -0.515625,0 -0.921875,0.171875 -1.234375,0.53125 -0.3125,0.34375 -0.484375,0.796875 -0.484375,1.375 0,0.578125 0.171875,1.03125 0.484375,1.390625 0.328125,0.34375 0.75,0.515625 1.28125,0.515625 0.921875,0 1.421875,-0.4375 1.609375,-1.1875 z m -0.6875,-1.015625 -1.953125,0 c 0.0625,-0.6875 0.3125,-1.265625 0.984375,-1.265625 0.703125,0 0.953125,0.53125 0.96875,1.265625 z m 0,0"
             style="stroke:none"
             inkscape:connector-curvature="0" />
        </symbol>
        <symbol
           id="textext-20461d03-18"
           overflow="visible"
           style="overflow:visible">
          <path
             id="path10491"
             d="m 3.578125,-0.421875 0,-2.828125 0.5625,0 0,-0.359375 -1.75,0 0,0.359375 0.5625,0 0,2.828125 -1.515625,0 0,-2.828125 0.5625,0 0,-0.359375 -1.75,0 0,0.359375 0.5625,0 0,2.890625 -0.5625,0 0,0.359375 6.03125,0 0,-0.359375 -0.5625,0 0,-2.890625 0.5625,0 0,-0.359375 -1.75,0 0,0.359375 0.5625,0 0,2.828125 z m 0,0"
             style="stroke:none"
             inkscape:connector-curvature="0" />
        </symbol>
        <symbol
           id="textext-20461d03-19"
           overflow="visible"
           style="overflow:visible">
          <path
             id="path10494"
             d="m 3.71875,-3.25 0.5625,0 0,-0.359375 -1.765625,0 0,0.359375 0.578125,0 0,1.078125 -1.671875,0 0,-1.078125 0.578125,0 0,-0.359375 -1.765625,0 0,0.359375 0.5625,0 0,2.890625 -0.5625,0 L 0.234375,0 2,0 l 0,-0.359375 -0.578125,0 0,-1.390625 1.671875,0 0,1.390625 -0.578125,0 0,0.359375 1.765625,0 0,-0.359375 -0.5625,0 z m 0,0"
             style="stroke:none"
             inkscape:connector-curvature="0" />
        </symbol>
        <symbol
           id="textext-20461d03-20"
           overflow="visible"
           style="overflow:visible">
          <path
             id="path10497"
             d="M 0.234375,0 2,0 l 0,-0.359375 -0.578125,0 0,-0.265625 1.671875,-1.765625 0,2.03125 -0.578125,0 0,0.359375 1.765625,0 0,-0.359375 -0.5625,0 0,-2.890625 0.5625,0 0,-0.359375 -1.765625,0 0,0.359375 0.578125,0 0,0.3125 -1.671875,1.765625 0,-2.078125 0.578125,0 0,-0.359375 -1.765625,0 0,0.359375 0.5625,0 0,2.890625 -0.5625,0 z m 0,0"
             style="stroke:none"
             inkscape:connector-curvature="0" />
        </symbol>
        <symbol
           id="textext-20461d03-21"
           overflow="visible"
           style="overflow:visible">
          <path
             id="path10500"
             d="m 4.234375,-3.609375 -1.734375,0 0,0.359375 0.546875,0 0,1.40625 -1.171875,0 c -0.140625,0 -0.25,-0.046875 -0.328125,-0.140625 -0.078125,-0.09375 -0.125,-0.265625 -0.125,-0.53125 l 0,-0.734375 0.546875,0 0,-0.359375 -1.734375,0 0,0.359375 0.5625,0 0,1.078125 c 0,0.171875 0.09375,0.34375 0.265625,0.5 0.171875,0.171875 0.359375,0.25 0.578125,0.25 l 1.40625,0 0,1.0625 -0.5625,0 0,0.359375 1.75,0 0,-0.359375 -0.5625,0 0,-2.890625 0.5625,0 z m 0,0"
             style="stroke:none"
             inkscape:connector-curvature="0" />
        </symbol>
        <symbol
           id="textext-20461d03-22"
           overflow="visible"
           style="overflow:visible">
          <path
             id="path10503"
             d="m 3.59375,-3.609375 -3.3125,0 0,0.96875 0.359375,0 0,-0.5625 0.984375,0 0,2.84375 -0.5625,0 0,0.359375 1.75,0 0,-0.359375 -0.5625,0 0,-2.84375 0.984375,0 0,0.5625 0.359375,0 z m 0,0"
             style="stroke:none"
             inkscape:connector-curvature="0" />
        </symbol>
        <symbol
           id="textext-20461d03-23"
           overflow="visible"
           style="overflow:visible">
          <path
             id="path10506"
             d="M 1.296875,-2.640625 C 1.296875,-3.046875 1.5625,-3.25 2,-3.25 l 0.796875,0 0,1.21875 -0.796875,0 c -0.4375,0 -0.703125,-0.21875 -0.703125,-0.609375 z M 0.625,-2.703125 c 0,0.3125 0.109375,0.546875 0.34375,0.703125 0.25,0.140625 0.4375,0.234375 0.59375,0.265625 l -0.84375,1.375 -0.5,0 L 0.21875,0 1.203125,0 2.25,-1.671875 l 0.546875,0 0,1.3125 -0.53125,0 L 2.265625,0 4,0 l 0,-0.359375 -0.578125,0 0,-2.890625 0.609375,0 0,-0.359375 -2.3125,0 c -0.625,0 -1.09375,0.296875 -1.09375,0.90625 z m 0,0"
             style="stroke:none"
             inkscape:connector-curvature="0" />
        </symbol>
      </g>
    </defs>
    <defs
       id="defs11448">
      <g
         id="g11450">
        <symbol
           style="overflow:visible"
           overflow="visible"
           id="textext-c6414838-0">
          <path
             inkscape:connector-curvature="0"
             style="stroke:none"
             d="m 0.5,1.765625 4.984375,0 0,-8.796875 -4.984375,0 z m 0.5625,-0.5625 0,-7.671875 3.859375,0 0,7.671875 z m 0,0"
             id="path11453" />
        </symbol>
        <symbol
           style="overflow:visible"
           overflow="visible"
           id="textext-c6414838-1">
          <path
             inkscape:connector-curvature="0"
             style="stroke:none"
             d="M 2.171875,-2.625 3.515625,-6.09375 4.84375,-2.625 Z M 0.125,0 l 2.03125,0 0,-0.515625 -0.796875,0 0.609375,-1.59375 3.0625,0 0.609375,1.59375 -0.8125,0 0,0.515625 2.65625,0 0,-0.515625 -0.71875,0 -2.59375,-6.75 -0.828125,0 -2.59375,6.75 -0.625,0 z m 0,0"
             id="path11456" />
        </symbol>
        <symbol
           style="overflow:visible"
           overflow="visible"
           id="textext-c6414838-2">
          <path
             inkscape:connector-curvature="0"
             style="stroke:none"
             d="m 2.15625,-4.578125 1.875,0 0,3.984375 -2.09375,0 c -0.109375,0 -0.171875,0 -0.15625,-0.078125 0.078125,-0.3125 0.15625,-0.703125 0.25,-1.1875 0.09375,-0.5 0.125,-1.109375 0.125,-1.875 z M 1.5625,-4.65625 l 0,0.921875 c 0,0.546875 -0.015625,1.015625 -0.0625,1.4375 -0.046875,0.578125 -0.296875,1.78125 -0.875,1.78125 l -0.265625,0 0,1.890625 0.515625,0 0.078125,-0.6875 C 1,0.234375 1.171875,0 1.5,0 l 3.078125,0 c 0.328125,0 0.515625,0.234375 0.5625,0.6875 l 0.078125,0.6875 0.515625,0 0,-1.890625 -0.8125,0 0,-4.140625 0.8125,0 0,-0.515625 -4.984375,0 0,0.515625 z m 0,0"
             id="path11459" />
        </symbol>
        <symbol
           style="overflow:visible"
           overflow="visible"
           id="textext-c6414838-3">
          <path
             inkscape:connector-curvature="0"
             style="stroke:none"
             d="m 3.4375,-0.421875 c -1.015625,0 -1.390625,-0.8125 -1.390625,-1.90625 l 0,-0.515625 c 0,-1.09375 0.375,-1.90625 1.390625,-1.90625 0.453125,0 0.796875,0.1875 1.03125,0.546875 0.25,0.359375 0.359375,0.890625 0.359375,1.609375 0,1.1875 -0.328125,2.171875 -1.390625,2.171875 z m 0.28125,0.5625 c 0.640625,0 1.15625,-0.25 1.5625,-0.765625 0.390625,-0.5 0.59375,-1.15625 0.59375,-1.96875 0,-0.8125 -0.203125,-1.46875 -0.59375,-1.96875 -0.40625,-0.5 -0.921875,-0.75 -1.5625,-0.75 -0.875,0 -1.359375,0.34375 -1.671875,0.953125 l 0,-0.8125 -1.75,0 0,0.515625 0.84375,0 0,6.21875 -0.84375,0 0,0.515625 2.59375,0 0,-0.515625 -0.84375,0 0,-2.375 c 0.3125,0.609375 0.796875,0.953125 1.671875,0.953125 z m 0,0"
             id="path11462" />
        </symbol>
        <symbol
           style="overflow:visible"
           overflow="visible"
           id="textext-c6414838-4">
          <path
             inkscape:connector-curvature="0"
             style="stroke:none"
             d="m 5.3125,-1.5625 -0.71875,0 c -0.171875,0.734375 -0.625,1.21875 -1.5,1.21875 -1.140625,0 -1.546875,-0.875 -1.546875,-2.109375 l 0,-0.046875 3.859375,0 C 5.375,-4.203125 4.625,-5.3125 2.953125,-5.3125 c -0.734375,0 -1.328125,0.25 -1.78125,0.75 C 0.734375,-4.0625 0.5,-3.40625 0.5,-2.59375 c 0,0.828125 0.234375,1.484375 0.6875,1.984375 0.453125,0.5 1.0625,0.75 1.828125,0.75 1.3125,0 2.03125,-0.625 2.296875,-1.703125 z m -0.96875,-1.453125 -2.796875,0 c 0.09375,-0.984375 0.4375,-1.8125 1.40625,-1.8125 1,0 1.359375,0.765625 1.390625,1.8125 z m 0,0"
             id="path11465" />
        </symbol>
        <symbol
           style="overflow:visible"
           overflow="visible"
           id="textext-c6414838-5">
          <path
             inkscape:connector-curvature="0"
             style="stroke:none"
             d="m 5.125,-1.5625 -0.71875,0 c -0.15625,0.75 -0.546875,1.21875 -1.390625,1.21875 -0.5,0 -0.859375,-0.1875 -1.109375,-0.5625 -0.234375,-0.375 -0.359375,-0.9375 -0.359375,-1.6875 0,-0.75 0.125,-1.296875 0.359375,-1.671875 0.25,-0.375 0.609375,-0.5625 1.109375,-0.5625 0.90625,0 1.296875,0.46875 1.421875,1.296875 l 0.515625,0 0,-1.328125 C 4.390625,-5.125 3.765625,-5.3125 3,-5.3125 c -0.75,0 -1.359375,0.234375 -1.8125,0.734375 -0.453125,0.5 -0.6875,1.15625 -0.6875,1.984375 0,0.828125 0.234375,1.484375 0.6875,1.984375 0.453125,0.5 1.0625,0.75 1.8125,0.75 1.21875,0 1.890625,-0.671875 2.125,-1.703125 z m 0,0"
             id="path11468" />
        </symbol>
        <symbol
           style="overflow:visible"
           overflow="visible"
           id="textext-c6414838-6">
          <path
             inkscape:connector-curvature="0"
             style="stroke:none"
             d="m 6.0625,-5.171875 -2.484375,0 0,0.515625 0.78125,0 0,2.015625 -1.6875,0 c -0.203125,0 -0.34375,-0.078125 -0.453125,-0.203125 -0.109375,-0.125 -0.171875,-0.375 -0.171875,-0.75 l 0,-1.0625 0.78125,0 0,-0.515625 -2.484375,0 0,0.515625 0.796875,0 0,1.5625 c 0,0.25 0.125,0.484375 0.375,0.71875 0.25,0.21875 0.515625,0.328125 0.828125,0.328125 l 2.015625,0 0,1.53125 -0.8125,0 0,0.515625 2.515625,0 0,-0.515625 -0.8125,0 0,-4.140625 0.8125,0 z m 0,0"
             id="path11471" />
        </symbol>
        <symbol
           style="overflow:visible"
           overflow="visible"
           id="textext-c6414838-7">
          <path
             inkscape:connector-curvature="0"
             style="stroke:none"
             d="m 5.140625,-5.171875 -4.734375,0 0,1.40625 0.515625,0 0,-0.8125 1.40625,0 0,4.0625 -0.8125,0 0,0.515625 2.515625,0 0,-0.515625 -0.8125,0 0,-4.0625 1.40625,0 0,0.8125 0.515625,0 z m 0,0"
             id="path11474" />
        </symbol>
        <symbol
           style="overflow:visible"
           overflow="visible"
           id="textext-c6414838-8">
          <path
             inkscape:connector-curvature="0"
             style="stroke:none"
             d="m 5.3125,-4.65625 0.8125,0 0,-0.515625 -2.515625,0 0,0.515625 0.8125,0 0,1.546875 -2.375,0 0,-1.546875 0.796875,0 0,-0.515625 -2.5,0 0,0.515625 0.796875,0 0,4.140625 -0.796875,0 0,0.515625 2.5,0 0,-0.515625 -0.796875,0 0,-2 2.375,0 0,2 -0.8125,0 0,0.515625 2.515625,0 0,-0.515625 -0.8125,0 z m 0,0"
             id="path11477" />
        </symbol>
        <symbol
           style="overflow:visible"
           overflow="visible"
           id="textext-c6414838-9">
          <path
             inkscape:connector-curvature="0"
             style="stroke:none"
             d="m 0.34375,0 2.5,0 0,-0.515625 -0.796875,0 0,-0.375 2.375,-2.515625 0,2.890625 -0.8125,0 0,0.515625 2.515625,0 0,-0.515625 -0.8125,0 0,-4.140625 0.8125,0 0,-0.515625 -2.515625,0 0,0.515625 0.8125,0 0,0.453125 -2.375,2.515625 0,-2.96875 0.796875,0 0,-0.515625 -2.5,0 0,0.515625 0.796875,0 0,4.140625 -0.796875,0 z m 0,0"
             id="path11480" />
        </symbol>
        <symbol
           style="overflow:visible"
           overflow="visible"
           id="textext-c6414838-10">
          <path
             inkscape:connector-curvature="0"
             style="stroke:none"
             d="m 1.859375,-3.78125 c 0,-0.578125 0.390625,-0.875 1.015625,-0.875 l 1.125,0 0,1.75 -1.125,0 c -0.625,0 -1.015625,-0.296875 -1.015625,-0.875 z M 0.890625,-3.875 c 0,0.453125 0.171875,0.796875 0.5,1 0.34375,0.21875 0.625,0.34375 0.859375,0.40625 l -1.21875,1.953125 -0.71875,0 0,0.515625 1.40625,0 1.484375,-2.40625 0.796875,0 0,1.890625 -0.765625,0 0,0.515625 2.484375,0 0,-0.515625 -0.8125,0 0,-4.140625 0.859375,0 0,-0.515625 -3.296875,0 c -0.90625,0 -1.578125,0.4375 -1.578125,1.296875 z m 0,0"
             id="path11483" />
        </symbol>
        <symbol
           style="overflow:visible"
           overflow="visible"
           id="textext-c6414838-11">
          <path
             inkscape:connector-curvature="0"
             style="stroke:none"
             d="m 0.34375,1.234375 3.484375,0 0,-6.140625 -3.484375,0 z m 0.390625,-0.390625 0,-5.359375 2.703125,0 0,5.359375 z m 0,0"
             id="path11486" />
        </symbol>
        <symbol
           style="overflow:visible"
           overflow="visible"
           id="textext-c6414838-12">
          <path
             inkscape:connector-curvature="0"
             style="stroke:none"
             d="m 1.515625,-1.84375 0.9375,-2.421875 0.9375,2.421875 z M 0.078125,0 l 1.4375,0 0,-0.359375 -0.5625,0 0.421875,-1.125 2.140625,0 0.421875,1.125 -0.5625,0 0,0.359375 1.84375,0 0,-0.359375 -0.5,0 -1.8125,-4.71875 -0.5625,0 -1.8125,4.71875 -0.453125,0 z m 0,0"
             id="path11489" />
        </symbol>
        <symbol
           style="overflow:visible"
           overflow="visible"
           id="textext-c6414838-13">
          <path
             inkscape:connector-curvature="0"
             style="stroke:none"
             d="m 1.515625,-3.203125 1.296875,0 0,2.78125 -1.453125,0 c -0.078125,0 -0.125,0.015625 -0.109375,-0.046875 0.046875,-0.21875 0.109375,-0.5 0.171875,-0.828125 0.0625,-0.34375 0.09375,-0.78125 0.09375,-1.3125 z M 1.09375,-3.25 l 0,0.640625 c 0,0.375 -0.015625,0.71875 -0.046875,1 -0.03125,0.40625 -0.203125,1.25 -0.609375,1.25 l -0.1875,0 0,1.328125 0.359375,0 L 0.65625,0.484375 C 0.703125,0.15625 0.828125,0 1.046875,0 l 2.15625,0 C 3.421875,0 3.5625,0.15625 3.59375,0.484375 l 0.0625,0.484375 0.34375,0 0,-1.328125 -0.5625,0 0,-2.890625 0.5625,0 0,-0.359375 -3.46875,0 0,0.359375 z m 0,0"
             id="path11492" />
        </symbol>
        <symbol
           style="overflow:visible"
           overflow="visible"
           id="textext-c6414838-14">
          <path
             inkscape:connector-curvature="0"
             style="stroke:none"
             d="m 2.40625,-0.296875 c -0.71875,0 -0.984375,-0.5625 -0.984375,-1.328125 l 0,-0.359375 c 0,-0.765625 0.265625,-1.34375 0.984375,-1.34375 0.3125,0 0.5625,0.140625 0.71875,0.390625 0.171875,0.25 0.25,0.625 0.25,1.125 0,0.828125 -0.21875,1.515625 -0.96875,1.515625 z m 0.1875,0.390625 c 0.453125,0 0.8125,-0.171875 1.09375,-0.53125 0.28125,-0.34375 0.421875,-0.8125 0.421875,-1.375 0,-0.5625 -0.140625,-1.03125 -0.421875,-1.375 -0.28125,-0.359375 -0.640625,-0.53125 -1.09375,-0.53125 -0.59375,0 -0.9375,0.25 -1.171875,0.671875 l 0,-0.5625 -1.21875,0 0,0.359375 0.59375,0 0,4.34375 -0.59375,0 0,0.359375 1.8125,0 0,-0.359375 -0.59375,0 0,-1.65625 C 1.65625,-0.140625 2,0.09375 2.59375,0.09375 Z m 0,0"
             id="path11495" />
        </symbol>
        <symbol
           style="overflow:visible"
           overflow="visible"
           id="textext-c6414838-15">
          <path
             inkscape:connector-curvature="0"
             style="stroke:none"
             d="m 3.71875,-1.09375 -0.5,0 c -0.125,0.515625 -0.4375,0.859375 -1.046875,0.859375 -0.8125,0 -1.09375,-0.609375 -1.09375,-1.484375 l 0,-0.015625 2.703125,0 C 3.75,-2.9375 3.234375,-3.71875 2.0625,-3.71875 c -0.515625,0 -0.921875,0.171875 -1.234375,0.53125 -0.3125,0.34375 -0.484375,0.796875 -0.484375,1.375 0,0.578125 0.171875,1.03125 0.484375,1.390625 0.328125,0.34375 0.75,0.515625 1.28125,0.515625 0.921875,0 1.421875,-0.4375 1.609375,-1.1875 z m -0.6875,-1.015625 -1.953125,0 c 0.0625,-0.6875 0.3125,-1.265625 0.984375,-1.265625 0.703125,0 0.953125,0.53125 0.96875,1.265625 z m 0,0"
             id="path11498" />
        </symbol>
        <symbol
           style="overflow:visible"
           overflow="visible"
           id="textext-c6414838-16">
          <path
             inkscape:connector-curvature="0"
             style="stroke:none"
             d="m 3.578125,-1.09375 -0.5,0 c -0.109375,0.515625 -0.375,0.859375 -0.96875,0.859375 -0.34375,0 -0.59375,-0.140625 -0.765625,-0.40625 -0.1875,-0.265625 -0.265625,-0.65625 -0.265625,-1.171875 0,-0.515625 0.078125,-0.90625 0.265625,-1.171875 C 1.515625,-3.25 1.765625,-3.375 2.109375,-3.375 c 0.640625,0 0.90625,0.328125 0.984375,0.90625 l 0.375,0 0,-0.921875 c -0.40625,-0.1875 -0.828125,-0.328125 -1.375,-0.328125 -0.53125,0 -0.9375,0.171875 -1.265625,0.515625 -0.3125,0.359375 -0.484375,0.8125 -0.484375,1.390625 0,0.578125 0.171875,1.03125 0.484375,1.390625 0.328125,0.34375 0.734375,0.515625 1.265625,0.515625 0.859375,0 1.328125,-0.46875 1.484375,-1.1875 z m 0,0"
             id="path11501" />
        </symbol>
        <symbol
           style="overflow:visible"
           overflow="visible"
           id="textext-c6414838-17">
          <path
             inkscape:connector-curvature="0"
             style="stroke:none"
             d="m 4.234375,-3.609375 -1.734375,0 0,0.359375 0.546875,0 0,1.40625 -1.171875,0 c -0.140625,0 -0.25,-0.046875 -0.328125,-0.140625 -0.078125,-0.09375 -0.125,-0.265625 -0.125,-0.53125 l 0,-0.734375 0.546875,0 0,-0.359375 -1.734375,0 0,0.359375 0.5625,0 0,1.078125 c 0,0.171875 0.09375,0.34375 0.265625,0.5 0.171875,0.171875 0.359375,0.25 0.578125,0.25 l 1.40625,0 0,1.0625 -0.5625,0 0,0.359375 1.75,0 0,-0.359375 -0.5625,0 0,-2.890625 0.5625,0 z m 0,0"
             id="path11504" />
        </symbol>
        <symbol
           style="overflow:visible"
           overflow="visible"
           id="textext-c6414838-18">
          <path
             inkscape:connector-curvature="0"
             style="stroke:none"
             d="m 3.59375,-3.609375 -3.3125,0 0,0.96875 0.359375,0 0,-0.5625 0.984375,0 0,2.84375 -0.5625,0 0,0.359375 1.75,0 0,-0.359375 -0.5625,0 0,-2.84375 0.984375,0 0,0.5625 0.359375,0 z m 0,0"
             id="path11507" />
        </symbol>
        <symbol
           style="overflow:visible"
           overflow="visible"
           id="textext-c6414838-19">
          <path
             inkscape:connector-curvature="0"
             style="stroke:none"
             d="m 3.71875,-3.25 0.5625,0 0,-0.359375 -1.765625,0 0,0.359375 0.578125,0 0,1.078125 -1.671875,0 0,-1.078125 0.578125,0 0,-0.359375 -1.765625,0 0,0.359375 0.5625,0 0,2.890625 -0.5625,0 L 0.234375,0 2,0 l 0,-0.359375 -0.578125,0 0,-1.390625 1.671875,0 0,1.390625 -0.578125,0 0,0.359375 1.765625,0 0,-0.359375 -0.5625,0 z m 0,0"
             id="path11510" />
        </symbol>
        <symbol
           style="overflow:visible"
           overflow="visible"
           id="textext-c6414838-20">
          <path
             inkscape:connector-curvature="0"
             style="stroke:none"
             d="M 0.234375,0 2,0 l 0,-0.359375 -0.578125,0 0,-0.265625 1.671875,-1.765625 0,2.03125 -0.578125,0 0,0.359375 1.765625,0 0,-0.359375 -0.5625,0 0,-2.890625 0.5625,0 0,-0.359375 -1.765625,0 0,0.359375 0.578125,0 0,0.3125 -1.671875,1.765625 0,-2.078125 0.578125,0 0,-0.359375 -1.765625,0 0,0.359375 0.5625,0 0,2.890625 -0.5625,0 z m 0,0"
             id="path11513" />
        </symbol>
        <symbol
           style="overflow:visible"
           overflow="visible"
           id="textext-c6414838-21">
          <path
             inkscape:connector-curvature="0"
             style="stroke:none"
             d="M 1.296875,-2.640625 C 1.296875,-3.046875 1.5625,-3.25 2,-3.25 l 0.796875,0 0,1.21875 -0.796875,0 c -0.4375,0 -0.703125,-0.21875 -0.703125,-0.609375 z M 0.625,-2.703125 c 0,0.3125 0.109375,0.546875 0.34375,0.703125 0.25,0.140625 0.4375,0.234375 0.59375,0.265625 l -0.84375,1.375 -0.5,0 L 0.21875,0 1.203125,0 2.25,-1.671875 l 0.546875,0 0,1.3125 -0.53125,0 L 2.265625,0 4,0 l 0,-0.359375 -0.578125,0 0,-2.890625 0.609375,0 0,-0.359375 -2.3125,0 c -0.625,0 -1.09375,0.296875 -1.09375,0.90625 z m 0,0"
             id="path11516" />
        </symbol>
      </g>
    </defs>
  </defs>
  <metadata
     id="metadata7">
    <rdf:RDF>
      <cc:Work
         rdf:about="">
        <dc:format>image/svg+xml</dc:format>
        <dc:type
           rdf:resource="http://purl.org/dc/dcmitype/StillImage" />
        <dc:title></dc:title>
      </cc:Work>
    </rdf:RDF>
  </metadata>
  <g
     transform="translate(0,-972.36218)"
     id="layer1"
     inkscape:groupmode="layer"
     inkscape:label="Layer 1">
    <g
       transform="matrix(16,0,0,16,-549.52298,242.43661)"
       ns0:text="\xd0\xb0\xd0\xb1\xd0\xb2"
       ns0:preamble=""
       id="g4677">
      <g
         id="textext-9788c7ee-0" />
    </g>
    <path
       style="fill:none;fill-rule:evenodd;stroke:#000000;stroke-width:1px;stroke-linecap:butt;stroke-linejoin:miter;stroke-opacity:1"
       d="m 86.223306,977.98145 50.000004,0 0,70.00005 -50.000004,0 0,-70.00005"
       id="path4595"
       inkscape:connector-curvature="0" />
    <path
       style="fill:none;fill-rule:evenodd;stroke:#000000;stroke-width:1px;stroke-linecap:butt;stroke-linejoin:miter;stroke-opacity:1"
       d="m 86.223306,992.98145 -35,0"
       id="path4597"
       inkscape:connector-curvature="0" />
    <path
       style="fill:none;fill-rule:evenodd;stroke:#000000;stroke-width:1px;stroke-linecap:butt;stroke-linejoin:miter;stroke-opacity:1"
       d="m 86.223306,1032.9815 -35,0"
       id="path4597-3"
       inkscape:connector-curvature="0" />
    <path
       style="fill:none;fill-rule:evenodd;stroke:#000000;stroke-width:1px;stroke-linecap:butt;stroke-linejoin:miter;stroke-opacity:1"
       d="m 171.22331,1002.9815 -35,0"
       id="path4597-6"
       inkscape:connector-curvature="0" />
    <g
       ns0:text="\\begin{center}\n\xd1\x82\xd0\xb5\xd0\xba\xd1\x83\xd1\x89\xd0\xb5\xd0\xb5\\\\\n\xd1\x81\xd0\xbe\xd1\x81\xd1\x82\xd0\xbe\xd1\x8f\xd0\xbd\xd0\xb8\xd0\xb5\n\\end{center}"
       ns0:preamble="/home/bqwer/workbook/textext_preamble.tex"
       transform="matrix(0.87181796,0,0,0.87133111,-318.24794,872.67695)"
       id="g5259">
      <defs
         id="defs5261">
        <g
           id="g5263">
          <symbol
             overflow="visible"
             id="symbol5265"
             style="overflow:visible">
            <path
               style="stroke:none"
               d="m 0.5,1.765625 4.984375,0 0,-8.796875 -4.984375,0 z m 0.5625,-0.5625 0,-7.671875 3.859375,0 0,7.671875 z m 0,0"
               id="path5267"
               inkscape:connector-curvature="0" />
          </symbol>
          <symbol
             overflow="visible"
             id="symbol5269"
             style="overflow:visible">
            <path
               style="stroke:none"
               d="m 5.140625,-5.171875 -4.734375,0 0,1.40625 0.515625,0 0,-0.8125 1.40625,0 0,4.0625 -0.8125,0 0,0.515625 2.515625,0 0,-0.515625 -0.8125,0 0,-4.0625 1.40625,0 0,0.8125 0.515625,0 z m 0,0"
               id="path5271"
               inkscape:connector-curvature="0" />
          </symbol>
          <symbol
             overflow="visible"
             id="symbol5273"
             style="overflow:visible">
            <path
               style="stroke:none"
               d="m 5.3125,-1.5625 -0.71875,0 c -0.171875,0.734375 -0.625,1.21875 -1.5,1.21875 -1.140625,0 -1.546875,-0.875 -1.546875,-2.109375 l 0,-0.046875 3.859375,0 C 5.375,-4.203125 4.625,-5.3125 2.953125,-5.3125 c -0.734375,0 -1.328125,0.25 -1.78125,0.75 C 0.734375,-4.0625 0.5,-3.40625 0.5,-2.59375 c 0,0.828125 0.234375,1.484375 0.6875,1.984375 0.453125,0.5 1.0625,0.75 1.828125,0.75 1.3125,0 2.03125,-0.625 2.296875,-1.703125 z m -0.96875,-1.453125 -2.796875,0 c 0.09375,-0.984375 0.4375,-1.8125 1.40625,-1.8125 1,0 1.359375,0.765625 1.390625,1.8125 z m 0,0"
               id="path5275"
               inkscape:connector-curvature="0" />
          </symbol>
          <symbol
             overflow="visible"
             id="symbol5277"
             style="overflow:visible">
            <path
               style="stroke:none"
               d="m 2.84375,-5.171875 -2.5,0 0,0.515625 0.796875,0 0,4.140625 -0.796875,0 0,0.515625 2.5,0 0,-0.515625 -0.796875,0 0,-1.46875 0.703125,-0.65625 1.546875,2.125 -0.734375,0 0,0.515625 2.546875,0 0,-0.515625 -0.75,0 -1.953125,-2.71875 1.53125,-1.421875 0.890625,0 0,-0.515625 -2.34375,0 0,0.515625 0.75,0 -2.1875,2.015625 0,-2.015625 0.796875,0 z m 0,0"
               id="path5279"
               inkscape:connector-curvature="0" />
          </symbol>
          <symbol
             overflow="visible"
             id="symbol5281"
             style="overflow:visible">
            <path
               style="stroke:none"
               d="M 1.421875,2.21875 C 1.78125,2.21875 2.0625,2.140625 2.265625,2 2.46875,1.84375 2.640625,1.5625 2.796875,1.171875 l 2.375,-5.828125 0.578125,0 0,-0.515625 -1.9375,0 0,0.515625 0.765625,0 -1.453125,3.5625 -1.453125,-3.5625 0.828125,0 0,-0.515625 -2.375,0 0,0.515625 0.578125,0 1.9375,4.75 -0.34375,0.859375 C 2.1875,1.25 2.0625,1.453125 1.953125,1.546875 1.84375,1.640625 1.703125,1.6875 1.53125,1.6875 1.109375,1.6875 0.96875,1.484375 0.921875,1.078125 l -0.453125,0 0,0.984375 C 0.75,2.15625 1.078125,2.21875 1.421875,2.21875 Z m 0,0"
               id="path5283"
               inkscape:connector-curvature="0" />
          </symbol>
          <symbol
             overflow="visible"
             id="symbol5285"
             style="overflow:visible">
            <path
               style="stroke:none"
               d="m 6.484375,-5.171875 0,0.515625 0.796875,0 0,4.0625 -2.15625,0 0,-4.0625 0.8125,0 0,-0.515625 -2.515625,0 0,0.515625 0.8125,0 0,4.0625 -2.171875,0 0,-4.0625 0.8125,0 0,-0.515625 -2.515625,0 0,0.515625 0.8125,0 0,4.140625 -0.8125,0 0,0.515625 7.484375,0 c 0.328125,0 0.515625,0.234375 0.5625,0.6875 L 8.5,1.375 l 0.484375,0 0,-1.890625 -0.796875,0 0,-4.140625 0.796875,0 0,-0.515625 z m 0,0"
               id="path5287"
               inkscape:connector-curvature="0" />
          </symbol>
          <symbol
             overflow="visible"
             id="symbol5289"
             style="overflow:visible">
            <path
               style="stroke:none"
               d="m 5.125,-1.5625 -0.71875,0 c -0.15625,0.75 -0.546875,1.21875 -1.390625,1.21875 -0.5,0 -0.859375,-0.1875 -1.109375,-0.5625 -0.234375,-0.375 -0.359375,-0.9375 -0.359375,-1.6875 0,-0.75 0.125,-1.296875 0.359375,-1.671875 0.25,-0.375 0.609375,-0.5625 1.109375,-0.5625 0.90625,0 1.296875,0.46875 1.421875,1.296875 l 0.515625,0 0,-1.328125 C 4.390625,-5.125 3.765625,-5.3125 3,-5.3125 c -0.75,0 -1.359375,0.234375 -1.8125,0.734375 -0.453125,0.5 -0.6875,1.15625 -0.6875,1.984375 0,0.828125 0.234375,1.484375 0.6875,1.984375 0.453125,0.5 1.0625,0.75 1.8125,0.75 1.21875,0 1.890625,-0.671875 2.125,-1.703125 z m 0,0"
               id="path5291"
               inkscape:connector-curvature="0" />
          </symbol>
          <symbol
             overflow="visible"
             id="symbol5293"
             style="overflow:visible">
            <path
               style="stroke:none"
               d="m 3,-4.828125 c 0.484375,0 0.84375,0.1875 1.09375,0.5625 0.25,0.375 0.359375,0.9375 0.359375,1.671875 0,1.234375 -0.34375,2.25 -1.453125,2.25 -0.484375,0 -0.84375,-0.1875 -1.09375,-0.5625 -0.234375,-0.375 -0.359375,-0.953125 -0.359375,-1.6875 0,-1.234375 0.34375,-2.234375 1.453125,-2.234375 z M 3,-5.3125 c -0.75,0 -1.359375,0.25 -1.828125,0.75 C 0.71875,-4.0625 0.5,-3.421875 0.5,-2.59375 c 0,0.828125 0.234375,1.484375 0.6875,1.984375 0.453125,0.5 1.0625,0.75 1.8125,0.75 0.765625,0 1.359375,-0.25 1.8125,-0.75 C 5.28125,-1.109375 5.5,-1.765625 5.5,-2.59375 5.5,-3.421875 5.28125,-4.0625 4.8125,-4.5625 4.359375,-5.0625 3.765625,-5.3125 3,-5.3125 Z m 0,0"
               id="path5295"
               inkscape:connector-curvature="0" />
          </symbol>
          <symbol
             overflow="visible"
             id="symbol5297"
             style="overflow:visible">
            <path
               style="stroke:none"
               d="m 1.859375,-3.78125 c 0,-0.578125 0.390625,-0.875 1.015625,-0.875 l 1.125,0 0,1.75 -1.125,0 c -0.625,0 -1.015625,-0.296875 -1.015625,-0.875 z M 0.890625,-3.875 c 0,0.453125 0.171875,0.796875 0.5,1 0.34375,0.21875 0.625,0.34375 0.859375,0.40625 l -1.21875,1.953125 -0.71875,0 0,0.515625 1.40625,0 1.484375,-2.40625 0.796875,0 0,1.890625 -0.765625,0 0,0.515625 2.484375,0 0,-0.515625 -0.8125,0 0,-4.140625 0.859375,0 0,-0.515625 -3.296875,0 c -0.90625,0 -1.578125,0.4375 -1.578125,1.296875 z m 0,0"
               id="path5299"
               inkscape:connector-curvature="0" />
          </symbol>
          <symbol
             overflow="visible"
             id="symbol5301"
             style="overflow:visible">
            <path
               style="stroke:none"
               d="m 5.3125,-4.65625 0.8125,0 0,-0.515625 -2.515625,0 0,0.515625 0.8125,0 0,1.546875 -2.375,0 0,-1.546875 0.796875,0 0,-0.515625 -2.5,0 0,0.515625 0.796875,0 0,4.140625 -0.796875,0 0,0.515625 2.5,0 0,-0.515625 -0.796875,0 0,-2 2.375,0 0,2 -0.8125,0 0,0.515625 2.515625,0 0,-0.515625 -0.8125,0 z m 0,0"
               id="path5303"
               inkscape:connector-curvature="0" />
          </symbol>
          <symbol
             overflow="visible"
             id="symbol5305"
             style="overflow:visible">
            <path
               style="stroke:none"
               d="m 0.34375,0 2.5,0 0,-0.515625 -0.796875,0 0,-0.375 2.375,-2.515625 0,2.890625 -0.8125,0 0,0.515625 2.515625,0 0,-0.515625 -0.8125,0 0,-4.140625 0.8125,0 0,-0.515625 -2.515625,0 0,0.515625 0.8125,0 0,0.453125 -2.375,2.515625 0,-2.96875 0.796875,0 0,-0.515625 -2.5,0 0,0.515625 0.796875,0 0,4.140625 -0.796875,0 z m 0,0"
               id="path5307"
               inkscape:connector-curvature="0" />
          </symbol>
        </g>
      </defs>
      <g
         id="g5309">
        <g
           style="fill:#000000;fill-opacity:1"
           id="g5311">
          <g
             id="use5313"
             transform="translate(373.013,134.765)">
            <path
               id="path10371"
               d="m 5.140625,-5.171875 -4.734375,0 0,1.40625 0.515625,0 0,-0.8125 1.40625,0 0,4.0625 -0.8125,0 0,0.515625 2.515625,0 0,-0.515625 -0.8125,0 0,-4.0625 1.40625,0 0,0.8125 0.515625,0 z m 0,0"
               style="stroke:none"
               inkscape:connector-curvature="0" />
          </g>
          <g
             id="use5315"
             transform="translate(378.52432,134.765)">
            <path
               id="path10395"
               d="m 5.3125,-1.5625 -0.71875,0 c -0.171875,0.734375 -0.625,1.21875 -1.5,1.21875 -1.140625,0 -1.546875,-0.875 -1.546875,-2.109375 l 0,-0.046875 3.859375,0 C 5.375,-4.203125 4.625,-5.3125 2.953125,-5.3125 c -0.734375,0 -1.328125,0.25 -1.78125,0.75 C 0.734375,-4.0625 0.5,-3.40625 0.5,-2.59375 c 0,0.828125 0.234375,1.484375 0.6875,1.984375 0.453125,0.5 1.0625,0.75 1.828125,0.75 1.3125,0 2.03125,-0.625 2.296875,-1.703125 z m -0.96875,-1.453125 -2.796875,0 c 0.09375,-0.984375 0.4375,-1.8125 1.40625,-1.8125 1,0 1.359375,0.765625 1.390625,1.8125 z m 0,0"
               style="stroke:none"
               inkscape:connector-curvature="0" />
          </g>
          <g
             id="use5317"
             transform="translate(384.42017,134.765)">
            <path
               id="path10415"
               d="m 2.84375,-5.171875 -2.5,0 0,0.515625 0.796875,0 0,4.140625 -0.796875,0 0,0.515625 2.5,0 0,-0.515625 -0.796875,0 0,-1.46875 0.703125,-0.65625 1.546875,2.125 -0.734375,0 0,0.515625 2.546875,0 0,-0.515625 -0.75,0 -1.953125,-2.71875 1.53125,-1.421875 0.890625,0 0,-0.515625 -2.34375,0 0,0.515625 0.75,0 -2.1875,2.015625 0,-2.015625 0.796875,0 z m 0,0"
               style="stroke:none"
               inkscape:connector-curvature="0" />
          </g>
          <g
             id="use5319"
             transform="translate(390.64679,134.765)">
            <path
               id="path10423"
               d="M 1.421875,2.21875 C 1.78125,2.21875 2.0625,2.140625 2.265625,2 2.46875,1.84375 2.640625,1.5625 2.796875,1.171875 l 2.375,-5.828125 0.578125,0 0,-0.515625 -1.9375,0 0,0.515625 0.765625,0 -1.453125,3.5625 -1.453125,-3.5625 0.828125,0 0,-0.515625 -2.375,0 0,0.515625 0.578125,0 1.9375,4.75 -0.34375,0.859375 C 2.1875,1.25 2.0625,1.453125 1.953125,1.546875 1.84375,1.640625 1.703125,1.6875 1.53125,1.6875 1.109375,1.6875 0.96875,1.484375 0.921875,1.078125 l -0.453125,0 0,0.984375 C 0.75,2.15625 1.078125,2.21875 1.421875,2.21875 Z m 0,0"
               style="stroke:none"
               inkscape:connector-curvature="0" />
          </g>
          <g
             id="use5321"
             transform="translate(396.50879,134.765)">
            <path
               id="path10431"
               d="m 6.484375,-5.171875 0,0.515625 0.796875,0 0,4.0625 -2.15625,0 0,-4.0625 0.8125,0 0,-0.515625 -2.515625,0 0,0.515625 0.8125,0 0,4.0625 -2.171875,0 0,-4.0625 0.8125,0 0,-0.515625 -2.515625,0 0,0.515625 0.8125,0 0,4.140625 -0.8125,0 0,0.515625 7.484375,0 c 0.328125,0 0.515625,0.234375 0.5625,0.6875 L 8.5,1.375 l 0.484375,0 0,-1.890625 -0.796875,0 0,-4.140625 0.796875,0 0,-0.515625 z m 0,0"
               style="stroke:none"
               inkscape:connector-curvature="0" />
          </g>
          <g
             id="use5323"
             transform="translate(405.77103,134.765)">
            <path
               id="path10399"
               d="m 5.3125,-1.5625 -0.71875,0 c -0.171875,0.734375 -0.625,1.21875 -1.5,1.21875 -1.140625,0 -1.546875,-0.875 -1.546875,-2.109375 l 0,-0.046875 3.859375,0 C 5.375,-4.203125 4.625,-5.3125 2.953125,-5.3125 c -0.734375,0 -1.328125,0.25 -1.78125,0.75 C 0.734375,-4.0625 0.5,-3.40625 0.5,-2.59375 c 0,0.828125 0.234375,1.484375 0.6875,1.984375 0.453125,0.5 1.0625,0.75 1.828125,0.75 1.3125,0 2.03125,-0.625 2.296875,-1.703125 z m -0.96875,-1.453125 -2.796875,0 c 0.09375,-0.984375 0.4375,-1.8125 1.40625,-1.8125 1,0 1.359375,0.765625 1.390625,1.8125 z m 0,0"
               style="stroke:none"
               inkscape:connector-curvature="0" />
          </g>
          <g
             id="use5325"
             transform="translate(411.6669,134.765)">
            <path
               id="path10403"
               d="m 5.3125,-1.5625 -0.71875,0 c -0.171875,0.734375 -0.625,1.21875 -1.5,1.21875 -1.140625,0 -1.546875,-0.875 -1.546875,-2.109375 l 0,-0.046875 3.859375,0 C 5.375,-4.203125 4.625,-5.3125 2.953125,-5.3125 c -0.734375,0 -1.328125,0.25 -1.78125,0.75 C 0.734375,-4.0625 0.5,-3.40625 0.5,-2.59375 c 0,0.828125 0.234375,1.484375 0.6875,1.984375 0.453125,0.5 1.0625,0.75 1.828125,0.75 1.3125,0 2.03125,-0.625 2.296875,-1.703125 z m -0.96875,-1.453125 -2.796875,0 c 0.09375,-0.984375 0.4375,-1.8125 1.40625,-1.8125 1,0 1.359375,0.765625 1.390625,1.8125 z m 0,0"
               style="stroke:none"
               inkscape:connector-curvature="0" />
          </g>
        </g>
        <g
           style="fill:#000000;fill-opacity:1"
           id="g5327">
          <g
             id="use5329"
             transform="translate(368.224,146.72)">
            <path
               id="path10444"
               d="m 5.125,-1.5625 -0.71875,0 c -0.15625,0.75 -0.546875,1.21875 -1.390625,1.21875 -0.5,0 -0.859375,-0.1875 -1.109375,-0.5625 -0.234375,-0.375 -0.359375,-0.9375 -0.359375,-1.6875 0,-0.75 0.125,-1.296875 0.359375,-1.671875 0.25,-0.375 0.609375,-0.5625 1.109375,-0.5625 0.90625,0 1.296875,0.46875 1.421875,1.296875 l 0.515625,0 0,-1.328125 C 4.390625,-5.125 3.765625,-5.3125 3,-5.3125 c -0.75,0 -1.359375,0.234375 -1.8125,0.734375 -0.453125,0.5 -0.6875,1.15625 -0.6875,1.984375 0,0.828125 0.234375,1.484375 0.6875,1.984375 0.453125,0.5 1.0625,0.75 1.8125,0.75 1.21875,0 1.890625,-0.671875 2.125,-1.703125 z m 0,0"
               style="stroke:none"
               inkscape:connector-curvature="0" />
          </g>
          <g
             id="use5331"
             transform="translate(373.80405,146.72)">
            <path
               id="path10462"
               d="m 3,-4.828125 c 0.484375,0 0.84375,0.1875 1.09375,0.5625 0.25,0.375 0.359375,0.9375 0.359375,1.671875 0,1.234375 -0.34375,2.25 -1.453125,2.25 -0.484375,0 -0.84375,-0.1875 -1.09375,-0.5625 -0.234375,-0.375 -0.359375,-0.953125 -0.359375,-1.6875 0,-1.234375 0.34375,-2.234375 1.453125,-2.234375 z M 3,-5.3125 c -0.75,0 -1.359375,0.25 -1.828125,0.75 C 0.71875,-4.0625 0.5,-3.421875 0.5,-2.59375 c 0,0.828125 0.234375,1.484375 0.6875,1.984375 0.453125,0.5 1.0625,0.75 1.8125,0.75 0.765625,0 1.359375,-0.25 1.8125,-0.75 C 5.28125,-1.109375 5.5,-1.765625 5.5,-2.59375 5.5,-3.421875 5.28125,-4.0625 4.8125,-4.5625 4.359375,-5.0625 3.765625,-5.3125 3,-5.3125 Z m 0,0"
               style="stroke:none"
               inkscape:connector-curvature="0" />
          </g>
          <g
             id="use5333"
             transform="translate(379.80252,146.72)">
            <path
               id="path10448"
               d="m 5.125,-1.5625 -0.71875,0 c -0.15625,0.75 -0.546875,1.21875 -1.390625,1.21875 -0.5,0 -0.859375,-0.1875 -1.109375,-0.5625 -0.234375,-0.375 -0.359375,-0.9375 -0.359375,-1.6875 0,-0.75 0.125,-1.296875 0.359375,-1.671875 0.25,-0.375 0.609375,-0.5625 1.109375,-0.5625 0.90625,0 1.296875,0.46875 1.421875,1.296875 l 0.515625,0 0,-1.328125 C 4.390625,-5.125 3.765625,-5.3125 3,-5.3125 c -0.75,0 -1.359375,0.234375 -1.8125,0.734375 -0.453125,0.5 -0.6875,1.15625 -0.6875,1.984375 0,0.828125 0.234375,1.484375 0.6875,1.984375 0.453125,0.5 1.0625,0.75 1.8125,0.75 1.21875,0 1.890625,-0.671875 2.125,-1.703125 z m 0,0"
               style="stroke:none"
               inkscape:connector-curvature="0" />
          </g>
          <g
             id="use5335"
             transform="translate(385.3826,146.72)">
            <path
               id="path10375"
               d="m 5.140625,-5.171875 -4.734375,0 0,1.40625 0.515625,0 0,-0.8125 1.40625,0 0,4.0625 -0.8125,0 0,0.515625 2.515625,0 0,-0.515625 -0.8125,0 0,-4.0625 1.40625,0 0,0.8125 0.515625,0 z m 0,0"
               style="stroke:none"
               inkscape:connector-curvature="0" />
          </g>
          <g
             id="use5337"
             transform="translate(390.89389,146.72)">
            <path
               id="path10466"
               d="m 3,-4.828125 c 0.484375,0 0.84375,0.1875 1.09375,0.5625 0.25,0.375 0.359375,0.9375 0.359375,1.671875 0,1.234375 -0.34375,2.25 -1.453125,2.25 -0.484375,0 -0.84375,-0.1875 -1.09375,-0.5625 -0.234375,-0.375 -0.359375,-0.953125 -0.359375,-1.6875 0,-1.234375 0.34375,-2.234375 1.453125,-2.234375 z M 3,-5.3125 c -0.75,0 -1.359375,0.25 -1.828125,0.75 C 0.71875,-4.0625 0.5,-3.421875 0.5,-2.59375 c 0,0.828125 0.234375,1.484375 0.6875,1.984375 0.453125,0.5 1.0625,0.75 1.8125,0.75 0.765625,0 1.359375,-0.25 1.8125,-0.75 C 5.28125,-1.109375 5.5,-1.765625 5.5,-2.59375 5.5,-3.421875 5.28125,-4.0625 4.8125,-4.5625 4.359375,-5.0625 3.765625,-5.3125 3,-5.3125 Z m 0,0"
               style="stroke:none"
               inkscape:connector-curvature="0" />
          </g>
          <g
             id="use5339"
             transform="translate(396.89236,146.72)">
            <path
               id="path10475"
               d="m 1.859375,-3.78125 c 0,-0.578125 0.390625,-0.875 1.015625,-0.875 l 1.125,0 0,1.75 -1.125,0 c -0.625,0 -1.015625,-0.296875 -1.015625,-0.875 z M 0.890625,-3.875 c 0,0.453125 0.171875,0.796875 0.5,1 0.34375,0.21875 0.625,0.34375 0.859375,0.40625 l -1.21875,1.953125 -0.71875,0 0,0.515625 1.40625,0 1.484375,-2.40625 0.796875,0 0,1.890625 -0.765625,0 0,0.515625 2.484375,0 0,-0.515625 -0.8125,0 0,-4.140625 0.859375,0 0,-0.515625 -3.296875,0 c -0.90625,0 -1.578125,0.4375 -1.578125,1.296875 z m 0,0"
               style="stroke:none"
               inkscape:connector-curvature="0" />
          </g>
          <g
             id="use5341"
             transform="translate(403.1778,146.72)">
            <path
               id="path10484"
               d="m 5.3125,-4.65625 0.8125,0 0,-0.515625 -2.515625,0 0,0.515625 0.8125,0 0,1.546875 -2.375,0 0,-1.546875 0.796875,0 0,-0.515625 -2.5,0 0,0.515625 0.796875,0 0,4.140625 -0.796875,0 0,0.515625 2.5,0 0,-0.515625 -0.796875,0 0,-2 2.375,0 0,2 -0.8125,0 0,0.515625 2.515625,0 0,-0.515625 -0.8125,0 z m 0,0"
               style="stroke:none"
               inkscape:connector-curvature="0" />
          </g>
          <g
             id="use5343"
             transform="translate(409.81784,146.72)">
            <path
               id="path10493"
               d="m 0.34375,0 2.5,0 0,-0.515625 -0.796875,0 0,-0.375 2.375,-2.515625 0,2.890625 -0.8125,0 0,0.515625 2.515625,0 0,-0.515625 -0.8125,0 0,-4.140625 0.8125,0 0,-0.515625 -2.515625,0 0,0.515625 0.8125,0 0,0.453125 -2.375,2.515625 0,-2.96875 0.796875,0 0,-0.515625 -2.5,0 0,0.515625 0.796875,0 0,4.140625 -0.796875,0 z m 0,0"
               style="stroke:none"
               inkscape:connector-curvature="0" />
          </g>
          <g
             id="use5345"
             transform="translate(416.45792,146.72)">
            <path
               id="path10407"
               d="m 5.3125,-1.5625 -0.71875,0 c -0.171875,0.734375 -0.625,1.21875 -1.5,1.21875 -1.140625,0 -1.546875,-0.875 -1.546875,-2.109375 l 0,-0.046875 3.859375,0 C 5.375,-4.203125 4.625,-5.3125 2.953125,-5.3125 c -0.734375,0 -1.328125,0.25 -1.78125,0.75 C 0.734375,-4.0625 0.5,-3.40625 0.5,-2.59375 c 0,0.828125 0.234375,1.484375 0.6875,1.984375 0.453125,0.5 1.0625,0.75 1.828125,0.75 1.3125,0 2.03125,-0.625 2.296875,-1.703125 z m -0.96875,-1.453125 -2.796875,0 c 0.09375,-0.984375 0.4375,-1.8125 1.40625,-1.8125 1,0 1.359375,0.765625 1.390625,1.8125 z m 0,0"
               style="stroke:none"
               inkscape:connector-curvature="0" />
          </g>
        </g>
      </g>
    </g>
    <g
       id="g6791"
       transform="matrix(0.87181796,0,0,0.87133111,-316.98777,913.24935)"
       ns0:preamble="/home/bqwer/workbook/textext_preamble.tex"
       ns0:text="\\begin{center}\n&quot;\xd0\x93\xd0\xbe\xd1\x80\xd0\xb8\xd1\x82\\\\\n\xd0\xb7\xd0\xb5\xd0\xbb\xd1\x91\xd0\xbd\xd1\x8b\xd0\xb9&quot;\n\\end{center}">
      <defs
         id="defs6793">
        <g
           id="g6795">
          <symbol
             id="textext-4effdd3c-0"
             overflow="visible"
             style="overflow:visible">
            <path
               id="path6798"
               d="m 0.5,1.765625 4.984375,0 0,-8.796875 -4.984375,0 z m 0.5625,-0.5625 0,-7.671875 3.859375,0 0,7.671875 z m 0,0"
               style="stroke:none"
               inkscape:connector-curvature="0" />
          </symbol>
          <symbol
             id="textext-4effdd3c-1"
             overflow="visible"
             style="overflow:visible">
            <path
               id="path6801"
               d="m 1.75,-7.265625 -0.765625,0 0,2.703125 0.765625,0 z m 1.859375,0 -0.78125,0 0,2.703125 0.78125,0 z m 0,0"
               style="stroke:none"
               inkscape:connector-curvature="0" />
          </symbol>
          <symbol
             id="textext-4effdd3c-2"
             overflow="visible"
             style="overflow:visible">
            <path
               id="path6804"
               d="m 2.46875,-0.515625 0,-6.15625 3.109375,0 0,1.03125 0.609375,0 0,-1.625 -5.640625,0 0,0.515625 0.921875,0 0,6.234375 -0.921875,0 0,0.515625 3.078125,0 0,-0.515625 z m 0,0"
               style="stroke:none"
               inkscape:connector-curvature="0" />
          </symbol>
          <symbol
             id="textext-4effdd3c-3"
             overflow="visible"
             style="overflow:visible">
            <path
               id="path6807"
               d="m 3,-4.828125 c 0.484375,0 0.84375,0.1875 1.09375,0.5625 0.25,0.375 0.359375,0.9375 0.359375,1.671875 0,1.234375 -0.34375,2.25 -1.453125,2.25 -0.484375,0 -0.84375,-0.1875 -1.09375,-0.5625 -0.234375,-0.375 -0.359375,-0.953125 -0.359375,-1.6875 0,-1.234375 0.34375,-2.234375 1.453125,-2.234375 z M 3,-5.3125 c -0.75,0 -1.359375,0.25 -1.828125,0.75 C 0.71875,-4.0625 0.5,-3.421875 0.5,-2.59375 c 0,0.828125 0.234375,1.484375 0.6875,1.984375 0.453125,0.5 1.0625,0.75 1.8125,0.75 0.765625,0 1.359375,-0.25 1.8125,-0.75 C 5.28125,-1.109375 5.5,-1.765625 5.5,-2.59375 5.5,-3.421875 5.28125,-4.0625 4.8125,-4.5625 4.359375,-5.0625 3.765625,-5.3125 3,-5.3125 Z m 0,0"
               style="stroke:none"
               inkscape:connector-curvature="0" />
          </symbol>
          <symbol
             id="textext-4effdd3c-4"
             overflow="visible"
             style="overflow:visible">
            <path
               id="path6810"
               d="m 3.4375,-0.421875 c -1.015625,0 -1.390625,-0.8125 -1.390625,-1.90625 l 0,-0.515625 c 0,-1.09375 0.375,-1.90625 1.390625,-1.90625 0.453125,0 0.796875,0.1875 1.03125,0.546875 0.25,0.359375 0.359375,0.890625 0.359375,1.609375 0,1.1875 -0.328125,2.171875 -1.390625,2.171875 z m 0.28125,0.5625 c 0.640625,0 1.15625,-0.25 1.5625,-0.765625 0.390625,-0.5 0.59375,-1.15625 0.59375,-1.96875 0,-0.8125 -0.203125,-1.46875 -0.59375,-1.96875 -0.40625,-0.5 -0.921875,-0.75 -1.5625,-0.75 -0.875,0 -1.359375,0.34375 -1.671875,0.953125 l 0,-0.8125 -1.75,0 0,0.515625 0.84375,0 0,6.21875 -0.84375,0 0,0.515625 2.59375,0 0,-0.515625 -0.84375,0 0,-2.375 c 0.3125,0.609375 0.796875,0.953125 1.671875,0.953125 z m 0,0"
               style="stroke:none"
               inkscape:connector-curvature="0" />
          </symbol>
          <symbol
             id="textext-4effdd3c-5"
             overflow="visible"
             style="overflow:visible">
            <path
               id="path6813"
               d="m 0.34375,0 2.5,0 0,-0.515625 -0.796875,0 0,-0.375 2.375,-2.515625 0,2.890625 -0.8125,0 0,0.515625 2.515625,0 0,-0.515625 -0.8125,0 0,-4.140625 0.8125,0 0,-0.515625 -2.515625,0 0,0.515625 0.8125,0 0,0.453125 -2.375,2.515625 0,-2.96875 0.796875,0 0,-0.515625 -2.5,0 0,0.515625 0.796875,0 0,4.140625 -0.796875,0 z m 0,0"
               style="stroke:none"
               inkscape:connector-curvature="0" />
          </symbol>
          <symbol
             id="textext-4effdd3c-6"
             overflow="visible"
             style="overflow:visible">
            <path
               id="path6816"
               d="m 5.140625,-5.171875 -4.734375,0 0,1.40625 0.515625,0 0,-0.8125 1.40625,0 0,4.0625 -0.8125,0 0,0.515625 2.515625,0 0,-0.515625 -0.8125,0 0,-4.0625 1.40625,0 0,0.8125 0.515625,0 z m 0,0"
               style="stroke:none"
               inkscape:connector-curvature="0" />
          </symbol>
          <symbol
             id="textext-4effdd3c-7"
             overflow="visible"
             style="overflow:visible">
            <path
               id="path6819"
               d="m 2.671875,-0.34375 c -0.78125,0 -1.3125,-0.296875 -1.515625,-0.90625 l -0.71875,0 c 0.09375,0.375 0.328125,0.71875 0.71875,0.984375 C 1.546875,0 2.046875,0.140625 2.640625,0.140625 c 1.140625,0 2.296875,-0.421875 2.296875,-1.5 0,-0.484375 -0.125,-0.828125 -0.359375,-1 -0.234375,-0.1875 -0.59375,-0.296875 -1.078125,-0.375 0.078125,0 0.28125,-0.09375 0.640625,-0.21875 0.34375,-0.140625 0.515625,-0.484375 0.515625,-1 0,-0.90625 -0.6875,-1.359375 -2.046875,-1.359375 -0.75,0 -1.40625,0.125 -1.96875,0.359375 l 0,0.984375 0.53125,0 c 0.0625,-0.5625 0.515625,-0.828125 1.34375,-0.828125 0.703125,0 1.296875,0.28125 1.296875,0.9375 0,0.265625 -0.140625,0.46875 -0.40625,0.640625 -0.28125,0.171875 -0.6875,0.25 -1.265625,0.25 l -0.234375,0 0,0.5 0.453125,0 c 0.5625,0 0.984375,0.109375 1.265625,0.328125 0.28125,0.203125 0.4375,0.453125 0.4375,0.75 0,0.640625 -0.6875,1.046875 -1.390625,1.046875 z m 0,0"
               style="stroke:none"
               inkscape:connector-curvature="0" />
          </symbol>
          <symbol
             id="textext-4effdd3c-8"
             overflow="visible"
             style="overflow:visible">
            <path
               id="path6822"
               d="m 5.3125,-1.5625 -0.71875,0 c -0.171875,0.734375 -0.625,1.21875 -1.5,1.21875 -1.140625,0 -1.546875,-0.875 -1.546875,-2.109375 l 0,-0.046875 3.859375,0 C 5.375,-4.203125 4.625,-5.3125 2.953125,-5.3125 c -0.734375,0 -1.328125,0.25 -1.78125,0.75 C 0.734375,-4.0625 0.5,-3.40625 0.5,-2.59375 c 0,0.828125 0.234375,1.484375 0.6875,1.984375 0.453125,0.5 1.0625,0.75 1.828125,0.75 1.3125,0 2.03125,-0.625 2.296875,-1.703125 z m -0.96875,-1.453125 -2.796875,0 c 0.09375,-0.984375 0.4375,-1.8125 1.40625,-1.8125 1,0 1.359375,0.765625 1.390625,1.8125 z m 0,0"
               style="stroke:none"
               inkscape:connector-curvature="0" />
          </symbol>
          <symbol
             id="textext-4effdd3c-9"
             overflow="visible"
             style="overflow:visible">
            <path
               id="path6825"
               d="m 1.8125,-3.734375 c 0,0.640625 -0.015625,1.09375 -0.046875,1.34375 -0.078125,0.5 -0.15625,1.28125 -0.3125,1.65625 -0.109375,0.21875 -0.3125,0.28125 -0.609375,0.28125 -0.203125,0 -0.421875,-0.0625 -0.671875,-0.15625 L 0.203125,0 C 0.53125,0.09375 0.65625,0.140625 0.9375,0.140625 c 0.5625,0 0.984375,-0.296875 1.09375,-0.734375 0.078125,-0.265625 0.125,-0.546875 0.203125,-0.890625 0.140625,-0.78125 0.171875,-1.3125 0.171875,-2.25 l 0,-0.84375 1.875,0 0,4.0625 -0.8125,0 0,0.515625 2.5,0 0,-0.515625 -0.796875,0 0,-4.140625 0.796875,0 0,-0.515625 -4.96875,0 0,0.515625 0.8125,0 z m 0,0"
               style="stroke:none"
               inkscape:connector-curvature="0" />
          </symbol>
          <symbol
             id="textext-4effdd3c-10"
             overflow="visible"
             style="overflow:visible">
            <path
               id="path6828"
               d="m 5.3125,-1.5625 -0.71875,0 c -0.171875,0.734375 -0.625,1.21875 -1.5,1.21875 -1.140625,0 -1.546875,-0.875 -1.546875,-2.109375 l 0,-0.046875 3.859375,0 C 5.375,-4.203125 4.625,-5.3125 2.953125,-5.3125 c -0.734375,0 -1.328125,0.25 -1.78125,0.75 C 0.734375,-4.0625 0.5,-3.40625 0.5,-2.59375 c 0,0.828125 0.234375,1.484375 0.6875,1.984375 0.453125,0.5 1.0625,0.75 1.828125,0.75 1.3125,0 2.03125,-0.625 2.296875,-1.703125 z m -0.96875,-1.453125 -2.796875,0 c 0.09375,-0.984375 0.4375,-1.8125 1.40625,-1.8125 1,0 1.359375,0.765625 1.390625,1.8125 z M 1.484375,-7.0625 c 0,0.328125 0.234375,0.5625 0.5625,0.5625 C 2.375,-6.5 2.625,-6.734375 2.625,-7.0625 c 0,-0.3125 -0.265625,-0.578125 -0.578125,-0.578125 -0.296875,0 -0.5625,0.265625 -0.5625,0.578125 z m 1.890625,0 c 0,0.328125 0.25,0.5625 0.578125,0.5625 0.328125,0 0.5625,-0.234375 0.5625,-0.5625 0,-0.3125 -0.265625,-0.578125 -0.5625,-0.578125 -0.3125,0 -0.578125,0.265625 -0.578125,0.578125 z m 0,0"
               style="stroke:none"
               inkscape:connector-curvature="0" />
          </symbol>
          <symbol
             id="textext-4effdd3c-11"
             overflow="visible"
             style="overflow:visible">
            <path
               id="path6831"
               d="m 5.3125,-4.65625 0.8125,0 0,-0.515625 -2.515625,0 0,0.515625 0.8125,0 0,1.546875 -2.375,0 0,-1.546875 0.796875,0 0,-0.515625 -2.5,0 0,0.515625 0.796875,0 0,4.140625 -0.796875,0 0,0.515625 2.5,0 0,-0.515625 -0.796875,0 0,-2 2.375,0 0,2 -0.8125,0 0,0.515625 2.515625,0 0,-0.515625 -0.8125,0 z m 0,0"
               style="stroke:none"
               inkscape:connector-curvature="0" />
          </symbol>
          <symbol
             id="textext-4effdd3c-12"
             overflow="visible"
             style="overflow:visible">
            <path
               id="path6834"
               d="m 4.21875,-1.5 c 0,0.609375 -0.4375,0.984375 -1.0625,0.984375 l -1.109375,0 0,-1.984375 1.109375,0 c 0.625,0 1.0625,0.375 1.0625,1 z M 3.140625,0 C 4.390625,0 5,-0.5 5,-1.5 5,-2.515625 4.34375,-3.03125 2.984375,-3.03125 l -0.9375,0 0,-1.625 0.796875,0 0,-0.515625 -2.546875,0 0,0.515625 0.84375,0 0,4.140625 -0.84375,0 0,0.515625 z m 3.625,-4.640625 0.8125,0 0,-0.53125 -2.515625,0 0,0.515625 0.8125,0 0,4.140625 -0.8125,0 0,0.515625 2.515625,0 0,-0.515625 -0.8125,0 z m 0,0"
               style="stroke:none"
               inkscape:connector-curvature="0" />
          </symbol>
          <symbol
             id="textext-4effdd3c-13"
             overflow="visible"
             style="overflow:visible">
            <path
               id="path6837"
               d="m 1.71875,-7.0625 c 0,0.078125 0.0625,0.25 0.140625,0.515625 0.078125,0.28125 0.546875,0.40625 1.390625,0.40625 0.84375,0 1.3125,-0.125 1.390625,-0.40625 C 4.71875,-6.8125 4.78125,-6.984375 4.78125,-7.0625 c 0,-0.1875 -0.203125,-0.375 -0.40625,-0.375 -0.21875,0 -0.390625,0.1875 -0.390625,0.40625 0,0.125 0.03125,0.21875 0.109375,0.296875 C 3.9375,-6.625 3.65625,-6.5625 3.25,-6.5625 2.84375,-6.5625 2.5625,-6.625 2.40625,-6.734375 2.484375,-6.8125 2.515625,-6.90625 2.515625,-7.03125 2.515625,-7.25 2.34375,-7.4375 2.125,-7.4375 c -0.203125,0 -0.40625,0.1875 -0.40625,0.375 z M 0.34375,0 l 2.5,0 0,-0.515625 -0.796875,0 0,-0.375 2.375,-2.515625 0,2.890625 -0.8125,0 0,0.515625 2.515625,0 0,-0.515625 -0.8125,0 0,-4.140625 0.8125,0 0,-0.515625 -2.515625,0 0,0.515625 0.8125,0 0,0.453125 -2.375,2.515625 0,-2.96875 0.796875,0 0,-0.515625 -2.5,0 0,0.515625 0.796875,0 0,4.140625 -0.796875,0 z m 0,0"
               style="stroke:none"
               inkscape:connector-curvature="0" />
          </symbol>
        </g>
      </defs>
      <g
         id="textext-4effdd3c-14">
        <g
           id="g6840"
           style="fill:#000000;fill-opacity:1">
          <use
             id="use6842"
             y="134.765"
             x="377.435"
             xlink:href="#textext-4effdd3c-1"
             width="100%"
             height="100%" />
          <use
             id="use6844"
             y="134.765"
             x="382.01779"
             xlink:href="#textext-4effdd3c-2"
             width="100%"
             height="100%" />
          <use
             id="use6846"
             y="134.765"
             x="388.61404"
             xlink:href="#textext-4effdd3c-3"
             width="100%"
             height="100%" />
          <use
             id="use6848"
             y="134.765"
             x="394.61252"
             xlink:href="#textext-4effdd3c-4"
             width="100%"
             height="100%" />
          <use
             id="use6850"
             y="134.765"
             x="400.98956"
             xlink:href="#textext-4effdd3c-5"
             width="100%"
             height="100%" />
          <use
             id="use6852"
             y="134.765"
             x="407.62964"
             xlink:href="#textext-4effdd3c-6"
             width="100%"
             height="100%" />
        </g>
        <g
           id="g6854"
           style="fill:#000000;fill-opacity:1">
          <use
             id="use6856"
             y="146.72"
             x="370.61499"
             xlink:href="#textext-4effdd3c-7"
             width="100%"
             height="100%" />
          <use
             id="use6858"
             y="146.72"
             x="376.04861"
             xlink:href="#textext-4effdd3c-8"
             width="100%"
             height="100%" />
          <use
             id="use6860"
             y="146.72"
             x="381.94446"
             xlink:href="#textext-4effdd3c-9"
             width="100%"
             height="100%" />
          <use
             id="use6862"
             y="146.72"
             x="388.27371"
             xlink:href="#textext-4effdd3c-10"
             width="100%"
             height="100%" />
          <use
             id="use6864"
             y="146.72"
             x="394.16959"
             xlink:href="#textext-4effdd3c-11"
             width="100%"
             height="100%" />
          <use
             id="use6866"
             y="146.72"
             x="400.80966"
             xlink:href="#textext-4effdd3c-12"
             width="100%"
             height="100%" />
          <use
             id="use6868"
             y="146.72"
             x="408.73889"
             xlink:href="#textext-4effdd3c-13"
             width="100%"
             height="100%" />
          <use
             id="use6870"
             y="146.72"
             x="415.37897"
             xlink:href="#textext-4effdd3c-1"
             width="100%"
             height="100%" />
        </g>
      </g>
    </g>
    <g
       ns0:text="\\begin{center}\n==\n\\end{center}"
       ns0:preamble="/home/bqwer/workbook/textext_preamble.tex"
       transform="matrix(0.87181796,0,0,0.87133111,-221.19992,871.46825)"
       id="g8128">
      <defs
         id="defs8130">
        <g
           id="g8132">
          <symbol
             style="overflow:visible"
             overflow="visible"
             id="textext-fa32ad8c-0">
            <path
               inkscape:connector-curvature="0"
               style="stroke:none"
               d="m 0.5,1.765625 4.984375,0 0,-8.796875 -4.984375,0 z m 0.5625,-0.5625 0,-7.671875 3.859375,0 0,7.671875 z m 0,0"
               id="path8135" />
          </symbol>
          <symbol
             style="overflow:visible"
             overflow="visible"
             id="textext-fa32ad8c-1">
            <path
               inkscape:connector-curvature="0"
               style="stroke:none"
               d="m 1.0625,-4.5 0,0.765625 6.234375,0 0,-0.765625 z m 0,1.984375 0,0.765625 6.234375,0 0,-0.765625 z m 0,0"
               id="path8138" />
          </symbol>
        </g>
      </defs>
      <g
         id="textext-fa32ad8c-2">
        <g
           style="fill:#000000;fill-opacity:1"
           id="g8141">
          <use
             height="100%"
             width="100%"
             xlink:href="#textext-fa32ad8c-1"
             x="386.94"
             y="134.765"
             id="use8143" />
          <use
             height="100%"
             width="100%"
             xlink:href="#textext-fa32ad8c-1"
             x="395.28766"
             y="134.765"
             id="use8145" />
        </g>
      </g>
    </g>
    <g
       id="g9337"
       transform="matrix(0.87181796,0,0,0.87133111,-128.41365,883.20715)"
       ns0:preamble="/home/bqwer/workbook/textext_preamble.tex"
       ns0:text="\\begin{center}\n\xd0\xba \xd1\x83\xd0\xbf\xd1\x80\xd0\xb0\xd0\xb2\xd0\xbb\xd0\xb5\xd0\xbd\xd0\xb8\xd1\x8e\\\\\n\xd0\xb7\xd0\xb5\xd0\xbb\xd1\x91\xd0\xbd\xd1\x8b\xd0\xbc \xd1\x81\xd0\xb8\xd0\xb3\xd0\xbd\xd0\xb0\xd0\xbb\xd0\xbe\xd0\xbc\n\\end{center}">
      <defs
         id="defs9339">
        <g
           id="g9341">
          <symbol
             id="textext-ba337e23-0"
             overflow="visible"
             style="overflow:visible">
            <path
               id="path9344"
               d="m 0.5,1.765625 4.984375,0 0,-8.796875 -4.984375,0 z m 0.5625,-0.5625 0,-7.671875 3.859375,0 0,7.671875 z m 0,0"
               style="stroke:none"
               inkscape:connector-curvature="0" />
          </symbol>
          <symbol
             id="textext-ba337e23-1"
             overflow="visible"
             style="overflow:visible">
            <path
               id="path9347"
               d="m 2.84375,-5.171875 -2.5,0 0,0.515625 0.796875,0 0,4.140625 -0.796875,0 0,0.515625 2.5,0 0,-0.515625 -0.796875,0 0,-1.46875 0.703125,-0.65625 1.546875,2.125 -0.734375,0 0,0.515625 2.546875,0 0,-0.515625 -0.75,0 -1.953125,-2.71875 1.53125,-1.421875 0.890625,0 0,-0.515625 -2.34375,0 0,0.515625 0.75,0 -2.1875,2.015625 0,-2.015625 0.796875,0 z m 0,0"
               style="stroke:none"
               inkscape:connector-curvature="0" />
          </symbol>
          <symbol
             id="textext-ba337e23-2"
             overflow="visible"
             style="overflow:visible">
            <path
               id="path9350"
               d="M 1.421875,2.21875 C 1.78125,2.21875 2.0625,2.140625 2.265625,2 2.46875,1.84375 2.640625,1.5625 2.796875,1.171875 l 2.375,-5.828125 0.578125,0 0,-0.515625 -1.9375,0 0,0.515625 0.765625,0 -1.453125,3.5625 -1.453125,-3.5625 0.828125,0 0,-0.515625 -2.375,0 0,0.515625 0.578125,0 1.9375,4.75 -0.34375,0.859375 C 2.1875,1.25 2.0625,1.453125 1.953125,1.546875 1.84375,1.640625 1.703125,1.6875 1.53125,1.6875 1.109375,1.6875 0.96875,1.484375 0.921875,1.078125 l -0.453125,0 0,0.984375 C 0.75,2.15625 1.078125,2.21875 1.421875,2.21875 Z m 0,0"
               style="stroke:none"
               inkscape:connector-curvature="0" />
          </symbol>
          <symbol
             id="textext-ba337e23-3"
             overflow="visible"
             style="overflow:visible">
            <path
               id="path9353"
               d="m 6.125,-5.171875 -5.78125,0 0,0.515625 0.796875,0 0,4.140625 -0.796875,0 0,0.515625 2.5,0 0,-0.515625 -0.796875,0 0,-4.0625 2.375,0 0,4.0625 -0.8125,0 0,0.515625 2.515625,0 0,-0.515625 -0.8125,0 0,-4.140625 0.8125,0 z m 0,0"
               style="stroke:none"
               inkscape:connector-curvature="0" />
          </symbol>
          <symbol
             id="textext-ba337e23-4"
             overflow="visible"
             style="overflow:visible">
            <path
               id="path9356"
               d="m 3.4375,-0.421875 c -1.015625,0 -1.390625,-0.8125 -1.390625,-1.90625 l 0,-0.515625 c 0,-1.09375 0.375,-1.90625 1.390625,-1.90625 0.453125,0 0.796875,0.1875 1.03125,0.546875 0.25,0.359375 0.359375,0.890625 0.359375,1.609375 0,1.1875 -0.328125,2.171875 -1.390625,2.171875 z m 0.28125,0.5625 c 0.640625,0 1.15625,-0.25 1.5625,-0.765625 0.390625,-0.5 0.59375,-1.15625 0.59375,-1.96875 0,-0.8125 -0.203125,-1.46875 -0.59375,-1.96875 -0.40625,-0.5 -0.921875,-0.75 -1.5625,-0.75 -0.875,0 -1.359375,0.34375 -1.671875,0.953125 l 0,-0.8125 -1.75,0 0,0.515625 0.84375,0 0,6.21875 -0.84375,0 0,0.515625 2.59375,0 0,-0.515625 -0.84375,0 0,-2.375 c 0.3125,0.609375 0.796875,0.953125 1.671875,0.953125 z m 0,0"
               style="stroke:none"
               inkscape:connector-curvature="0" />
          </symbol>
          <symbol
             id="textext-ba337e23-5"
             overflow="visible"
             style="overflow:visible">
            <path
               id="path9359"
               d="M 2.71875,-0.375 C 1.984375,-0.375 1.5,-0.828125 1.5,-1.5625 1.5,-2.375 1.96875,-2.71875 2.8125,-2.71875 l 1.15625,0 0,1.09375 c 0,0.734375 -0.515625,1.25 -1.25,1.25 z m -0.0625,-4.9375 c -0.671875,0 -1.234375,0.171875 -1.765625,0.390625 l 0,1.046875 0.46875,0 c 0.09375,-0.625 0.515625,-0.953125 1.25,-0.953125 0.8125,0 1.359375,0.40625 1.359375,1.234375 l 0,0.359375 -1.25,0 c -1.265625,0 -2.21875,0.5 -2.21875,1.671875 0,1.078125 0.78125,1.703125 1.875,1.703125 0.75,0 1.234375,-0.265625 1.59375,-0.703125 l 0,0.5625 1.6875,0 0,-0.515625 -0.796875,0 0,-2.71875 c 0,-1.375 -0.796875,-2.078125 -2.203125,-2.078125 z m 0,0"
               style="stroke:none"
               inkscape:connector-curvature="0" />
          </symbol>
          <symbol
             id="textext-ba337e23-6"
             overflow="visible"
             style="overflow:visible">
            <path
               id="path9362"
               d="m 5.1875,-1.5 c 0,-0.765625 -0.484375,-1.21875 -1.4375,-1.328125 0.671875,-0.0625 1.171875,-0.375 1.171875,-1.0625 0,-0.859375 -0.578125,-1.28125 -1.703125,-1.28125 l -2.859375,0 0,0.515625 0.8125,0 0,4.140625 -0.8125,0 0,0.515625 2.6875,0 C 4.328125,0 5.1875,-0.328125 5.1875,-1.5 Z M 3.953125,-3.890625 c 0,0.515625 -0.484375,0.765625 -1.0625,0.765625 l -0.828125,0 0,-1.53125 0.828125,0 c 0.5625,0 1.0625,0.25 1.0625,0.765625 z M 4.25,-1.5 c 0,0.640625 -0.5,0.984375 -1.1875,0.984375 l -1,0 0,-1.96875 1,0 C 3.75,-2.484375 4.25,-2.15625 4.25,-1.5 Z m 0,0"
               style="stroke:none"
               inkscape:connector-curvature="0" />
          </symbol>
          <symbol
             id="textext-ba337e23-7"
             overflow="visible"
             style="overflow:visible">
            <path
               id="path9365"
               d="m 1.8125,-3.734375 c 0,0.640625 -0.015625,1.09375 -0.046875,1.34375 -0.078125,0.5 -0.15625,1.28125 -0.3125,1.65625 -0.109375,0.21875 -0.3125,0.28125 -0.609375,0.28125 -0.203125,0 -0.421875,-0.0625 -0.671875,-0.15625 L 0.203125,0 C 0.53125,0.09375 0.65625,0.140625 0.9375,0.140625 c 0.5625,0 0.984375,-0.296875 1.09375,-0.734375 0.078125,-0.265625 0.125,-0.546875 0.203125,-0.890625 0.140625,-0.78125 0.171875,-1.3125 0.171875,-2.25 l 0,-0.84375 1.875,0 0,4.0625 -0.8125,0 0,0.515625 2.5,0 0,-0.515625 -0.796875,0 0,-4.140625 0.796875,0 0,-0.515625 -4.96875,0 0,0.515625 0.8125,0 z m 0,0"
               style="stroke:none"
               inkscape:connector-curvature="0" />
          </symbol>
          <symbol
             id="textext-ba337e23-8"
             overflow="visible"
             style="overflow:visible">
            <path
               id="path9368"
               d="m 5.3125,-1.5625 -0.71875,0 c -0.171875,0.734375 -0.625,1.21875 -1.5,1.21875 -1.140625,0 -1.546875,-0.875 -1.546875,-2.109375 l 0,-0.046875 3.859375,0 C 5.375,-4.203125 4.625,-5.3125 2.953125,-5.3125 c -0.734375,0 -1.328125,0.25 -1.78125,0.75 C 0.734375,-4.0625 0.5,-3.40625 0.5,-2.59375 c 0,0.828125 0.234375,1.484375 0.6875,1.984375 0.453125,0.5 1.0625,0.75 1.828125,0.75 1.3125,0 2.03125,-0.625 2.296875,-1.703125 z m -0.96875,-1.453125 -2.796875,0 c 0.09375,-0.984375 0.4375,-1.8125 1.40625,-1.8125 1,0 1.359375,0.765625 1.390625,1.8125 z m 0,0"
               style="stroke:none"
               inkscape:connector-curvature="0" />
          </symbol>
          <symbol
             id="textext-ba337e23-9"
             overflow="visible"
             style="overflow:visible">
            <path
               id="path9371"
               d="m 5.3125,-4.65625 0.8125,0 0,-0.515625 -2.515625,0 0,0.515625 0.8125,0 0,1.546875 -2.375,0 0,-1.546875 0.796875,0 0,-0.515625 -2.5,0 0,0.515625 0.796875,0 0,4.140625 -0.796875,0 0,0.515625 2.5,0 0,-0.515625 -0.796875,0 0,-2 2.375,0 0,2 -0.8125,0 0,0.515625 2.515625,0 0,-0.515625 -0.8125,0 z m 0,0"
               style="stroke:none"
               inkscape:connector-curvature="0" />
          </symbol>
          <symbol
             id="textext-ba337e23-10"
             overflow="visible"
             style="overflow:visible">
            <path
               id="path9374"
               d="m 0.34375,0 2.5,0 0,-0.515625 -0.796875,0 0,-0.375 2.375,-2.515625 0,2.890625 -0.8125,0 0,0.515625 2.515625,0 0,-0.515625 -0.8125,0 0,-4.140625 0.8125,0 0,-0.515625 -2.515625,0 0,0.515625 0.8125,0 0,0.453125 -2.375,2.515625 0,-2.96875 0.796875,0 0,-0.515625 -2.5,0 0,0.515625 0.796875,0 0,4.140625 -0.796875,0 z m 0,0"
               style="stroke:none"
               inkscape:connector-curvature="0" />
          </symbol>
          <symbol
             id="textext-ba337e23-11"
             overflow="visible"
             style="overflow:visible">
            <path
               id="path9377"
               d="m 2.046875,-2.25 1.1875,0 c 0.0625,0.65625 0.28125,1.203125 0.671875,1.640625 0.453125,0.5 1.0625,0.75 1.8125,0.75 0.765625,0 1.375,-0.25 1.828125,-0.75 C 8,-1.109375 8.21875,-1.765625 8.21875,-2.59375 8.21875,-3.421875 8,-4.0625 7.546875,-4.5625 c -0.453125,-0.5 -1.0625,-0.75 -1.828125,-0.75 -0.75,0 -1.359375,0.25 -1.8125,0.75 -0.40625,0.453125 -0.625,1.03125 -0.671875,1.734375 l -1.1875,0 0,-1.828125 0.796875,0 0,-0.515625 -2.546875,0 0,0.5 0.84375,0 0,4.15625 -0.796875,0 0,0.515625 2.5,0 0,-0.515625 -0.796875,0 z M 5.71875,-4.828125 c 0.484375,0 0.84375,0.1875 1.09375,0.5625 0.25,0.375 0.359375,0.9375 0.359375,1.671875 0,1.234375 -0.328125,2.25 -1.453125,2.25 -0.46875,0 -0.828125,-0.1875 -1.078125,-0.5625 -0.25,-0.375 -0.375,-0.953125 -0.375,-1.6875 0,-1.234375 0.34375,-2.234375 1.453125,-2.234375 z m 0,0"
               style="stroke:none"
               inkscape:connector-curvature="0" />
          </symbol>
          <symbol
             id="textext-ba337e23-12"
             overflow="visible"
             style="overflow:visible">
            <path
               id="path9380"
               d="m 2.671875,-0.34375 c -0.78125,0 -1.3125,-0.296875 -1.515625,-0.90625 l -0.71875,0 c 0.09375,0.375 0.328125,0.71875 0.71875,0.984375 C 1.546875,0 2.046875,0.140625 2.640625,0.140625 c 1.140625,0 2.296875,-0.421875 2.296875,-1.5 0,-0.484375 -0.125,-0.828125 -0.359375,-1 -0.234375,-0.1875 -0.59375,-0.296875 -1.078125,-0.375 0.078125,0 0.28125,-0.09375 0.640625,-0.21875 0.34375,-0.140625 0.515625,-0.484375 0.515625,-1 0,-0.90625 -0.6875,-1.359375 -2.046875,-1.359375 -0.75,0 -1.40625,0.125 -1.96875,0.359375 l 0,0.984375 0.53125,0 c 0.0625,-0.5625 0.515625,-0.828125 1.34375,-0.828125 0.703125,0 1.296875,0.28125 1.296875,0.9375 0,0.265625 -0.140625,0.46875 -0.40625,0.640625 -0.28125,0.171875 -0.6875,0.25 -1.265625,0.25 l -0.234375,0 0,0.5 0.453125,0 c 0.5625,0 0.984375,0.109375 1.265625,0.328125 0.28125,0.203125 0.4375,0.453125 0.4375,0.75 0,0.640625 -0.6875,1.046875 -1.390625,1.046875 z m 0,0"
               style="stroke:none"
               inkscape:connector-curvature="0" />
          </symbol>
          <symbol
             id="textext-ba337e23-13"
             overflow="visible"
             style="overflow:visible">
            <path
               id="path9383"
               d="m 5.3125,-1.5625 -0.71875,0 c -0.171875,0.734375 -0.625,1.21875 -1.5,1.21875 -1.140625,0 -1.546875,-0.875 -1.546875,-2.109375 l 0,-0.046875 3.859375,0 C 5.375,-4.203125 4.625,-5.3125 2.953125,-5.3125 c -0.734375,0 -1.328125,0.25 -1.78125,0.75 C 0.734375,-4.0625 0.5,-3.40625 0.5,-2.59375 c 0,0.828125 0.234375,1.484375 0.6875,1.984375 0.453125,0.5 1.0625,0.75 1.828125,0.75 1.3125,0 2.03125,-0.625 2.296875,-1.703125 z m -0.96875,-1.453125 -2.796875,0 c 0.09375,-0.984375 0.4375,-1.8125 1.40625,-1.8125 1,0 1.359375,0.765625 1.390625,1.8125 z M 1.484375,-7.0625 c 0,0.328125 0.234375,0.5625 0.5625,0.5625 C 2.375,-6.5 2.625,-6.734375 2.625,-7.0625 c 0,-0.3125 -0.265625,-0.578125 -0.578125,-0.578125 -0.296875,0 -0.5625,0.265625 -0.5625,0.578125 z m 1.890625,0 c 0,0.328125 0.25,0.5625 0.578125,0.5625 0.328125,0 0.5625,-0.234375 0.5625,-0.5625 0,-0.3125 -0.265625,-0.578125 -0.5625,-0.578125 -0.3125,0 -0.578125,0.265625 -0.578125,0.578125 z m 0,0"
               style="stroke:none"
               inkscape:connector-curvature="0" />
          </symbol>
          <symbol
             id="textext-ba337e23-14"
             overflow="visible"
             style="overflow:visible">
            <path
               id="path9386"
               d="m 4.21875,-1.5 c 0,0.609375 -0.4375,0.984375 -1.0625,0.984375 l -1.109375,0 0,-1.984375 1.109375,0 c 0.625,0 1.0625,0.375 1.0625,1 z M 3.140625,0 C 4.390625,0 5,-0.5 5,-1.5 5,-2.515625 4.34375,-3.03125 2.984375,-3.03125 l -0.9375,0 0,-1.625 0.796875,0 0,-0.515625 -2.546875,0 0,0.515625 0.84375,0 0,4.140625 -0.84375,0 0,0.515625 z m 3.625,-4.640625 0.8125,0 0,-0.53125 -2.515625,0 0,0.515625 0.8125,0 0,4.140625 -0.8125,0 0,0.515625 2.515625,0 0,-0.515625 -0.8125,0 z m 0,0"
               style="stroke:none"
               inkscape:connector-curvature="0" />
          </symbol>
          <symbol
             id="textext-ba337e23-15"
             overflow="visible"
             style="overflow:visible">
            <path
               id="path9389"
               d="m 0.359375,0 2.21875,0 0,-0.515625 -0.8125,0 0,-4 1.640625,4 0.65625,0 1.625,-4 0,4 -0.796875,0 0,0.515625 2.5,0 0,-0.515625 -0.796875,0 0,-4.140625 0.796875,0 0,-0.515625 -2.015625,0 -1.453125,3.5625 -1.453125,-3.5625 -2.109375,0 0,0.515625 0.8125,0 0,4.140625 -0.8125,0 z m 0,0"
               style="stroke:none"
               inkscape:connector-curvature="0" />
          </symbol>
          <symbol
             id="textext-ba337e23-16"
             overflow="visible"
             style="overflow:visible">
            <path
               id="path9392"
               d="m 5.125,-1.5625 -0.71875,0 c -0.15625,0.75 -0.546875,1.21875 -1.390625,1.21875 -0.5,0 -0.859375,-0.1875 -1.109375,-0.5625 -0.234375,-0.375 -0.359375,-0.9375 -0.359375,-1.6875 0,-0.75 0.125,-1.296875 0.359375,-1.671875 0.25,-0.375 0.609375,-0.5625 1.109375,-0.5625 0.90625,0 1.296875,0.46875 1.421875,1.296875 l 0.515625,0 0,-1.328125 C 4.390625,-5.125 3.765625,-5.3125 3,-5.3125 c -0.75,0 -1.359375,0.234375 -1.8125,0.734375 -0.453125,0.5 -0.6875,1.15625 -0.6875,1.984375 0,0.828125 0.234375,1.484375 0.6875,1.984375 0.453125,0.5 1.0625,0.75 1.8125,0.75 1.21875,0 1.890625,-0.671875 2.125,-1.703125 z m 0,0"
               style="stroke:none"
               inkscape:connector-curvature="0" />
          </symbol>
          <symbol
             id="textext-ba337e23-17"
             overflow="visible"
             style="overflow:visible">
            <path
               id="path9395"
               d="m 4.78125,-5.171875 -4.484375,0 0,0.515625 0.84375,0 0,4.140625 -0.796875,0 0,0.515625 2.390625,0 0,-0.515625 -0.6875,0 0,-4.0625 2.234375,0 0,0.8125 0.5,0 z m 0,0"
               style="stroke:none"
               inkscape:connector-curvature="0" />
          </symbol>
          <symbol
             id="textext-ba337e23-18"
             overflow="visible"
             style="overflow:visible">
            <path
               id="path9398"
               d="m 3,-4.828125 c 0.484375,0 0.84375,0.1875 1.09375,0.5625 0.25,0.375 0.359375,0.9375 0.359375,1.671875 0,1.234375 -0.34375,2.25 -1.453125,2.25 -0.484375,0 -0.84375,-0.1875 -1.09375,-0.5625 -0.234375,-0.375 -0.359375,-0.953125 -0.359375,-1.6875 0,-1.234375 0.34375,-2.234375 1.453125,-2.234375 z M 3,-5.3125 c -0.75,0 -1.359375,0.25 -1.828125,0.75 C 0.71875,-4.0625 0.5,-3.421875 0.5,-2.59375 c 0,0.828125 0.234375,1.484375 0.6875,1.984375 0.453125,0.5 1.0625,0.75 1.8125,0.75 0.765625,0 1.359375,-0.25 1.8125,-0.75 C 5.28125,-1.109375 5.5,-1.765625 5.5,-2.59375 5.5,-3.421875 5.28125,-4.0625 4.8125,-4.5625 4.359375,-5.0625 3.765625,-5.3125 3,-5.3125 Z m 0,0"
               style="stroke:none"
               inkscape:connector-curvature="0" />
          </symbol>
        </g>
      </defs>
      <g
         id="textext-ba337e23-19">
        <g
           id="g9401"
           style="fill:#000000;fill-opacity:1">
          <use
             id="use9403"
             y="134.765"
             x="358.28799"
             xlink:href="#textext-ba337e23-1"
             width="100%"
             height="100%" />
        </g>
        <g
           id="g9405"
           style="fill:#000000;fill-opacity:1">
          <use
             id="use9407"
             y="134.765"
             x="367.68274"
             xlink:href="#textext-ba337e23-2"
             width="100%"
             height="100%" />
          <use
             id="use9409"
             y="134.765"
             x="373.54474"
             xlink:href="#textext-ba337e23-3"
             width="100%"
             height="100%" />
          <use
             id="use9411"
             y="134.765"
             x="380.18478"
             xlink:href="#textext-ba337e23-4"
             width="100%"
             height="100%" />
          <use
             id="use9413"
             y="134.765"
             x="386.56186"
             xlink:href="#textext-ba337e23-5"
             width="100%"
             height="100%" />
          <use
             id="use9415"
             y="134.765"
             x="392.50156"
             xlink:href="#textext-ba337e23-6"
             width="100%"
             height="100%" />
          <use
             id="use9417"
             y="134.765"
             x="398.1105"
             xlink:href="#textext-ba337e23-7"
             width="100%"
             height="100%" />
          <use
             id="use9419"
             y="134.765"
             x="404.43976"
             xlink:href="#textext-ba337e23-8"
             width="100%"
             height="100%" />
          <use
             id="use9421"
             y="134.765"
             x="410.3356"
             xlink:href="#textext-ba337e23-9"
             width="100%"
             height="100%" />
          <use
             id="use9423"
             y="134.765"
             x="416.97568"
             xlink:href="#textext-ba337e23-10"
             width="100%"
             height="100%" />
          <use
             id="use9425"
             y="134.765"
             x="423.61575"
             xlink:href="#textext-ba337e23-11"
             width="100%"
             height="100%" />
        </g>
        <g
           id="g9427"
           style="fill:#000000;fill-opacity:1">
          <use
             id="use9429"
             y="146.72"
             x="345.72"
             xlink:href="#textext-ba337e23-12"
             width="100%"
             height="100%" />
          <use
             id="use9431"
             y="146.72"
             x="351.15359"
             xlink:href="#textext-ba337e23-8"
             width="100%"
             height="100%" />
          <use
             id="use9433"
             y="146.72"
             x="357.04947"
             xlink:href="#textext-ba337e23-7"
             width="100%"
             height="100%" />
          <use
             id="use9435"
             y="146.72"
             x="363.37872"
             xlink:href="#textext-ba337e23-13"
             width="100%"
             height="100%" />
          <use
             id="use9437"
             y="146.72"
             x="369.27457"
             xlink:href="#textext-ba337e23-9"
             width="100%"
             height="100%" />
          <use
             id="use9439"
             y="146.72"
             x="375.91464"
             xlink:href="#textext-ba337e23-14"
             width="100%"
             height="100%" />
          <use
             id="use9441"
             y="146.72"
             x="383.84387"
             xlink:href="#textext-ba337e23-15"
             width="100%"
             height="100%" />
        </g>
        <g
           id="g9443"
           style="fill:#000000;fill-opacity:1">
          <use
             id="use9445"
             y="146.72"
             x="394.76089"
             xlink:href="#textext-ba337e23-16"
             width="100%"
             height="100%" />
          <use
             id="use9447"
             y="146.72"
             x="400.34094"
             xlink:href="#textext-ba337e23-10"
             width="100%"
             height="100%" />
          <use
             id="use9449"
             y="146.72"
             x="406.98102"
             xlink:href="#textext-ba337e23-17"
             width="100%"
             height="100%" />
          <use
             id="use9451"
             y="146.72"
             x="412.20044"
             xlink:href="#textext-ba337e23-9"
             width="100%"
             height="100%" />
          <use
             id="use9453"
             y="146.72"
             x="418.84052"
             xlink:href="#textext-ba337e23-5"
             width="100%"
             height="100%" />
          <use
             id="use9455"
             y="146.72"
             x="424.78021"
             xlink:href="#textext-ba337e23-7"
             width="100%"
             height="100%" />
          <use
             id="use9457"
             y="146.72"
             x="431.10944"
             xlink:href="#textext-ba337e23-18"
             width="100%"
             height="100%" />
          <use
             id="use9459"
             y="146.72"
             x="437.10794"
             xlink:href="#textext-ba337e23-15"
             width="100%"
             height="100%" />
        </g>
      </g>
    </g>
  </g>
</svg>
