<?xml version="1.0" encoding="UTF-8" standalone="no"?>
<!-- Created with Inkscape (http://www.inkscape.org/) -->

<svg
   xmlns:ns0="http://www.iki.fi/pav/software/textext/"
   xmlns:dc="http://purl.org/dc/elements/1.1/"
   xmlns:cc="http://creativecommons.org/ns#"
   xmlns:rdf="http://www.w3.org/1999/02/22-rdf-syntax-ns#"
   xmlns:svg="http://www.w3.org/2000/svg"
   xmlns="http://www.w3.org/2000/svg"
   xmlns:xlink="http://www.w3.org/1999/xlink"
   xmlns:sodipodi="http://sodipodi.sourceforge.net/DTD/sodipodi-0.dtd"
   xmlns:inkscape="http://www.inkscape.org/namespaces/inkscape"
   width="207"
   height="135"
   viewBox="0 0 207.00002 135"
   id="svg8068"
   version="1.1"
   inkscape:version="0.91 r13725"
   sodipodi:docname="counter_2.svg">
  <sodipodi:namedview
     id="base"
     pagecolor="#ffffff"
     bordercolor="#666666"
     borderopacity="1.0"
     inkscape:pageopacity="0.0"
     inkscape:pageshadow="2"
     inkscape:zoom="1.979899"
     inkscape:cx="34.425969"
     inkscape:cy="71.738563"
     inkscape:document-units="px"
     inkscape:current-layer="layer1"
     showgrid="true"
     inkscape:snap-grids="false"
     inkscape:snap-midpoints="true"
     inkscape:snap-smooth-nodes="true"
     inkscape:object-nodes="true"
     inkscape:snap-intersection-paths="true"
     inkscape:object-paths="true"
     units="px"
     inkscape:window-width="1280"
     inkscape:window-height="870"
     inkscape:window-x="0"
     inkscape:window-y="25"
     inkscape:window-maximized="1"
     inkscape:snap-nodes="true">
    <inkscape:grid
       type="xygrid"
       id="grid8076" />
  </sodipodi:namedview>
  <defs
     id="defs8070" />
  <metadata
     id="metadata8073">
    <rdf:RDF>
      <cc:Work
         rdf:about="">
        <dc:format>image/svg+xml</dc:format>
        <dc:type
           rdf:resource="http://purl.org/dc/dcmitype/StillImage" />
        <dc:title></dc:title>
      </cc:Work>
    </rdf:RDF>
  </metadata>
  <g
     inkscape:label="Layer 1"
     inkscape:groupmode="layer"
     id="layer1"
     transform="translate(0,-917.36213)">
    <rect
       style="opacity:1;fill:#000000;fill-opacity:0;stroke:#000000;stroke-width:1.00000012;stroke-miterlimit:4;stroke-dasharray:none;stroke-opacity:1"
       id="rect7489"
       width="44.174675"
       height="77.662933"
       x="63.366188"
       y="940.57971" />
    <path
       style="fill:none;fill-rule:evenodd;stroke:#000000;stroke-width:2;stroke-linecap:butt;stroke-linejoin:miter;stroke-miterlimit:4;stroke-dasharray:none;stroke-opacity:1"
       d="m 107.54085,955.09083 40.20373,0"
       id="path8041"
       inkscape:connector-curvature="0" />
    <path
       style="fill:none;fill-rule:evenodd;stroke:#000000;stroke-width:1.00000012;stroke-linecap:butt;stroke-linejoin:miter;stroke-miterlimit:4;stroke-dasharray:none;stroke-opacity:1"
       d="m 63.243534,1011.3907 7.65938,-7.6593 -7.65938,-7.6594"
       id="path8045"
       inkscape:connector-curvature="0" />
    <circle
       style="opacity:1;fill:#000000;fill-opacity:0;stroke:#000000;stroke-width:1.00000012;stroke-miterlimit:4;stroke-dasharray:none;stroke-opacity:1"
       id="path8123"
       cx="165.19406"
       cy="964.20685"
       r="19.6875" />
    <path
       style="fill:none;fill-rule:evenodd;stroke:#000000;stroke-width:1.00000012;stroke-linecap:butt;stroke-linejoin:miter;stroke-miterlimit:4;stroke-dasharray:none;stroke-opacity:1"
       d="m 165.19406,968.99404 0,-9.5743"
       id="path8669"
       inkscape:connector-curvature="0" />
    <path
       style="fill:none;fill-rule:evenodd;stroke:#000000;stroke-width:1.00000012;stroke-linecap:butt;stroke-linejoin:miter;stroke-miterlimit:4;stroke-dasharray:none;stroke-opacity:1"
       d="m 169.98121,964.20689 -9.5743,0"
       id="path8671"
       inkscape:connector-curvature="0" />
    <circle
       style="opacity:1;fill:#000000;fill-opacity:1;stroke:none;stroke-width:0.5;stroke-miterlimit:4;stroke-dasharray:none;stroke-opacity:1"
       id="path12112-9-2-5"
       cx="125.41505"
       cy="954.91675"
       r="3.1257401" />
    <path
       style="fill:none;fill-rule:evenodd;stroke:#000000;stroke-width:2;stroke-linecap:butt;stroke-linejoin:miter;stroke-miterlimit:4;stroke-dasharray:none;stroke-opacity:1"
       d="m 125.40764,956.55587 0,64.73483 37.75314,0"
       id="path8690"
       inkscape:connector-curvature="0" />
    <path
       style="fill:none;fill-rule:evenodd;stroke:#000000;stroke-width:0.5;stroke-linecap:butt;stroke-linejoin:miter;stroke-miterlimit:4;stroke-dasharray:none;stroke-opacity:1"
       d="m 147.74333,973.32111 -9.58255,0 0,67.96959"
       id="path8696"
       inkscape:connector-curvature="0" />
    <g
       transform="translate(-146.70695,821.75412)"
       ns0:text="reg"
       ns0:preamble="/home/bqwer/workbook git/textext_preamble.tex"
       id="g3366">
      <defs
         id="defs3368">
        <g
           id="g3370">
          <symbol
             style="overflow:visible"
             overflow="visible"
             id="textext-d4342ec6-0">
            <path
               inkscape:connector-curvature="0"
               style="stroke:none"
               d="m 0.5,1.765625 4.984375,0 0,-8.796875 -4.984375,0 z m 0.5625,-0.5625 0,-7.671875 3.859375,0 0,7.671875 z m 0,0"
               id="path3373" />
          </symbol>
          <symbol
             style="overflow:visible"
             overflow="visible"
             id="textext-d4342ec6-1">
            <path
               inkscape:connector-curvature="0"
               style="stroke:none"
               d="m 3.796875,-5.3125 c -0.890625,0 -1.375,0.421875 -1.6875,1.0625 l 0,-0.921875 -1.75,0 0,0.5 0.859375,0 0,4.15625 -0.8125,0 0,0.515625 2.75,0 0,-0.515625 -1.046875,0 0,-2.359375 c 0,-1.03125 0.40625,-1.78125 1.375,-1.78125 0.5,0 0.734375,0.28125 0.765625,0.765625 l 0.515625,0 0,-1.296875 c -0.3125,-0.0625 -0.625,-0.125 -0.96875,-0.125 z m 0,0"
               id="path3376" />
          </symbol>
          <symbol
             style="overflow:visible"
             overflow="visible"
             id="textext-d4342ec6-2">
            <path
               inkscape:connector-curvature="0"
               style="stroke:none"
               d="m 5.3125,-1.5625 -0.71875,0 c -0.171875,0.734375 -0.625,1.21875 -1.5,1.21875 -1.140625,0 -1.546875,-0.875 -1.546875,-2.109375 l 0,-0.046875 3.859375,0 C 5.375,-4.203125 4.625,-5.3125 2.953125,-5.3125 c -0.734375,0 -1.328125,0.25 -1.78125,0.75 C 0.734375,-4.0625 0.5,-3.40625 0.5,-2.59375 c 0,0.828125 0.234375,1.484375 0.6875,1.984375 0.453125,0.5 1.0625,0.75 1.828125,0.75 1.3125,0 2.03125,-0.625 2.296875,-1.703125 z m -0.96875,-1.453125 -2.796875,0 c 0.09375,-0.984375 0.4375,-1.8125 1.40625,-1.8125 1,0 1.359375,0.765625 1.390625,1.8125 z m 0,0"
               id="path3379" />
          </symbol>
          <symbol
             style="overflow:visible"
             overflow="visible"
             id="textext-d4342ec6-3">
            <path
               inkscape:connector-curvature="0"
               style="stroke:none"
               d="m 4.34375,-0.8125 0,0.703125 c 0,1.1875 -0.40625,1.84375 -1.53125,1.84375 C 2,1.734375 1.578125,1.4375 1.46875,0.75 L 1,0.75 1,1.84375 c 0.53125,0.234375 1.140625,0.375 1.875,0.375 1.484375,0 2.359375,-0.828125 2.359375,-2.328125 l 0,-4.546875 0.859375,0 0,-0.515625 -1.75,0 0,0.8125 C 4.015625,-4.96875 3.53125,-5.3125 2.65625,-5.3125 c -0.625,0 -1.15625,0.25 -1.5625,0.75 C 0.703125,-4.0625 0.5,-3.40625 0.5,-2.59375 c 0,0.8125 0.203125,1.46875 0.609375,1.96875 0.40625,0.515625 0.921875,0.765625 1.546875,0.765625 0.875,0 1.359375,-0.34375 1.6875,-0.953125 z M 2.9375,-0.421875 c -1.078125,0 -1.390625,-0.96875 -1.390625,-2.171875 0,-1.1875 0.3125,-2.15625 1.390625,-2.15625 1.015625,0 1.40625,0.8125 1.40625,1.90625 l 0,0.515625 c 0,1.09375 -0.390625,1.90625 -1.40625,1.90625 z m 0,0"
               id="path3382" />
          </symbol>
        </g>
      </defs>
      <g
         id="textext-d4342ec6-4">
        <g
           style="fill:#000000;fill-opacity:1"
           id="g3385">
          <use
             height="100%"
             width="100%"
             xlink:href="#textext-d4342ec6-1"
             x="223.43201"
             y="134.765"
             id="use3387" />
          <use
             height="100%"
             width="100%"
             xlink:href="#textext-d4342ec6-2"
             x="228.19412"
             y="134.765"
             id="use3389" />
          <use
             height="100%"
             width="100%"
             xlink:href="#textext-d4342ec6-3"
             x="234.09"
             y="134.765"
             id="use3391" />
        </g>
      </g>
    </g>
    <g
       id="g3461"
       ns0:preamble="/home/bqwer/workbook git/textext_preamble.tex"
       ns0:text="count"
       transform="translate(-58.62729,889.30224)">
      <defs
         id="defs3463">
        <g
           id="g3465">
          <symbol
             style="overflow:visible"
             id="textext-7b5b9c50-0"
             overflow="visible">
            <path
               inkscape:connector-curvature="0"
               id="path3468"
               d="m 0.5,1.765625 4.984375,0 0,-8.796875 -4.984375,0 z m 0.5625,-0.5625 0,-7.671875 3.859375,0 0,7.671875 z m 0,0"
               style="stroke:none" />
          </symbol>
          <symbol
             style="overflow:visible"
             id="textext-7b5b9c50-1"
             overflow="visible">
            <path
               inkscape:connector-curvature="0"
               id="path3471"
               d="m 5.125,-1.5625 -0.71875,0 c -0.15625,0.75 -0.546875,1.21875 -1.390625,1.21875 -0.5,0 -0.859375,-0.1875 -1.109375,-0.5625 -0.234375,-0.375 -0.359375,-0.9375 -0.359375,-1.6875 0,-0.75 0.125,-1.296875 0.359375,-1.671875 0.25,-0.375 0.609375,-0.5625 1.109375,-0.5625 0.90625,0 1.296875,0.46875 1.421875,1.296875 l 0.515625,0 0,-1.328125 C 4.390625,-5.125 3.765625,-5.3125 3,-5.3125 c -0.75,0 -1.359375,0.234375 -1.8125,0.734375 -0.453125,0.5 -0.6875,1.15625 -0.6875,1.984375 0,0.828125 0.234375,1.484375 0.6875,1.984375 0.453125,0.5 1.0625,0.75 1.8125,0.75 1.21875,0 1.890625,-0.671875 2.125,-1.703125 z m 0,0"
               style="stroke:none" />
          </symbol>
          <symbol
             style="overflow:visible"
             id="textext-7b5b9c50-2"
             overflow="visible">
            <path
               inkscape:connector-curvature="0"
               id="path3474"
               d="m 3,-4.828125 c 0.484375,0 0.84375,0.1875 1.09375,0.5625 0.25,0.375 0.359375,0.9375 0.359375,1.671875 0,1.234375 -0.34375,2.25 -1.453125,2.25 -0.484375,0 -0.84375,-0.1875 -1.09375,-0.5625 -0.234375,-0.375 -0.359375,-0.953125 -0.359375,-1.6875 0,-1.234375 0.34375,-2.234375 1.453125,-2.234375 z M 3,-5.3125 c -0.75,0 -1.359375,0.25 -1.828125,0.75 C 0.71875,-4.0625 0.5,-3.421875 0.5,-2.59375 c 0,0.828125 0.234375,1.484375 0.6875,1.984375 0.453125,0.5 1.0625,0.75 1.8125,0.75 0.765625,0 1.359375,-0.25 1.8125,-0.75 C 5.28125,-1.109375 5.5,-1.765625 5.5,-2.59375 5.5,-3.421875 5.28125,-4.0625 4.8125,-4.5625 4.359375,-5.0625 3.765625,-5.3125 3,-5.3125 Z m 0,0"
               style="stroke:none" />
          </symbol>
          <symbol
             style="overflow:visible"
             id="textext-7b5b9c50-3"
             overflow="visible">
            <path
               inkscape:connector-curvature="0"
               id="path3477"
               d="m 3.03125,-0.515625 c -0.40625,0 -0.671875,-0.125 -0.828125,-0.359375 C 2.046875,-1.09375 1.96875,-1.53125 1.96875,-2.15625 l 0,-3.015625 -1.703125,0 0,0.515625 0.8125,0 0,2.765625 c 0,1.296875 0.4375,2.03125 1.671875,2.03125 0.796875,0 1.28125,-0.46875 1.5625,-1.0625 l 0,0.921875 1.734375,0 0,-0.515625 -0.84375,0 0,-4.65625 -1.671875,0 0,0.515625 0.78125,0 0,2.359375 c 0,1.015625 -0.34375,1.78125 -1.28125,1.78125 z m 0,0"
               style="stroke:none" />
          </symbol>
          <symbol
             style="overflow:visible"
             id="textext-7b5b9c50-4"
             overflow="visible">
            <path
               inkscape:connector-curvature="0"
               id="path3480"
               d="m 3.390625,-4.671875 c 0.390625,0 0.65625,0.125 0.8125,0.359375 0.15625,0.25 0.25,0.671875 0.25,1.296875 l 0,2.5 -0.78125,0 0,0.515625 2.46875,0 0,-0.515625 -0.796875,0 0,-2.78125 c 0,-1.28125 -0.4375,-2.015625 -1.671875,-2.015625 -0.796875,0 -1.28125,0.453125 -1.5625,1.0625 l 0,-0.921875 -1.75,0 0,0.515625 0.859375,0 0,4.140625 -0.8125,0 0,0.515625 2.484375,0 0,-0.515625 -0.78125,0 0,-2.359375 c 0,-1.015625 0.34375,-1.796875 1.28125,-1.796875 z m 0,0"
               style="stroke:none" />
          </symbol>
          <symbol
             style="overflow:visible"
             id="textext-7b5b9c50-5"
             overflow="visible">
            <path
               inkscape:connector-curvature="0"
               id="path3483"
               d="m 2.5,0.140625 c 0.953125,0 1.375,-0.4375 1.421875,-1.359375 l -0.671875,0 c -0.015625,0.546875 -0.15625,0.875 -0.671875,0.875 -0.234375,0 -0.390625,-0.0625 -0.46875,-0.1875 C 2.03125,-0.640625 1.96875,-0.921875 1.96875,-1.359375 l 0,-3.296875 1.6875,0 0,-0.515625 -1.6875,0 0,-1.609375 -0.890625,0 0,1.609375 -0.78125,0 0,0.515625 0.78125,0 0,3.296875 c 0,1.0625 0.359375,1.5 1.421875,1.5 z m 0,0"
               style="stroke:none" />
          </symbol>
        </g>
      </defs>
      <g
         id="textext-7b5b9c50-6">
        <g
           id="g3486"
           style="fill:#000000;fill-opacity:1">
          <use
             height="100%"
             width="100%"
             id="use3488"
             y="134.765"
             x="223.43201"
             xlink:href="#textext-7b5b9c50-1" />
          <use
             height="100%"
             width="100%"
             id="use3490"
             y="134.765"
             x="229.01205"
             xlink:href="#textext-7b5b9c50-2" />
          <use
             height="100%"
             width="100%"
             id="use3492"
             y="134.765"
             x="235.01053"
             xlink:href="#textext-7b5b9c50-3" />
          <use
             height="100%"
             width="100%"
             id="use3494"
             y="134.765"
             x="241.42645"
             xlink:href="#textext-7b5b9c50-4" />
          <use
             height="100%"
             width="100%"
             id="use3496"
             y="134.765"
             x="247.84236"
             xlink:href="#textext-7b5b9c50-5" />
        </g>
      </g>
    </g>
    <g
       transform="translate(-215.77524,848.20249)"
       ns0:text="EN"
       ns0:preamble="/home/bqwer/workbook git/textext_preamble.tex"
       id="g3610">
      <defs
         id="defs3612">
        <g
           id="g3614">
          <symbol
             style="overflow:visible"
             overflow="visible"
             id="textext-888c3c68-0">
            <path
               inkscape:connector-curvature="0"
               style="stroke:none"
               d="m 0.5,1.765625 4.984375,0 0,-8.796875 -4.984375,0 z m 0.5625,-0.5625 0,-7.671875 3.859375,0 0,7.671875 z m 0,0"
               id="path3617" />
          </symbol>
          <symbol
             style="overflow:visible"
             overflow="visible"
             id="textext-888c3c68-1">
            <path
               inkscape:connector-curvature="0"
               style="stroke:none"
               d="m 0.546875,0 5.9375,0 0,-1.609375 -0.609375,0 0,1.015625 -3.40625,0 0,-3.046875 2.375,0 0,0.90625 0.59375,0 0,-2.40625 -0.59375,0 0,0.90625 -2.375,0 0,-2.4375 3.328125,0 0,1.015625 0.609375,0 0,-1.609375 -5.859375,0 0,0.515625 0.921875,0 0,6.234375 -0.921875,0 z m 0,0"
               id="path3620" />
          </symbol>
          <symbol
             style="overflow:visible"
             overflow="visible"
             id="textext-888c3c68-2">
            <path
               inkscape:connector-curvature="0"
               style="stroke:none"
               d="m 0.484375,0 2.5625,0 0,-0.515625 -0.984375,0 0,-5.46875 4.65625,6.125 0.59375,0 0,-6.890625 0.96875,0 0,-0.515625 -2.546875,0 0,0.515625 0.96875,0 0,5.21875 -4.34375,-5.734375 -1.875,0 0,0.515625 0.984375,0 0,6.234375 -0.984375,0 z m 0,0"
               id="path3623" />
          </symbol>
        </g>
      </defs>
      <g
         id="textext-888c3c68-3">
        <g
           style="fill:#000000;fill-opacity:1"
           id="g3626">
          <use
             height="100%"
             width="100%"
             xlink:href="#textext-888c3c68-1"
             x="223.43201"
             y="134.765"
             id="use3628" />
          <use
             height="100%"
             width="100%"
             xlink:href="#textext-888c3c68-2"
             x="230.7047"
             y="134.765"
             id="use3630" />
        </g>
      </g>
    </g>
    <g
       id="g3770"
       ns0:preamble="/home/bqwer/workbook git/textext_preamble.tex"
       ns0:text="CLK"
       transform="translate(-222.01235,872.67566)">
      <defs
         id="defs3772">
        <g
           id="g3774">
          <symbol
             style="overflow:visible"
             id="textext-d619bcbc-0"
             overflow="visible">
            <path
               inkscape:connector-curvature="0"
               id="path3777"
               d="m 0.5,1.765625 4.984375,0 0,-8.796875 -4.984375,0 z m 0.5625,-0.5625 0,-7.671875 3.859375,0 0,7.671875 z m 0,0"
               style="stroke:none" />
          </symbol>
          <symbol
             style="overflow:visible"
             id="textext-d619bcbc-1"
             overflow="visible">
            <path
               inkscape:connector-curvature="0"
               id="path3780"
               d="m 7.03125,-1.921875 -0.90625,0 C 5.84375,-0.984375 5.21875,-0.375 4.03125,-0.375 c -1.734375,0 -2.359375,-1.375 -2.359375,-3.25 0,-1.875 0.625,-3.25 2.359375,-3.25 1.375,0 2.015625,0.609375 2.25,1.78125 l 0.546875,0 0,-1.671875 c -0.515625,-0.21875 -1,-0.375 -1.4375,-0.484375 -0.453125,-0.09375 -0.875,-0.140625 -1.28125,-0.140625 -1.0625,0 -1.921875,0.34375 -2.578125,1.03125 C 0.890625,-5.671875 0.5625,-4.75 0.5625,-3.625 c 0,1.265625 0.40625,2.140625 1.078125,2.8125 0.546875,0.546875 1.34375,0.953125 2.390625,0.953125 1.640625,0 2.59375,-0.78125 3,-2.0625 z m 0,0"
               style="stroke:none" />
          </symbol>
          <symbol
             style="overflow:visible"
             id="textext-d619bcbc-2"
             overflow="visible">
            <path
               inkscape:connector-curvature="0"
               id="path3783"
               d="M 0.546875,0 6.375,0 l 0,-1.8125 -0.59375,0 0,1.21875 -3.3125,0 0,-6.15625 0.921875,0 0,-0.515625 -2.84375,0 0,0.515625 0.921875,0 0,6.234375 -0.921875,0 z m 0,0"
               style="stroke:none" />
          </symbol>
          <symbol
             style="overflow:visible"
             id="textext-d619bcbc-3"
             overflow="visible">
            <path
               inkscape:connector-curvature="0"
               id="path3786"
               d="m 0.546875,0 2.84375,0 0,-0.515625 -0.921875,0 0,-2.9375 L 5.90625,0 l 1.6875,0 0,-0.515625 -0.828125,0 L 3.28125,-4 l 3.125,-2.75 0.8125,0 0,-0.515625 -2.40625,0 0,0.515625 0.78125,0 -3.125,2.75 0,-2.75 0.921875,0 0,-0.515625 -2.84375,0 0,0.515625 0.921875,0 0,6.234375 -0.921875,0 z m 0,0"
               style="stroke:none" />
          </symbol>
        </g>
      </defs>
      <g
         id="textext-d619bcbc-4">
        <g
           id="g3789"
           style="fill:#000000;fill-opacity:1">
          <use
             height="100%"
             width="100%"
             id="use3791"
             y="134.765"
             x="223.43201"
             xlink:href="#textext-d619bcbc-1" />
          <use
             height="100%"
             width="100%"
             id="use3793"
             y="134.765"
             x="231.05438"
             xlink:href="#textext-d619bcbc-2" />
          <use
             height="100%"
             width="100%"
             id="use3795"
             y="134.765"
             x="237.67055"
             xlink:href="#textext-d619bcbc-3" />
        </g>
      </g>
    </g>
    <g
       transform="translate(-142.01376,908.72245)"
       ns0:text="R"
       ns0:preamble="/home/bqwer/workbook git/textext_preamble.tex"
       id="g3967">
      <defs
         id="defs3969">
        <g
           id="g3971">
          <symbol
             style="overflow:visible"
             overflow="visible"
             id="textext-be9c4986-0">
            <path
               inkscape:connector-curvature="0"
               style="stroke:none"
               d="m 0.5,1.765625 4.984375,0 0,-8.796875 -4.984375,0 z m 0.5625,-0.5625 0,-7.671875 3.859375,0 0,7.671875 z m 0,0"
               id="path3974" />
          </symbol>
          <symbol
             style="overflow:visible"
             overflow="visible"
             id="textext-be9c4986-1">
            <path
               inkscape:connector-curvature="0"
               style="stroke:none"
               d="m 6.453125,-5.328125 c 0,-1.296875 -0.875,-1.9375 -2.21875,-1.9375 l -3.6875,0 0,0.515625 0.921875,0 0,6.234375 -0.921875,0 0,0.515625 2.9375,0 0,-0.515625 -1.015625,0 0,-2.859375 1.078125,0 c 0.328125,0 0.5625,0.0625 0.75,0.1875 0.171875,0.140625 0.375,0.421875 0.59375,0.875 L 6.03125,0 7.75,0 l 0,-0.515625 -0.890625,0 -1.0625,-2.15625 c -0.21875,-0.484375 -0.5,-0.796875 -1.015625,-0.9375 1.015625,-0.125 1.671875,-0.625 1.671875,-1.71875 z m -1.125,0 c 0,0.984375 -0.453125,1.4375 -1.4375,1.4375 l -1.421875,0 0,-2.859375 1.421875,0 c 0.984375,0 1.4375,0.453125 1.4375,1.421875 z m 0,0"
               id="path3977" />
          </symbol>
        </g>
      </defs>
      <g
         id="textext-be9c4986-2">
        <g
           style="fill:#000000;fill-opacity:1"
           id="g3980">
          <use
             height="100%"
             width="100%"
             xlink:href="#textext-be9c4986-1"
             x="223.43201"
             y="134.765"
             id="use3982" />
        </g>
      </g>
    </g>
    <path
       style="fill:none;fill-rule:evenodd;stroke:#000000;stroke-width:0.55781603;stroke-linecap:butt;stroke-linejoin:miter;stroke-miterlimit:4;stroke-dasharray:none;stroke-opacity:1"
       d="m 63.285214,979.4111 -38.642347,0"
       id="path8033-0"
       inkscape:connector-curvature="0" />
    <path
       style="fill:none;fill-rule:evenodd;stroke:#000000;stroke-width:0.55781603;stroke-linecap:butt;stroke-linejoin:miter;stroke-miterlimit:4;stroke-dasharray:none;stroke-opacity:1"
       d="m 63.285214,1003.7314 -38.642357,0"
       id="path8033-0-6"
       inkscape:connector-curvature="0" />
    <path
       style="fill:none;fill-rule:evenodd;stroke:#000000;stroke-width:0.49934214;stroke-linecap:butt;stroke-linejoin:miter;stroke-miterlimit:4;stroke-dasharray:none;stroke-opacity:1"
       d="m 85.626914,1034.2968 0,-15.9733"
       id="path3342-3-2"
       inkscape:connector-curvature="0" />
    <g
       id="g8590"
       ns0:preamble="/home/bqwer/workbook git/textext_preamble.tex"
       ns0:text="\\guillemotleft{1}\\guillemotright{}"
       transform="translate(-94.618218,915.90861)">
      <defs
         id="defs8592">
        <g
           id="g8594">
          <symbol
             id="textext-bafc18c6-0"
             overflow="visible"
             style="overflow:visible">
            <path
               id="path8597"
               d="m 0.5,1.765625 4.984375,0 0,-8.796875 -4.984375,0 z m 0.5625,-0.5625 0,-7.671875 3.859375,0 0,7.671875 z m 0,0"
               style="stroke:none"
               inkscape:connector-curvature="0" />
          </symbol>
          <symbol
             id="textext-bafc18c6-1"
             overflow="visible"
             style="overflow:visible">
            <path
               id="path8600"
               d="M 5.15625,-5.15625 2.875,-3.125 l 0,0.40625 2.28125,2.03125 0,-0.5625 -1.4375,-1.671875 1.4375,-1.671875 z m -2.109375,0 -2.28125,2.03125 0,0.40625 2.28125,2.03125 0,-0.5625 -1.4375,-1.671875 1.4375,-1.671875 z m 0,0"
               style="stroke:none"
               inkscape:connector-curvature="0" />
          </symbol>
          <symbol
             id="textext-bafc18c6-2"
             overflow="visible"
             style="overflow:visible">
            <path
               id="path8603"
               d="m 1.421875,0 3.5,0 0,-0.515625 -1.265625,0 0,-6.875 -0.671875,0 L 1.21875,-6.25 l 0,0.640625 1.46875,-0.953125 0,6.046875 -1.265625,0 z m 0,0"
               style="stroke:none"
               inkscape:connector-curvature="0" />
          </symbol>
          <symbol
             id="textext-bafc18c6-3"
             overflow="visible"
             style="overflow:visible">
            <path
               id="path8606"
               d="m 3.046875,-5.15625 0,0.5625 L 4.5,-2.921875 3.046875,-1.25 l 0,0.5625 2.28125,-2.03125 0,-0.40625 z m -2.109375,0 0,0.5625 1.4375,1.671875 -1.4375,1.671875 0,0.5625 2.28125,-2.03125 0,-0.40625 z m 0,0"
               style="stroke:none"
               inkscape:connector-curvature="0" />
          </symbol>
        </g>
      </defs>
      <g
         id="textext-bafc18c6-4">
        <g
           id="g8609"
           style="fill:#000000;fill-opacity:1">
          <use
             id="use8611"
             y="134.765"
             x="223.43201"
             xlink:href="#textext-bafc18c6-1"
             width="100%"
             height="100%" />
          <use
             id="use8613"
             y="134.765"
             x="229.52711"
             xlink:href="#textext-bafc18c6-2"
             width="100%"
             height="100%" />
          <use
             id="use8615"
             y="134.765"
             x="235.86533"
             xlink:href="#textext-bafc18c6-3"
             width="100%"
             height="100%" />
        </g>
      </g>
    </g>
    <path
       style="fill:none;fill-rule:evenodd;stroke:#000000;stroke-width:1px;stroke-linecap:butt;stroke-linejoin:miter;stroke-opacity:1"
       d="m 45.220164,960.64886 6.51786,-11.11608"
       id="path9697"
       inkscape:connector-curvature="0" />
    <path
       style="fill:none;fill-rule:evenodd;stroke:#000000;stroke-width:2.00000024;stroke-linecap:butt;stroke-linejoin:miter;stroke-miterlimit:4;stroke-dasharray:none;stroke-opacity:1"
       d="m 63.366194,955.09083 -38.723317,0 0,-33.80012 178.517893,0 0,42.91614 -18.27921,-10e-6"
       id="path3478"
       inkscape:connector-curvature="0" />
  </g>
</svg>
