<?xml version="1.0" encoding="UTF-8" standalone="no"?>
<!-- Created with Inkscape (http://www.inkscape.org/) -->

<svg
   xmlns:ns0="http://www.iki.fi/pav/software/textext/"
   xmlns:dc="http://purl.org/dc/elements/1.1/"
   xmlns:cc="http://creativecommons.org/ns#"
   xmlns:rdf="http://www.w3.org/1999/02/22-rdf-syntax-ns#"
   xmlns:svg="http://www.w3.org/2000/svg"
   xmlns="http://www.w3.org/2000/svg"
   xmlns:xlink="http://www.w3.org/1999/xlink"
   xmlns:sodipodi="http://sodipodi.sourceforge.net/DTD/sodipodi-0.dtd"
   xmlns:inkscape="http://www.inkscape.org/namespaces/inkscape"
   sodipodi:docname="count_comp_3.svg"
   inkscape:version="0.91 r13725"
   version="1.1"
   id="svg8068"
   viewBox="0 0 265.00003 117"
   height="117"
   width="265">
  <sodipodi:namedview
     inkscape:snap-nodes="true"
     inkscape:window-maximized="1"
     inkscape:window-y="25"
     inkscape:window-x="0"
     inkscape:window-height="870"
     inkscape:window-width="1280"
     units="px"
     inkscape:object-paths="true"
     inkscape:snap-intersection-paths="true"
     inkscape:object-nodes="true"
     inkscape:snap-smooth-nodes="true"
     inkscape:snap-midpoints="true"
     inkscape:snap-grids="false"
     showgrid="true"
     inkscape:current-layer="layer1"
     inkscape:document-units="px"
     inkscape:cy="144.44163"
     inkscape:cx="156.92877"
     inkscape:zoom="1.8101934"
     inkscape:pageshadow="2"
     inkscape:pageopacity="0.0"
     borderopacity="1.0"
     bordercolor="#666666"
     pagecolor="#ffffff"
     id="base">
    <inkscape:grid
       type="xygrid"
       id="grid8076" />
  </sodipodi:namedview>
  <defs
     id="defs8070" />
  <metadata
     id="metadata8073">
    <rdf:RDF>
      <cc:Work
         rdf:about="">
        <dc:format>image/svg+xml</dc:format>
        <dc:type
           rdf:resource="http://purl.org/dc/dcmitype/StillImage" />
        <dc:title></dc:title>
      </cc:Work>
    </rdf:RDF>
  </metadata>
  <g
     inkscape:label="Layer 1"
     inkscape:groupmode="layer"
     id="layer1"
     transform="translate(0,-935.36217)">
    <rect
       style="opacity:1;fill:#000000;fill-opacity:0;stroke:#000000;stroke-width:1.00000012;stroke-miterlimit:4;stroke-dasharray:none;stroke-opacity:1"
       id="rect7489"
       width="44.174675"
       height="77.662933"
       x="41.766407"
       y="965.76862" />
    <path
       style="fill:none;fill-rule:evenodd;stroke:#000000;stroke-width:2;stroke-linecap:butt;stroke-linejoin:miter;stroke-miterlimit:4;stroke-dasharray:none;stroke-opacity:1"
       d="m 85.941086,980.27972 40.203734,0"
       id="path8041"
       inkscape:connector-curvature="0" />
    <path
       style="fill:none;fill-rule:evenodd;stroke:#000000;stroke-width:1.00000012;stroke-linecap:butt;stroke-linejoin:miter;stroke-miterlimit:4;stroke-dasharray:none;stroke-opacity:1"
       d="m 41.643762,1036.5796 7.65938,-7.6593 -7.65938,-7.6594"
       id="path8045"
       inkscape:connector-curvature="0" />
    <circle
       style="opacity:1;fill:#000000;fill-opacity:0;stroke:#000000;stroke-width:1.00000012;stroke-miterlimit:4;stroke-dasharray:none;stroke-opacity:1"
       id="path8123"
       cx="143.59428"
       cy="989.39575"
       r="19.6875" />
    <path
       style="fill:none;fill-rule:evenodd;stroke:#000000;stroke-width:1.00000012;stroke-linecap:butt;stroke-linejoin:miter;stroke-miterlimit:4;stroke-dasharray:none;stroke-opacity:1"
       d="m 143.5943,994.1829 0,-9.57427"
       id="path8669"
       inkscape:connector-curvature="0" />
    <path
       style="fill:none;fill-rule:evenodd;stroke:#000000;stroke-width:1.00000012;stroke-linecap:butt;stroke-linejoin:miter;stroke-miterlimit:4;stroke-dasharray:none;stroke-opacity:1"
       d="m 148.38145,989.39578 -9.5743,0"
       id="path8671"
       inkscape:connector-curvature="0" />
    <circle
       style="opacity:1;fill:#000000;fill-opacity:1;stroke:none;stroke-width:0.5;stroke-miterlimit:4;stroke-dasharray:none;stroke-opacity:1"
       id="path12112-9-2-5"
       cx="103.81526"
       cy="980.10565"
       r="3.1257401" />
    <g
       transform="translate(-179.95312,873.39138)"
       ns0:text="EN"
       ns0:preamble="/home/bqwer/workbook git/textext_preamble.tex"
       id="g3610">
      <defs
         id="defs3612">
        <g
           id="g3614">
          <symbol
             style="overflow:visible"
             overflow="visible"
             id="textext-888c3c68-0">
            <path
               inkscape:connector-curvature="0"
               style="stroke:none"
               d="m 0.5,1.765625 4.984375,0 0,-8.796875 -4.984375,0 z m 0.5625,-0.5625 0,-7.671875 3.859375,0 0,7.671875 z m 0,0"
               id="path3617" />
          </symbol>
          <symbol
             style="overflow:visible"
             overflow="visible"
             id="textext-888c3c68-1">
            <path
               inkscape:connector-curvature="0"
               style="stroke:none"
               d="m 0.546875,0 5.9375,0 0,-1.609375 -0.609375,0 0,1.015625 -3.40625,0 0,-3.046875 2.375,0 0,0.90625 0.59375,0 0,-2.40625 -0.59375,0 0,0.90625 -2.375,0 0,-2.4375 3.328125,0 0,1.015625 0.609375,0 0,-1.609375 -5.859375,0 0,0.515625 0.921875,0 0,6.234375 -0.921875,0 z m 0,0"
               id="path3620" />
          </symbol>
          <symbol
             style="overflow:visible"
             overflow="visible"
             id="textext-888c3c68-2">
            <path
               inkscape:connector-curvature="0"
               style="stroke:none"
               d="m 0.484375,0 2.5625,0 0,-0.515625 -0.984375,0 0,-5.46875 4.65625,6.125 0.59375,0 0,-6.890625 0.96875,0 0,-0.515625 -2.546875,0 0,0.515625 0.96875,0 0,5.21875 -4.34375,-5.734375 -1.875,0 0,0.515625 0.984375,0 0,6.234375 -0.984375,0 z m 0,0"
               id="path3623" />
          </symbol>
        </g>
      </defs>
      <g
         id="textext-888c3c68-3">
        <g
           style="fill:#000000;fill-opacity:1"
           id="g3626">
          <use
             height="100%"
             width="100%"
             xlink:href="#textext-888c3c68-1"
             x="223.43201"
             y="134.765"
             id="use3628" />
          <use
             height="100%"
             width="100%"
             xlink:href="#textext-888c3c68-2"
             x="230.7047"
             y="134.765"
             id="use3630" />
        </g>
      </g>
    </g>
    <path
       style="fill:none;fill-rule:evenodd;stroke:#000000;stroke-width:1.00000012;stroke-linecap:butt;stroke-linejoin:miter;stroke-miterlimit:4;stroke-dasharray:none;stroke-opacity:1"
       d="m 41.685442,1004.6 -19.94004,0"
       id="path8033-0"
       inkscape:connector-curvature="0" />
    <path
       style="fill:none;fill-rule:evenodd;stroke:#000000;stroke-width:1.00000012;stroke-linecap:butt;stroke-linejoin:miter;stroke-miterlimit:4;stroke-dasharray:none;stroke-opacity:1"
       d="m 41.685442,1028.9203 -19.94004,0"
       id="path8033-0-6"
       inkscape:connector-curvature="0" />
    <g
       id="g8590"
       ns0:preamble="/home/bqwer/workbook git/textext_preamble.tex"
       ns0:text="\\guillemotleft{1}\\guillemotright{}"
       transform="translate(-127.54611,867.51156)">
      <defs
         id="defs8592">
        <g
           id="g8594">
          <symbol
             id="textext-bafc18c6-0"
             overflow="visible"
             style="overflow:visible">
            <path
               id="path8597"
               d="m 0.5,1.765625 4.984375,0 0,-8.796875 -4.984375,0 z m 0.5625,-0.5625 0,-7.671875 3.859375,0 0,7.671875 z m 0,0"
               style="stroke:none"
               inkscape:connector-curvature="0" />
          </symbol>
          <symbol
             id="textext-bafc18c6-1"
             overflow="visible"
             style="overflow:visible">
            <path
               id="path8600"
               d="M 5.15625,-5.15625 2.875,-3.125 l 0,0.40625 2.28125,2.03125 0,-0.5625 -1.4375,-1.671875 1.4375,-1.671875 z m -2.109375,0 -2.28125,2.03125 0,0.40625 2.28125,2.03125 0,-0.5625 -1.4375,-1.671875 1.4375,-1.671875 z m 0,0"
               style="stroke:none"
               inkscape:connector-curvature="0" />
          </symbol>
          <symbol
             id="textext-bafc18c6-2"
             overflow="visible"
             style="overflow:visible">
            <path
               id="path8603"
               d="m 1.421875,0 3.5,0 0,-0.515625 -1.265625,0 0,-6.875 -0.671875,0 L 1.21875,-6.25 l 0,0.640625 1.46875,-0.953125 0,6.046875 -1.265625,0 z m 0,0"
               style="stroke:none"
               inkscape:connector-curvature="0" />
          </symbol>
          <symbol
             id="textext-bafc18c6-3"
             overflow="visible"
             style="overflow:visible">
            <path
               id="path8606"
               d="m 3.046875,-5.15625 0,0.5625 L 4.5,-2.921875 3.046875,-1.25 l 0,0.5625 2.28125,-2.03125 0,-0.40625 z m -2.109375,0 0,0.5625 1.4375,1.671875 -1.4375,1.671875 0,0.5625 2.28125,-2.03125 0,-0.40625 z m 0,0"
               style="stroke:none"
               inkscape:connector-curvature="0" />
          </symbol>
        </g>
      </defs>
      <g
         id="textext-bafc18c6-4">
        <g
           id="g8609"
           style="fill:#000000;fill-opacity:1">
          <use
             id="use8611"
             y="134.765"
             x="223.43201"
             xlink:href="#textext-bafc18c6-1"
             width="100%"
             height="100%" />
          <use
             id="use8613"
             y="134.765"
             x="229.52711"
             xlink:href="#textext-bafc18c6-2"
             width="100%"
             height="100%" />
          <use
             id="use8615"
             y="134.765"
             x="235.86533"
             xlink:href="#textext-bafc18c6-3"
             width="100%"
             height="100%" />
        </g>
      </g>
    </g>
    <path
       style="fill:none;fill-rule:evenodd;stroke:#000000;stroke-width:1px;stroke-linecap:butt;stroke-linejoin:miter;stroke-opacity:1"
       d="m 23.620392,985.83775 6.51786,-11.11608"
       id="path9697"
       inkscape:connector-curvature="0" />
    <path
       style="fill:none;fill-rule:evenodd;stroke:#000000;stroke-width:1px;stroke-linecap:butt;stroke-linejoin:miter;stroke-opacity:1"
       d="m 126.14354,998.50996 -9.58255,0"
       id="path4703"
       inkscape:connector-curvature="0" />
    <path
       style="fill:none;fill-rule:evenodd;stroke:#000000;stroke-width:2.00000024;stroke-linecap:butt;stroke-linejoin:miter;stroke-miterlimit:4;stroke-dasharray:none;stroke-opacity:1"
       d="m 41.766412,980.27975 -38.72332,0 0,-33.80012 178.517918,0 0,42.91614 -18.27921,-10e-6"
       id="path3478"
       inkscape:connector-curvature="0" />
    <path
       style="opacity:1;fill:#ffffff;fill-opacity:0;stroke:#000000;stroke-width:1.00000012;stroke-miterlimit:4;stroke-dasharray:none;stroke-opacity:1"
       id="path3376"
       sodipodi:type="arc"
       sodipodi:cx="-181.561"
       sodipodi:cy="-963.29968"
       sodipodi:rx="2.8393238"
       sodipodi:ry="2.8393238"
       sodipodi:start="0"
       sodipodi:end="3.1415927"
       sodipodi:open="true"
       d="m -178.72168,-963.29968 a 2.8393238,2.8393238 0 0 1 -1.41966,2.45892 2.8393238,2.8393238 0 0 1 -2.83933,0 2.8393238,2.8393238 0 0 1 -1.41966,-2.45892"
       transform="scale(-1,-1)" />
    <path
       style="fill:none;fill-rule:evenodd;stroke:#000000;stroke-width:1.00000012;stroke-linecap:butt;stroke-linejoin:miter;stroke-miterlimit:4;stroke-dasharray:none;stroke-opacity:1"
       d="m 103.81525,976.97992 -1e-5,-13.87533 74.90642,-0.31417"
       id="path3400"
       inkscape:connector-curvature="0" />
    <path
       style="fill:none;fill-rule:evenodd;stroke:#000000;stroke-width:1.00000012;stroke-linecap:butt;stroke-linejoin:miter;stroke-miterlimit:4;stroke-dasharray:none;stroke-opacity:1"
       d="m 184.40031,962.79042 15.07021,0.31417"
       id="path3402"
       inkscape:connector-curvature="0" />
    <rect
       style="opacity:1;fill:#ffffff;fill-opacity:0;stroke:#000000;stroke-width:1;stroke-miterlimit:4;stroke-dasharray:none;stroke-opacity:1"
       id="rect3409"
       width="39.222328"
       height="111.59029"
       x="199.47052"
       y="938.87335" />
    <path
       style="fill:none;fill-rule:evenodd;stroke:#000000;stroke-width:1px;stroke-linecap:butt;stroke-linejoin:miter;stroke-opacity:1"
       d="m 238.69281,994.6685 22.54276,0"
       id="path4211"
       inkscape:connector-curvature="0" />
    <path
       style="fill:none;fill-rule:evenodd;stroke:#000000;stroke-width:1.00000012;stroke-linecap:butt;stroke-linejoin:miter;stroke-miterlimit:4;stroke-dasharray:none;stroke-opacity:1"
       d="m 199.47052,1033.8734 c -35.55558,0 -40.00003,0 -40.00003,0"
       id="path4213"
       inkscape:connector-curvature="0" />
  </g>
</svg>
