<?xml version="1.0" encoding="UTF-8" standalone="no"?>
<!-- Created with Inkscape (http://www.inkscape.org/) -->

<svg
   xmlns:ns0="http://www.iki.fi/pav/software/textext/"
   xmlns:osb="http://www.openswatchbook.org/uri/2009/osb"
   xmlns:dc="http://purl.org/dc/elements/1.1/"
   xmlns:cc="http://creativecommons.org/ns#"
   xmlns:rdf="http://www.w3.org/1999/02/22-rdf-syntax-ns#"
   xmlns:svg="http://www.w3.org/2000/svg"
   xmlns="http://www.w3.org/2000/svg"
   xmlns:xlink="http://www.w3.org/1999/xlink"
   xmlns:sodipodi="http://sodipodi.sourceforge.net/DTD/sodipodi-0.dtd"
   xmlns:inkscape="http://www.inkscape.org/namespaces/inkscape"
   width="228"
   height="118"
   viewBox="0 0 228.00001 118"
   id="svg3336"
   version="1.1"
   inkscape:version="0.91 r13725"
   sodipodi:docname="D_latch.svg">
  <sodipodi:namedview
     id="base"
     pagecolor="#ffffff"
     bordercolor="#666666"
     borderopacity="1.0"
     inkscape:pageopacity="0.0"
     inkscape:pageshadow="2"
     inkscape:zoom="3.6203868"
     inkscape:cx="164.82945"
     inkscape:cy="55.350249"
     inkscape:document-units="px"
     inkscape:current-layer="layer1"
     showgrid="true"
     showguides="false"
     gridtolerance="10000"
     objecttolerance="20"
     inkscape:snap-page="true"
     inkscape:object-nodes="false"
     inkscape:snap-intersection-paths="false"
     inkscape:object-paths="false"
     inkscape:snap-smooth-nodes="false"
     inkscape:snap-midpoints="false"
     inkscape:snap-grids="false"
     inkscape:window-width="1920"
     inkscape:window-height="901"
     inkscape:window-x="0"
     inkscape:window-y="25"
     inkscape:window-maximized="1"
     inkscape:snap-nodes="false"
     units="px">
    <inkscape:grid
       type="xygrid"
       id="grid3810"
       snapvisiblegridlinesonly="true"
       dotted="false"
       empspacing="5" />
  </sodipodi:namedview>
  <defs
     id="defs3338">
    <linearGradient
       id="linearGradient4622"
       osb:paint="solid">
      <stop
         style="stop-color:#aa0000;stop-opacity:0;"
         offset="0"
         id="stop4624" />
    </linearGradient>
    <linearGradient
       inkscape:collect="always"
       xlink:href="#linearGradient4622"
       id="linearGradient4626"
       x1="300"
       y1="482.04974"
       x2="339.375"
       y2="482.04974"
       gradientUnits="userSpaceOnUse"
       gradientTransform="matrix(0.13688155,0,0,0.1463065,135.09657,892.28171)" />
    <linearGradient
       inkscape:collect="always"
       xlink:href="#linearGradient4622"
       id="linearGradient4626-6"
       x1="300"
       y1="482.04974"
       x2="339.375"
       y2="482.04974"
       gradientUnits="userSpaceOnUse"
       gradientTransform="matrix(0.13688155,0,0,0.1463065,135.1708,953.81125)" />
    <linearGradient
       inkscape:collect="always"
       xlink:href="#linearGradient4622"
       id="linearGradient4626-1"
       x1="300"
       y1="482.04974"
       x2="339.375"
       y2="482.04974"
       gradientUnits="userSpaceOnUse"
       gradientTransform="matrix(0.13688155,0,0,0.1463065,41.309186,884.5791)" />
    <linearGradient
       inkscape:collect="always"
       xlink:href="#linearGradient4622"
       id="linearGradient4626-1-9"
       x1="300"
       y1="482.04974"
       x2="339.375"
       y2="482.04974"
       gradientUnits="userSpaceOnUse"
       gradientTransform="matrix(0.13688155,0,0,0.1463065,41.309205,962.74433)" />
  </defs>
  <metadata
     id="metadata3341">
    <rdf:RDF>
      <cc:Work
         rdf:about="">
        <dc:format>image/svg+xml</dc:format>
        <dc:type
           rdf:resource="http://purl.org/dc/dcmitype/StillImage" />
        <dc:title></dc:title>
      </cc:Work>
    </rdf:RDF>
  </metadata>
  <g
     inkscape:label="Layer 1"
     inkscape:groupmode="layer"
     id="layer1"
     transform="translate(0,-934.3622)">
    <path
       style="fill:none;fill-rule:evenodd;stroke:#000000;stroke-width:0.95003402;stroke-linecap:butt;stroke-linejoin:miter;stroke-miterlimit:4;stroke-dasharray:none;stroke-opacity:1"
       d="m 149.44131,947.96443 0,31.173 13.35986,0 c 0,0 13.35985,0 13.35985,-16.32871 0,-14.84429 -13.95362,-14.84429 -13.95362,-14.84429 l -13.35986,0"
       id="path4174"
       inkscape:connector-curvature="0"
       sodipodi:nodetypes="cccccc" />
    <ellipse
       style="opacity:1;fill:url(#linearGradient4626);fill-opacity:1;stroke:#000000;stroke-width:0.95003402;stroke-miterlimit:4;stroke-dasharray:none;stroke-opacity:1"
       id="path3812"
       cx="178.85588"
       cy="962.80872"
       rx="2.6948555"
       ry="2.880409" />
    <path
       style="fill:none;fill-rule:evenodd;stroke:#000000;stroke-width:0.95003402;stroke-linecap:butt;stroke-linejoin:miter;stroke-miterlimit:4;stroke-dasharray:none;stroke-opacity:1"
       d="m 149.51554,1009.494 0,31.173 13.35985,0 c 0,0 13.35986,0 13.35986,-16.3287 0,-14.8443 -13.95363,-14.8443 -13.95363,-14.8443 l -13.35985,0"
       id="path4174-5"
       inkscape:connector-curvature="0"
       sodipodi:nodetypes="cccccc" />
    <ellipse
       style="opacity:1;fill:url(#linearGradient4626-6);fill-opacity:1;stroke:#000000;stroke-width:0.95003402;stroke-miterlimit:4;stroke-dasharray:none;stroke-opacity:1"
       id="path3812-3"
       cx="178.93011"
       cy="1024.3384"
       rx="2.6948555"
       ry="2.880409" />
    <circle
       style="opacity:1;fill:#000000;fill-opacity:1;stroke:none;stroke-width:0.625;stroke-miterlimit:4;stroke-dasharray:none;stroke-opacity:1"
       id="path12112-9-2"
       cx="201.84549"
       cy="1024.3384"
       r="1.39184" />
    <path
       style="fill:none;fill-rule:evenodd;stroke:#000000;stroke-width:0.47501701;stroke-linecap:butt;stroke-linejoin:miter;stroke-miterlimit:4;stroke-dasharray:none;stroke-opacity:1"
       d="m 181.62496,1024.3383 43.22474,0"
       id="path11296-3"
       inkscape:connector-curvature="0"
       sodipodi:nodetypes="cc" />
    <circle
       style="opacity:1;fill:#000000;fill-opacity:1;stroke:none;stroke-width:0.625;stroke-miterlimit:4;stroke-dasharray:none;stroke-opacity:1"
       id="path12112-9-2-5"
       cx="201.77127"
       cy="962.80872"
       r="1.39184" />
    <path
       style="fill:none;fill-rule:evenodd;stroke:#000000;stroke-width:0.47501701;stroke-linecap:butt;stroke-linejoin:miter;stroke-miterlimit:4;stroke-dasharray:none;stroke-opacity:1"
       d="m 181.55074,962.80872 43.22474,0"
       id="path11296-3-6"
       inkscape:connector-curvature="0"
       sodipodi:nodetypes="cc" />
    <path
       style="fill:none;fill-rule:evenodd;stroke:#000000;stroke-width:0.47501701;stroke-linecap:butt;stroke-linejoin:miter;stroke-miterlimit:4;stroke-dasharray:none;stroke-opacity:1"
       d="m 149.51554,971.49261 -33.25119,0 0,9.50034 85.50306,28.50105 0,14.2505"
       id="path6362"
       inkscape:connector-curvature="0" />
    <path
       style="fill:none;fill-rule:evenodd;stroke:#000000;stroke-width:0.47501701;stroke-linecap:butt;stroke-linejoin:miter;stroke-miterlimit:4;stroke-dasharray:none;stroke-opacity:1"
       d="m 149.5194,1016.4524 -33.25119,0 0,-9.5003 85.50306,-28.50104 0,-14.25051"
       id="path6362-9"
       inkscape:connector-curvature="0" />
    <path
       style="fill:none;fill-rule:evenodd;stroke:#000000;stroke-width:0.47501701;stroke-linecap:butt;stroke-linejoin:miter;stroke-miterlimit:4;stroke-dasharray:none;stroke-opacity:1"
       d="m 149.44131,955.10612 -61.677975,0"
       id="path6525"
       inkscape:connector-curvature="0" />
    <path
       style="fill:none;fill-rule:evenodd;stroke:#000000;stroke-width:0.47501701;stroke-linecap:butt;stroke-linejoin:miter;stroke-miterlimit:4;stroke-dasharray:none;stroke-opacity:1"
       d="m 149.65066,1033.2714 -61.887325,0"
       id="path6531"
       inkscape:connector-curvature="0" />
    <ellipse
       style="opacity:1;fill:url(#linearGradient4626-1);fill-opacity:1;stroke:#000000;stroke-width:0.95003402;stroke-miterlimit:4;stroke-dasharray:none;stroke-opacity:1"
       id="path3812-0"
       cx="85.068466"
       cy="955.10614"
       rx="2.6948555"
       ry="2.880409" />
    <ellipse
       style="opacity:1;fill:url(#linearGradient4626-1-9);fill-opacity:1;stroke:#000000;stroke-width:0.95003402;stroke-miterlimit:4;stroke-dasharray:none;stroke-opacity:1"
       id="path3812-0-0"
       cx="85.068466"
       cy="1033.2714"
       rx="2.6948555"
       ry="2.880409" />
    <circle
       style="opacity:1;fill:#000000;fill-opacity:1;stroke:none;stroke-width:0.625;stroke-miterlimit:4;stroke-dasharray:none;stroke-opacity:1"
       id="path12112-9-2-5-6"
       cx="106.73418"
       cy="955.10614"
       r="1.39184" />
    <path
       style="fill:none;fill-rule:evenodd;stroke:#000000;stroke-width:0.95003402;stroke-linecap:butt;stroke-linejoin:miter;stroke-miterlimit:4;stroke-dasharray:none;stroke-opacity:1"
       d="m 55.653915,1018.4271 0,31.173 13.35985,0 c 0,0 13.35985,0 13.35985,-16.3287 0,-14.8443 -13.95362,-14.8443 -13.95362,-14.8443 l -13.35985,0"
       id="path4174-5-2"
       inkscape:connector-curvature="0"
       sodipodi:nodetypes="cccccc" />
    <path
       style="fill:none;fill-rule:evenodd;stroke:#000000;stroke-width:0.44484434;stroke-linecap:butt;stroke-linejoin:miter;stroke-miterlimit:4;stroke-dasharray:none;stroke-opacity:1"
       d="m 55.789035,1042.2044 -54.2749638,0"
       id="path6531-1"
       inkscape:connector-curvature="0" />
    <path
       style="fill:none;fill-rule:evenodd;stroke:#000000;stroke-width:0.95003402;stroke-linecap:butt;stroke-linejoin:miter;stroke-miterlimit:4;stroke-dasharray:none;stroke-opacity:1"
       d="m 55.653915,940.26184 0,31.17299 13.35985,0 c 0,0 13.35985,0 13.35985,-16.32871 0,-14.84428 -13.95362,-14.84428 -13.95362,-14.84428 l -13.35985,0"
       id="path4174-5-2-8"
       inkscape:connector-curvature="0"
       sodipodi:nodetypes="cccccc" />
    <path
       style="fill:none;fill-rule:evenodd;stroke:#000000;stroke-width:0.44484434;stroke-linecap:butt;stroke-linejoin:miter;stroke-miterlimit:4;stroke-dasharray:none;stroke-opacity:1"
       d="m 55.670525,947.2203 -53.5747548,0"
       id="path6782-9"
       inkscape:connector-curvature="0" />
    <path
       style="fill:none;fill-rule:evenodd;stroke:#000000;stroke-width:0.47501701;stroke-linecap:butt;stroke-linejoin:miter;stroke-miterlimit:4;stroke-dasharray:none;stroke-opacity:1"
       d="m 106.73419,956.49796 0,48.24584 -75.9729,0 0,20.6417 24.892625,0"
       id="path6836"
       inkscape:connector-curvature="0" />
    <path
       style="fill:none;fill-rule:evenodd;stroke:#000000;stroke-width:0.44484434;stroke-linecap:butt;stroke-linejoin:miter;stroke-miterlimit:4;stroke-dasharray:none;stroke-opacity:1"
       d="m 21.26095,1040.8126 0,-76.77338 34.528085,0"
       id="path6872"
       inkscape:connector-curvature="0" />
    <circle
       style="opacity:1;fill:#000000;fill-opacity:1;stroke:none;stroke-width:0.625;stroke-miterlimit:4;stroke-dasharray:none;stroke-opacity:1"
       id="path12112-9-2-5-6-8"
       cx="21.260952"
       cy="1042.2045"
       r="1.39184" />
    <g
       transform="translate(-220.96106,809.99637)"
       ns0:text="D"
       ns0:preamble="/home/bqwer/workbook git/textext_preamble.tex"
       id="g3397">
      <defs
         id="defs3399">
        <g
           id="g3401">
          <symbol
             style="overflow:visible"
             overflow="visible"
             id="textext-c3690971-0">
            <path
               inkscape:connector-curvature="0"
               style="stroke:none"
               d="m 0.5,1.765625 4.984375,0 0,-8.796875 -4.984375,0 z m 0.5625,-0.5625 0,-7.671875 3.859375,0 0,7.671875 z m 0,0"
               id="path3404" />
          </symbol>
          <symbol
             style="overflow:visible"
             overflow="visible"
             id="textext-c3690971-1">
            <path
               inkscape:connector-curvature="0"
               style="stroke:none"
               d="m 6.296875,-3.640625 c 0,1.96875 -1,3.125 -2.921875,3.125 l -0.90625,0 0,-6.234375 0.90625,0 c 1.921875,0 2.921875,1.140625 2.921875,3.109375 z m 1.125,0 c 0,-2.34375 -1.578125,-3.625 -3.984375,-3.625 l -2.890625,0 0,0.515625 0.921875,0 0,6.234375 -0.921875,0 0,0.515625 2.890625,0 c 2.40625,0 3.984375,-1.28125 3.984375,-3.640625 z m 0,0"
               id="path3407" />
          </symbol>
        </g>
      </defs>
      <g
         id="textext-c3690971-2">
        <g
           style="fill:#000000;fill-opacity:1"
           id="g3410">
          <use
             height="100%"
             width="100%"
             xlink:href="#textext-c3690971-1"
             x="223.43201"
             y="134.765"
             id="use3412" />
        </g>
      </g>
    </g>
    <g
       id="g3774"
       ns0:preamble="/home/bqwer/workbook git/textext_preamble.tex"
       ns0:text="EN"
       transform="translate(-221.26252,904.72499)">
      <defs
         id="defs3776">
        <g
           id="g3778">
          <symbol
             style="overflow:visible"
             id="textext-888c3c68-0"
             overflow="visible">
            <path
               inkscape:connector-curvature="0"
               id="path3781"
               d="m 0.5,1.765625 4.984375,0 0,-8.796875 -4.984375,0 z m 0.5625,-0.5625 0,-7.671875 3.859375,0 0,7.671875 z m 0,0"
               style="stroke:none" />
          </symbol>
          <symbol
             style="overflow:visible"
             id="textext-888c3c68-1"
             overflow="visible">
            <path
               inkscape:connector-curvature="0"
               id="path3784"
               d="m 0.546875,0 5.9375,0 0,-1.609375 -0.609375,0 0,1.015625 -3.40625,0 0,-3.046875 2.375,0 0,0.90625 0.59375,0 0,-2.40625 -0.59375,0 0,0.90625 -2.375,0 0,-2.4375 3.328125,0 0,1.015625 0.609375,0 0,-1.609375 -5.859375,0 0,0.515625 0.921875,0 0,6.234375 -0.921875,0 z m 0,0"
               style="stroke:none" />
          </symbol>
          <symbol
             style="overflow:visible"
             id="textext-888c3c68-2"
             overflow="visible">
            <path
               inkscape:connector-curvature="0"
               id="path3787"
               d="m 0.484375,0 2.5625,0 0,-0.515625 -0.984375,0 0,-5.46875 4.65625,6.125 0.59375,0 0,-6.890625 0.96875,0 0,-0.515625 -2.546875,0 0,0.515625 0.96875,0 0,5.21875 -4.34375,-5.734375 -1.875,0 0,0.515625 0.984375,0 0,6.234375 -0.984375,0 z m 0,0"
               style="stroke:none" />
          </symbol>
        </g>
      </defs>
      <g
         id="textext-888c3c68-3">
        <g
           id="g3790"
           style="fill:#000000;fill-opacity:1">
          <use
             height="100%"
             width="100%"
             id="use3792"
             y="134.765"
             x="223.43201"
             xlink:href="#textext-888c3c68-1" />
          <use
             height="100%"
             width="100%"
             id="use3794"
             y="134.765"
             x="230.7047"
             xlink:href="#textext-888c3c68-2" />
        </g>
      </g>
    </g>
    <g
       transform="translate(-6.9590677,886.18562)"
       ns0:text="$\\overline{\\mbox{Q}}$"
       ns0:preamble="/home/bqwer/workbook git/textext_preamble.tex"
       id="g3967">
      <defs
         id="defs3969">
        <g
           id="g3971">
          <symbol
             overflow="visible"
             id="textext-a5874d38-0"
             style="overflow:visible">
            <path
               style="stroke:none"
               d="m 0.5,1.765625 4.984375,0 0,-8.796875 -4.984375,0 z m 0.5625,-0.5625 0,-7.671875 3.859375,0 0,7.671875 z m 0,0"
               id="path3974"
               inkscape:connector-curvature="0" />
          </symbol>
          <symbol
             overflow="visible"
             id="textext-a5874d38-1"
             style="overflow:visible">
            <path
               style="stroke:none"
               d="m 6.5625,1.59375 0,-0.890625 -0.140625,0 C 5.6875,0.703125 5.21875,0.484375 4.875,0.0625 5.734375,-0.125 6.40625,-0.546875 6.890625,-1.203125 7.375,-1.859375 7.609375,-2.671875 7.609375,-3.625 c 0,-1.140625 -0.3125,-2.046875 -0.953125,-2.734375 -0.65625,-0.6875 -1.515625,-1.03125 -2.5625,-1.03125 -1.109375,0 -1.875,0.375 -2.453125,0.953125 C 0.96875,-5.765625 0.5625,-4.90625 0.5625,-3.625 c 0,1.140625 0.328125,2.046875 0.984375,2.734375 0.65625,0.6875 1.546875,1.03125 2.65625,1.03125 0.46875,0.84375 1.1875,1.390625 2.359375,1.453125 z M 1.671875,-3.625 c 0,-1.90625 0.640625,-3.25 2.421875,-3.25 1.765625,0 2.40625,1.34375 2.40625,3.25 0,1.90625 -0.640625,3.25 -2.40625,3.25 -1.78125,0 -2.421875,-1.34375 -2.421875,-3.25 z m 0,0"
               id="path3977"
               inkscape:connector-curvature="0" />
          </symbol>
        </g>
      </defs>
      <g
         id="textext-a5874d38-2">
        <path
           style="fill:none;stroke:#000000;stroke-width:0.398;stroke-linecap:butt;stroke-linejoin:miter;stroke-miterlimit:10;stroke-opacity:1"
           d="m 0.00159375,0.00184375 8.16406225,0"
           transform="matrix(1,0,0,-1,223.432,126.037)"
           id="path3980"
           inkscape:connector-curvature="0" />
        <g
           style="fill:#000000;fill-opacity:1"
           id="g3982">
          <use
             xlink:href="#textext-a5874d38-1"
             x="223.43201"
             y="134.765"
             id="use3984"
             width="100%"
             height="100%" />
        </g>
      </g>
    </g>
    <g
       id="g4169"
       ns0:preamble="/home/bqwer/workbook git/textext_preamble.tex"
       ns0:text="Q"
       transform="translate(-6.9613871,824.51142)">
      <defs
         id="defs4171">
        <g
           id="g4173">
          <symbol
             style="overflow:visible"
             id="textext-b562eaa2-0"
             overflow="visible">
            <path
               inkscape:connector-curvature="0"
               id="path4176"
               d="m 0.5,1.765625 4.984375,0 0,-8.796875 -4.984375,0 z m 0.5625,-0.5625 0,-7.671875 3.859375,0 0,7.671875 z m 0,0"
               style="stroke:none" />
          </symbol>
          <symbol
             style="overflow:visible"
             id="textext-b562eaa2-1"
             overflow="visible">
            <path
               inkscape:connector-curvature="0"
               id="path4179"
               d="m 6.5625,1.59375 0,-0.890625 -0.140625,0 C 5.6875,0.703125 5.21875,0.484375 4.875,0.0625 5.734375,-0.125 6.40625,-0.546875 6.890625,-1.203125 7.375,-1.859375 7.609375,-2.671875 7.609375,-3.625 c 0,-1.140625 -0.3125,-2.046875 -0.953125,-2.734375 -0.65625,-0.6875 -1.515625,-1.03125 -2.5625,-1.03125 -1.109375,0 -1.875,0.375 -2.453125,0.953125 C 0.96875,-5.765625 0.5625,-4.90625 0.5625,-3.625 c 0,1.140625 0.328125,2.046875 0.984375,2.734375 0.65625,0.6875 1.546875,1.03125 2.65625,1.03125 0.46875,0.84375 1.1875,1.390625 2.359375,1.453125 z M 1.671875,-3.625 c 0,-1.90625 0.640625,-3.25 2.421875,-3.25 1.765625,0 2.40625,1.34375 2.40625,3.25 0,1.90625 -0.640625,3.25 -2.40625,3.25 -1.78125,0 -2.421875,-1.34375 -2.421875,-3.25 z m 0,0"
               style="stroke:none" />
          </symbol>
        </g>
      </defs>
      <g
         id="textext-b562eaa2-2">
        <g
           id="g4182"
           style="fill:#000000;fill-opacity:1">
          <use
             height="100%"
             width="100%"
             id="use4184"
             y="134.765"
             x="223.43201"
             xlink:href="#textext-b562eaa2-1" />
        </g>
      </g>
    </g>
  </g>
</svg>
