<?xml version="1.0" encoding="UTF-8" standalone="no"?>
<!-- Created with Inkscape (http://www.inkscape.org/) -->

<svg
   xmlns:ns0="http://www.iki.fi/pav/software/textext/"
   xmlns:dc="http://purl.org/dc/elements/1.1/"
   xmlns:cc="http://creativecommons.org/ns#"
   xmlns:rdf="http://www.w3.org/1999/02/22-rdf-syntax-ns#"
   xmlns:svg="http://www.w3.org/2000/svg"
   xmlns="http://www.w3.org/2000/svg"
   xmlns:xlink="http://www.w3.org/1999/xlink"
   xmlns:sodipodi="http://sodipodi.sourceforge.net/DTD/sodipodi-0.dtd"
   xmlns:inkscape="http://www.inkscape.org/namespaces/inkscape"
   width="140"
   height="117"
   viewBox="0 0 140.00001 117"
   id="svg7479"
   version="1.1"
   inkscape:version="0.91 r13725"
   sodipodi:docname="dff.svg">
  <sodipodi:namedview
     id="base"
     pagecolor="#ffffff"
     bordercolor="#666666"
     borderopacity="1.0"
     inkscape:pageopacity="0.0"
     inkscape:pageshadow="2"
     inkscape:zoom="3.959798"
     inkscape:cx="41.8556"
     inkscape:cy="51.549187"
     inkscape:document-units="px"
     inkscape:current-layer="layer1"
     showgrid="true"
     inkscape:object-paths="true"
     inkscape:snap-intersection-paths="true"
     inkscape:object-nodes="true"
     inkscape:snap-smooth-nodes="true"
     inkscape:snap-midpoints="true"
     inkscape:snap-grids="false"
     inkscape:window-width="1920"
     inkscape:window-height="901"
     inkscape:window-x="0"
     inkscape:window-y="25"
     inkscape:window-maximized="1"
     units="px">
    <inkscape:grid
       type="xygrid"
       id="grid7487" />
  </sodipodi:namedview>
  <defs
     id="defs7481" />
  <metadata
     id="metadata7484">
    <rdf:RDF>
      <cc:Work
         rdf:about="">
        <dc:format>image/svg+xml</dc:format>
        <dc:type
           rdf:resource="http://purl.org/dc/dcmitype/StillImage" />
        <dc:title />
      </cc:Work>
    </rdf:RDF>
  </metadata>
  <g
     inkscape:label="Layer 1"
     inkscape:groupmode="layer"
     id="layer1"
     transform="translate(0,-935.36221)">
    <rect
       style="opacity:1;fill:#000000;fill-opacity:0;stroke:#000000;stroke-width:1.00000012;stroke-miterlimit:4;stroke-dasharray:none;stroke-opacity:1"
       id="rect7489"
       width="39.543999"
       height="69.521805"
       x="56.299686"
       y="959.46118" />
    <path
       style="fill:none;fill-rule:evenodd;stroke:#000000;stroke-width:0.50000006;stroke-linecap:butt;stroke-linejoin:miter;stroke-miterlimit:4;stroke-dasharray:none;stroke-opacity:1"
       d="m 56.299683,994.22205 -34.637173,0"
       id="path8031"
       inkscape:connector-curvature="0" />
    <path
       style="fill:none;fill-rule:evenodd;stroke:#000000;stroke-width:0.50000006;stroke-linecap:butt;stroke-linejoin:miter;stroke-miterlimit:4;stroke-dasharray:none;stroke-opacity:1"
       d="m 56.299683,972.45119 -34.637173,0"
       id="path8033"
       inkscape:connector-curvature="0" />
    <path
       style="fill:none;fill-rule:evenodd;stroke:#000000;stroke-width:0.50000006;stroke-linecap:butt;stroke-linejoin:miter;stroke-miterlimit:4;stroke-dasharray:none;stroke-opacity:1"
       d="m 56.299683,1015.993 -34.637173,0"
       id="path8035"
       inkscape:connector-curvature="0" />
    <path
       style="fill:none;fill-rule:evenodd;stroke:#000000;stroke-width:0.50000006;stroke-linecap:butt;stroke-linejoin:miter;stroke-miterlimit:4;stroke-dasharray:none;stroke-opacity:1"
       d="m 56.189879,1022.8494 6.856474,-6.8564 -6.856474,-6.8565"
       id="path8045"
       inkscape:connector-curvature="0" />
    <path
       style="fill:none;fill-rule:evenodd;stroke:#000000;stroke-width:0.50000006;stroke-linecap:butt;stroke-linejoin:miter;stroke-miterlimit:4;stroke-dasharray:none;stroke-opacity:1"
       d="m 76.071673,959.46122 0,-14.31781"
       id="path3342"
       inkscape:connector-curvature="0" />
    <path
       style="fill:none;fill-rule:evenodd;stroke:#000000;stroke-width:0.4475868;stroke-linecap:butt;stroke-linejoin:miter;stroke-miterlimit:4;stroke-dasharray:none;stroke-opacity:1"
       d="m 76.071682,1043.3008 0,-14.3178"
       id="path3342-3"
       inkscape:connector-curvature="0" />
    <path
       style="fill:none;fill-rule:evenodd;stroke:#000000;stroke-width:0.37226033;stroke-linecap:butt;stroke-linejoin:miter;stroke-miterlimit:4;stroke-dasharray:none;stroke-opacity:1"
       d="m 130.48087,972.45118 -34.637186,0"
       id="path8033-6"
       inkscape:connector-curvature="0" />
    <g
       transform="matrix(0.89517353,0,0,0.89517353,-130.45271,853.00942)"
       ns0:text="dff"
       ns0:preamble="/home/bqwer/workbook git/textext_preamble.tex"
       id="g4190"
       style="stroke-width:0.55855101;stroke-miterlimit:4;stroke-dasharray:none">
      <defs
         id="defs4192">
        <g
           id="g4194">
          <symbol
             overflow="visible"
             id="textext-b95e45a3-0"
             style="overflow:visible">
            <path
               style="stroke:none"
               d="m 0.5,1.765625 4.984375,0 0,-8.796875 -4.984375,0 z m 0.5625,-0.5625 0,-7.671875 3.859375,0 0,7.671875 z m 0,0"
               id="path4197"
               inkscape:connector-curvature="0" />
          </symbol>
          <symbol
             overflow="visible"
             id="textext-b95e45a3-1"
             style="overflow:visible">
            <path
               style="stroke:none"
               d="m 4.34375,-0.8125 0,0.8125 1.75,0 0,-0.515625 -0.859375,0 0,-7.0625 -1.75,0 0,0.515625 0.859375,0 0,2.703125 C 4.015625,-4.96875 3.53125,-5.3125 2.65625,-5.3125 c -0.625,0 -1.15625,0.25 -1.5625,0.75 C 0.703125,-4.0625 0.5,-3.40625 0.5,-2.59375 c 0,0.8125 0.203125,1.46875 0.609375,1.96875 0.40625,0.515625 0.921875,0.765625 1.546875,0.765625 0.875,0 1.359375,-0.34375 1.6875,-0.953125 z M 2.9375,-0.421875 c -1.078125,0 -1.390625,-0.96875 -1.390625,-2.171875 0,-1.1875 0.3125,-2.15625 1.390625,-2.15625 1.015625,0 1.40625,0.8125 1.40625,1.90625 l 0,0.515625 c 0,1.09375 -0.390625,1.90625 -1.40625,1.90625 z m 0,0"
               id="path4200"
               inkscape:connector-curvature="0" />
          </symbol>
          <symbol
             overflow="visible"
             id="textext-b95e45a3-2"
             style="overflow:visible">
            <path
               style="stroke:none"
               d="m 6.421875,-7.09375 c 0.5,0 0.78125,0.25 0.796875,0.75 l 0.46875,0 0,-0.984375 C 7.3125,-7.46875 6.875,-7.5625 6.390625,-7.5625 c -1.171875,0 -1.78125,0.59375 -1.78125,1.75 l 0,0.640625 -2.5,0 0,-0.671875 c 0,-0.828125 0.15625,-1.25 0.90625,-1.25 0.515625,0 0.796875,0.25 0.796875,0.75 l 0.46875,0 0,-1 c -0.375,-0.140625 -0.796875,-0.234375 -1.296875,-0.234375 -1.15625,0 -1.765625,0.59375 -1.765625,1.75 l 0,0.65625 -0.859375,0 0,0.515625 0.859375,0 0,4.140625 -0.859375,0 0,0.515625 2.90625,0 0,-0.515625 -1.15625,0 0,-4.140625 2.5,0.015625 0,4.125 -0.84375,0 0,0.515625 2.890625,0 0,-0.515625 -1.140625,0 0,-4.125 1.4375,0 0,-0.53125 -1.4375,0 0,-0.65625 c 0,-0.828125 0.15625,-1.265625 0.90625,-1.265625 z m 0,0"
               id="path4203"
               inkscape:connector-curvature="0" />
          </symbol>
        </g>
      </defs>
      <g
         id="textext-b95e45a3-3"
         style="stroke-width:0.55855101;stroke-miterlimit:4;stroke-dasharray:none">
        <g
           style="fill:#000000;fill-opacity:1;stroke-width:0.55855101;stroke-miterlimit:4;stroke-dasharray:none"
           id="g4206">
          <use
             xlink:href="#textext-b95e45a3-1"
             x="223.43201"
             y="134.765"
             id="use4208"
             width="100%"
             height="100%"
             style="stroke-width:0.55855101;stroke-miterlimit:4;stroke-dasharray:none" />
          <use
             xlink:href="#textext-b95e45a3-2"
             x="229.80907"
             y="134.765"
             id="use4210"
             width="100%"
             height="100%"
             style="stroke-width:0.55855101;stroke-miterlimit:4;stroke-dasharray:none" />
        </g>
      </g>
    </g>
    <g
       transform="matrix(0.89517353,0,0,0.89517353,-185.90612,855.02564)"
       ns0:text="D"
       ns0:preamble="/home/bqwer/workbook git/textext_preamble.tex"
       id="g4503">
      <defs
         id="defs4505">
        <g
           id="g4507">
          <symbol
             style="overflow:visible"
             overflow="visible"
             id="textext-c3690971-0">
            <path
               inkscape:connector-curvature="0"
               style="stroke:none"
               d="m 0.5,1.765625 4.984375,0 0,-8.796875 -4.984375,0 z m 0.5625,-0.5625 0,-7.671875 3.859375,0 0,7.671875 z m 0,0"
               id="path4510" />
          </symbol>
          <symbol
             style="overflow:visible"
             overflow="visible"
             id="textext-c3690971-1">
            <path
               inkscape:connector-curvature="0"
               style="stroke:none"
               d="m 6.296875,-3.640625 c 0,1.96875 -1,3.125 -2.921875,3.125 l -0.90625,0 0,-6.234375 0.90625,0 c 1.921875,0 2.921875,1.140625 2.921875,3.109375 z m 1.125,0 c 0,-2.34375 -1.578125,-3.625 -3.984375,-3.625 l -2.890625,0 0,0.515625 0.921875,0 0,6.234375 -0.921875,0 0,0.515625 2.890625,0 c 2.40625,0 3.984375,-1.28125 3.984375,-3.640625 z m 0,0"
               id="path4513" />
          </symbol>
        </g>
      </defs>
      <g
         id="textext-c3690971-2">
        <g
           style="fill:#000000;fill-opacity:1"
           id="g4516">
          <use
             height="100%"
             width="100%"
             xlink:href="#textext-c3690971-1"
             x="223.43201"
             y="134.765"
             id="use4518" />
        </g>
      </g>
    </g>
    <g
       id="g4592"
       ns0:preamble="/home/bqwer/workbook git/textext_preamble.tex"
       ns0:text="EN"
       transform="matrix(0.89517353,0,0,0.89517353,-193.13082,876.75994)">
      <defs
         id="defs4594">
        <g
           id="g4596">
          <symbol
             style="overflow:visible"
             id="textext-888c3c68-0"
             overflow="visible">
            <path
               inkscape:connector-curvature="0"
               id="path4599"
               d="m 0.5,1.765625 4.984375,0 0,-8.796875 -4.984375,0 z m 0.5625,-0.5625 0,-7.671875 3.859375,0 0,7.671875 z m 0,0"
               style="stroke:none" />
          </symbol>
          <symbol
             style="overflow:visible"
             id="textext-888c3c68-1"
             overflow="visible">
            <path
               inkscape:connector-curvature="0"
               id="path4602"
               d="m 0.546875,0 5.9375,0 0,-1.609375 -0.609375,0 0,1.015625 -3.40625,0 0,-3.046875 2.375,0 0,0.90625 0.59375,0 0,-2.40625 -0.59375,0 0,0.90625 -2.375,0 0,-2.4375 3.328125,0 0,1.015625 0.609375,0 0,-1.609375 -5.859375,0 0,0.515625 0.921875,0 0,6.234375 -0.921875,0 z m 0,0"
               style="stroke:none" />
          </symbol>
          <symbol
             style="overflow:visible"
             id="textext-888c3c68-2"
             overflow="visible">
            <path
               inkscape:connector-curvature="0"
               id="path4605"
               d="m 0.484375,0 2.5625,0 0,-0.515625 -0.984375,0 0,-5.46875 4.65625,6.125 0.59375,0 0,-6.890625 0.96875,0 0,-0.515625 -2.546875,0 0,0.515625 0.96875,0 0,5.21875 -4.34375,-5.734375 -1.875,0 0,0.515625 0.984375,0 0,6.234375 -0.984375,0 z m 0,0"
               style="stroke:none" />
          </symbol>
        </g>
      </defs>
      <g
         id="textext-888c3c68-3">
        <g
           id="g4608"
           style="fill:#000000;fill-opacity:1">
          <use
             height="100%"
             width="100%"
             id="use4610"
             y="134.765"
             x="223.43201"
             xlink:href="#textext-888c3c68-1" />
          <use
             height="100%"
             width="100%"
             id="use4612"
             y="134.765"
             x="230.7047"
             xlink:href="#textext-888c3c68-2" />
        </g>
      </g>
    </g>
    <g
       transform="matrix(0.89517353,0,0,0.89517353,-198.72594,898.57526)"
       ns0:text="CLK"
       ns0:preamble="/home/bqwer/workbook git/textext_preamble.tex"
       id="g4712">
      <defs
         id="defs4714">
        <g
           id="g4716">
          <symbol
             style="overflow:visible"
             overflow="visible"
             id="textext-d619bcbc-0">
            <path
               inkscape:connector-curvature="0"
               style="stroke:none"
               d="m 0.5,1.765625 4.984375,0 0,-8.796875 -4.984375,0 z m 0.5625,-0.5625 0,-7.671875 3.859375,0 0,7.671875 z m 0,0"
               id="path4719" />
          </symbol>
          <symbol
             style="overflow:visible"
             overflow="visible"
             id="textext-d619bcbc-1">
            <path
               inkscape:connector-curvature="0"
               style="stroke:none"
               d="m 7.03125,-1.921875 -0.90625,0 C 5.84375,-0.984375 5.21875,-0.375 4.03125,-0.375 c -1.734375,0 -2.359375,-1.375 -2.359375,-3.25 0,-1.875 0.625,-3.25 2.359375,-3.25 1.375,0 2.015625,0.609375 2.25,1.78125 l 0.546875,0 0,-1.671875 c -0.515625,-0.21875 -1,-0.375 -1.4375,-0.484375 -0.453125,-0.09375 -0.875,-0.140625 -1.28125,-0.140625 -1.0625,0 -1.921875,0.34375 -2.578125,1.03125 C 0.890625,-5.671875 0.5625,-4.75 0.5625,-3.625 c 0,1.265625 0.40625,2.140625 1.078125,2.8125 0.546875,0.546875 1.34375,0.953125 2.390625,0.953125 1.640625,0 2.59375,-0.78125 3,-2.0625 z m 0,0"
               id="path4722" />
          </symbol>
          <symbol
             style="overflow:visible"
             overflow="visible"
             id="textext-d619bcbc-2">
            <path
               inkscape:connector-curvature="0"
               style="stroke:none"
               d="M 0.546875,0 6.375,0 l 0,-1.8125 -0.59375,0 0,1.21875 -3.3125,0 0,-6.15625 0.921875,0 0,-0.515625 -2.84375,0 0,0.515625 0.921875,0 0,6.234375 -0.921875,0 z m 0,0"
               id="path4725" />
          </symbol>
          <symbol
             style="overflow:visible"
             overflow="visible"
             id="textext-d619bcbc-3">
            <path
               inkscape:connector-curvature="0"
               style="stroke:none"
               d="m 0.546875,0 2.84375,0 0,-0.515625 -0.921875,0 0,-2.9375 L 5.90625,0 l 1.6875,0 0,-0.515625 -0.828125,0 L 3.28125,-4 l 3.125,-2.75 0.8125,0 0,-0.515625 -2.40625,0 0,0.515625 0.78125,0 -3.125,2.75 0,-2.75 0.921875,0 0,-0.515625 -2.84375,0 0,0.515625 0.921875,0 0,6.234375 -0.921875,0 z m 0,0"
               id="path4728" />
          </symbol>
        </g>
      </defs>
      <g
         id="textext-d619bcbc-4">
        <g
           style="fill:#000000;fill-opacity:1"
           id="g4731">
          <use
             height="100%"
             width="100%"
             xlink:href="#textext-d619bcbc-1"
             x="223.43201"
             y="134.765"
             id="use4733" />
          <use
             height="100%"
             width="100%"
             xlink:href="#textext-d619bcbc-2"
             x="231.05438"
             y="134.765"
             id="use4735" />
          <use
             height="100%"
             width="100%"
             xlink:href="#textext-d619bcbc-3"
             x="237.67055"
             y="134.765"
             id="use4737" />
        </g>
      </g>
    </g>
    <g
       transform="matrix(0.89517353,0,0,0.89517353,-127.05289,823.43365)"
       ns0:text="S"
       ns0:preamble="/home/bqwer/workbook git/textext_preamble.tex"
       id="g5036">
      <defs
         id="defs5038">
        <g
           id="g5040">
          <symbol
             style="overflow:visible"
             overflow="visible"
             id="textext-583b4973-0">
            <path
               inkscape:connector-curvature="0"
               style="stroke:none"
               d="m 0.5,1.765625 4.984375,0 0,-8.796875 -4.984375,0 z m 0.5625,-0.5625 0,-7.671875 3.859375,0 0,7.671875 z m 0,0"
               id="path5043" />
          </symbol>
          <symbol
             style="overflow:visible"
             overflow="visible"
             id="textext-583b4973-1">
            <path
               inkscape:connector-curvature="0"
               style="stroke:none"
               d="m 3.40625,0.140625 c 1.625,0 2.6875,-0.59375 2.6875,-2.125 C 6.09375,-2.5 5.96875,-2.90625 5.6875,-3.21875 5.40625,-3.53125 4.921875,-3.78125 4.265625,-3.984375 L 3.375,-4.25 C 2.71875,-4.453125 2.28125,-4.640625 2.078125,-4.828125 1.890625,-5.03125 1.78125,-5.296875 1.78125,-5.65625 c 0,-0.875 0.65625,-1.21875 1.578125,-1.21875 1.171875,0 1.71875,0.421875 1.828125,1.453125 l 0.546875,0 0,-1.546875 c -0.75,-0.234375 -1.53125,-0.421875 -2.390625,-0.421875 -1.4375,0 -2.5,0.578125 -2.5,1.9375 0,0.546875 0.140625,0.984375 0.421875,1.296875 0.28125,0.3125 0.765625,0.578125 1.46875,0.78125 L 3.6875,-3.078125 C 4.28125,-2.90625 4.671875,-2.71875 4.859375,-2.53125 5.03125,-2.34375 5.125,-2.078125 5.125,-1.71875 5.125,-0.75 4.390625,-0.375 3.34375,-0.375 2.15625,-0.375 1.515625,-0.875 1.484375,-2 l -0.5625,0 0,1.65625 c 0.75,0.28125 1.546875,0.484375 2.484375,0.484375 z m 0,0"
               id="path5046" />
          </symbol>
        </g>
      </defs>
      <g
         id="textext-583b4973-2">
        <g
           style="fill:#000000;fill-opacity:1"
           id="g5049">
          <use
             height="100%"
             width="100%"
             xlink:href="#textext-583b4973-1"
             x="223.43201"
             y="134.765"
             id="use5051" />
        </g>
      </g>
    </g>
    <g
       id="g5223"
       ns0:preamble="/home/bqwer/workbook git/textext_preamble.tex"
       ns0:text="Q"
       transform="matrix(0.89517353,0,0,0.89517353,-69.170291,854.39195)">
      <defs
         id="defs5225">
        <g
           id="g5227">
          <symbol
             style="overflow:visible"
             id="textext-b562eaa2-0"
             overflow="visible">
            <path
               inkscape:connector-curvature="0"
               id="path5230"
               d="m 0.5,1.765625 4.984375,0 0,-8.796875 -4.984375,0 z m 0.5625,-0.5625 0,-7.671875 3.859375,0 0,7.671875 z m 0,0"
               style="stroke:none" />
          </symbol>
          <symbol
             style="overflow:visible"
             id="textext-b562eaa2-1"
             overflow="visible">
            <path
               inkscape:connector-curvature="0"
               id="path5233"
               d="m 6.5625,1.59375 0,-0.890625 -0.140625,0 C 5.6875,0.703125 5.21875,0.484375 4.875,0.0625 5.734375,-0.125 6.40625,-0.546875 6.890625,-1.203125 7.375,-1.859375 7.609375,-2.671875 7.609375,-3.625 c 0,-1.140625 -0.3125,-2.046875 -0.953125,-2.734375 -0.65625,-0.6875 -1.515625,-1.03125 -2.5625,-1.03125 -1.109375,0 -1.875,0.375 -2.453125,0.953125 C 0.96875,-5.765625 0.5625,-4.90625 0.5625,-3.625 c 0,1.140625 0.328125,2.046875 0.984375,2.734375 0.65625,0.6875 1.546875,1.03125 2.65625,1.03125 0.46875,0.84375 1.1875,1.390625 2.359375,1.453125 z M 1.671875,-3.625 c 0,-1.90625 0.640625,-3.25 2.421875,-3.25 1.765625,0 2.40625,1.34375 2.40625,3.25 0,1.90625 -0.640625,3.25 -2.40625,3.25 -1.78125,0 -2.421875,-1.34375 -2.421875,-3.25 z m 0,0"
               style="stroke:none" />
          </symbol>
        </g>
      </defs>
      <g
         id="textext-b562eaa2-2">
        <g
           id="g5236"
           style="fill:#000000;fill-opacity:1">
          <use
             height="100%"
             width="100%"
             id="use5238"
             y="134.765"
             x="223.43201"
             xlink:href="#textext-b562eaa2-1" />
        </g>
      </g>
    </g>
    <g
       id="g4869"
       ns0:preamble="/home/bqwer/workbook git/textext_preamble.tex"
       ns0:text="R"
       transform="matrix(0.89517353,0,0,0.89517353,-127.71164,929.94873)">
      <defs
         id="defs4871">
        <g
           id="g4873">
          <symbol
             style="overflow:visible"
             id="textext-be9c4986-0"
             overflow="visible">
            <path
               inkscape:connector-curvature="0"
               id="path4876"
               d="m 0.5,1.765625 4.984375,0 0,-8.796875 -4.984375,0 z m 0.5625,-0.5625 0,-7.671875 3.859375,0 0,7.671875 z m 0,0"
               style="stroke:none" />
          </symbol>
          <symbol
             style="overflow:visible"
             id="textext-be9c4986-1"
             overflow="visible">
            <path
               inkscape:connector-curvature="0"
               id="path4879"
               d="m 6.453125,-5.328125 c 0,-1.296875 -0.875,-1.9375 -2.21875,-1.9375 l -3.6875,0 0,0.515625 0.921875,0 0,6.234375 -0.921875,0 0,0.515625 2.9375,0 0,-0.515625 -1.015625,0 0,-2.859375 1.078125,0 c 0.328125,0 0.5625,0.0625 0.75,0.1875 0.171875,0.140625 0.375,0.421875 0.59375,0.875 L 6.03125,0 7.75,0 l 0,-0.515625 -0.890625,0 -1.0625,-2.15625 c -0.21875,-0.484375 -0.5,-0.796875 -1.015625,-0.9375 1.015625,-0.125 1.671875,-0.625 1.671875,-1.71875 z m -1.125,0 c 0,0.984375 -0.453125,1.4375 -1.4375,1.4375 l -1.421875,0 0,-2.859375 1.421875,0 c 0.984375,0 1.4375,0.453125 1.4375,1.421875 z m 0,0"
               style="stroke:none" />
          </symbol>
        </g>
      </defs>
      <g
         id="textext-be9c4986-2">
        <g
           id="g4882"
           style="fill:#000000;fill-opacity:1">
          <use
             height="100%"
             width="100%"
             id="use4884"
             y="134.765"
             x="223.43201"
             xlink:href="#textext-be9c4986-1" />
        </g>
      </g>
    </g>
  </g>
</svg>
