<?xml version="1.0" encoding="UTF-8" standalone="no"?>
<!-- Created with Inkscape (http://www.inkscape.org/) -->

<svg
   xmlns:ns0="http://www.iki.fi/pav/software/textext/"
   xmlns:osb="http://www.openswatchbook.org/uri/2009/osb"
   xmlns:dc="http://purl.org/dc/elements/1.1/"
   xmlns:cc="http://creativecommons.org/ns#"
   xmlns:rdf="http://www.w3.org/1999/02/22-rdf-syntax-ns#"
   xmlns:svg="http://www.w3.org/2000/svg"
   xmlns="http://www.w3.org/2000/svg"
   xmlns:xlink="http://www.w3.org/1999/xlink"
   xmlns:sodipodi="http://sodipodi.sourceforge.net/DTD/sodipodi-0.dtd"
   xmlns:inkscape="http://www.inkscape.org/namespaces/inkscape"
   width="274"
   height="251"
   viewBox="0 0 274.00001 251"
   id="svg3336"
   version="1.1"
   inkscape:version="0.91 r13725"
   sodipodi:docname="dff_struct.svg">
  <sodipodi:namedview
     id="base"
     pagecolor="#ffffff"
     bordercolor="#666666"
     borderopacity="1.0"
     inkscape:pageopacity="0.0"
     inkscape:pageshadow="2"
     inkscape:zoom="2.56"
     inkscape:cx="117.63876"
     inkscape:cy="133.8513"
     inkscape:document-units="px"
     inkscape:current-layer="layer1"
     showgrid="true"
     showguides="false"
     gridtolerance="10000"
     objecttolerance="20"
     inkscape:snap-page="true"
     inkscape:object-nodes="false"
     inkscape:snap-intersection-paths="false"
     inkscape:object-paths="true"
     inkscape:snap-smooth-nodes="false"
     inkscape:snap-midpoints="false"
     inkscape:snap-grids="true"
     inkscape:window-width="1920"
     inkscape:window-height="901"
     inkscape:window-x="0"
     inkscape:window-y="25"
     inkscape:window-maximized="1"
     units="px"
     inkscape:snap-nodes="false">
    <inkscape:grid
       type="xygrid"
       id="grid3810"
       snapvisiblegridlinesonly="true"
       dotted="false"
       empspacing="5" />
  </sodipodi:namedview>
  <defs
     id="defs3338">
    <linearGradient
       id="linearGradient4622"
       osb:paint="solid">
      <stop
         style="stop-color:#aa0000;stop-opacity:0;"
         offset="0"
         id="stop4624" />
    </linearGradient>
    <linearGradient
       inkscape:collect="always"
       xlink:href="#linearGradient4622"
       id="linearGradient4626"
       x1="300"
       y1="482.04974"
       x2="339.375"
       y2="482.04974"
       gradientUnits="userSpaceOnUse"
       gradientTransform="matrix(0.14408068,0,0,0.15400132,176.51194,818.95724)" />
    <linearGradient
       inkscape:collect="always"
       xlink:href="#linearGradient4622"
       id="linearGradient4626-6"
       x1="300"
       y1="482.04974"
       x2="339.375"
       y2="482.04974"
       gradientUnits="userSpaceOnUse"
       gradientTransform="matrix(0.14408068,0,0,0.15400132,176.59007,883.72285)" />
    <linearGradient
       inkscape:collect="always"
       xlink:href="#linearGradient4622"
       id="linearGradient4626-6-3"
       x1="300"
       y1="482.04974"
       x2="339.375"
       y2="482.04974"
       gradientUnits="userSpaceOnUse"
       gradientTransform="matrix(0.14408068,0,0,0.15400132,69.9654,810.84948)" />
    <linearGradient
       inkscape:collect="always"
       xlink:href="#linearGradient4622"
       id="linearGradient4626-1"
       x1="300"
       y1="482.04974"
       x2="339.375"
       y2="482.04974"
       gradientUnits="userSpaceOnUse"
       gradientTransform="matrix(0.14408068,0,0,0.15400132,69.88727,746.08387)" />
    <linearGradient
       inkscape:collect="always"
       xlink:href="#linearGradient4622"
       id="linearGradient4626-6-3-9"
       x1="300"
       y1="482.04974"
       x2="339.375"
       y2="482.04974"
       gradientUnits="userSpaceOnUse"
       gradientTransform="matrix(0.14408068,0,0,0.15400132,69.97894,957.89137)" />
    <linearGradient
       inkscape:collect="always"
       xlink:href="#linearGradient4622"
       id="linearGradient4626-1-7"
       x1="300"
       y1="482.04974"
       x2="339.375"
       y2="482.04974"
       gradientUnits="userSpaceOnUse"
       gradientTransform="matrix(0.14408068,0,0,0.15400132,69.90082,893.12576)" />
  </defs>
  <metadata
     id="metadata3341">
    <rdf:RDF>
      <cc:Work
         rdf:about="">
        <dc:format>image/svg+xml</dc:format>
        <dc:type
           rdf:resource="http://purl.org/dc/dcmitype/StillImage" />
        <dc:title></dc:title>
      </cc:Work>
    </rdf:RDF>
  </metadata>
  <g
     inkscape:label="Layer 1"
     inkscape:groupmode="layer"
     id="layer1"
     transform="translate(0,-801.36217)">
    <path
       style="fill:none;fill-rule:evenodd;stroke:#000000;stroke-width:1;stroke-linecap:butt;stroke-linejoin:miter;stroke-miterlimit:4;stroke-dasharray:none;stroke-opacity:1"
       d="m 191.61113,877.56853 0,32.8125 14.0625,0 c 0,0 14.0625,0 14.0625,-17.1875 0,-15.625 -14.6875,-15.625 -14.6875,-15.625 l -14.0625,0"
       id="path4174"
       inkscape:connector-curvature="0"
       sodipodi:nodetypes="cccccc" />
    <ellipse
       style="opacity:1;fill:url(#linearGradient4626);fill-opacity:1;stroke:#000000;stroke-width:1;stroke-miterlimit:4;stroke-dasharray:none;stroke-opacity:1"
       id="path3812"
       cx="222.57271"
       cy="893.1936"
       rx="2.8365884"
       ry="3.0319009" />
    <path
       style="fill:none;fill-rule:evenodd;stroke:#000000;stroke-width:1;stroke-linecap:butt;stroke-linejoin:miter;stroke-miterlimit:4;stroke-dasharray:none;stroke-opacity:1"
       d="m 191.68926,942.33414 0,32.8125 14.0625,0 c 0,0 14.0625,0 14.0625,-17.1875 0,-15.625 -14.6875,-15.625 -14.6875,-15.625 l -14.0625,0"
       id="path4174-5"
       inkscape:connector-curvature="0"
       sodipodi:nodetypes="cccccc" />
    <ellipse
       style="opacity:1;fill:url(#linearGradient4626-6);fill-opacity:1;stroke:#000000;stroke-width:1;stroke-miterlimit:4;stroke-dasharray:none;stroke-opacity:1"
       id="path3812-3"
       cx="222.65086"
       cy="957.95929"
       rx="2.8365884"
       ry="3.0319009" />
    <circle
       style="opacity:1;fill:#000000;fill-opacity:1;stroke:none;stroke-width:0.625;stroke-miterlimit:4;stroke-dasharray:none;stroke-opacity:1"
       id="path12112-9-2"
       cx="246.77144"
       cy="957.95929"
       r="1.4650422" />
    <path
       style="fill:none;fill-rule:evenodd;stroke:#000000;stroke-width:0.5;stroke-linecap:butt;stroke-linejoin:miter;stroke-miterlimit:4;stroke-dasharray:none;stroke-opacity:1"
       d="m 225.48744,957.95918 45.49809,1e-5"
       id="path11296-3"
       inkscape:connector-curvature="0"
       sodipodi:nodetypes="cc" />
    <circle
       style="opacity:1;fill:#000000;fill-opacity:1;stroke:none;stroke-width:0.625;stroke-miterlimit:4;stroke-dasharray:none;stroke-opacity:1"
       id="path12112-9-2-5"
       cx="246.69331"
       cy="893.1936"
       r="1.4650422" />
    <path
       style="fill:none;fill-rule:evenodd;stroke:#000000;stroke-width:0.5;stroke-linecap:butt;stroke-linejoin:miter;stroke-miterlimit:4;stroke-dasharray:none;stroke-opacity:1"
       d="m 225.40931,893.19353 45.4981,10e-6"
       id="path11296-3-6"
       inkscape:connector-curvature="0"
       sodipodi:nodetypes="cc" />
    <path
       style="fill:none;fill-rule:evenodd;stroke:#000000;stroke-width:0.5;stroke-linecap:butt;stroke-linejoin:miter;stroke-miterlimit:4;stroke-dasharray:none;stroke-opacity:1"
       d="m 191.68926,902.33414 -35,0 0,10 90,30 0,15"
       id="path6362"
       inkscape:connector-curvature="0" />
    <path
       style="fill:none;fill-rule:evenodd;stroke:#000000;stroke-width:0.5;stroke-linecap:butt;stroke-linejoin:miter;stroke-miterlimit:4;stroke-dasharray:none;stroke-opacity:1"
       d="m 191.69332,949.65857 -35,0 0,-10 90,-30 0,-15"
       id="path6362-9"
       inkscape:connector-curvature="0" />
    <path
       style="fill:none;fill-rule:evenodd;stroke:#000000;stroke-width:0.5;stroke-linecap:butt;stroke-linejoin:miter;stroke-miterlimit:4;stroke-dasharray:none;stroke-opacity:1"
       d="m 191.61113,885.08583 -64.92187,0"
       id="path6525"
       inkscape:connector-curvature="0" />
    <path
       style="fill:none;fill-rule:evenodd;stroke:#000000;stroke-width:0.5;stroke-linecap:butt;stroke-linejoin:miter;stroke-miterlimit:4;stroke-dasharray:none;stroke-opacity:1"
       d="m 191.83149,967.36206 -65.14223,0"
       id="path6531"
       inkscape:connector-curvature="0" />
    <circle
       style="opacity:1;fill:#000000;fill-opacity:1;stroke:none;stroke-width:0.625;stroke-miterlimit:4;stroke-dasharray:none;stroke-opacity:1"
       id="path12112-9-2-5-9"
       cx="140.0605"
       cy="884.98236"
       r="1.4650422" />
    <circle
       style="opacity:1;fill:#000000;fill-opacity:1;stroke:none;stroke-width:0.625;stroke-miterlimit:4;stroke-dasharray:none;stroke-opacity:1"
       id="path12112-9-2-5-9-7"
       cx="140.12779"
       cy="967.36218"
       r="1.4650422" />
    <ellipse
       style="opacity:1;fill:url(#linearGradient4626-1);fill-opacity:1;stroke:#000000;stroke-width:1;stroke-miterlimit:4;stroke-dasharray:none;stroke-opacity:1"
       id="path3812-2"
       cx="115.94805"
       cy="820.32025"
       rx="2.8365884"
       ry="3.0319009" />
    <ellipse
       style="opacity:1;fill:url(#linearGradient4626-6-3);fill-opacity:1;stroke:#000000;stroke-width:1;stroke-miterlimit:4;stroke-dasharray:none;stroke-opacity:1"
       id="path3812-3-9"
       cx="116.02616"
       cy="885.08594"
       rx="2.8365884"
       ry="3.0319009" />
    <path
       style="fill:none;fill-rule:evenodd;stroke:#000000;stroke-width:0.5;stroke-linecap:butt;stroke-linejoin:miter;stroke-miterlimit:4;stroke-dasharray:none;stroke-opacity:1"
       d="m 118.79817,885.08582 7.89109,10e-6"
       id="path11296-3-3"
       inkscape:connector-curvature="0"
       sodipodi:nodetypes="cc" />
    <ellipse
       style="opacity:1;fill:url(#linearGradient4626-1-7);fill-opacity:1;stroke:#000000;stroke-width:1;stroke-miterlimit:4;stroke-dasharray:none;stroke-opacity:1"
       id="path3812-2-8"
       cx="115.9616"
       cy="967.36218"
       rx="2.8365884"
       ry="3.0319009" />
    <ellipse
       style="opacity:1;fill:url(#linearGradient4626-6-3-9);fill-opacity:1;stroke:#000000;stroke-width:1;stroke-miterlimit:4;stroke-dasharray:none;stroke-opacity:1"
       id="path3812-3-9-4"
       cx="116.03973"
       cy="1032.1278"
       rx="2.8365884"
       ry="3.0319009" />
    <path
       style="fill:none;fill-rule:evenodd;stroke:#000000;stroke-width:0.5;stroke-linecap:butt;stroke-linejoin:miter;stroke-miterlimit:4;stroke-dasharray:none;stroke-opacity:1"
       d="m 118.79817,967.36205 7.89109,1e-5"
       id="path11296-3-6-1-0"
       inkscape:connector-curvature="0"
       sodipodi:nodetypes="cc" />
    <path
       style="fill:none;fill-rule:evenodd;stroke:#000000;stroke-width:1;stroke-linecap:butt;stroke-linejoin:miter;stroke-miterlimit:4;stroke-dasharray:none;stroke-opacity:1"
       d="m 85.07813,1016.5028 0,32.8125 14.062495,0 c 0,0 14.062495,0 14.062495,-17.1875 0,-15.625 -14.687495,-15.625 -14.687495,-15.625 l -14.062495,0"
       id="path4174-5-2-3-3"
       inkscape:connector-curvature="0"
       sodipodi:nodetypes="cccccc" />
    <path
       style="fill:none;fill-rule:evenodd;stroke:#000000;stroke-width:0.53121972;stroke-linecap:butt;stroke-linejoin:miter;stroke-miterlimit:4;stroke-dasharray:none;stroke-opacity:1"
       d="m 85.22036,1041.5307 -73.53109,0"
       id="path6531-1-75-6"
       inkscape:connector-curvature="0" />
    <path
       style="fill:none;fill-rule:evenodd;stroke:#000000;stroke-width:1;stroke-linecap:butt;stroke-linejoin:miter;stroke-miterlimit:4;stroke-dasharray:none;stroke-opacity:1"
       d="m 85.00001,951.73708 0,32.8125 14.062495,0 c 0,0 14.062495,0 14.062495,-17.1875 0,-15.625 -14.687495,-15.625 -14.687495,-15.625 l -14.062495,0"
       id="path4174-5-2-3-0"
       inkscape:connector-curvature="0"
       sodipodi:nodetypes="cccccc" />
    <path
       style="fill:none;fill-rule:evenodd;stroke:#000000;stroke-width:1;stroke-linecap:butt;stroke-linejoin:miter;stroke-miterlimit:4;stroke-dasharray:none;stroke-opacity:1"
       d="m 85.06458,869.46083 0,32.8125 14.062495,0 c 0,0 14.062495,0 14.062495,-17.1875 0,-15.625 -14.687495,-15.625 -14.687495,-15.625 l -14.062495,0"
       id="path4174-5-2-3-06"
       inkscape:connector-curvature="0"
       sodipodi:nodetypes="cccccc" />
    <path
       style="fill:none;fill-rule:evenodd;stroke:#000000;stroke-width:1;stroke-linecap:butt;stroke-linejoin:miter;stroke-miterlimit:4;stroke-dasharray:none;stroke-opacity:1"
       d="m 84.98646,804.69515 0,32.8125 14.062495,0 c 0,0 14.062495,0 14.062495,-17.1875 0,-15.625 -14.687495,-15.625 -14.687495,-15.625 l -14.062495,0"
       id="path4174-5-2-3-5"
       inkscape:connector-curvature="0"
       sodipodi:nodetypes="cccccc" />
    <path
       style="fill:none;fill-rule:evenodd;stroke:#000000;stroke-width:0.5;stroke-linecap:butt;stroke-linejoin:miter;stroke-miterlimit:4;stroke-dasharray:none;stroke-opacity:1"
       d="m 85.06052,829.46083 -35,0 0,10 89.99999,30 0,15"
       id="path6362-6"
       inkscape:connector-curvature="0" />
    <path
       style="fill:none;fill-rule:evenodd;stroke:#000000;stroke-width:0.5;stroke-linecap:butt;stroke-linejoin:miter;stroke-miterlimit:4;stroke-dasharray:none;stroke-opacity:1"
       d="m 85.06458,876.78526 -35,0 0,-10 89.99999,-30 0,-15"
       id="path6362-9-5"
       inkscape:connector-curvature="0" />
    <path
       style="fill:none;fill-rule:evenodd;stroke:#000000;stroke-width:0.5;stroke-linecap:butt;stroke-linejoin:miter;stroke-miterlimit:4;stroke-dasharray:none;stroke-opacity:1"
       d="m 118.78462,820.32015 21.28272,0 0,1.75356"
       id="path7089"
       inkscape:connector-curvature="0" />
    <path
       style="fill:none;fill-rule:evenodd;stroke:#000000;stroke-width:0.5;stroke-linecap:butt;stroke-linejoin:miter;stroke-miterlimit:4;stroke-dasharray:none;stroke-opacity:1"
       d="m 85.06052,959.06151 -35,0 0,-13.20258 89.99999,-39.60775 0,-19.80388"
       id="path6362-9-6"
       inkscape:connector-curvature="0" />
    <path
       style="fill:none;fill-rule:evenodd;stroke:#000000;stroke-width:0.5;stroke-linecap:butt;stroke-linejoin:miter;stroke-miterlimit:4;stroke-dasharray:none;stroke-opacity:1"
       d="m 85.1522,1022.9871 -34.99999,0 0,-10 89.99998,-30.00002 0,-15"
       id="path6362-6-3"
       inkscape:connector-curvature="0" />
    <path
       style="fill:none;fill-rule:evenodd;stroke:#000000;stroke-width:0.5;stroke-linecap:butt;stroke-linejoin:miter;stroke-miterlimit:4;stroke-dasharray:none;stroke-opacity:1"
       d="m 85.15626,975.66265 -34.99999,0 0,10 89.99998,29.99995 0,15"
       id="path6362-9-5-7"
       inkscape:connector-curvature="0" />
    <path
       style="fill:none;fill-rule:evenodd;stroke:#000000;stroke-width:0.5;stroke-linecap:butt;stroke-linejoin:miter;stroke-miterlimit:4;stroke-dasharray:none;stroke-opacity:1"
       d="m 118.8763,1032.1278 21.28272,0 0,-1.7536"
       id="path7089-4"
       inkscape:connector-curvature="0" />
    <circle
       style="opacity:1;fill:#000000;fill-opacity:1;stroke:none;stroke-width:0.625;stroke-miterlimit:4;stroke-dasharray:none;stroke-opacity:1"
       id="path12112-9-2-5-9-7-5"
       cx="50.156265"
       cy="975.66278"
       r="1.4650422" />
    <path
       style="fill:none;fill-rule:evenodd;stroke:#000000;stroke-width:0.47810757;stroke-linecap:butt;stroke-linejoin:miter;stroke-miterlimit:4;stroke-dasharray:none;stroke-opacity:1"
       d="m 53.14626,975.66265 -21.45699,0 0,-163.64307 53.30388,0"
       id="path7148"
       inkscape:connector-curvature="0" />
    <path
       style="fill:none;fill-rule:evenodd;stroke:#000000;stroke-width:0.47810757;stroke-linecap:butt;stroke-linejoin:miter;stroke-miterlimit:4;stroke-dasharray:none;stroke-opacity:1"
       d="m 85.00554,968.14333 -44.1728,0 0,-73.65458 44.23184,0"
       id="path7154"
       inkscape:connector-curvature="0" />
    <circle
       style="opacity:1;fill:#000000;fill-opacity:1;stroke:none;stroke-width:0.625;stroke-miterlimit:4;stroke-dasharray:none;stroke-opacity:1"
       id="path12112-9-2-5-9-7-2"
       cx="40.68927"
       cy="932.79926"
       r="1.4650422" />
    <path
       style="fill:none;fill-rule:evenodd;stroke:#000000;stroke-width:0.38649303;stroke-linecap:butt;stroke-linejoin:miter;stroke-miterlimit:4;stroke-dasharray:none;stroke-opacity:1"
       d="m 40.68927,932.78108 -29,0"
       id="path7171"
       inkscape:connector-curvature="0" />
    <g
       transform="translate(39.609378,754.36797)"
       ns0:text="Q"
       ns0:preamble="/home/bqwer/workbook git/textext_preamble.tex"
       id="g3430">
      <defs
         id="defs3432">
        <g
           id="g3434">
          <symbol
             overflow="visible"
             id="textext-b562eaa2-0"
             style="overflow:visible">
            <path
               style="stroke:none"
               d="m 0.5,1.765625 4.984375,0 0,-8.796875 -4.984375,0 z m 0.5625,-0.5625 0,-7.671875 3.859375,0 0,7.671875 z m 0,0"
               id="path3437"
               inkscape:connector-curvature="0" />
          </symbol>
          <symbol
             overflow="visible"
             id="textext-b562eaa2-1"
             style="overflow:visible">
            <path
               style="stroke:none"
               d="m 6.5625,1.59375 0,-0.890625 -0.140625,0 C 5.6875,0.703125 5.21875,0.484375 4.875,0.0625 5.734375,-0.125 6.40625,-0.546875 6.890625,-1.203125 7.375,-1.859375 7.609375,-2.671875 7.609375,-3.625 c 0,-1.140625 -0.3125,-2.046875 -0.953125,-2.734375 -0.65625,-0.6875 -1.515625,-1.03125 -2.5625,-1.03125 -1.109375,0 -1.875,0.375 -2.453125,0.953125 C 0.96875,-5.765625 0.5625,-4.90625 0.5625,-3.625 c 0,1.140625 0.328125,2.046875 0.984375,2.734375 0.65625,0.6875 1.546875,1.03125 2.65625,1.03125 0.46875,0.84375 1.1875,1.390625 2.359375,1.453125 z M 1.671875,-3.625 c 0,-1.90625 0.640625,-3.25 2.421875,-3.25 1.765625,0 2.40625,1.34375 2.40625,3.25 0,1.90625 -0.640625,3.25 -2.40625,3.25 -1.78125,0 -2.421875,-1.34375 -2.421875,-3.25 z m 0,0"
               id="path3440"
               inkscape:connector-curvature="0" />
          </symbol>
        </g>
      </defs>
      <g
         id="textext-b562eaa2-2">
        <g
           style="fill:#000000;fill-opacity:1"
           id="g3443">
          <use
             xlink:href="#textext-b562eaa2-1"
             x="223.43201"
             y="134.765"
             id="use3445"
             width="100%"
             height="100%" />
        </g>
      </g>
    </g>
    <g
       id="g3613"
       ns0:preamble="/home/bqwer/workbook git/textext_preamble.tex"
       ns0:text="$\\overline{\\mbox{Q}}$"
       transform="translate(39.642726,818.97067)">
      <defs
         id="defs3615">
        <g
           id="g3617">
          <symbol
             style="overflow:visible"
             id="textext-a5874d38-0"
             overflow="visible">
            <path
               inkscape:connector-curvature="0"
               id="path3620"
               d="m 0.5,1.765625 4.984375,0 0,-8.796875 -4.984375,0 z m 0.5625,-0.5625 0,-7.671875 3.859375,0 0,7.671875 z m 0,0"
               style="stroke:none" />
          </symbol>
          <symbol
             style="overflow:visible"
             id="textext-a5874d38-1"
             overflow="visible">
            <path
               inkscape:connector-curvature="0"
               id="path3623"
               d="m 6.5625,1.59375 0,-0.890625 -0.140625,0 C 5.6875,0.703125 5.21875,0.484375 4.875,0.0625 5.734375,-0.125 6.40625,-0.546875 6.890625,-1.203125 7.375,-1.859375 7.609375,-2.671875 7.609375,-3.625 c 0,-1.140625 -0.3125,-2.046875 -0.953125,-2.734375 -0.65625,-0.6875 -1.515625,-1.03125 -2.5625,-1.03125 -1.109375,0 -1.875,0.375 -2.453125,0.953125 C 0.96875,-5.765625 0.5625,-4.90625 0.5625,-3.625 c 0,1.140625 0.328125,2.046875 0.984375,2.734375 0.65625,0.6875 1.546875,1.03125 2.65625,1.03125 0.46875,0.84375 1.1875,1.390625 2.359375,1.453125 z M 1.671875,-3.625 c 0,-1.90625 0.640625,-3.25 2.421875,-3.25 1.765625,0 2.40625,1.34375 2.40625,3.25 0,1.90625 -0.640625,3.25 -2.40625,3.25 -1.78125,0 -2.421875,-1.34375 -2.421875,-3.25 z m 0,0"
               style="stroke:none" />
          </symbol>
        </g>
      </defs>
      <g
         id="textext-a5874d38-2">
        <path
           inkscape:connector-curvature="0"
           id="path3626"
           transform="matrix(1,0,0,-1,223.432,126.037)"
           d="m 0.00159375,0.00184375 8.16406225,0"
           style="fill:none;stroke:#000000;stroke-width:0.398;stroke-linecap:butt;stroke-linejoin:miter;stroke-miterlimit:10;stroke-opacity:1" />
        <g
           id="g3628"
           style="fill:#000000;fill-opacity:1">
          <use
             height="100%"
             width="100%"
             id="use3630"
             y="134.765"
             x="223.43201"
             xlink:href="#textext-a5874d38-1" />
        </g>
      </g>
    </g>
    <g
       transform="translate(-221.13718,801.5629)"
       ns0:text="C"
       ns0:preamble="/home/bqwer/workbook git/textext_preamble.tex"
       id="g3823">
      <defs
         id="defs3825">
        <g
           id="g3827">
          <symbol
             overflow="visible"
             id="textext-4aef577e-0"
             style="overflow:visible">
            <path
               style="stroke:none"
               d="m 0.5,1.765625 4.984375,0 0,-8.796875 -4.984375,0 z m 0.5625,-0.5625 0,-7.671875 3.859375,0 0,7.671875 z m 0,0"
               id="path3830"
               inkscape:connector-curvature="0" />
          </symbol>
          <symbol
             overflow="visible"
             id="textext-4aef577e-1"
             style="overflow:visible">
            <path
               style="stroke:none"
               d="m 7.03125,-1.921875 -0.90625,0 C 5.84375,-0.984375 5.21875,-0.375 4.03125,-0.375 c -1.734375,0 -2.359375,-1.375 -2.359375,-3.25 0,-1.875 0.625,-3.25 2.359375,-3.25 1.375,0 2.015625,0.609375 2.25,1.78125 l 0.546875,0 0,-1.671875 c -0.515625,-0.21875 -1,-0.375 -1.4375,-0.484375 -0.453125,-0.09375 -0.875,-0.140625 -1.28125,-0.140625 -1.0625,0 -1.921875,0.34375 -2.578125,1.03125 C 0.890625,-5.671875 0.5625,-4.75 0.5625,-3.625 c 0,1.265625 0.40625,2.140625 1.078125,2.8125 0.546875,0.546875 1.34375,0.953125 2.390625,0.953125 1.640625,0 2.59375,-0.78125 3,-2.0625 z m 0,0"
               id="path3833"
               inkscape:connector-curvature="0" />
          </symbol>
        </g>
      </defs>
      <g
         id="textext-4aef577e-2">
        <g
           style="fill:#000000;fill-opacity:1"
           id="g3836">
          <use
             xlink:href="#textext-4aef577e-1"
             x="223.43201"
             y="134.765"
             id="use3838"
             width="100%"
             height="100%" />
        </g>
      </g>
    </g>
    <g
       id="g4048"
       ns0:preamble="/home/bqwer/workbook git/textext_preamble.tex"
       ns0:text="D"
       transform="translate(-221.57966,910.17986)">
      <defs
         id="defs4050">
        <g
           id="g4052">
          <symbol
             style="overflow:visible"
             id="textext-c3690971-0"
             overflow="visible">
            <path
               inkscape:connector-curvature="0"
               id="path4055"
               d="m 0.5,1.765625 4.984375,0 0,-8.796875 -4.984375,0 z m 0.5625,-0.5625 0,-7.671875 3.859375,0 0,7.671875 z m 0,0"
               style="stroke:none" />
          </symbol>
          <symbol
             style="overflow:visible"
             id="textext-c3690971-1"
             overflow="visible">
            <path
               inkscape:connector-curvature="0"
               id="path4058"
               d="m 6.296875,-3.640625 c 0,1.96875 -1,3.125 -2.921875,3.125 l -0.90625,0 0,-6.234375 0.90625,0 c 1.921875,0 2.921875,1.140625 2.921875,3.109375 z m 1.125,0 c 0,-2.34375 -1.578125,-3.625 -3.984375,-3.625 l -2.890625,0 0,0.515625 0.921875,0 0,6.234375 -0.921875,0 0,0.515625 2.890625,0 c 2.40625,0 3.984375,-1.28125 3.984375,-3.640625 z m 0,0"
               style="stroke:none" />
          </symbol>
        </g>
      </defs>
      <g
         id="textext-c3690971-2">
        <g
           id="g4061"
           style="fill:#000000;fill-opacity:1">
          <use
             height="100%"
             width="100%"
             id="use4063"
             y="134.765"
             x="223.43201"
             xlink:href="#textext-c3690971-1" />
        </g>
      </g>
    </g>
  </g>
</svg>
