<?xml version="1.0" encoding="UTF-8" standalone="no"?>
<!-- Created with Inkscape (http://www.inkscape.org/) -->

<svg
   xmlns:ns0="http://www.iki.fi/pav/software/textext/"
   xmlns:dc="http://purl.org/dc/elements/1.1/"
   xmlns:cc="http://creativecommons.org/ns#"
   xmlns:rdf="http://www.w3.org/1999/02/22-rdf-syntax-ns#"
   xmlns:svg="http://www.w3.org/2000/svg"
   xmlns="http://www.w3.org/2000/svg"
   xmlns:sodipodi="http://sodipodi.sourceforge.net/DTD/sodipodi-0.dtd"
   xmlns:inkscape="http://www.inkscape.org/namespaces/inkscape"
   width="114.32201pt"
   height="59.392841pt"
   viewBox="0 0 142.90251 74.241054"
   id="svg4895"
   version="1.1"
   inkscape:version="0.91 r13725"
   sodipodi:docname="pict_1_1.svg">
  <sodipodi:namedview
     id="base"
     pagecolor="#ffffff"
     bordercolor="#666666"
     borderopacity="1.0"
     inkscape:pageopacity="0.0"
     inkscape:pageshadow="2"
     inkscape:zoom="7.919596"
     inkscape:cx="28.453927"
     inkscape:cy="54.52711"
     inkscape:document-units="pt"
     inkscape:current-layer="layer1"
     showgrid="true"
     units="pt"
     inkscape:snap-bbox="true"
     inkscape:snap-bbox-midpoints="true"
     inkscape:snap-object-midpoints="true"
     inkscape:object-paths="false"
     inkscape:object-nodes="true"
     inkscape:window-width="2560"
     inkscape:window-height="1377"
     inkscape:window-x="-8"
     inkscape:window-y="-8"
     inkscape:window-maximized="1"
     fit-margin-top="0"
     fit-margin-left="0"
     fit-margin-right="0"
     fit-margin-bottom="0">
    <inkscape:grid
       type="xygrid"
       id="grid5443"
       originx="-175.02498"
       originy="-626.25002" />
  </sodipodi:namedview>
  <defs
     id="defs4897" />
  <metadata
     id="metadata4900">
    <rdf:RDF>
      <cc:Work
         rdf:about="">
        <dc:format>image/svg+xml</dc:format>
        <dc:type
           rdf:resource="http://purl.org/dc/dcmitype/StillImage" />
        <dc:title></dc:title>
      </cc:Work>
    </rdf:RDF>
  </metadata>
  <g
     inkscape:label="Layer 1"
     inkscape:groupmode="layer"
     id="layer1"
     transform="translate(-175.025,-351.87115)">
    <rect
       style="fill:none;fill-opacity:1;stroke:#000000;stroke-width:0.625;stroke-linecap:butt;stroke-miterlimit:4;stroke-dasharray:none;stroke-dashoffset:0;stroke-opacity:1"
       id="rect5445"
       width="87.678581"
       height="73.616051"
       x="193.57143"
       y="352.18365" />
    <path
       style="fill:none;fill-rule:evenodd;stroke:#000000;stroke-width:0.625;stroke-linecap:butt;stroke-linejoin:miter;stroke-miterlimit:4;stroke-dasharray:none;stroke-opacity:1"
       d="m 176.56251,388.29969 46.875,0"
       id="path5453"
       inkscape:connector-curvature="0"
       sodipodi:nodetypes="cc" />
    <path
       style="fill:none;fill-rule:evenodd;stroke:#000000;stroke-width:0.625;stroke-linecap:butt;stroke-linejoin:miter;stroke-miterlimit:4;stroke-dasharray:none;stroke-opacity:1"
       d="m 176.56251,410.17469 46.875,10e-6"
       id="path5453-4"
       inkscape:connector-curvature="0"
       sodipodi:nodetypes="cc" />
    <path
       style="fill:none;fill-rule:evenodd;stroke:#000000;stroke-width:0.625;stroke-linecap:butt;stroke-linejoin:miter;stroke-miterlimit:4;stroke-dasharray:none;stroke-opacity:1"
       d="m 251.56251,399.2372 46.875,-10e-6"
       id="path5453-3"
       inkscape:connector-curvature="0"
       sodipodi:nodetypes="cc" />
    <path
       style="fill:#000000;fill-opacity:1;fill-rule:evenodd;stroke:#000000;stroke-width:0;stroke-linecap:butt;stroke-linejoin:miter;stroke-miterlimit:4;stroke-dasharray:none;stroke-opacity:1"
       d="m 296.43751,399.2372 -1,-2 6,2 -6,2 1,-2"
       id="path7174-4-9"
       inkscape:connector-curvature="0"
       sodipodi:nodetypes="ccccc" />
    <path
       style="fill:#000000;fill-opacity:1;fill-rule:evenodd;stroke:#000000;stroke-width:0;stroke-linecap:butt;stroke-linejoin:miter;stroke-miterlimit:4;stroke-dasharray:none;stroke-opacity:1"
       d="m 188.62501,388.2997 -1,-2 6,2 -6,2 1,-2"
       id="path7174-4-9-0"
       inkscape:connector-curvature="0"
       sodipodi:nodetypes="ccccc" />
    <path
       style="fill:#000000;fill-opacity:1;fill-rule:evenodd;stroke:#000000;stroke-width:0;stroke-linecap:butt;stroke-linejoin:miter;stroke-miterlimit:4;stroke-dasharray:none;stroke-opacity:1"
       d="m 188.62501,410.1747 -1,-2 6,2 -6,2 1,-2"
       id="path7174-4-9-0-2"
       inkscape:connector-curvature="0"
       sodipodi:nodetypes="ccccc" />
    <flowRoot
       xml:space="preserve"
       id="flowRoot5603"
       style="font-style:normal;font-weight:normal;font-size:11.25px;line-height:125%;font-family:sans-serif;letter-spacing:0px;word-spacing:0px;fill:#000000;fill-opacity:1;stroke:none;stroke-width:1px;stroke-linecap:butt;stroke-linejoin:miter;stroke-opacity:1"
       transform="translate(0,308.26772)"><flowRegion
         id="flowRegion5605"><rect
           id="rect5607"
           width="21.875"
           height="14.0625"
           x="226.5625"
           y="70.656982" /></flowRegion><flowPara
         id="flowPara5609">вентиль итве</flowPara></flowRoot>    <flowRoot
       xml:space="preserve"
       id="flowRoot4160"
       style="font-style:normal;font-weight:normal;font-size:11.25px;line-height:125%;font-family:sans-serif;letter-spacing:0px;word-spacing:0px;fill:#000000;fill-opacity:1;stroke:none;stroke-width:1px;stroke-linecap:butt;stroke-linejoin:miter;stroke-opacity:1"><flowRegion
         id="flowRegion4162"><rect
           id="rect4164"
           width="17.1875"
           height="17.1875"
           x="228.125"
           y="67.53199" /></flowRegion><flowPara
         id="flowPara4166" /></flowRoot>    <text
       xml:space="preserve"
       style="font-style:normal;font-weight:normal;font-size:11.25px;line-height:125%;font-family:sans-serif;letter-spacing:0px;word-spacing:0px;fill:#000000;fill-opacity:1;stroke:none;stroke-width:1px;stroke-linecap:butt;stroke-linejoin:miter;stroke-opacity:1"
       x="207.8125"
       y="363.29971"
       id="text4995"
       sodipodi:linespacing="125%"><tspan
         sodipodi:role="line"
         id="tspan4997"
         x="207.8125"
         y="363.29971" /></text>
    <g
       style="font-style:normal;font-variant:normal;font-weight:normal;font-stretch:normal;letter-spacing:normal;word-spacing:normal;text-anchor:start;fill:none;fill-opacity:1;fill-rule:evenodd;stroke:#000000;stroke-linecap:butt;stroke-linejoin:miter;stroke-miterlimit:10.43299961;stroke-dasharray:none;stroke-dashoffset:0;stroke-opacity:1"
       ns0:preamble="D:\\verilog workbook\\textext_preamble.tex"
       ns0:text="\\begin{lstlisting}\nand_gate\n\\end{lstlisting}"
       word-spacing="normal"
       letter-spacing="normal"
       font-size-adjust="none"
       font-stretch="normal"
       font-weight="normal"
       font-variant="normal"
       font-style="normal"
       stroke-miterlimit="10.433"
       xml:space="preserve"
       transform="matrix(1,0,0,-1,-8.6025,1067.4422)"
       id="content">
<path
   id="path4212"
   d="m 226.46,712.42 -0.13,0 -0.12,-0.01 -0.12,-0.01 -0.12,-0.01 -0.11,-0.02 -0.12,-0.02 -0.11,-0.02 -0.11,-0.02 -0.11,-0.03 -0.1,-0.03 -0.11,-0.03 -0.1,-0.04 -0.1,-0.04 -0.11,-0.04 -0.1,-0.04 -0.09,-0.04 0,-1.04 0.45,0 c 0.1,0.62 0.52,0.96 1.25,0.96 0.83,0 1.37,-0.41 1.37,-1.23 l 0,-0.36 0,-0.51 0,-1.1 c 0,-0.73 -0.51,-1.24 -1.25,-1.24 l 0,0 c -0.74,0 -1.23,0.45 -1.23,1.17 0,0.83 0.47,1.17 1.32,1.17 l 1.16,0 0,0.51 -1.26,0 c -1.26,0 -2.21,-0.49 -2.21,-1.68 0,-1.07 0.77,-1.68 1.87,-1.68 0.76,0 1.24,0.25 1.6,0.69 l 0,-0.55 1.69,0 0,0.51 -0.8,0 0,2.7 c 0,1.38 -0.79,2.08 -2.2,2.08 z"
   inkscape:connector-curvature="0"
   style="fill:#000000;stroke-width:0" />
<path
   id="path4214"
   d="m 233.5,711.77 0.03,0 0.04,0 0.03,0 0.04,0 0.03,0 0.03,-0.01 0.03,0 0.04,-0.01 0.03,0 0.03,-0.01 0.03,-0.01 0.02,-0.01 0.03,0 0.03,-0.01 0.02,-0.01 0.03,-0.02 0.03,-0.01 0.02,-0.01 0.02,-0.01 0.03,-0.02 0.02,-0.01 0.02,-0.02 0.02,-0.01 0.02,-0.02 0.02,-0.01 0.02,-0.02 0.02,-0.02 0.02,-0.02 0.02,-0.02 0.01,-0.02 0.02,-0.02 0.01,-0.02 c 0.16,-0.24 0.24,-0.67 0.24,-1.29 l 0,-2.49 -0.78,0 0,-0.51 2.48,0 0,0.51 -0.8,0 0,2.76 c 0,1.28 -0.44,2.02 -1.66,2.02 -0.81,0 -1.29,-0.46 -1.57,-1.05 l 0,0.91 -1.76,0 0,-0.52 0.86,0 0,-4.12 -0.81,0 0,-0.51 2.49,0 0,0.51 -0.78,0 0,2.36 c 0,1.01 0.34,1.77 1.28,1.77 z"
   inkscape:connector-curvature="0"
   style="fill:#000000;stroke-width:0" />
<path
   id="path4216"
   d="m 241.22,707.93 0,-0.8 1.75,0 0,0.51 -0.85,0 0,7.03 -1.75,0 0,-0.51 0.85,0 0,-2.68 c -0.32,0.59 -0.81,0.94 -1.68,0.94 -0.64,0 -1.16,-0.25 -1.56,-0.75 -0.4,-0.49 -0.6,-1.16 -0.6,-1.96 0,-0.81 0.2,-1.46 0.61,-1.97 0.41,-0.51 0.91,-0.75 1.55,-0.75 l 0.28,0.55 c -1.08,0 -1.39,0.98 -1.39,2.17 0,1.19 0.31,2.15 1.39,2.15 1.02,0 1.4,-0.81 1.4,-1.9 l 0,-0.51 c 0,-1.09 -0.38,-1.91 -1.4,-1.91 l 0,0 -0.28,-0.55 c 0.87,0 1.36,0.34 1.68,0.94 z"
   inkscape:connector-curvature="0"
   style="fill:#000000;stroke-width:0" />
<line
   id="line4218"
   y2="707.32001"
   x2="247.21001"
   y1="707.32001"
   x1="244.22"
   style="stroke-width:0.398" />
<path
   id="path4220"
   d="m 251.91,707.93 0,-0.7 c 0,-1.18 -0.39,-1.83 -1.52,-1.83 -0.81,0 -1.23,0.29 -1.35,0.97 l -0.47,0 0,-1.08 c 0.53,-0.23 1.15,-0.37 1.88,-0.37 1.5,0 2.36,0.82 2.36,2.31 l 0,4.53 0.86,0 0,0.52 -1.76,0 0,-0.8 c -0.31,0.59 -0.8,0.94 -1.67,0.94 -0.64,0 -1.17,-0.25 -1.57,-0.75 -0.4,-0.49 -0.59,-1.16 -0.59,-1.96 0,-0.81 0.19,-1.46 0.6,-1.97 0.41,-0.51 0.92,-0.75 1.56,-0.75 l 0.28,0.55 c -1.08,0 -1.4,0.98 -1.4,2.17 0,1.19 0.32,2.15 1.4,2.15 1.02,0 1.39,-0.81 1.39,-1.9 l 0,-0.51 c 0,-1.09 -0.37,-1.91 -1.39,-1.91 l 0,0 -0.28,-0.55 c 0.87,0 1.36,0.34 1.67,0.94 z"
   inkscape:connector-curvature="0"
   style="fill:#000000;stroke-width:0" />
<path
   id="path4222"
   d="m 256.98,712.42 -0.12,0 -0.12,-0.01 -0.12,-0.01 -0.12,-0.01 -0.12,-0.02 -0.11,-0.02 -0.11,-0.02 -0.11,-0.02 -0.11,-0.03 -0.11,-0.03 -0.1,-0.03 -0.11,-0.04 -0.1,-0.04 -0.1,-0.04 -0.1,-0.04 -0.1,-0.04 0,-1.04 0.46,0 c 0.1,0.62 0.52,0.96 1.24,0.96 0.83,0 1.37,-0.41 1.37,-1.23 l 0,-0.36 0,-0.51 0,-1.1 c 0,-0.73 -0.51,-1.24 -1.24,-1.24 l 0,0 c -0.74,0 -1.23,0.45 -1.23,1.17 0,0.83 0.47,1.17 1.32,1.17 l 1.15,0 0,0.51 -1.25,0 c -1.26,0 -2.22,-0.49 -2.22,-1.68 0,-1.07 0.78,-1.68 1.88,-1.68 0.75,0 1.23,0.25 1.59,0.69 l 0,-0.55 1.7,0 0,0.51 -0.8,0 0,2.7 c 0,1.38 -0.8,2.08 -2.21,2.08 z"
   inkscape:connector-curvature="0"
   style="fill:#000000;stroke-width:0" />
<path
   id="path4224"
   d="m 263.11,706.99 0.09,0 0.09,0 0.08,0.01 0.08,0.01 0.07,0.01 0.08,0.01 0.07,0.02 0.07,0.02 0.06,0.02 0.06,0.02 0.06,0.03 0.06,0.03 0.05,0.03 0.05,0.04 0.05,0.03 0.04,0.05 0.04,0.04 0.04,0.04 0.04,0.05 0.04,0.05 0.03,0.06 0.03,0.05 0.02,0.06 0.03,0.07 0.02,0.06 0.02,0.07 0.02,0.07 0.01,0.07 0.02,0.08 0.01,0.08 0,0.08 0.01,0.09 -0.68,0 c -0.01,-0.55 -0.16,-0.88 -0.68,-0.88 -0.23,0 -0.39,0.07 -0.46,0.19 -0.09,0.12 -0.13,0.4 -0.13,0.84 l 0,3.27 1.68,0 0,0.52 -1.68,0 0,1.6 -0.9,0 0,-1.6 -0.79,0 0,-0.52 0.79,0 0,-3.27 c 0,-1.08 0.36,-1.5 1.41,-1.5 z"
   inkscape:connector-curvature="0"
   style="fill:#000000;stroke-width:0" />
<path
   id="path4226"
   d="m 270.31,708.68 -0.72,0 c -0.18,-0.73 -0.63,-1.22 -1.49,-1.22 -1.15,0 -1.56,0.88 -1.56,2.11 l 0,0.04 3.86,0 c -0.03,1.7 -0.78,2.81 -2.45,2.81 l 0,-0.48 c 0.99,0 1.36,-0.77 1.39,-1.81 l 0,0 -2.8,0 c 0.09,0.99 0.44,1.81 1.41,1.81 l 0,0.48 c -0.74,0 -1.33,-0.25 -1.78,-0.75 -0.45,-0.49 -0.68,-1.15 -0.68,-1.96 0,-0.83 0.23,-1.48 0.69,-1.98 0.46,-0.5 1.07,-0.74 1.83,-0.74 1.31,0 2.03,0.62 2.3,1.69 z"
   inkscape:connector-curvature="0"
   style="fill:#000000;stroke-width:0" />
</g>    <g
       id="g4311"
       transform="matrix(1,0,0,-1,59.637501,1102.5697)"
       xml:space="preserve"
       stroke-miterlimit="10.433"
       font-style="normal"
       font-variant="normal"
       font-weight="normal"
       font-stretch="normal"
       font-size-adjust="none"
       letter-spacing="normal"
       word-spacing="normal"
       ns0:text="\\begin{lstlisting}\nresult\n\\end{lstlisting}"
       ns0:preamble="D:\\verilog workbook\\textext_preamble.tex"
       style="font-style:normal;font-variant:normal;font-weight:normal;font-stretch:normal;letter-spacing:normal;word-spacing:normal;text-anchor:start;fill:none;fill-opacity:1;fill-rule:evenodd;stroke:#000000;stroke-linecap:butt;stroke-linejoin:miter;stroke-miterlimit:10.43299961;stroke-dasharray:none;stroke-dashoffset:0;stroke-opacity:1">
<path
   d="m 228.16,712.42 -0.08,0 -0.08,0 -0.08,-0.01 -0.08,-0.01 -0.07,-0.01 -0.07,-0.01 -0.07,-0.02 -0.07,-0.02 -0.06,-0.01 -0.06,-0.03 -0.06,-0.02 -0.06,-0.03 -0.06,-0.02 -0.06,-0.03 -0.05,-0.03 -0.05,-0.04 -0.05,-0.03 -0.05,-0.04 -0.05,-0.04 -0.04,-0.04 -0.05,-0.04 -0.04,-0.05 -0.04,-0.04 -0.04,-0.05 -0.04,-0.05 -0.03,-0.05 -0.04,-0.05 -0.03,-0.06 -0.04,-0.05 -0.03,-0.06 -0.03,-0.05 -0.03,-0.06 0,0.91 -1.75,0 0,-0.51 0.86,0 0,-4.13 -0.81,0 0,-0.51 2.74,0 0,0.51 -1.04,0 0,2.36 c 0,1.02 0.4,1.76 1.37,1.76 0.51,0 0.74,-0.27 0.77,-0.76 l 0.52,0 0,1.29 c -0.31,0.07 -0.62,0.13 -0.97,0.13 z"
   id="path4313"
   inkscape:connector-curvature="0"
   style="fill:#000000;stroke-width:0" />
<path
   d="m 235.36,708.68 -0.71,0 c -0.19,-0.73 -0.63,-1.22 -1.5,-1.22 -1.15,0 -1.56,0.88 -1.56,2.11 l 0,0.04 3.86,0 c -0.03,1.7 -0.77,2.81 -2.45,2.81 l 0,-0.48 c 1,0 1.37,-0.77 1.4,-1.81 l 0,0 -2.81,0 c 0.09,0.99 0.44,1.81 1.41,1.81 l 0,0.48 c -0.74,0 -1.33,-0.25 -1.78,-0.75 -0.44,-0.49 -0.67,-1.15 -0.67,-1.96 0,-0.83 0.23,-1.48 0.68,-1.98 0.46,-0.5 1.07,-0.74 1.83,-0.74 1.32,0 2.03,0.62 2.3,1.69 z"
   id="path4315"
   inkscape:connector-curvature="0"
   style="fill:#000000;stroke-width:0" />
<path
   d="m 239.36,706.99 0.11,0 0.11,0 0.1,0.01 0.11,0.01 0.1,0.01 0.1,0.02 0.1,0.02 0.1,0.02 0.09,0.02 0.09,0.03 0.09,0.03 0.08,0.03 0.09,0.04 0.08,0.04 0.07,0.04 0.08,0.05 0.07,0.05 0.06,0.05 0.07,0.06 0.06,0.06 0.05,0.06 0.05,0.07 0.05,0.07 0.04,0.07 0.04,0.08 0.03,0.07 0.03,0.09 0.02,0.08 0.02,0.09 0.02,0.1 0,0.09 0.01,0.1 c 0,0.36 -0.11,0.66 -0.33,0.89 -0.22,0.23 -0.57,0.42 -1.06,0.57 l -0.71,0.21 c -0.44,0.14 -0.73,0.27 -0.87,0.4 -0.15,0.13 -0.22,0.31 -0.22,0.53 0,0.59 0.48,0.79 1.14,0.79 0.73,0 1.22,-0.37 1.25,-1.06 l 0.52,0 0,1.12 c -0.54,0.23 -1.12,0.42 -1.8,0.42 -1.1,0 -1.96,-0.48 -1.96,-1.51 0,-0.33 0.1,-0.61 0.3,-0.82 0.2,-0.2 0.52,-0.39 0.97,-0.53 l 0.64,-0.22 c 0.5,-0.16 0.83,-0.31 0.98,-0.45 0.15,-0.14 0.23,-0.31 0.23,-0.54 0,-0.65 -0.53,-0.89 -1.24,-0.89 -0.85,0 -1.34,0.35 -1.37,1.15 l -0.52,0 0,-1.2 c 0.57,-0.25 1.17,-0.42 1.93,-0.42 z"
   id="path4317"
   inkscape:connector-curvature="0"
   style="fill:#000000;stroke-width:0" />
<path
   d="m 245.94,707.64 -0.04,0 -0.03,0 -0.04,0.01 -0.03,0 -0.04,0 -0.03,0 -0.03,0.01 -0.04,0 -0.03,0.01 -0.03,0.01 -0.03,0 -0.03,0.01 -0.03,0.01 -0.02,0.01 -0.03,0.01 -0.03,0.01 -0.02,0.01 -0.03,0.01 -0.02,0.02 -0.02,0.01 -0.03,0.01 -0.02,0.02 -0.02,0.01 -0.02,0.02 -0.02,0.02 -0.02,0.01 -0.02,0.02 -0.01,0.02 -0.02,0.02 -0.02,0.02 -0.01,0.02 -0.02,0.02 c -0.15,0.23 -0.23,0.67 -0.23,1.29 l 0,3 -1.7,0 0,-0.52 0.81,0 0,-2.76 c 0,-1.29 0.44,-2.01 1.67,-2.01 0.8,0 1.28,0.46 1.56,1.05 l 0,-0.91 1.74,0 0,0.51 -0.84,0 0,4.64 -1.68,0 0,-0.52 0.78,0 0,-2.34 c 0,-1.01 -0.34,-1.78 -1.28,-1.78 z"
   id="path4319"
   inkscape:connector-curvature="0"
   style="fill:#000000;stroke-width:0" />
<polygon
   points="253.14,707.13 253.14,707.64 252.3,707.64 252.3,714.67 250.54,714.67 250.54,714.16 251.4,714.16 251.4,707.64 250.54,707.64 250.54,707.13 "
   id="polygon4321"
   style="fill:#000000;stroke-width:0" />
<path
   d="m 256.86,706.99 0.09,0 0.08,0 0.08,0.01 0.08,0.01 0.08,0.01 0.07,0.01 0.07,0.02 0.07,0.02 0.06,0.02 0.06,0.02 0.06,0.03 0.06,0.03 0.05,0.03 0.05,0.04 0.05,0.03 0.05,0.05 0.04,0.04 0.04,0.04 0.03,0.05 0.04,0.05 0.03,0.06 0.03,0.05 0.03,0.06 0.02,0.07 0.02,0.06 0.02,0.07 0.02,0.07 0.02,0.07 0.01,0.08 0.01,0.08 0.01,0.08 0,0.09 -0.68,0 c 0,-0.55 -0.15,-0.88 -0.67,-0.88 -0.23,0 -0.39,0.07 -0.47,0.19 -0.08,0.12 -0.13,0.4 -0.13,0.84 l 0,3.27 1.68,0 0,0.52 -1.68,0 0,1.6 -0.9,0 0,-1.6 -0.79,0 0,-0.52 0.79,0 0,-3.27 c 0,-1.08 0.36,-1.5 1.42,-1.5 z"
   id="path4323"
   inkscape:connector-curvature="0"
   style="fill:#000000;stroke-width:0" />
</g>    <g
       style="font-style:normal;font-variant:normal;font-weight:normal;font-stretch:normal;letter-spacing:normal;word-spacing:normal;text-anchor:start;fill:none;fill-opacity:1;fill-rule:evenodd;stroke:#000000;stroke-linecap:butt;stroke-linejoin:miter;stroke-miterlimit:10.43299961;stroke-dasharray:none;stroke-dashoffset:0;stroke-opacity:1"
       ns0:preamble="D:\\verilog workbook\\textext_preamble.tex"
       ns0:text="\\begin{lstlisting}\n&amp;\n\\end{lstlisting}"
       word-spacing="normal"
       letter-spacing="normal"
       font-size-adjust="none"
       font-stretch="normal"
       font-weight="normal"
       font-variant="normal"
       font-style="normal"
       stroke-miterlimit="10.433"
       xml:space="preserve"
       transform="matrix(1,0,0,-1,11.115001,1108.2497)"
       id="g4413">
<path
   id="path4415"
   d="m 229.38,710.72 0.83,0 0,0.52 -2.3,0 0,-0.52 0.88,0 c -0.07,-0.75 -0.36,-1.33 -0.77,-1.8 l -2.51,2.65 c -0.35,0.36 -0.58,0.63 -0.69,0.83 -0.11,0.2 -0.17,0.4 -0.17,0.6 0,0.6 0.5,0.98 1.13,0.98 0.73,0 1.13,-0.4 1.22,-1.06 l 0.55,0 0,1.25 c -0.37,0.11 -0.71,0.19 -1,0.25 -0.29,0.06 -0.53,0.08 -0.75,0.08 -1.17,0 -2.08,-0.57 -2.08,-1.68 0,-0.53 0.2,-0.88 0.48,-1.21 l 0.34,-0.39 2.83,-2.97 c -0.41,-0.39 -0.97,-0.68 -1.72,-0.68 -0.56,0 -1.03,0.18 -1.4,0.55 -0.37,0.37 -0.56,0.81 -0.56,1.35 0,0.79 0.38,1.33 0.85,1.75 l 0,0 -0.34,0.39 c -0.5,-0.32 -0.88,-0.67 -1.13,-1.05 -0.25,-0.38 -0.36,-0.77 -0.36,-1.2 0,-1.53 1.13,-2.37 2.72,-2.37 1.03,0 1.74,0.33 2.34,0.84 l 0.67,-0.7 1.95,0 0,0.51 -1.14,0 -0.84,0.89 c 0.5,0.57 0.85,1.29 0.97,2.19 z"
   inkscape:connector-curvature="0"
   style="fill:#000000;stroke-width:0" />
</g>    <g
       id="g4505"
       transform="matrix(1,0,0,-1,-48.474999,1092.9122)"
       xml:space="preserve"
       stroke-miterlimit="10.433"
       font-style="normal"
       font-variant="normal"
       font-weight="normal"
       font-stretch="normal"
       font-size-adjust="none"
       letter-spacing="normal"
       word-spacing="normal"
       ns0:text="\\begin{lstlisting}\na\n\\end{lstlisting}"
       ns0:preamble="D:\\verilog workbook\\textext_preamble.tex"
       style="font-style:normal;font-variant:normal;font-weight:normal;font-stretch:normal;letter-spacing:normal;word-spacing:normal;text-anchor:start;fill:none;fill-opacity:1;fill-rule:evenodd;stroke:#000000;stroke-linecap:butt;stroke-linejoin:miter;stroke-miterlimit:10.43299961;stroke-dasharray:none;stroke-dashoffset:0;stroke-opacity:1">
<path
   d="m 226.11,712.42 -0.12,0 -0.13,-0.01 -0.12,-0.01 -0.11,-0.01 -0.12,-0.02 -0.11,-0.02 -0.12,-0.02 -0.11,-0.02 -0.1,-0.03 -0.11,-0.03 -0.1,-0.03 -0.11,-0.04 -0.1,-0.04 -0.1,-0.04 -0.1,-0.04 -0.1,-0.04 0,-1.04 0.46,0 c 0.1,0.62 0.52,0.96 1.24,0.96 0.83,0 1.37,-0.41 1.37,-1.23 l 0,-0.36 0,-0.51 0,-1.1 c 0,-0.73 -0.51,-1.24 -1.25,-1.24 l 0,0 c -0.74,0 -1.22,0.45 -1.22,1.17 0,0.83 0.47,1.17 1.31,1.17 l 1.16,0 0,0.51 -1.26,0 c -1.25,0 -2.21,-0.49 -2.21,-1.68 0,-1.07 0.78,-1.68 1.87,-1.68 0.76,0 1.24,0.25 1.6,0.69 l 0,-0.55 1.7,0 0,0.51 -0.8,0 0,2.7 c 0,1.38 -0.8,2.08 -2.21,2.08 z"
   id="path4507"
   inkscape:connector-curvature="0"
   style="fill:#000000;stroke-width:0" />
</g>    <g
       style="font-style:normal;font-variant:normal;font-weight:normal;font-stretch:normal;letter-spacing:normal;word-spacing:normal;text-anchor:start;fill:none;fill-opacity:1;fill-rule:evenodd;stroke:#000000;stroke-linecap:butt;stroke-linejoin:miter;stroke-miterlimit:10.43299961;stroke-dasharray:none;stroke-dashoffset:0;stroke-opacity:1"
       ns0:preamble="D:\\verilog workbook\\textext_preamble.tex"
       ns0:text="\\begin{lstlisting}\nb\n\\end{lstlisting}"
       word-spacing="normal"
       letter-spacing="normal"
       font-size-adjust="none"
       font-stretch="normal"
       font-weight="normal"
       font-variant="normal"
       font-style="normal"
       stroke-miterlimit="10.433"
       xml:space="preserve"
       transform="matrix(1,0,0,-1,-48.494999,1115.7322)"
       id="g4597">
<path
   id="path4599"
   d="m 226.95,706.99 -0.28,0.55 c -1.02,0 -1.39,0.82 -1.39,1.91 l 0,0.51 c 0,1.09 0.37,1.9 1.39,1.9 0.46,0 0.8,-0.19 1.04,-0.54 0.24,-0.36 0.36,-0.9 0.36,-1.61 0,-1.18 -0.33,-2.17 -1.4,-2.17 l 0,0 0.28,-0.55 c 0.64,0 1.16,0.24 1.56,0.75 0.4,0.51 0.61,1.16 0.61,1.97 0,0.8 -0.21,1.47 -0.61,1.96 -0.4,0.5 -0.92,0.75 -1.56,0.75 -0.87,0 -1.35,-0.35 -1.67,-0.94 l 0,3.19 -1.76,0 0,-0.51 0.86,0 0,-6.52 -0.86,0 0,-0.51 1.76,0 0,0.8 c 0.32,-0.6 0.8,-0.94 1.67,-0.94 z"
   inkscape:connector-curvature="0"
   style="fill:#000000;stroke-width:0" />
</g>    <path
       style="fill:none;fill-rule:evenodd;stroke:#000000;stroke-width:1.25;stroke-linecap:butt;stroke-linejoin:miter;stroke-miterlimit:4;stroke-dasharray:none;stroke-opacity:1"
       d="m 223.43751,383.6122 0,32.8125 14.0625,0 c 0,0 14.0625,0 14.0625,-17.1875 0,-15.625 -14.6875,-15.625 -14.6875,-15.625 l -14.0625,0"
       id="path4174"
       inkscape:connector-curvature="0"
       sodipodi:nodetypes="cccccc" />
  </g>
</svg>
