<?xml version="1.0" encoding="UTF-8" standalone="no"?>
<!-- Created with Inkscape (http://www.inkscape.org/) -->

<svg
   xmlns:ns0="http://www.iki.fi/pav/software/textext/"
   xmlns:osb="http://www.openswatchbook.org/uri/2009/osb"
   xmlns:dc="http://purl.org/dc/elements/1.1/"
   xmlns:cc="http://creativecommons.org/ns#"
   xmlns:rdf="http://www.w3.org/1999/02/22-rdf-syntax-ns#"
   xmlns:svg="http://www.w3.org/2000/svg"
   xmlns="http://www.w3.org/2000/svg"
   xmlns:xlink="http://www.w3.org/1999/xlink"
   xmlns:sodipodi="http://sodipodi.sourceforge.net/DTD/sodipodi-0.dtd"
   xmlns:inkscape="http://www.inkscape.org/namespaces/inkscape"
   width="220"
   height="203"
   viewBox="0 0 220.00001 203"
   id="svg3336"
   version="1.1"
   inkscape:version="0.91 r13725"
   sodipodi:docname="dff_struct.svg">
  <sodipodi:namedview
     id="base"
     pagecolor="#ffffff"
     bordercolor="#666666"
     borderopacity="1.0"
     inkscape:pageopacity="0.0"
     inkscape:pageshadow="2"
     inkscape:zoom="2.56"
     inkscape:cx="118.42001"
     inkscape:cy="128.12447"
     inkscape:document-units="px"
     inkscape:current-layer="layer1"
     showgrid="true"
     showguides="false"
     gridtolerance="10000"
     objecttolerance="20"
     inkscape:snap-page="true"
     inkscape:object-nodes="false"
     inkscape:snap-intersection-paths="false"
     inkscape:object-paths="true"
     inkscape:snap-smooth-nodes="false"
     inkscape:snap-midpoints="false"
     inkscape:snap-grids="true"
     inkscape:window-width="1920"
     inkscape:window-height="901"
     inkscape:window-x="0"
     inkscape:window-y="25"
     inkscape:window-maximized="1"
     units="px"
     inkscape:snap-nodes="false">
    <inkscape:grid
       type="xygrid"
       id="grid3810"
       snapvisiblegridlinesonly="true"
       dotted="false"
       empspacing="5" />
  </sodipodi:namedview>
  <defs
     id="defs3338">
    <linearGradient
       id="linearGradient4622"
       osb:paint="solid">
      <stop
         style="stop-color:#aa0000;stop-opacity:0;"
         offset="0"
         id="stop4624" />
    </linearGradient>
    <linearGradient
       inkscape:collect="always"
       xlink:href="#linearGradient4622"
       id="linearGradient4626"
       x1="300"
       y1="482.04974"
       x2="339.375"
       y2="482.04974"
       gradientUnits="userSpaceOnUse"
       gradientTransform="matrix(0.11539992,0,0,0.12334576,141.85299,864.91193)" />
    <linearGradient
       inkscape:collect="always"
       xlink:href="#linearGradient4622"
       id="linearGradient4626-6"
       x1="300"
       y1="482.04974"
       x2="339.375"
       y2="482.04974"
       gradientUnits="userSpaceOnUse"
       gradientTransform="matrix(0.11539992,0,0,0.12334576,141.91557,916.78527)" />
    <linearGradient
       inkscape:collect="always"
       xlink:href="#linearGradient4622"
       id="linearGradient4626-6-3"
       x1="300"
       y1="482.04974"
       x2="339.375"
       y2="482.04974"
       gradientUnits="userSpaceOnUse"
       gradientTransform="matrix(0.11539992,0,0,0.12334576,56.51565,858.41811)" />
    <linearGradient
       inkscape:collect="always"
       xlink:href="#linearGradient4622"
       id="linearGradient4626-1"
       x1="300"
       y1="482.04974"
       x2="339.375"
       y2="482.04974"
       gradientUnits="userSpaceOnUse"
       gradientTransform="matrix(0.11539992,0,0,0.12334576,56.453073,806.54476)" />
    <linearGradient
       inkscape:collect="always"
       xlink:href="#linearGradient4622"
       id="linearGradient4626-6-3-9"
       x1="300"
       y1="482.04974"
       x2="339.375"
       y2="482.04974"
       gradientUnits="userSpaceOnUse"
       gradientTransform="matrix(0.11539992,0,0,0.12334576,56.526495,976.18978)" />
    <linearGradient
       inkscape:collect="always"
       xlink:href="#linearGradient4622"
       id="linearGradient4626-1-7"
       x1="300"
       y1="482.04974"
       x2="339.375"
       y2="482.04974"
       gradientUnits="userSpaceOnUse"
       gradientTransform="matrix(0.11539992,0,0,0.12334576,56.463926,924.31644)" />
  </defs>
  <metadata
     id="metadata3341">
    <rdf:RDF>
      <cc:Work
         rdf:about="">
        <dc:format>image/svg+xml</dc:format>
        <dc:type
           rdf:resource="http://purl.org/dc/dcmitype/StillImage" />
        <dc:title></dc:title>
      </cc:Work>
    </rdf:RDF>
  </metadata>
  <g
     inkscape:label="Layer 1"
     inkscape:groupmode="layer"
     id="layer1"
     transform="translate(0,-849.36217)">
    <path
       style="fill:none;fill-rule:evenodd;stroke:#000000;stroke-width:0.80093962;stroke-linecap:butt;stroke-linejoin:miter;stroke-miterlimit:4;stroke-dasharray:none;stroke-opacity:1"
       d="m 153.94653,911.85604 0,26.28083 11.26322,0 c 0,0 11.26321,0 11.26321,-13.76615 0,-12.51468 -11.7638,-12.51468 -11.7638,-12.51468 l -11.26321,0"
       id="path4174"
       inkscape:connector-curvature="0"
       sodipodi:nodetypes="cccccc" />
    <ellipse
       style="opacity:1;fill:url(#linearGradient4626);fill-opacity:1;stroke:#000000;stroke-width:0.80093962;stroke-miterlimit:4;stroke-dasharray:none;stroke-opacity:1"
       id="path3812"
       cx="178.74489"
       cy="924.37079"
       rx="2.2719359"
       ry="2.4283695" />
    <path
       style="fill:none;fill-rule:evenodd;stroke:#000000;stroke-width:0.80093962;stroke-linecap:butt;stroke-linejoin:miter;stroke-miterlimit:4;stroke-dasharray:none;stroke-opacity:1"
       d="m 154.00911,963.72938 0,26.28083 11.26322,0 c 0,0 11.26321,0 11.26321,-13.76615 0,-12.51468 -11.7638,-12.51468 -11.7638,-12.51468 l -11.26322,0"
       id="path4174-5"
       inkscape:connector-curvature="0"
       sodipodi:nodetypes="cccccc" />
    <ellipse
       style="opacity:1;fill:url(#linearGradient4626-6);fill-opacity:1;stroke:#000000;stroke-width:0.80093962;stroke-miterlimit:4;stroke-dasharray:none;stroke-opacity:1"
       id="path3812-3"
       cx="178.80748"
       cy="976.2442"
       rx="2.2719359"
       ry="2.4283695" />
    <circle
       style="opacity:1;fill:#000000;fill-opacity:1;stroke:none;stroke-width:0.625;stroke-miterlimit:4;stroke-dasharray:none;stroke-opacity:1"
       id="path12112-9-2"
       cx="198.12662"
       cy="976.2442"
       r="1.1734104" />
    <path
       style="fill:none;fill-rule:evenodd;stroke:#000000;stroke-width:0.40046981;stroke-linecap:butt;stroke-linejoin:miter;stroke-miterlimit:4;stroke-dasharray:none;stroke-opacity:1"
       d="m 181.07941,976.24409 36.44123,10e-6"
       id="path11296-3"
       inkscape:connector-curvature="0"
       sodipodi:nodetypes="cc" />
    <circle
       style="opacity:1;fill:#000000;fill-opacity:1;stroke:none;stroke-width:0.625;stroke-miterlimit:4;stroke-dasharray:none;stroke-opacity:1"
       id="path12112-9-2-5"
       cx="198.06404"
       cy="924.37079"
       r="1.1734104" />
    <path
       style="fill:none;fill-rule:evenodd;stroke:#000000;stroke-width:0.40046981;stroke-linecap:butt;stroke-linejoin:miter;stroke-miterlimit:4;stroke-dasharray:none;stroke-opacity:1"
       d="m 181.01684,924.37072 36.44123,10e-6"
       id="path11296-3-6"
       inkscape:connector-curvature="0"
       sodipodi:nodetypes="cc" />
    <path
       style="fill:none;fill-rule:evenodd;stroke:#000000;stroke-width:0.40046981;stroke-linecap:butt;stroke-linejoin:miter;stroke-miterlimit:4;stroke-dasharray:none;stroke-opacity:1"
       d="m 154.00911,931.6918 -28.03288,0 0,8.00939 72.08456,24.02819 0,12.0141"
       id="path6362"
       inkscape:connector-curvature="0" />
    <path
       style="fill:none;fill-rule:evenodd;stroke:#000000;stroke-width:0.40046981;stroke-linecap:butt;stroke-linejoin:miter;stroke-miterlimit:4;stroke-dasharray:none;stroke-opacity:1"
       d="m 154.01236,969.59581 -28.03288,0 0,-8.0094 72.08456,-24.02819 0,-12.01409"
       id="path6362-9"
       inkscape:connector-curvature="0" />
    <path
       style="fill:none;fill-rule:evenodd;stroke:#000000;stroke-width:0.40046981;stroke-linecap:butt;stroke-linejoin:miter;stroke-miterlimit:4;stroke-dasharray:none;stroke-opacity:1"
       d="m 153.94653,917.87694 -51.99849,0"
       id="path6525"
       inkscape:connector-curvature="0" />
    <path
       style="fill:none;fill-rule:evenodd;stroke:#000000;stroke-width:0.40046981;stroke-linecap:butt;stroke-linejoin:miter;stroke-miterlimit:4;stroke-dasharray:none;stroke-opacity:1"
       d="m 154.12303,983.77523 -52.17499,0"
       id="path6531"
       inkscape:connector-curvature="0" />
    <circle
       style="opacity:1;fill:#000000;fill-opacity:1;stroke:none;stroke-width:0.625;stroke-miterlimit:4;stroke-dasharray:none;stroke-opacity:1"
       id="path12112-9-2-5-9"
       cx="112.65759"
       cy="917.79407"
       r="1.1734104" />
    <circle
       style="opacity:1;fill:#000000;fill-opacity:1;stroke:none;stroke-width:0.625;stroke-miterlimit:4;stroke-dasharray:none;stroke-opacity:1"
       id="path12112-9-2-5-9-7"
       cx="112.71149"
       cy="983.77533"
       r="1.1734104" />
    <ellipse
       style="opacity:1;fill:url(#linearGradient4626-1);fill-opacity:1;stroke:#000000;stroke-width:0.80093962;stroke-miterlimit:4;stroke-dasharray:none;stroke-opacity:1"
       id="path3812-2"
       cx="93.344978"
       cy="866.0036"
       rx="2.2719359"
       ry="2.4283695" />
    <ellipse
       style="opacity:1;fill:url(#linearGradient4626-6-3);fill-opacity:1;stroke:#000000;stroke-width:0.80093962;stroke-miterlimit:4;stroke-dasharray:none;stroke-opacity:1"
       id="path3812-3-9"
       cx="93.407539"
       cy="917.87701"
       rx="2.2719359"
       ry="2.4283695" />
    <path
       style="fill:none;fill-rule:evenodd;stroke:#000000;stroke-width:0.40046981;stroke-linecap:butt;stroke-linejoin:miter;stroke-miterlimit:4;stroke-dasharray:none;stroke-opacity:1"
       d="m 95.62775,917.87693 6.32029,10e-6"
       id="path11296-3-3"
       inkscape:connector-curvature="0"
       sodipodi:nodetypes="cc" />
    <ellipse
       style="opacity:1;fill:url(#linearGradient4626-1-7);fill-opacity:1;stroke:#000000;stroke-width:0.80093962;stroke-miterlimit:4;stroke-dasharray:none;stroke-opacity:1"
       id="path3812-2-8"
       cx="93.355827"
       cy="983.77533"
       rx="2.2719359"
       ry="2.4283695" />
    <ellipse
       style="opacity:1;fill:url(#linearGradient4626-6-3-9);fill-opacity:1;stroke:#000000;stroke-width:0.80093962;stroke-miterlimit:4;stroke-dasharray:none;stroke-opacity:1"
       id="path3812-3-9-4"
       cx="93.418404"
       cy="1035.6487"
       rx="2.2719359"
       ry="2.4283695" />
    <path
       style="fill:none;fill-rule:evenodd;stroke:#000000;stroke-width:0.40046981;stroke-linecap:butt;stroke-linejoin:miter;stroke-miterlimit:4;stroke-dasharray:none;stroke-opacity:1"
       d="m 95.62775,983.77523 6.32029,0"
       id="path11296-3-6-1-0"
       inkscape:connector-curvature="0"
       sodipodi:nodetypes="cc" />
    <path
       style="fill:none;fill-rule:evenodd;stroke:#000000;stroke-width:0.80093962;stroke-linecap:butt;stroke-linejoin:miter;stroke-miterlimit:4;stroke-dasharray:none;stroke-opacity:1"
       d="m 68.620035,1023.134 0,26.2808 11.263209,0 c 0,0 11.263209,0 11.263209,-13.7661 0,-12.5147 -11.763796,-12.5147 -11.763796,-12.5147 l -11.26321,0"
       id="path4174-5-2-3-3"
       inkscape:connector-curvature="0"
       sodipodi:nodetypes="cccccc" />
    <path
       style="fill:none;fill-rule:evenodd;stroke:#000000;stroke-width:0.42547491;stroke-linecap:butt;stroke-linejoin:miter;stroke-miterlimit:4;stroke-dasharray:none;stroke-opacity:1"
       d="m 68.733952,1043.1798 -58.8939626,0"
       id="path6531-1-75-6"
       inkscape:connector-curvature="0" />
    <path
       style="fill:none;fill-rule:evenodd;stroke:#000000;stroke-width:0.80093962;stroke-linecap:butt;stroke-linejoin:miter;stroke-miterlimit:4;stroke-dasharray:none;stroke-opacity:1"
       d="m 68.557465,971.26057 0,26.28083 11.26321,0 c 0,0 11.263209,0 11.263209,-13.76615 0,-12.51468 -11.763797,-12.51468 -11.763797,-12.51468 l -11.263209,0"
       id="path4174-5-2-3-0"
       inkscape:connector-curvature="0"
       sodipodi:nodetypes="cccccc" />
    <path
       style="fill:none;fill-rule:evenodd;stroke:#000000;stroke-width:0.80093962;stroke-linecap:butt;stroke-linejoin:miter;stroke-miterlimit:4;stroke-dasharray:none;stroke-opacity:1"
       d="m 68.609182,905.36226 0,26.28083 11.263209,0 c 0,0 11.26321,0 11.26321,-13.76615 0,-12.51468 -11.763797,-12.51468 -11.763797,-12.51468 l -11.263209,0"
       id="path4174-5-2-3-06"
       inkscape:connector-curvature="0"
       sodipodi:nodetypes="cccccc" />
    <path
       style="fill:none;fill-rule:evenodd;stroke:#000000;stroke-width:0.80093962;stroke-linecap:butt;stroke-linejoin:miter;stroke-miterlimit:4;stroke-dasharray:none;stroke-opacity:1"
       d="m 68.546613,853.48886 0,26.28083 11.263209,0 c 0,0 11.263209,0 11.263209,-13.76615 0,-12.51468 -11.763796,-12.51468 -11.763796,-12.51468 l -11.26321,0"
       id="path4174-5-2-3-5"
       inkscape:connector-curvature="0"
       sodipodi:nodetypes="cccccc" />
    <path
       style="fill:none;fill-rule:evenodd;stroke:#000000;stroke-width:0.40046981;stroke-linecap:butt;stroke-linejoin:miter;stroke-miterlimit:4;stroke-dasharray:none;stroke-opacity:1"
       d="m 68.60593,873.32468 -28.032886,0 0,8.00939 72.084556,24.02819 0,12.01409"
       id="path6362-6"
       inkscape:connector-curvature="0" />
    <path
       style="fill:none;fill-rule:evenodd;stroke:#000000;stroke-width:0.40046981;stroke-linecap:butt;stroke-linejoin:miter;stroke-miterlimit:4;stroke-dasharray:none;stroke-opacity:1"
       d="m 68.609182,911.22869 -28.032887,0 0,-8.0094 72.084555,-24.02819 0,-12.01409"
       id="path6362-9-5"
       inkscape:connector-curvature="0" />
    <path
       style="fill:none;fill-rule:evenodd;stroke:#000000;stroke-width:0.40046981;stroke-linecap:butt;stroke-linejoin:miter;stroke-miterlimit:4;stroke-dasharray:none;stroke-opacity:1"
       d="m 95.616898,866.00354 17.046172,0 0,1.4045"
       id="path7089"
       inkscape:connector-curvature="0" />
    <path
       style="fill:none;fill-rule:evenodd;stroke:#000000;stroke-width:0.40046981;stroke-linecap:butt;stroke-linejoin:miter;stroke-miterlimit:4;stroke-dasharray:none;stroke-opacity:1"
       d="m 68.60593,977.12699 -28.032886,0 0,-10.57446 72.084556,-31.72342 0,-15.86171"
       id="path6362-9-6"
       inkscape:connector-curvature="0" />
    <path
       style="fill:none;fill-rule:evenodd;stroke:#000000;stroke-width:0.40046981;stroke-linecap:butt;stroke-linejoin:miter;stroke-miterlimit:4;stroke-dasharray:none;stroke-opacity:1"
       d="m 68.67936,1028.3275 -28.032878,0 0,-8.0094 72.084548,-24.02817 0,-12.01409"
       id="path6362-6-3"
       inkscape:connector-curvature="0" />
    <path
       style="fill:none;fill-rule:evenodd;stroke:#000000;stroke-width:0.40046981;stroke-linecap:butt;stroke-linejoin:miter;stroke-miterlimit:4;stroke-dasharray:none;stroke-opacity:1"
       d="m 68.682612,990.42351 -28.032878,0 0,8.00939 72.084546,24.0281 0,12.0141"
       id="path6362-9-5-7"
       inkscape:connector-curvature="0" />
    <path
       style="fill:none;fill-rule:evenodd;stroke:#000000;stroke-width:0.40046981;stroke-linecap:butt;stroke-linejoin:miter;stroke-miterlimit:4;stroke-dasharray:none;stroke-opacity:1"
       d="m 95.690328,1035.6487 17.046172,0 0,-1.4045"
       id="path7089-4"
       inkscape:connector-curvature="0" />
    <circle
       style="opacity:1;fill:#000000;fill-opacity:1;stroke:none;stroke-width:0.625;stroke-miterlimit:4;stroke-dasharray:none;stroke-opacity:1"
       id="path12112-9-2-5-9-7-5"
       cx="40.649731"
       cy="990.42358"
       r="1.1734104" />
    <path
       style="fill:none;fill-rule:evenodd;stroke:#000000;stroke-width:0.38293529;stroke-linecap:butt;stroke-linejoin:miter;stroke-miterlimit:4;stroke-dasharray:none;stroke-opacity:1"
       d="m 43.044535,990.42351 -17.185753,0 0,-131.06822 42.693189,0"
       id="path7148"
       inkscape:connector-curvature="0" />
    <path
       style="fill:none;fill-rule:evenodd;stroke:#000000;stroke-width:0.38293529;stroke-linecap:butt;stroke-linejoin:miter;stroke-miterlimit:4;stroke-dasharray:none;stroke-opacity:1"
       d="m 68.561894,984.40098 -35.379745,0 0,-58.99287 35.427033,0"
       id="path7154"
       inkscape:connector-curvature="0" />
    <circle
       style="opacity:1;fill:#000000;fill-opacity:1;stroke:none;stroke-width:0.625;stroke-miterlimit:4;stroke-dasharray:none;stroke-opacity:1"
       id="path12112-9-2-5-9-7-2"
       cx="33.067238"
       cy="956.09253"
       r="1.1734104" />
    <path
       style="fill:none;fill-rule:evenodd;stroke:#000000;stroke-width:0.30955759;stroke-linecap:butt;stroke-linejoin:miter;stroke-miterlimit:4;stroke-dasharray:none;stroke-opacity:1"
       d="m 33.067238,956.07796 -23.2272486,0"
       id="path7171"
       inkscape:connector-curvature="0" />
    <g
       transform="matrix(0.80093961,0,0,0.80093961,32.20231,813.17983)"
       ns0:text="Q"
       ns0:preamble="/home/bqwer/workbook git/textext_preamble.tex"
       id="g3430">
      <defs
         id="defs3432">
        <g
           id="g3434">
          <symbol
             overflow="visible"
             id="textext-b562eaa2-0"
             style="overflow:visible">
            <path
               style="stroke:none"
               d="m 0.5,1.765625 4.984375,0 0,-8.796875 -4.984375,0 z m 0.5625,-0.5625 0,-7.671875 3.859375,0 0,7.671875 z m 0,0"
               id="path3437"
               inkscape:connector-curvature="0" />
          </symbol>
          <symbol
             overflow="visible"
             id="textext-b562eaa2-1"
             style="overflow:visible">
            <path
               style="stroke:none"
               d="m 6.5625,1.59375 0,-0.890625 -0.140625,0 C 5.6875,0.703125 5.21875,0.484375 4.875,0.0625 5.734375,-0.125 6.40625,-0.546875 6.890625,-1.203125 7.375,-1.859375 7.609375,-2.671875 7.609375,-3.625 c 0,-1.140625 -0.3125,-2.046875 -0.953125,-2.734375 -0.65625,-0.6875 -1.515625,-1.03125 -2.5625,-1.03125 -1.109375,0 -1.875,0.375 -2.453125,0.953125 C 0.96875,-5.765625 0.5625,-4.90625 0.5625,-3.625 c 0,1.140625 0.328125,2.046875 0.984375,2.734375 0.65625,0.6875 1.546875,1.03125 2.65625,1.03125 0.46875,0.84375 1.1875,1.390625 2.359375,1.453125 z M 1.671875,-3.625 c 0,-1.90625 0.640625,-3.25 2.421875,-3.25 1.765625,0 2.40625,1.34375 2.40625,3.25 0,1.90625 -0.640625,3.25 -2.40625,3.25 -1.78125,0 -2.421875,-1.34375 -2.421875,-3.25 z m 0,0"
               id="path3440"
               inkscape:connector-curvature="0" />
          </symbol>
        </g>
      </defs>
      <g
         id="textext-b562eaa2-2">
        <g
           style="fill:#000000;fill-opacity:1"
           id="g3443">
          <use
             xlink:href="#textext-b562eaa2-1"
             x="223.43201"
             y="134.765"
             id="use3445"
             width="100%"
             height="100%" />
        </g>
      </g>
    </g>
    <g
       id="g3613"
       ns0:preamble="/home/bqwer/workbook git/textext_preamble.tex"
       ns0:text="$\\overline{\\mbox{Q}}$"
       transform="matrix(0.80093961,0,0,0.80093961,32.22902,864.92269)">
      <defs
         id="defs3615">
        <g
           id="g3617">
          <symbol
             style="overflow:visible"
             id="textext-a5874d38-0"
             overflow="visible">
            <path
               inkscape:connector-curvature="0"
               id="path3620"
               d="m 0.5,1.765625 4.984375,0 0,-8.796875 -4.984375,0 z m 0.5625,-0.5625 0,-7.671875 3.859375,0 0,7.671875 z m 0,0"
               style="stroke:none" />
          </symbol>
          <symbol
             style="overflow:visible"
             id="textext-a5874d38-1"
             overflow="visible">
            <path
               inkscape:connector-curvature="0"
               id="path3623"
               d="m 6.5625,1.59375 0,-0.890625 -0.140625,0 C 5.6875,0.703125 5.21875,0.484375 4.875,0.0625 5.734375,-0.125 6.40625,-0.546875 6.890625,-1.203125 7.375,-1.859375 7.609375,-2.671875 7.609375,-3.625 c 0,-1.140625 -0.3125,-2.046875 -0.953125,-2.734375 -0.65625,-0.6875 -1.515625,-1.03125 -2.5625,-1.03125 -1.109375,0 -1.875,0.375 -2.453125,0.953125 C 0.96875,-5.765625 0.5625,-4.90625 0.5625,-3.625 c 0,1.140625 0.328125,2.046875 0.984375,2.734375 0.65625,0.6875 1.546875,1.03125 2.65625,1.03125 0.46875,0.84375 1.1875,1.390625 2.359375,1.453125 z M 1.671875,-3.625 c 0,-1.90625 0.640625,-3.25 2.421875,-3.25 1.765625,0 2.40625,1.34375 2.40625,3.25 0,1.90625 -0.640625,3.25 -2.40625,3.25 -1.78125,0 -2.421875,-1.34375 -2.421875,-3.25 z m 0,0"
               style="stroke:none" />
          </symbol>
        </g>
      </defs>
      <g
         id="textext-a5874d38-2">
        <path
           inkscape:connector-curvature="0"
           id="path3626"
           transform="matrix(1,0,0,-1,223.432,126.037)"
           d="m 0.00159375,0.00184375 8.16406225,0"
           style="fill:none;stroke:#000000;stroke-width:0.398;stroke-linecap:butt;stroke-linejoin:miter;stroke-miterlimit:10;stroke-opacity:1" />
        <g
           id="g3628"
           style="fill:#000000;fill-opacity:1">
          <use
             height="100%"
             width="100%"
             id="use3630"
             y="134.765"
             x="223.43201"
             xlink:href="#textext-a5874d38-1" />
        </g>
      </g>
    </g>
    <g
       transform="matrix(0.80093961,0,0,0.80093961,-176.63994,850.98012)"
       ns0:text="C"
       ns0:preamble="/home/bqwer/workbook git/textext_preamble.tex"
       id="g3823">
      <defs
         id="defs3825">
        <g
           id="g3827">
          <symbol
             overflow="visible"
             id="textext-4aef577e-0"
             style="overflow:visible">
            <path
               style="stroke:none"
               d="m 0.5,1.765625 4.984375,0 0,-8.796875 -4.984375,0 z m 0.5625,-0.5625 0,-7.671875 3.859375,0 0,7.671875 z m 0,0"
               id="path3830"
               inkscape:connector-curvature="0" />
          </symbol>
          <symbol
             overflow="visible"
             id="textext-4aef577e-1"
             style="overflow:visible">
            <path
               style="stroke:none"
               d="m 7.03125,-1.921875 -0.90625,0 C 5.84375,-0.984375 5.21875,-0.375 4.03125,-0.375 c -1.734375,0 -2.359375,-1.375 -2.359375,-3.25 0,-1.875 0.625,-3.25 2.359375,-3.25 1.375,0 2.015625,0.609375 2.25,1.78125 l 0.546875,0 0,-1.671875 c -0.515625,-0.21875 -1,-0.375 -1.4375,-0.484375 -0.453125,-0.09375 -0.875,-0.140625 -1.28125,-0.140625 -1.0625,0 -1.921875,0.34375 -2.578125,1.03125 C 0.890625,-5.671875 0.5625,-4.75 0.5625,-3.625 c 0,1.265625 0.40625,2.140625 1.078125,2.8125 0.546875,0.546875 1.34375,0.953125 2.390625,0.953125 1.640625,0 2.59375,-0.78125 3,-2.0625 z m 0,0"
               id="path3833"
               inkscape:connector-curvature="0" />
          </symbol>
        </g>
      </defs>
      <g
         id="textext-4aef577e-2">
        <g
           style="fill:#000000;fill-opacity:1"
           id="g3836">
          <use
             xlink:href="#textext-4aef577e-1"
             x="223.43201"
             y="134.765"
             id="use3838"
             width="100%"
             height="100%" />
        </g>
      </g>
    </g>
    <g
       id="g4048"
       ns0:preamble="/home/bqwer/workbook git/textext_preamble.tex"
       ns0:text="D"
       transform="matrix(0.80093961,0,0,0.80093961,-176.99434,937.97574)">
      <defs
         id="defs4050">
        <g
           id="g4052">
          <symbol
             style="overflow:visible"
             id="textext-c3690971-0"
             overflow="visible">
            <path
               inkscape:connector-curvature="0"
               id="path4055"
               d="m 0.5,1.765625 4.984375,0 0,-8.796875 -4.984375,0 z m 0.5625,-0.5625 0,-7.671875 3.859375,0 0,7.671875 z m 0,0"
               style="stroke:none" />
          </symbol>
          <symbol
             style="overflow:visible"
             id="textext-c3690971-1"
             overflow="visible">
            <path
               inkscape:connector-curvature="0"
               id="path4058"
               d="m 6.296875,-3.640625 c 0,1.96875 -1,3.125 -2.921875,3.125 l -0.90625,0 0,-6.234375 0.90625,0 c 1.921875,0 2.921875,1.140625 2.921875,3.109375 z m 1.125,0 c 0,-2.34375 -1.578125,-3.625 -3.984375,-3.625 l -2.890625,0 0,0.515625 0.921875,0 0,6.234375 -0.921875,0 0,0.515625 2.890625,0 c 2.40625,0 3.984375,-1.28125 3.984375,-3.640625 z m 0,0"
               style="stroke:none" />
          </symbol>
        </g>
      </defs>
      <g
         id="textext-c3690971-2">
        <g
           id="g4061"
           style="fill:#000000;fill-opacity:1">
          <use
             height="100%"
             width="100%"
             id="use4063"
             y="134.765"
             x="223.43201"
             xlink:href="#textext-c3690971-1" />
        </g>
      </g>
    </g>
  </g>
</svg>
