<?xml version="1.0" encoding="UTF-8" standalone="no"?>
<!-- Created with Inkscape (http://www.inkscape.org/) -->

<svg
   xmlns:ns0="http://www.iki.fi/pav/software/textext/"
   xmlns:osb="http://www.openswatchbook.org/uri/2009/osb"
   xmlns:dc="http://purl.org/dc/elements/1.1/"
   xmlns:cc="http://creativecommons.org/ns#"
   xmlns:rdf="http://www.w3.org/1999/02/22-rdf-syntax-ns#"
   xmlns:svg="http://www.w3.org/2000/svg"
   xmlns="http://www.w3.org/2000/svg"
   xmlns:xlink="http://www.w3.org/1999/xlink"
   xmlns:sodipodi="http://sodipodi.sourceforge.net/DTD/sodipodi-0.dtd"
   xmlns:inkscape="http://www.inkscape.org/namespaces/inkscape"
   sodipodi:docname="RS_latch.svg"
   inkscape:version="0.91 r13725"
   version="1.1"
   id="svg3336"
   viewBox="0 0 120.00001 107"
   height="107"
   width="120">
  <sodipodi:namedview
     units="px"
     inkscape:window-maximized="1"
     inkscape:window-y="25"
     inkscape:window-x="0"
     inkscape:window-height="901"
     inkscape:window-width="1920"
     inkscape:snap-grids="false"
     inkscape:snap-midpoints="false"
     inkscape:snap-smooth-nodes="false"
     inkscape:object-paths="false"
     inkscape:snap-intersection-paths="false"
     inkscape:object-nodes="false"
     inkscape:snap-page="true"
     objecttolerance="20"
     gridtolerance="10000"
     showguides="false"
     showgrid="true"
     inkscape:current-layer="svg3336"
     inkscape:document-units="px"
     inkscape:cy="64.5626"
     inkscape:cx="99.611168"
     inkscape:zoom="3.6203867"
     inkscape:pageshadow="2"
     inkscape:pageopacity="0.0"
     borderopacity="1.0"
     bordercolor="#666666"
     pagecolor="#ffffff"
     id="base">
    <inkscape:grid
       empspacing="5"
       dotted="false"
       snapvisiblegridlinesonly="true"
       id="grid3810"
       type="xygrid" />
  </sodipodi:namedview>
  <defs
     id="defs3338">
    <linearGradient
       osb:paint="solid"
       id="linearGradient4622">
      <stop
         id="stop4624"
         offset="0"
         style="stop-color:#aa0000;stop-opacity:0;" />
    </linearGradient>
    <linearGradient
       gradientTransform="matrix(0.14408068,0,0,0.15400132,22.434076,894.058)"
       gradientUnits="userSpaceOnUse"
       y2="482.04974"
       x2="339.375"
       y1="482.04974"
       x1="300"
       id="linearGradient4626"
       xlink:href="#linearGradient4622"
       inkscape:collect="always" />
    <linearGradient
       gradientTransform="matrix(0.14408068,0,0,0.15400132,22.512206,958.82361)"
       gradientUnits="userSpaceOnUse"
       y2="482.04974"
       x2="339.375"
       y1="482.04974"
       x1="300"
       id="linearGradient4626-6"
       xlink:href="#linearGradient4622"
       inkscape:collect="always" />
  </defs>
  <metadata
     id="metadata3341">
    <rdf:RDF>
      <cc:Work
         rdf:about="">
        <dc:format>image/svg+xml</dc:format>
        <dc:type
           rdf:resource="http://purl.org/dc/dcmitype/StillImage" />
        <dc:title></dc:title>
      </cc:Work>
    </rdf:RDF>
  </metadata>
  <g
     transform="translate(0,-945.3622)"
     id="layer1"
     inkscape:groupmode="layer"
     inkscape:label="Layer 1">
    <path
       sodipodi:nodetypes="cccccc"
       inkscape:connector-curvature="0"
       id="path4174"
       d="m 37.533266,952.66929 0,32.8125 14.0625,0 c 0,0 14.0625,0 14.0625,-17.1875 0,-15.625 -14.6875,-15.625 -14.6875,-15.625 l -14.0625,0"
       style="fill:none;fill-rule:evenodd;stroke:#000000;stroke-width:1;stroke-linecap:butt;stroke-linejoin:miter;stroke-miterlimit:4;stroke-dasharray:none;stroke-opacity:1" />
    <ellipse
       ry="3.0319009"
       rx="2.8365884"
       cy="968.29425"
       cx="68.494843"
       id="path3812"
       style="opacity:1;fill:url(#linearGradient4626);fill-opacity:1;stroke:#000000;stroke-width:1;stroke-miterlimit:4;stroke-dasharray:none;stroke-opacity:1" />
    <path
       sodipodi:nodetypes="cccccc"
       inkscape:connector-curvature="0"
       id="path4174-5"
       d="m 37.611396,1017.4349 0,32.8126 14.0625,0 c 0,0 14.0625,0 14.0625,-17.1875 0,-15.6251 -14.6875,-15.6251 -14.6875,-15.6251 l -14.0625,0"
       style="fill:none;fill-rule:evenodd;stroke:#000000;stroke-width:1;stroke-linecap:butt;stroke-linejoin:miter;stroke-miterlimit:4;stroke-dasharray:none;stroke-opacity:1" />
    <ellipse
       ry="3.0319009"
       rx="2.8365884"
       cy="1033.0599"
       cx="68.572983"
       id="path3812-3"
       style="opacity:1;fill:url(#linearGradient4626-6);fill-opacity:1;stroke:#000000;stroke-width:1;stroke-miterlimit:4;stroke-dasharray:none;stroke-opacity:1" />
    <circle
       r="1.4650422"
       cy="1033.0599"
       cx="92.693573"
       id="path12112-9-2"
       style="opacity:1;fill:#000000;fill-opacity:1;stroke:none;stroke-width:0.625;stroke-miterlimit:4;stroke-dasharray:none;stroke-opacity:1" />
    <path
       sodipodi:nodetypes="cc"
       inkscape:connector-curvature="0"
       id="path11296-3"
       d="m 71.409576,1033.06 45.498084,0"
       style="fill:none;fill-rule:evenodd;stroke:#000000;stroke-width:0.5;stroke-linecap:butt;stroke-linejoin:miter;stroke-miterlimit:4;stroke-dasharray:none;stroke-opacity:1" />
    <circle
       r="1.4650422"
       cy="968.29425"
       cx="92.615448"
       id="path12112-9-2-5"
       style="opacity:1;fill:#000000;fill-opacity:1;stroke:none;stroke-width:0.625;stroke-miterlimit:4;stroke-dasharray:none;stroke-opacity:1" />
    <path
       sodipodi:nodetypes="cc"
       inkscape:connector-curvature="0"
       id="path11296-3-6"
       d="m 71.331446,968.29429 45.498094,10e-6"
       style="fill:none;fill-rule:evenodd;stroke:#000000;stroke-width:0.5;stroke-linecap:butt;stroke-linejoin:miter;stroke-miterlimit:4;stroke-dasharray:none;stroke-opacity:1" />
    <path
       inkscape:connector-curvature="0"
       id="path6362"
       d="m 37.611396,977.4349 -35,0 0,10 89.999999,30 0,15.0001"
       style="fill:none;fill-rule:evenodd;stroke:#000000;stroke-width:0.5;stroke-linecap:butt;stroke-linejoin:miter;stroke-miterlimit:4;stroke-dasharray:none;stroke-opacity:1" />
    <path
       inkscape:connector-curvature="0"
       id="path6362-9"
       d="m 37.615456,1024.7594 -35,0 0,-10 89.999999,-30.00007 0,-15"
       style="fill:none;fill-rule:evenodd;stroke:#000000;stroke-width:0.5;stroke-linecap:butt;stroke-linejoin:miter;stroke-miterlimit:4;stroke-dasharray:none;stroke-opacity:1" />
    <path
       inkscape:connector-curvature="0"
       id="path6525"
       d="m 37.533266,960.18659 -34.92187,0"
       style="fill:none;fill-rule:evenodd;stroke:#000000;stroke-width:0.5;stroke-linecap:butt;stroke-linejoin:miter;stroke-miterlimit:4;stroke-dasharray:none;stroke-opacity:1" />
    <path
       inkscape:connector-curvature="0"
       id="path6531"
       d="m 37.753627,1042.4629 -35.142231,0"
       style="fill:none;fill-rule:evenodd;stroke:#000000;stroke-width:0.5;stroke-linecap:butt;stroke-linejoin:miter;stroke-miterlimit:4;stroke-dasharray:none;stroke-opacity:1" />
  </g>
  <g
     transform="translate(-221.3852,-40.56505)"
     ns0:text="$\\overline{\\mbox{R}}$"
     ns0:preamble="/home/bqwer/workbook git/textext_preamble.tex"
     id="g3514">
    <defs
       id="defs3516">
      <g
         id="g3518">
        <symbol
           style="overflow:visible"
           overflow="visible"
           id="textext-e1278722-0">
          <path
             inkscape:connector-curvature="0"
             style="stroke:none"
             d="m 0.5,1.765625 4.984375,0 0,-8.796875 -4.984375,0 z m 0.5625,-0.5625 0,-7.671875 3.859375,0 0,7.671875 z m 0,0"
             id="path3521" />
        </symbol>
        <symbol
           style="overflow:visible"
           overflow="visible"
           id="textext-e1278722-1">
          <path
             inkscape:connector-curvature="0"
             style="stroke:none"
             d="m 6.453125,-5.328125 c 0,-1.296875 -0.875,-1.9375 -2.21875,-1.9375 l -3.6875,0 0,0.515625 0.921875,0 0,6.234375 -0.921875,0 0,0.515625 2.9375,0 0,-0.515625 -1.015625,0 0,-2.859375 1.078125,0 c 0.328125,0 0.5625,0.0625 0.75,0.1875 0.171875,0.140625 0.375,0.421875 0.59375,0.875 L 6.03125,0 7.75,0 l 0,-0.515625 -0.890625,0 -1.0625,-2.15625 c -0.21875,-0.484375 -0.5,-0.796875 -1.015625,-0.9375 1.015625,-0.125 1.671875,-0.625 1.671875,-1.71875 z m -1.125,0 c 0,0.984375 -0.453125,1.4375 -1.4375,1.4375 l -1.421875,0 0,-2.859375 1.421875,0 c 0.984375,0 1.4375,0.453125 1.4375,1.421875 z m 0,0"
             id="path3524" />
        </symbol>
      </g>
    </defs>
    <g
       id="textext-e1278722-2">
      <path
         inkscape:connector-curvature="0"
         style="fill:none;stroke:#000000;stroke-width:0.398;stroke-linecap:butt;stroke-linejoin:miter;stroke-miterlimit:10;stroke-opacity:1"
         d="m 0.00159375,0.00184375 7.50000025,0"
         transform="matrix(1,0,0,-1,223.432,126.037)"
         id="path3527" />
      <g
         style="fill:#000000;fill-opacity:1"
         id="g3529">
        <use
           height="100%"
           width="100%"
           xlink:href="#textext-e1278722-1"
           x="223.43201"
           y="134.765"
           id="use3531" />
      </g>
    </g>
  </g>
  <g
     id="g3597"
     ns0:preamble="/home/bqwer/workbook git/textext_preamble.tex"
     ns0:text="$\\overline{\\mbox{S}}$"
     transform="translate(-221.09841,-123.39072)">
    <defs
       id="defs3599">
      <g
         id="g3601">
        <symbol
           id="textext-43f4e0ad-0"
           overflow="visible"
           style="overflow:visible">
          <path
             id="path3604"
             d="m 0.5,1.765625 4.984375,0 0,-8.796875 -4.984375,0 z m 0.5625,-0.5625 0,-7.671875 3.859375,0 0,7.671875 z m 0,0"
             style="stroke:none"
             inkscape:connector-curvature="0" />
        </symbol>
        <symbol
           id="textext-43f4e0ad-1"
           overflow="visible"
           style="overflow:visible">
          <path
             id="path3607"
             d="m 3.40625,0.140625 c 1.625,0 2.6875,-0.59375 2.6875,-2.125 C 6.09375,-2.5 5.96875,-2.90625 5.6875,-3.21875 5.40625,-3.53125 4.921875,-3.78125 4.265625,-3.984375 L 3.375,-4.25 C 2.71875,-4.453125 2.28125,-4.640625 2.078125,-4.828125 1.890625,-5.03125 1.78125,-5.296875 1.78125,-5.65625 c 0,-0.875 0.65625,-1.21875 1.578125,-1.21875 1.171875,0 1.71875,0.421875 1.828125,1.453125 l 0.546875,0 0,-1.546875 c -0.75,-0.234375 -1.53125,-0.421875 -2.390625,-0.421875 -1.4375,0 -2.5,0.578125 -2.5,1.9375 0,0.546875 0.140625,0.984375 0.421875,1.296875 0.28125,0.3125 0.765625,0.578125 1.46875,0.78125 L 3.6875,-3.078125 C 4.28125,-2.90625 4.671875,-2.71875 4.859375,-2.53125 5.03125,-2.34375 5.125,-2.078125 5.125,-1.71875 5.125,-0.75 4.390625,-0.375 3.34375,-0.375 2.15625,-0.375 1.515625,-0.875 1.484375,-2 l -0.5625,0 0,1.65625 c 0.75,0.28125 1.546875,0.484375 2.484375,0.484375 z m 0,0"
             style="stroke:none"
             inkscape:connector-curvature="0" />
        </symbol>
      </g>
    </defs>
    <g
       id="textext-43f4e0ad-2">
      <path
         id="path3610"
         transform="matrix(1,0,0,-1,223.432,126.037)"
         d="m 0.00159375,0.00184375 6.82421825,0"
         style="fill:none;stroke:#000000;stroke-width:0.398;stroke-linecap:butt;stroke-linejoin:miter;stroke-miterlimit:10;stroke-opacity:1"
         inkscape:connector-curvature="0" />
      <g
         id="g3612"
         style="fill:#000000;fill-opacity:1">
        <use
           id="use3614"
           y="134.765"
           x="223.43201"
           xlink:href="#textext-43f4e0ad-1"
           width="100%"
           height="100%" />
      </g>
    </g>
  </g>
  <g
     transform="translate(-115.03315,-51.532694)"
     ns0:text="$\\overline{\\mbox{Q}}$"
     ns0:preamble="/home/bqwer/workbook git/textext_preamble.tex"
     id="g3702">
    <defs
       id="defs3704">
      <g
         id="g3706">
        <symbol
           style="overflow:visible"
           overflow="visible"
           id="textext-a5874d38-0">
          <path
             inkscape:connector-curvature="0"
             style="stroke:none"
             d="m 0.5,1.765625 4.984375,0 0,-8.796875 -4.984375,0 z m 0.5625,-0.5625 0,-7.671875 3.859375,0 0,7.671875 z m 0,0"
             id="path3709" />
        </symbol>
        <symbol
           style="overflow:visible"
           overflow="visible"
           id="textext-a5874d38-1">
          <path
             inkscape:connector-curvature="0"
             style="stroke:none"
             d="m 6.5625,1.59375 0,-0.890625 -0.140625,0 C 5.6875,0.703125 5.21875,0.484375 4.875,0.0625 5.734375,-0.125 6.40625,-0.546875 6.890625,-1.203125 7.375,-1.859375 7.609375,-2.671875 7.609375,-3.625 c 0,-1.140625 -0.3125,-2.046875 -0.953125,-2.734375 -0.65625,-0.6875 -1.515625,-1.03125 -2.5625,-1.03125 -1.109375,0 -1.875,0.375 -2.453125,0.953125 C 0.96875,-5.765625 0.5625,-4.90625 0.5625,-3.625 c 0,1.140625 0.328125,2.046875 0.984375,2.734375 0.65625,0.6875 1.546875,1.03125 2.65625,1.03125 0.46875,0.84375 1.1875,1.390625 2.359375,1.453125 z M 1.671875,-3.625 c 0,-1.90625 0.640625,-3.25 2.421875,-3.25 1.765625,0 2.40625,1.34375 2.40625,3.25 0,1.90625 -0.640625,3.25 -2.40625,3.25 -1.78125,0 -2.421875,-1.34375 -2.421875,-3.25 z m 0,0"
             id="path3712" />
        </symbol>
      </g>
    </defs>
    <g
       id="textext-a5874d38-2">
      <path
         inkscape:connector-curvature="0"
         style="fill:none;stroke:#000000;stroke-width:0.398;stroke-linecap:butt;stroke-linejoin:miter;stroke-miterlimit:10;stroke-opacity:1"
         d="m 0.00159375,0.00184375 8.16406225,0"
         transform="matrix(1,0,0,-1,223.432,126.037)"
         id="path3715" />
      <g
         style="fill:#000000;fill-opacity:1"
         id="g3717">
        <use
           height="100%"
           width="100%"
           xlink:href="#textext-a5874d38-1"
           x="223.43201"
           y="134.765"
           id="use3719" />
      </g>
    </g>
  </g>
  <g
     id="g3829"
     ns0:preamble="/home/bqwer/workbook git/textext_preamble.tex"
     ns0:text="Q"
     transform="translate(-115.06666,-116.60469)">
    <defs
       id="defs3831">
      <g
         id="g3833">
        <symbol
           id="textext-b562eaa2-0"
           overflow="visible"
           style="overflow:visible">
          <path
             id="path3836"
             d="m 0.5,1.765625 4.984375,0 0,-8.796875 -4.984375,0 z m 0.5625,-0.5625 0,-7.671875 3.859375,0 0,7.671875 z m 0,0"
             style="stroke:none"
             inkscape:connector-curvature="0" />
        </symbol>
        <symbol
           id="textext-b562eaa2-1"
           overflow="visible"
           style="overflow:visible">
          <path
             id="path3839"
             d="m 6.5625,1.59375 0,-0.890625 -0.140625,0 C 5.6875,0.703125 5.21875,0.484375 4.875,0.0625 5.734375,-0.125 6.40625,-0.546875 6.890625,-1.203125 7.375,-1.859375 7.609375,-2.671875 7.609375,-3.625 c 0,-1.140625 -0.3125,-2.046875 -0.953125,-2.734375 -0.65625,-0.6875 -1.515625,-1.03125 -2.5625,-1.03125 -1.109375,0 -1.875,0.375 -2.453125,0.953125 C 0.96875,-5.765625 0.5625,-4.90625 0.5625,-3.625 c 0,1.140625 0.328125,2.046875 0.984375,2.734375 0.65625,0.6875 1.546875,1.03125 2.65625,1.03125 0.46875,0.84375 1.1875,1.390625 2.359375,1.453125 z M 1.671875,-3.625 c 0,-1.90625 0.640625,-3.25 2.421875,-3.25 1.765625,0 2.40625,1.34375 2.40625,3.25 0,1.90625 -0.640625,3.25 -2.40625,3.25 -1.78125,0 -2.421875,-1.34375 -2.421875,-3.25 z m 0,0"
             style="stroke:none"
             inkscape:connector-curvature="0" />
        </symbol>
      </g>
    </defs>
    <g
       id="textext-b562eaa2-2">
      <g
         id="g3842"
         style="fill:#000000;fill-opacity:1">
        <use
           id="use3844"
           y="134.765"
           x="223.43201"
           xlink:href="#textext-b562eaa2-1"
           width="100%"
           height="100%" />
      </g>
    </g>
  </g>
</svg>
