<?xml version="1.0" encoding="UTF-8" standalone="no"?>
<!-- Created with Inkscape (http://www.inkscape.org/) -->

<svg
   xmlns:ns0="http://www.iki.fi/pav/software/textext/"
   xmlns:dc="http://purl.org/dc/elements/1.1/"
   xmlns:cc="http://creativecommons.org/ns#"
   xmlns:rdf="http://www.w3.org/1999/02/22-rdf-syntax-ns#"
   xmlns:svg="http://www.w3.org/2000/svg"
   xmlns="http://www.w3.org/2000/svg"
   xmlns:xlink="http://www.w3.org/1999/xlink"
   xmlns:sodipodi="http://sodipodi.sourceforge.net/DTD/sodipodi-0.dtd"
   xmlns:inkscape="http://www.inkscape.org/namespaces/inkscape"
   width="375"
   height="120"
   viewBox="0 0 375 120"
   id="svg2"
   version="1.1"
   inkscape:version="0.91 r13725"
   sodipodi:docname="fifo.svg">
  <sodipodi:namedview
     id="base"
     pagecolor="#ffffff"
     bordercolor="#666666"
     borderopacity="1.0"
     inkscape:pageopacity="0.0"
     inkscape:pageshadow="2"
     inkscape:zoom="1.979899"
     inkscape:cx="166.3693"
     inkscape:cy="153.8026"
     inkscape:document-units="px"
     inkscape:current-layer="layer1"
     showgrid="true"
     inkscape:snap-midpoints="true"
     inkscape:snap-smooth-nodes="true"
     inkscape:object-nodes="true"
     inkscape:snap-intersection-paths="true"
     inkscape:object-paths="true"
     inkscape:snap-grids="false"
     inkscape:window-width="1280"
     inkscape:window-height="870"
     inkscape:window-x="0"
     inkscape:window-y="25"
     inkscape:window-maximized="1"
     units="px">
    <inkscape:grid
       id="grid4136"
       type="xygrid" />
  </sodipodi:namedview>
  <defs
     id="defs4">
    <defs
       id="defs4561">
      <g
         id="g4563">
        <symbol
           id="textext-76539538-0"
           overflow="visible"
           style="overflow:visible">
          <path
             id="path4566"
             d=""
             style="stroke:none"
             inkscape:connector-curvature="0" />
        </symbol>
        <symbol
           id="textext-76539538-1"
           overflow="visible"
           style="overflow:visible">
          <path
             id="path4569"
             d="m 2.234375,-3.515625 0,-2.578125 c 0,-0.234375 0,-0.359375 0.21875,-0.390625 C 2.546875,-6.5 2.84375,-6.5 3.046875,-6.5 c 0.890625,0 2,0.046875 2,1.484375 0,0.6875 -0.234375,1.5 -1.703125,1.5 z m 2.109375,0.125 c 0.953125,-0.234375 1.734375,-0.84375 1.734375,-1.625 0,-0.953125 -1.140625,-1.796875 -2.59375,-1.796875 l -3.140625,0 0,0.3125 0.25,0 c 0.765625,0 0.78125,0.109375 0.78125,0.46875 l 0,5.25 c 0,0.359375 -0.015625,0.46875 -0.78125,0.46875 l -0.25,0 0,0.3125 c 0.359375,-0.03125 1.078125,-0.03125 1.453125,-0.03125 0.390625,0 1.109375,0 1.46875,0.03125 l 0,-0.3125 -0.25,0 c -0.765625,0 -0.78125,-0.109375 -0.78125,-0.46875 l 0,-2.515625 1.140625,0 c 0.15625,0 0.578125,0 0.9375,0.34375 0.375,0.34375 0.375,0.65625 0.375,1.328125 0,0.640625 0,1.046875 0.40625,1.421875 0.40625,0.359375 0.953125,0.421875 1.25,0.421875 0.78125,0 0.953125,-0.8125 0.953125,-1.09375 0,-0.0625 0,-0.171875 -0.125,-0.171875 -0.109375,0 -0.109375,0.09375 -0.125,0.15625 C 6.984375,-0.171875 6.640625,0 6.390625,0 5.90625,0 5.828125,-0.515625 5.6875,-1.4375 L 5.546875,-2.234375 C 5.375,-2.875 4.890625,-3.203125 4.34375,-3.390625 Z m 0,0"
             style="stroke:none"
             inkscape:connector-curvature="0" />
        </symbol>
        <symbol
           id="textext-76539538-2"
           overflow="visible"
           style="overflow:visible">
          <path
             id="path4572"
             d="m 3.96875,-6.9375 c -0.046875,-0.125 -0.078125,-0.203125 -0.234375,-0.203125 -0.15625,0 -0.1875,0.0625 -0.234375,0.203125 L 1.4375,-0.984375 C 1.25,-0.46875 0.859375,-0.3125 0.3125,-0.3125 l 0,0.3125 c 0.234375,-0.015625 0.671875,-0.03125 1.015625,-0.03125 0.3125,0 0.828125,0.015625 1.15625,0.03125 l 0,-0.3125 c -0.5,0 -0.75,-0.25 -0.75,-0.5 0,-0.03125 0.015625,-0.140625 0.015625,-0.15625 l 0.46875,-1.296875 2.453125,0 0.53125,1.515625 c 0.015625,0.046875 0.03125,0.109375 0.03125,0.140625 0,0.296875 -0.5625,0.296875 -0.828125,0.296875 l 0,0.3125 c 0.359375,-0.03125 1.0625,-0.03125 1.4375,-0.03125 0.421875,0 0.890625,0.015625 1.296875,0.03125 l 0,-0.3125 -0.171875,0 C 6.375,-0.3125 6.234375,-0.375 6.125,-0.703125 Z m -0.53125,1.109375 1.125,3.25 -2.234375,0 z m 0,0"
             style="stroke:none"
             inkscape:connector-curvature="0" />
        </symbol>
        <symbol
           id="textext-76539538-3"
           overflow="visible"
           style="overflow:visible">
          <path
             id="path4575"
             d="M 2.40625,-6.59375 C 2.3125,-6.8125 2.28125,-6.8125 2.046875,-6.8125 l -1.671875,0 0,0.3125 0.234375,0 c 0.765625,0 0.78125,0.109375 0.78125,0.46875 l 0,4.984375 c 0,0.265625 0,0.734375 -1.015625,0.734375 L 0.375,0 c 0.34375,-0.015625 0.828125,-0.03125 1.15625,-0.03125 0.328125,0 0.828125,0.015625 1.171875,0.03125 l 0,-0.3125 c -1.03125,0 -1.03125,-0.46875 -1.03125,-0.734375 l 0,-5.375 0.015625,0 2.40625,6.203125 C 4.140625,-0.09375 4.1875,0 4.28125,0 4.390625,0 4.421875,-0.078125 4.46875,-0.1875 L 6.921875,-6.5 l 0,5.71875 c 0,0.359375 -0.015625,0.46875 -0.78125,0.46875 l -0.234375,0 0,0.3125 c 0.359375,-0.03125 1.046875,-0.03125 1.4375,-0.03125 0.375,0 1.046875,0 1.421875,0.03125 l 0,-0.3125 -0.25,0 c -0.765625,0 -0.78125,-0.109375 -0.78125,-0.46875 l 0,-5.25 C 7.734375,-6.390625 7.75,-6.5 8.515625,-6.5 l 0.25,0 0,-0.3125 -1.6875,0 C 6.8125,-6.8125 6.8125,-6.796875 6.75,-6.625 L 4.5625,-1 Z m 0,0"
             style="stroke:none"
             inkscape:connector-curvature="0" />
        </symbol>
        <symbol
           id="textext-76539538-4"
           overflow="visible"
           style="overflow:visible">
          <path
             id="path4578"
             d="m 2.75,-1.859375 0,-0.578125 -2.640625,0 0,0.578125 z m 0,0"
             style="stroke:none"
             inkscape:connector-curvature="0" />
        </symbol>
      </g>
    </defs>
    <defs
       id="defs10432">
      <g
         id="g10434">
        <symbol
           id="textext-20461d03-0"
           overflow="visible"
           style="overflow:visible">
          <path
             id="path10437"
             d="m 0.5,1.765625 4.984375,0 0,-8.796875 -4.984375,0 z m 0.5625,-0.5625 0,-7.671875 3.859375,0 0,7.671875 z m 0,0"
             style="stroke:none"
             inkscape:connector-curvature="0" />
        </symbol>
        <symbol
           id="textext-20461d03-1"
           overflow="visible"
           style="overflow:visible">
          <path
             id="path10440"
             d="m 5.234375,-5.21875 c 0,0.96875 -0.515625,1.515625 -1.484375,1.515625 l -1.28125,0 0,-3.046875 1.28125,0 c 0.96875,0 1.484375,0.546875 1.484375,1.53125 z m 1.109375,0 c 0,-1.328125 -0.984375,-2.046875 -2.359375,-2.046875 l -3.4375,0 0,0.515625 0.921875,0 0,6.234375 -0.921875,0 0,0.515625 3.046875,0 0,-0.515625 -1.125,0 0,-2.671875 1.515625,0 c 1.375,0 2.359375,-0.71875 2.359375,-2.03125 z m 0,0"
             style="stroke:none"
             inkscape:connector-curvature="0" />
        </symbol>
        <symbol
           id="textext-20461d03-2"
           overflow="visible"
           style="overflow:visible">
          <path
             id="path10443"
             d="M 2.71875,-0.375 C 1.984375,-0.375 1.5,-0.828125 1.5,-1.5625 1.5,-2.375 1.96875,-2.71875 2.8125,-2.71875 l 1.15625,0 0,1.09375 c 0,0.734375 -0.515625,1.25 -1.25,1.25 z m -0.0625,-4.9375 c -0.671875,0 -1.234375,0.171875 -1.765625,0.390625 l 0,1.046875 0.46875,0 c 0.09375,-0.625 0.515625,-0.953125 1.25,-0.953125 0.8125,0 1.359375,0.40625 1.359375,1.234375 l 0,0.359375 -1.25,0 c -1.265625,0 -2.21875,0.5 -2.21875,1.671875 0,1.078125 0.78125,1.703125 1.875,1.703125 0.75,0 1.234375,-0.265625 1.59375,-0.703125 l 0,0.5625 1.6875,0 0,-0.515625 -0.796875,0 0,-2.71875 c 0,-1.375 -0.796875,-2.078125 -2.203125,-2.078125 z m 0,0"
             style="stroke:none"
             inkscape:connector-curvature="0" />
        </symbol>
        <symbol
           id="textext-20461d03-3"
           overflow="visible"
           style="overflow:visible">
          <path
             id="path10446"
             d="m 2.671875,-0.34375 c -0.78125,0 -1.3125,-0.296875 -1.515625,-0.90625 l -0.71875,0 c 0.09375,0.375 0.328125,0.71875 0.71875,0.984375 C 1.546875,0 2.046875,0.140625 2.640625,0.140625 c 1.140625,0 2.296875,-0.421875 2.296875,-1.5 0,-0.484375 -0.125,-0.828125 -0.359375,-1 -0.234375,-0.1875 -0.59375,-0.296875 -1.078125,-0.375 0.078125,0 0.28125,-0.09375 0.640625,-0.21875 0.34375,-0.140625 0.515625,-0.484375 0.515625,-1 0,-0.90625 -0.6875,-1.359375 -2.046875,-1.359375 -0.75,0 -1.40625,0.125 -1.96875,0.359375 l 0,0.984375 0.53125,0 c 0.0625,-0.5625 0.515625,-0.828125 1.34375,-0.828125 0.703125,0 1.296875,0.28125 1.296875,0.9375 0,0.265625 -0.140625,0.46875 -0.40625,0.640625 -0.28125,0.171875 -0.6875,0.25 -1.265625,0.25 l -0.234375,0 0,0.5 0.453125,0 c 0.5625,0 0.984375,0.109375 1.265625,0.328125 0.28125,0.203125 0.4375,0.453125 0.4375,0.75 0,0.640625 -0.6875,1.046875 -1.390625,1.046875 z m 0,0"
             style="stroke:none"
             inkscape:connector-curvature="0" />
        </symbol>
        <symbol
           id="textext-20461d03-4"
           overflow="visible"
           style="overflow:visible">
          <path
             id="path10449"
             d="m 3.4375,-0.421875 c -1.015625,0 -1.390625,-0.8125 -1.390625,-1.90625 l 0,-0.515625 c 0,-1.09375 0.375,-1.90625 1.390625,-1.90625 0.453125,0 0.796875,0.1875 1.03125,0.546875 0.25,0.359375 0.359375,0.890625 0.359375,1.609375 0,1.1875 -0.328125,2.171875 -1.390625,2.171875 z m 0.28125,0.5625 c 0.640625,0 1.15625,-0.25 1.5625,-0.765625 0.390625,-0.5 0.59375,-1.15625 0.59375,-1.96875 0,-0.8125 -0.203125,-1.46875 -0.59375,-1.96875 -0.40625,-0.5 -0.921875,-0.75 -1.5625,-0.75 -0.875,0 -1.359375,0.34375 -1.671875,0.953125 l 0,-0.8125 -1.75,0 0,0.515625 0.84375,0 0,6.21875 -0.84375,0 0,0.515625 2.59375,0 0,-0.515625 -0.84375,0 0,-2.375 c 0.3125,0.609375 0.796875,0.953125 1.671875,0.953125 z m 0,0"
             style="stroke:none"
             inkscape:connector-curvature="0" />
        </symbol>
        <symbol
           id="textext-20461d03-5"
           overflow="visible"
           style="overflow:visible">
          <path
             id="path10452"
             d="m 5.3125,-1.5625 -0.71875,0 c -0.171875,0.734375 -0.625,1.21875 -1.5,1.21875 -1.140625,0 -1.546875,-0.875 -1.546875,-2.109375 l 0,-0.046875 3.859375,0 C 5.375,-4.203125 4.625,-5.3125 2.953125,-5.3125 c -0.734375,0 -1.328125,0.25 -1.78125,0.75 C 0.734375,-4.0625 0.5,-3.40625 0.5,-2.59375 c 0,0.828125 0.234375,1.484375 0.6875,1.984375 0.453125,0.5 1.0625,0.75 1.828125,0.75 1.3125,0 2.03125,-0.625 2.296875,-1.703125 z m -0.96875,-1.453125 -2.796875,0 c 0.09375,-0.984375 0.4375,-1.8125 1.40625,-1.8125 1,0 1.359375,0.765625 1.390625,1.8125 z m 0,0"
             style="stroke:none"
             inkscape:connector-curvature="0" />
        </symbol>
        <symbol
           id="textext-20461d03-6"
           overflow="visible"
           style="overflow:visible">
          <path
             id="path10455"
             d="m 5.125,-0.59375 0,-4.0625 0.8125,0 0,-0.515625 -2.515625,0 0,0.515625 0.8125,0 0,4.0625 -2.171875,0 0,-4.0625 0.8125,0 0,-0.515625 -2.515625,0 0,0.515625 0.8125,0 0,4.140625 -0.8125,0 0,0.515625 8.625,0 0,-0.515625 -0.796875,0 0,-4.140625 0.796875,0 0,-0.515625 -2.5,0 0,0.515625 0.796875,0 0,4.0625 z m 0,0"
             style="stroke:none"
             inkscape:connector-curvature="0" />
        </symbol>
        <symbol
           id="textext-20461d03-7"
           overflow="visible"
           style="overflow:visible">
          <path
             id="path10458"
             d="m 5.3125,-4.65625 0.8125,0 0,-0.515625 -2.515625,0 0,0.515625 0.8125,0 0,1.546875 -2.375,0 0,-1.546875 0.796875,0 0,-0.515625 -2.5,0 0,0.515625 0.796875,0 0,4.140625 -0.796875,0 0,0.515625 2.5,0 0,-0.515625 -0.796875,0 0,-2 2.375,0 0,2 -0.8125,0 0,0.515625 2.515625,0 0,-0.515625 -0.8125,0 z m 0,0"
             style="stroke:none"
             inkscape:connector-curvature="0" />
        </symbol>
        <symbol
           id="textext-20461d03-8"
           overflow="visible"
           style="overflow:visible">
          <path
             id="path10461"
             d="m 0.34375,0 2.5,0 0,-0.515625 -0.796875,0 0,-0.375 2.375,-2.515625 0,2.890625 -0.8125,0 0,0.515625 2.515625,0 0,-0.515625 -0.8125,0 0,-4.140625 0.8125,0 0,-0.515625 -2.515625,0 0,0.515625 0.8125,0 0,0.453125 -2.375,2.515625 0,-2.96875 0.796875,0 0,-0.515625 -2.5,0 0,0.515625 0.796875,0 0,4.140625 -0.796875,0 z m 0,0"
             style="stroke:none"
             inkscape:connector-curvature="0" />
        </symbol>
        <symbol
           id="textext-20461d03-9"
           overflow="visible"
           style="overflow:visible">
          <path
             id="path10464"
             d="m 6.0625,-5.171875 -2.484375,0 0,0.515625 0.78125,0 0,2.015625 -1.6875,0 c -0.203125,0 -0.34375,-0.078125 -0.453125,-0.203125 -0.109375,-0.125 -0.171875,-0.375 -0.171875,-0.75 l 0,-1.0625 0.78125,0 0,-0.515625 -2.484375,0 0,0.515625 0.796875,0 0,1.5625 c 0,0.25 0.125,0.484375 0.375,0.71875 0.25,0.21875 0.515625,0.328125 0.828125,0.328125 l 2.015625,0 0,1.53125 -0.8125,0 0,0.515625 2.515625,0 0,-0.515625 -0.8125,0 0,-4.140625 0.8125,0 z m 0,0"
             style="stroke:none"
             inkscape:connector-curvature="0" />
        </symbol>
        <symbol
           id="textext-20461d03-10"
           overflow="visible"
           style="overflow:visible">
          <path
             id="path10467"
             d="m 5.140625,-5.171875 -4.734375,0 0,1.40625 0.515625,0 0,-0.8125 1.40625,0 0,4.0625 -0.8125,0 0,0.515625 2.515625,0 0,-0.515625 -0.8125,0 0,-4.0625 1.40625,0 0,0.8125 0.515625,0 z m 0,0"
             style="stroke:none"
             inkscape:connector-curvature="0" />
        </symbol>
        <symbol
           id="textext-20461d03-11"
           overflow="visible"
           style="overflow:visible">
          <path
             id="path10470"
             d="m 1.859375,-3.78125 c 0,-0.578125 0.390625,-0.875 1.015625,-0.875 l 1.125,0 0,1.75 -1.125,0 c -0.625,0 -1.015625,-0.296875 -1.015625,-0.875 z M 0.890625,-3.875 c 0,0.453125 0.171875,0.796875 0.5,1 0.34375,0.21875 0.625,0.34375 0.859375,0.40625 l -1.21875,1.953125 -0.71875,0 0,0.515625 1.40625,0 1.484375,-2.40625 0.796875,0 0,1.890625 -0.765625,0 0,0.515625 2.484375,0 0,-0.515625 -0.8125,0 0,-4.140625 0.859375,0 0,-0.515625 -3.296875,0 c -0.90625,0 -1.578125,0.4375 -1.578125,1.296875 z m 0,0"
             style="stroke:none"
             inkscape:connector-curvature="0" />
        </symbol>
        <symbol
           id="textext-20461d03-12"
           overflow="visible"
           style="overflow:visible">
          <path
             id="path10473"
             d="m 0.34375,1.234375 3.484375,0 0,-6.140625 -3.484375,0 z m 0.390625,-0.390625 0,-5.359375 2.703125,0 0,5.359375 z m 0,0"
             style="stroke:none"
             inkscape:connector-curvature="0" />
        </symbol>
        <symbol
           id="textext-20461d03-13"
           overflow="visible"
           style="overflow:visible">
          <path
             id="path10476"
             d="m 3.65625,-3.65625 c 0,0.6875 -0.359375,1.078125 -1.03125,1.078125 l -0.90625,0 0,-2.140625 0.90625,0 c 0.671875,0 1.03125,0.375 1.03125,1.0625 z m 0.78125,0 c 0,-0.921875 -0.6875,-1.421875 -1.65625,-1.421875 l -2.390625,0 0,0.359375 0.640625,0 0,4.359375 -0.640625,0 0,0.359375 2.125,0 0,-0.359375 -0.796875,0 0,-1.859375 1.0625,0 c 0.96875,0 1.65625,-0.515625 1.65625,-1.4375 z m 0,0"
             style="stroke:none"
             inkscape:connector-curvature="0" />
        </symbol>
        <symbol
           id="textext-20461d03-14"
           overflow="visible"
           style="overflow:visible">
          <path
             id="path10479"
             d="m 1.90625,-0.265625 c -0.515625,0 -0.859375,-0.3125 -0.859375,-0.828125 0,-0.578125 0.328125,-0.8125 0.921875,-0.8125 l 0.8125,0 0,0.765625 c 0,0.515625 -0.359375,0.875 -0.875,0.875 z M 1.859375,-3.71875 C 1.390625,-3.71875 1,-3.59375 0.625,-3.4375 l 0,0.734375 0.328125,0 C 1.015625,-3.140625 1.3125,-3.375 1.8125,-3.375 c 0.578125,0 0.96875,0.28125 0.96875,0.859375 l 0,0.25 -0.890625,0 c -0.875,0 -1.546875,0.34375 -1.546875,1.171875 0,0.765625 0.546875,1.1875 1.3125,1.1875 0.53125,0 0.859375,-0.171875 1.125,-0.484375 l 0,0.390625 1.171875,0 0,-0.359375 -0.546875,0 0,-1.90625 c 0,-0.953125 -0.5625,-1.453125 -1.546875,-1.453125 z m 0,0"
             style="stroke:none"
             inkscape:connector-curvature="0" />
        </symbol>
        <symbol
           id="textext-20461d03-15"
           overflow="visible"
           style="overflow:visible">
          <path
             id="path10482"
             d="m 1.875,-0.234375 c -0.5625,0 -0.921875,-0.21875 -1.0625,-0.640625 l -0.5,0 c 0.0625,0.265625 0.21875,0.5 0.5,0.6875 C 1.078125,0 1.421875,0.09375 1.84375,0.09375 c 0.796875,0 1.609375,-0.28125 1.609375,-1.046875 0,-0.34375 -0.09375,-0.578125 -0.25,-0.703125 -0.171875,-0.125 -0.421875,-0.203125 -0.75,-0.25 C 2.5,-1.921875 2.640625,-1.96875 2.890625,-2.0625 3.140625,-2.171875 3.25,-2.40625 3.25,-2.765625 3.25,-3.40625 2.78125,-3.71875 1.8125,-3.71875 c -0.515625,0 -0.96875,0.09375 -1.359375,0.25 l 0,0.6875 0.359375,0 c 0.046875,-0.375 0.359375,-0.578125 0.953125,-0.578125 0.484375,0 0.890625,0.203125 0.890625,0.65625 C 2.65625,-2.515625 2.5625,-2.375 2.375,-2.25 2.1875,-2.125 1.890625,-2.078125 1.5,-2.078125 l -0.171875,0 0,0.359375 0.3125,0 c 0.40625,0 0.703125,0.078125 0.890625,0.21875 0.203125,0.140625 0.3125,0.328125 0.3125,0.53125 0,0.453125 -0.484375,0.734375 -0.96875,0.734375 z m 0,0"
             style="stroke:none"
             inkscape:connector-curvature="0" />
        </symbol>
        <symbol
           id="textext-20461d03-16"
           overflow="visible"
           style="overflow:visible">
          <path
             id="path10485"
             d="m 2.40625,-0.296875 c -0.71875,0 -0.984375,-0.5625 -0.984375,-1.328125 l 0,-0.359375 c 0,-0.765625 0.265625,-1.34375 0.984375,-1.34375 0.3125,0 0.5625,0.140625 0.71875,0.390625 0.171875,0.25 0.25,0.625 0.25,1.125 0,0.828125 -0.21875,1.515625 -0.96875,1.515625 z m 0.1875,0.390625 c 0.453125,0 0.8125,-0.171875 1.09375,-0.53125 0.28125,-0.34375 0.421875,-0.8125 0.421875,-1.375 0,-0.5625 -0.140625,-1.03125 -0.421875,-1.375 -0.28125,-0.359375 -0.640625,-0.53125 -1.09375,-0.53125 -0.59375,0 -0.9375,0.25 -1.171875,0.671875 l 0,-0.5625 -1.21875,0 0,0.359375 0.59375,0 0,4.34375 -0.59375,0 0,0.359375 1.8125,0 0,-0.359375 -0.59375,0 0,-1.65625 C 1.65625,-0.140625 2,0.09375 2.59375,0.09375 Z m 0,0"
             style="stroke:none"
             inkscape:connector-curvature="0" />
        </symbol>
        <symbol
           id="textext-20461d03-17"
           overflow="visible"
           style="overflow:visible">
          <path
             id="path10488"
             d="m 3.71875,-1.09375 -0.5,0 c -0.125,0.515625 -0.4375,0.859375 -1.046875,0.859375 -0.8125,0 -1.09375,-0.609375 -1.09375,-1.484375 l 0,-0.015625 2.703125,0 C 3.75,-2.9375 3.234375,-3.71875 2.0625,-3.71875 c -0.515625,0 -0.921875,0.171875 -1.234375,0.53125 -0.3125,0.34375 -0.484375,0.796875 -0.484375,1.375 0,0.578125 0.171875,1.03125 0.484375,1.390625 0.328125,0.34375 0.75,0.515625 1.28125,0.515625 0.921875,0 1.421875,-0.4375 1.609375,-1.1875 z m -0.6875,-1.015625 -1.953125,0 c 0.0625,-0.6875 0.3125,-1.265625 0.984375,-1.265625 0.703125,0 0.953125,0.53125 0.96875,1.265625 z m 0,0"
             style="stroke:none"
             inkscape:connector-curvature="0" />
        </symbol>
        <symbol
           id="textext-20461d03-18"
           overflow="visible"
           style="overflow:visible">
          <path
             id="path10491"
             d="m 3.578125,-0.421875 0,-2.828125 0.5625,0 0,-0.359375 -1.75,0 0,0.359375 0.5625,0 0,2.828125 -1.515625,0 0,-2.828125 0.5625,0 0,-0.359375 -1.75,0 0,0.359375 0.5625,0 0,2.890625 -0.5625,0 0,0.359375 6.03125,0 0,-0.359375 -0.5625,0 0,-2.890625 0.5625,0 0,-0.359375 -1.75,0 0,0.359375 0.5625,0 0,2.828125 z m 0,0"
             style="stroke:none"
             inkscape:connector-curvature="0" />
        </symbol>
        <symbol
           id="textext-20461d03-19"
           overflow="visible"
           style="overflow:visible">
          <path
             id="path10494"
             d="m 3.71875,-3.25 0.5625,0 0,-0.359375 -1.765625,0 0,0.359375 0.578125,0 0,1.078125 -1.671875,0 0,-1.078125 0.578125,0 0,-0.359375 -1.765625,0 0,0.359375 0.5625,0 0,2.890625 -0.5625,0 L 0.234375,0 2,0 l 0,-0.359375 -0.578125,0 0,-1.390625 1.671875,0 0,1.390625 -0.578125,0 0,0.359375 1.765625,0 0,-0.359375 -0.5625,0 z m 0,0"
             style="stroke:none"
             inkscape:connector-curvature="0" />
        </symbol>
        <symbol
           id="textext-20461d03-20"
           overflow="visible"
           style="overflow:visible">
          <path
             id="path10497"
             d="M 0.234375,0 2,0 l 0,-0.359375 -0.578125,0 0,-0.265625 1.671875,-1.765625 0,2.03125 -0.578125,0 0,0.359375 1.765625,0 0,-0.359375 -0.5625,0 0,-2.890625 0.5625,0 0,-0.359375 -1.765625,0 0,0.359375 0.578125,0 0,0.3125 -1.671875,1.765625 0,-2.078125 0.578125,0 0,-0.359375 -1.765625,0 0,0.359375 0.5625,0 0,2.890625 -0.5625,0 z m 0,0"
             style="stroke:none"
             inkscape:connector-curvature="0" />
        </symbol>
        <symbol
           id="textext-20461d03-21"
           overflow="visible"
           style="overflow:visible">
          <path
             id="path10500"
             d="m 4.234375,-3.609375 -1.734375,0 0,0.359375 0.546875,0 0,1.40625 -1.171875,0 c -0.140625,0 -0.25,-0.046875 -0.328125,-0.140625 -0.078125,-0.09375 -0.125,-0.265625 -0.125,-0.53125 l 0,-0.734375 0.546875,0 0,-0.359375 -1.734375,0 0,0.359375 0.5625,0 0,1.078125 c 0,0.171875 0.09375,0.34375 0.265625,0.5 0.171875,0.171875 0.359375,0.25 0.578125,0.25 l 1.40625,0 0,1.0625 -0.5625,0 0,0.359375 1.75,0 0,-0.359375 -0.5625,0 0,-2.890625 0.5625,0 z m 0,0"
             style="stroke:none"
             inkscape:connector-curvature="0" />
        </symbol>
        <symbol
           id="textext-20461d03-22"
           overflow="visible"
           style="overflow:visible">
          <path
             id="path10503"
             d="m 3.59375,-3.609375 -3.3125,0 0,0.96875 0.359375,0 0,-0.5625 0.984375,0 0,2.84375 -0.5625,0 0,0.359375 1.75,0 0,-0.359375 -0.5625,0 0,-2.84375 0.984375,0 0,0.5625 0.359375,0 z m 0,0"
             style="stroke:none"
             inkscape:connector-curvature="0" />
        </symbol>
        <symbol
           id="textext-20461d03-23"
           overflow="visible"
           style="overflow:visible">
          <path
             id="path10506"
             d="M 1.296875,-2.640625 C 1.296875,-3.046875 1.5625,-3.25 2,-3.25 l 0.796875,0 0,1.21875 -0.796875,0 c -0.4375,0 -0.703125,-0.21875 -0.703125,-0.609375 z M 0.625,-2.703125 c 0,0.3125 0.109375,0.546875 0.34375,0.703125 0.25,0.140625 0.4375,0.234375 0.59375,0.265625 l -0.84375,1.375 -0.5,0 L 0.21875,0 1.203125,0 2.25,-1.671875 l 0.546875,0 0,1.3125 -0.53125,0 L 2.265625,0 4,0 l 0,-0.359375 -0.578125,0 0,-2.890625 0.609375,0 0,-0.359375 -2.3125,0 c -0.625,0 -1.09375,0.296875 -1.09375,0.90625 z m 0,0"
             style="stroke:none"
             inkscape:connector-curvature="0" />
        </symbol>
      </g>
    </defs>
    <defs
       id="defs11448">
      <g
         id="g11450">
        <symbol
           style="overflow:visible"
           overflow="visible"
           id="textext-c6414838-0">
          <path
             inkscape:connector-curvature="0"
             style="stroke:none"
             d="m 0.5,1.765625 4.984375,0 0,-8.796875 -4.984375,0 z m 0.5625,-0.5625 0,-7.671875 3.859375,0 0,7.671875 z m 0,0"
             id="path11453" />
        </symbol>
        <symbol
           style="overflow:visible"
           overflow="visible"
           id="textext-c6414838-1">
          <path
             inkscape:connector-curvature="0"
             style="stroke:none"
             d="M 2.171875,-2.625 3.515625,-6.09375 4.84375,-2.625 Z M 0.125,0 l 2.03125,0 0,-0.515625 -0.796875,0 0.609375,-1.59375 3.0625,0 0.609375,1.59375 -0.8125,0 0,0.515625 2.65625,0 0,-0.515625 -0.71875,0 -2.59375,-6.75 -0.828125,0 -2.59375,6.75 -0.625,0 z m 0,0"
             id="path11456" />
        </symbol>
        <symbol
           style="overflow:visible"
           overflow="visible"
           id="textext-c6414838-2">
          <path
             inkscape:connector-curvature="0"
             style="stroke:none"
             d="m 2.15625,-4.578125 1.875,0 0,3.984375 -2.09375,0 c -0.109375,0 -0.171875,0 -0.15625,-0.078125 0.078125,-0.3125 0.15625,-0.703125 0.25,-1.1875 0.09375,-0.5 0.125,-1.109375 0.125,-1.875 z M 1.5625,-4.65625 l 0,0.921875 c 0,0.546875 -0.015625,1.015625 -0.0625,1.4375 -0.046875,0.578125 -0.296875,1.78125 -0.875,1.78125 l -0.265625,0 0,1.890625 0.515625,0 0.078125,-0.6875 C 1,0.234375 1.171875,0 1.5,0 l 3.078125,0 c 0.328125,0 0.515625,0.234375 0.5625,0.6875 l 0.078125,0.6875 0.515625,0 0,-1.890625 -0.8125,0 0,-4.140625 0.8125,0 0,-0.515625 -4.984375,0 0,0.515625 z m 0,0"
             id="path11459" />
        </symbol>
        <symbol
           style="overflow:visible"
           overflow="visible"
           id="textext-c6414838-3">
          <path
             inkscape:connector-curvature="0"
             style="stroke:none"
             d="m 3.4375,-0.421875 c -1.015625,0 -1.390625,-0.8125 -1.390625,-1.90625 l 0,-0.515625 c 0,-1.09375 0.375,-1.90625 1.390625,-1.90625 0.453125,0 0.796875,0.1875 1.03125,0.546875 0.25,0.359375 0.359375,0.890625 0.359375,1.609375 0,1.1875 -0.328125,2.171875 -1.390625,2.171875 z m 0.28125,0.5625 c 0.640625,0 1.15625,-0.25 1.5625,-0.765625 0.390625,-0.5 0.59375,-1.15625 0.59375,-1.96875 0,-0.8125 -0.203125,-1.46875 -0.59375,-1.96875 -0.40625,-0.5 -0.921875,-0.75 -1.5625,-0.75 -0.875,0 -1.359375,0.34375 -1.671875,0.953125 l 0,-0.8125 -1.75,0 0,0.515625 0.84375,0 0,6.21875 -0.84375,0 0,0.515625 2.59375,0 0,-0.515625 -0.84375,0 0,-2.375 c 0.3125,0.609375 0.796875,0.953125 1.671875,0.953125 z m 0,0"
             id="path11462" />
        </symbol>
        <symbol
           style="overflow:visible"
           overflow="visible"
           id="textext-c6414838-4">
          <path
             inkscape:connector-curvature="0"
             style="stroke:none"
             d="m 5.3125,-1.5625 -0.71875,0 c -0.171875,0.734375 -0.625,1.21875 -1.5,1.21875 -1.140625,0 -1.546875,-0.875 -1.546875,-2.109375 l 0,-0.046875 3.859375,0 C 5.375,-4.203125 4.625,-5.3125 2.953125,-5.3125 c -0.734375,0 -1.328125,0.25 -1.78125,0.75 C 0.734375,-4.0625 0.5,-3.40625 0.5,-2.59375 c 0,0.828125 0.234375,1.484375 0.6875,1.984375 0.453125,0.5 1.0625,0.75 1.828125,0.75 1.3125,0 2.03125,-0.625 2.296875,-1.703125 z m -0.96875,-1.453125 -2.796875,0 c 0.09375,-0.984375 0.4375,-1.8125 1.40625,-1.8125 1,0 1.359375,0.765625 1.390625,1.8125 z m 0,0"
             id="path11465" />
        </symbol>
        <symbol
           style="overflow:visible"
           overflow="visible"
           id="textext-c6414838-5">
          <path
             inkscape:connector-curvature="0"
             style="stroke:none"
             d="m 5.125,-1.5625 -0.71875,0 c -0.15625,0.75 -0.546875,1.21875 -1.390625,1.21875 -0.5,0 -0.859375,-0.1875 -1.109375,-0.5625 -0.234375,-0.375 -0.359375,-0.9375 -0.359375,-1.6875 0,-0.75 0.125,-1.296875 0.359375,-1.671875 0.25,-0.375 0.609375,-0.5625 1.109375,-0.5625 0.90625,0 1.296875,0.46875 1.421875,1.296875 l 0.515625,0 0,-1.328125 C 4.390625,-5.125 3.765625,-5.3125 3,-5.3125 c -0.75,0 -1.359375,0.234375 -1.8125,0.734375 -0.453125,0.5 -0.6875,1.15625 -0.6875,1.984375 0,0.828125 0.234375,1.484375 0.6875,1.984375 0.453125,0.5 1.0625,0.75 1.8125,0.75 1.21875,0 1.890625,-0.671875 2.125,-1.703125 z m 0,0"
             id="path11468" />
        </symbol>
        <symbol
           style="overflow:visible"
           overflow="visible"
           id="textext-c6414838-6">
          <path
             inkscape:connector-curvature="0"
             style="stroke:none"
             d="m 6.0625,-5.171875 -2.484375,0 0,0.515625 0.78125,0 0,2.015625 -1.6875,0 c -0.203125,0 -0.34375,-0.078125 -0.453125,-0.203125 -0.109375,-0.125 -0.171875,-0.375 -0.171875,-0.75 l 0,-1.0625 0.78125,0 0,-0.515625 -2.484375,0 0,0.515625 0.796875,0 0,1.5625 c 0,0.25 0.125,0.484375 0.375,0.71875 0.25,0.21875 0.515625,0.328125 0.828125,0.328125 l 2.015625,0 0,1.53125 -0.8125,0 0,0.515625 2.515625,0 0,-0.515625 -0.8125,0 0,-4.140625 0.8125,0 z m 0,0"
             id="path11471" />
        </symbol>
        <symbol
           style="overflow:visible"
           overflow="visible"
           id="textext-c6414838-7">
          <path
             inkscape:connector-curvature="0"
             style="stroke:none"
             d="m 5.140625,-5.171875 -4.734375,0 0,1.40625 0.515625,0 0,-0.8125 1.40625,0 0,4.0625 -0.8125,0 0,0.515625 2.515625,0 0,-0.515625 -0.8125,0 0,-4.0625 1.40625,0 0,0.8125 0.515625,0 z m 0,0"
             id="path11474" />
        </symbol>
        <symbol
           style="overflow:visible"
           overflow="visible"
           id="textext-c6414838-8">
          <path
             inkscape:connector-curvature="0"
             style="stroke:none"
             d="m 5.3125,-4.65625 0.8125,0 0,-0.515625 -2.515625,0 0,0.515625 0.8125,0 0,1.546875 -2.375,0 0,-1.546875 0.796875,0 0,-0.515625 -2.5,0 0,0.515625 0.796875,0 0,4.140625 -0.796875,0 0,0.515625 2.5,0 0,-0.515625 -0.796875,0 0,-2 2.375,0 0,2 -0.8125,0 0,0.515625 2.515625,0 0,-0.515625 -0.8125,0 z m 0,0"
             id="path11477" />
        </symbol>
        <symbol
           style="overflow:visible"
           overflow="visible"
           id="textext-c6414838-9">
          <path
             inkscape:connector-curvature="0"
             style="stroke:none"
             d="m 0.34375,0 2.5,0 0,-0.515625 -0.796875,0 0,-0.375 2.375,-2.515625 0,2.890625 -0.8125,0 0,0.515625 2.515625,0 0,-0.515625 -0.8125,0 0,-4.140625 0.8125,0 0,-0.515625 -2.515625,0 0,0.515625 0.8125,0 0,0.453125 -2.375,2.515625 0,-2.96875 0.796875,0 0,-0.515625 -2.5,0 0,0.515625 0.796875,0 0,4.140625 -0.796875,0 z m 0,0"
             id="path11480" />
        </symbol>
        <symbol
           style="overflow:visible"
           overflow="visible"
           id="textext-c6414838-10">
          <path
             inkscape:connector-curvature="0"
             style="stroke:none"
             d="m 1.859375,-3.78125 c 0,-0.578125 0.390625,-0.875 1.015625,-0.875 l 1.125,0 0,1.75 -1.125,0 c -0.625,0 -1.015625,-0.296875 -1.015625,-0.875 z M 0.890625,-3.875 c 0,0.453125 0.171875,0.796875 0.5,1 0.34375,0.21875 0.625,0.34375 0.859375,0.40625 l -1.21875,1.953125 -0.71875,0 0,0.515625 1.40625,0 1.484375,-2.40625 0.796875,0 0,1.890625 -0.765625,0 0,0.515625 2.484375,0 0,-0.515625 -0.8125,0 0,-4.140625 0.859375,0 0,-0.515625 -3.296875,0 c -0.90625,0 -1.578125,0.4375 -1.578125,1.296875 z m 0,0"
             id="path11483" />
        </symbol>
        <symbol
           style="overflow:visible"
           overflow="visible"
           id="textext-c6414838-11">
          <path
             inkscape:connector-curvature="0"
             style="stroke:none"
             d="m 0.34375,1.234375 3.484375,0 0,-6.140625 -3.484375,0 z m 0.390625,-0.390625 0,-5.359375 2.703125,0 0,5.359375 z m 0,0"
             id="path11486" />
        </symbol>
        <symbol
           style="overflow:visible"
           overflow="visible"
           id="textext-c6414838-12">
          <path
             inkscape:connector-curvature="0"
             style="stroke:none"
             d="m 1.515625,-1.84375 0.9375,-2.421875 0.9375,2.421875 z M 0.078125,0 l 1.4375,0 0,-0.359375 -0.5625,0 0.421875,-1.125 2.140625,0 0.421875,1.125 -0.5625,0 0,0.359375 1.84375,0 0,-0.359375 -0.5,0 -1.8125,-4.71875 -0.5625,0 -1.8125,4.71875 -0.453125,0 z m 0,0"
             id="path11489" />
        </symbol>
        <symbol
           style="overflow:visible"
           overflow="visible"
           id="textext-c6414838-13">
          <path
             inkscape:connector-curvature="0"
             style="stroke:none"
             d="m 1.515625,-3.203125 1.296875,0 0,2.78125 -1.453125,0 c -0.078125,0 -0.125,0.015625 -0.109375,-0.046875 0.046875,-0.21875 0.109375,-0.5 0.171875,-0.828125 0.0625,-0.34375 0.09375,-0.78125 0.09375,-1.3125 z M 1.09375,-3.25 l 0,0.640625 c 0,0.375 -0.015625,0.71875 -0.046875,1 -0.03125,0.40625 -0.203125,1.25 -0.609375,1.25 l -0.1875,0 0,1.328125 0.359375,0 L 0.65625,0.484375 C 0.703125,0.15625 0.828125,0 1.046875,0 l 2.15625,0 C 3.421875,0 3.5625,0.15625 3.59375,0.484375 l 0.0625,0.484375 0.34375,0 0,-1.328125 -0.5625,0 0,-2.890625 0.5625,0 0,-0.359375 -3.46875,0 0,0.359375 z m 0,0"
             id="path11492" />
        </symbol>
        <symbol
           style="overflow:visible"
           overflow="visible"
           id="textext-c6414838-14">
          <path
             inkscape:connector-curvature="0"
             style="stroke:none"
             d="m 2.40625,-0.296875 c -0.71875,0 -0.984375,-0.5625 -0.984375,-1.328125 l 0,-0.359375 c 0,-0.765625 0.265625,-1.34375 0.984375,-1.34375 0.3125,0 0.5625,0.140625 0.71875,0.390625 0.171875,0.25 0.25,0.625 0.25,1.125 0,0.828125 -0.21875,1.515625 -0.96875,1.515625 z m 0.1875,0.390625 c 0.453125,0 0.8125,-0.171875 1.09375,-0.53125 0.28125,-0.34375 0.421875,-0.8125 0.421875,-1.375 0,-0.5625 -0.140625,-1.03125 -0.421875,-1.375 -0.28125,-0.359375 -0.640625,-0.53125 -1.09375,-0.53125 -0.59375,0 -0.9375,0.25 -1.171875,0.671875 l 0,-0.5625 -1.21875,0 0,0.359375 0.59375,0 0,4.34375 -0.59375,0 0,0.359375 1.8125,0 0,-0.359375 -0.59375,0 0,-1.65625 C 1.65625,-0.140625 2,0.09375 2.59375,0.09375 Z m 0,0"
             id="path11495" />
        </symbol>
        <symbol
           style="overflow:visible"
           overflow="visible"
           id="textext-c6414838-15">
          <path
             inkscape:connector-curvature="0"
             style="stroke:none"
             d="m 3.71875,-1.09375 -0.5,0 c -0.125,0.515625 -0.4375,0.859375 -1.046875,0.859375 -0.8125,0 -1.09375,-0.609375 -1.09375,-1.484375 l 0,-0.015625 2.703125,0 C 3.75,-2.9375 3.234375,-3.71875 2.0625,-3.71875 c -0.515625,0 -0.921875,0.171875 -1.234375,0.53125 -0.3125,0.34375 -0.484375,0.796875 -0.484375,1.375 0,0.578125 0.171875,1.03125 0.484375,1.390625 0.328125,0.34375 0.75,0.515625 1.28125,0.515625 0.921875,0 1.421875,-0.4375 1.609375,-1.1875 z m -0.6875,-1.015625 -1.953125,0 c 0.0625,-0.6875 0.3125,-1.265625 0.984375,-1.265625 0.703125,0 0.953125,0.53125 0.96875,1.265625 z m 0,0"
             id="path11498" />
        </symbol>
        <symbol
           style="overflow:visible"
           overflow="visible"
           id="textext-c6414838-16">
          <path
             inkscape:connector-curvature="0"
             style="stroke:none"
             d="m 3.578125,-1.09375 -0.5,0 c -0.109375,0.515625 -0.375,0.859375 -0.96875,0.859375 -0.34375,0 -0.59375,-0.140625 -0.765625,-0.40625 -0.1875,-0.265625 -0.265625,-0.65625 -0.265625,-1.171875 0,-0.515625 0.078125,-0.90625 0.265625,-1.171875 C 1.515625,-3.25 1.765625,-3.375 2.109375,-3.375 c 0.640625,0 0.90625,0.328125 0.984375,0.90625 l 0.375,0 0,-0.921875 c -0.40625,-0.1875 -0.828125,-0.328125 -1.375,-0.328125 -0.53125,0 -0.9375,0.171875 -1.265625,0.515625 -0.3125,0.359375 -0.484375,0.8125 -0.484375,1.390625 0,0.578125 0.171875,1.03125 0.484375,1.390625 0.328125,0.34375 0.734375,0.515625 1.265625,0.515625 0.859375,0 1.328125,-0.46875 1.484375,-1.1875 z m 0,0"
             id="path11501" />
        </symbol>
        <symbol
           style="overflow:visible"
           overflow="visible"
           id="textext-c6414838-17">
          <path
             inkscape:connector-curvature="0"
             style="stroke:none"
             d="m 4.234375,-3.609375 -1.734375,0 0,0.359375 0.546875,0 0,1.40625 -1.171875,0 c -0.140625,0 -0.25,-0.046875 -0.328125,-0.140625 -0.078125,-0.09375 -0.125,-0.265625 -0.125,-0.53125 l 0,-0.734375 0.546875,0 0,-0.359375 -1.734375,0 0,0.359375 0.5625,0 0,1.078125 c 0,0.171875 0.09375,0.34375 0.265625,0.5 0.171875,0.171875 0.359375,0.25 0.578125,0.25 l 1.40625,0 0,1.0625 -0.5625,0 0,0.359375 1.75,0 0,-0.359375 -0.5625,0 0,-2.890625 0.5625,0 z m 0,0"
             id="path11504" />
        </symbol>
        <symbol
           style="overflow:visible"
           overflow="visible"
           id="textext-c6414838-18">
          <path
             inkscape:connector-curvature="0"
             style="stroke:none"
             d="m 3.59375,-3.609375 -3.3125,0 0,0.96875 0.359375,0 0,-0.5625 0.984375,0 0,2.84375 -0.5625,0 0,0.359375 1.75,0 0,-0.359375 -0.5625,0 0,-2.84375 0.984375,0 0,0.5625 0.359375,0 z m 0,0"
             id="path11507" />
        </symbol>
        <symbol
           style="overflow:visible"
           overflow="visible"
           id="textext-c6414838-19">
          <path
             inkscape:connector-curvature="0"
             style="stroke:none"
             d="m 3.71875,-3.25 0.5625,0 0,-0.359375 -1.765625,0 0,0.359375 0.578125,0 0,1.078125 -1.671875,0 0,-1.078125 0.578125,0 0,-0.359375 -1.765625,0 0,0.359375 0.5625,0 0,2.890625 -0.5625,0 L 0.234375,0 2,0 l 0,-0.359375 -0.578125,0 0,-1.390625 1.671875,0 0,1.390625 -0.578125,0 0,0.359375 1.765625,0 0,-0.359375 -0.5625,0 z m 0,0"
             id="path11510" />
        </symbol>
        <symbol
           style="overflow:visible"
           overflow="visible"
           id="textext-c6414838-20">
          <path
             inkscape:connector-curvature="0"
             style="stroke:none"
             d="M 0.234375,0 2,0 l 0,-0.359375 -0.578125,0 0,-0.265625 1.671875,-1.765625 0,2.03125 -0.578125,0 0,0.359375 1.765625,0 0,-0.359375 -0.5625,0 0,-2.890625 0.5625,0 0,-0.359375 -1.765625,0 0,0.359375 0.578125,0 0,0.3125 -1.671875,1.765625 0,-2.078125 0.578125,0 0,-0.359375 -1.765625,0 0,0.359375 0.5625,0 0,2.890625 -0.5625,0 z m 0,0"
             id="path11513" />
        </symbol>
        <symbol
           style="overflow:visible"
           overflow="visible"
           id="textext-c6414838-21">
          <path
             inkscape:connector-curvature="0"
             style="stroke:none"
             d="M 1.296875,-2.640625 C 1.296875,-3.046875 1.5625,-3.25 2,-3.25 l 0.796875,0 0,1.21875 -0.796875,0 c -0.4375,0 -0.703125,-0.21875 -0.703125,-0.609375 z M 0.625,-2.703125 c 0,0.3125 0.109375,0.546875 0.34375,0.703125 0.25,0.140625 0.4375,0.234375 0.59375,0.265625 l -0.84375,1.375 -0.5,0 L 0.21875,0 1.203125,0 2.25,-1.671875 l 0.546875,0 0,1.3125 -0.53125,0 L 2.265625,0 4,0 l 0,-0.359375 -0.578125,0 0,-2.890625 0.609375,0 0,-0.359375 -2.3125,0 c -0.625,0 -1.09375,0.296875 -1.09375,0.90625 z m 0,0"
             id="path11516" />
        </symbol>
      </g>
    </defs>
  </defs>
  <metadata
     id="metadata7">
    <rdf:RDF>
      <cc:Work
         rdf:about="">
        <dc:format>image/svg+xml</dc:format>
        <dc:type
           rdf:resource="http://purl.org/dc/dcmitype/StillImage" />
        <dc:title></dc:title>
      </cc:Work>
    </rdf:RDF>
  </metadata>
  <g
     transform="translate(0,-932.36218)"
     id="layer1"
     inkscape:groupmode="layer"
     inkscape:label="Layer 1">
    <g
       transform="matrix(16,0,0,16,-549.52298,242.43661)"
       ns0:text="\xd0\xb0\xd0\xb1\xd0\xb2"
       ns0:preamble=""
       id="g4677">
      <g
         id="textext-9788c7ee-0" />
    </g>
    <rect
       y="941.68201"
       x="141.92638"
       height="105.38741"
       width="90.521065"
       id="rect4138-3"
       style="opacity:1;fill:none;fill-opacity:1;stroke:#000000;stroke-width:1;stroke-miterlimit:4;stroke-dasharray:none;stroke-opacity:1" />
    <path
       style="fill:#000000;fill-opacity:1;fill-rule:evenodd;stroke:#000000;stroke-width:1;stroke-linecap:butt;stroke-linejoin:miter;stroke-miterlimit:4;stroke-dasharray:none;stroke-opacity:1"
       d="m 135.13644,993.2461 -1.13191,-2.25912 6.79161,2.25912 -6.79161,2.25914 1.13191,-2.25914"
       id="path7174-4-9-0-5-6-9-2-0-5"
       inkscape:connector-curvature="0"
       sodipodi:nodetypes="ccccc" />
    <path
       style="fill:none;fill-rule:evenodd;stroke:#000000;stroke-width:1;stroke-linecap:butt;stroke-linejoin:miter;stroke-miterlimit:4;stroke-dasharray:none;stroke-opacity:1"
       d="m 2.373076,993.24607 132.763374,0"
       id="path4205-3-2-1-7-9-62"
       inkscape:connector-curvature="0" />
    <g
       transform="matrix(0.75434222,0,0,0.75276702,236.21916,461.89676)"
       id="g4642">
      <path
         style="fill:none;fill-rule:evenodd;stroke:#000000;stroke-width:1.32704461px;stroke-linecap:butt;stroke-linejoin:miter;stroke-opacity:1"
         d="m -245,697.36218 60,-2e-5 0,-20 2.70833,0 0,20 2.70834,0 0,-20 2.70833,0 0,20 2.70832,0 0,-20 2.70834,0 0,20 2.70833,0 0,-20 2.70834,0 0,20 2.70833,0 0,-20 2.70834,0 0,20 15.625,2e-5"
         id="path4625"
         inkscape:connector-curvature="0"
         sodipodi:nodetypes="cccccccccccccccccccccc" />
      <path
         style="fill:none;fill-rule:evenodd;stroke:#000000;stroke-width:1.32704461px;stroke-linecap:butt;stroke-linejoin:miter;stroke-opacity:1"
         d="m -305,697.36218 20.625,0 0,-20 2.70833,0 0,20 2.70834,0 0,-20 2.70833,0 0,20 2.70832,0 0,-20 2.70834,0 0,20 2.70833,0 0,-20 2.70834,0 0,20 2.70833,0 0,-20 2.70834,0 0,20 15.625,2e-5"
         id="path4625-0"
         inkscape:connector-curvature="0"
         sodipodi:nodetypes="cccccccccccccccccccccc" />
    </g>
    <path
       style="fill:#000000;fill-opacity:1;fill-rule:evenodd;stroke:#000000;stroke-width:1;stroke-linecap:butt;stroke-linejoin:miter;stroke-miterlimit:4;stroke-dasharray:none;stroke-opacity:1"
       d="m 365.21083,994.37569 -1.13192,-2.25911 6.79161,2.25911 -6.79161,2.25915 1.13192,-2.25915"
       id="path7174-4-9-0-5-6-9-2-0-5-0"
       inkscape:connector-curvature="0"
       sodipodi:nodetypes="ccccc" />
    <path
       style="fill:none;fill-rule:evenodd;stroke:#000000;stroke-width:1;stroke-linecap:butt;stroke-linejoin:miter;stroke-miterlimit:4;stroke-dasharray:none;stroke-opacity:1"
       d="m 232.44746,994.37567 132.76337,0"
       id="path4205-3-2-1-7-9-62-6"
       inkscape:connector-curvature="0" />
    <g
       id="g5282"
       style="stroke-width:1.15264344;stroke-miterlimit:4;stroke-dasharray:none"
       transform="matrix(1.7544266,0,0,1.7507631,-505.49954,753.07858)"
       ns0:preamble="/home/bqwer/workdir/textext_preamble.tex"
       ns0:text="\\begin{center}\n\\scriptsize\n\xd0\x91\xd1\x83\xd1\x84\xd0\xb5\xd1\x80\\\\FIFO\n\\end{center}">
      <defs
         id="defs5284">
        <g
           id="g5286">
          <symbol
             id="textext-302e98f0-0"
             overflow="visible"
             style="overflow:visible">
            <path
               id="path5289"
               d="m 0.34375,1.234375 3.484375,0 0,-6.140625 -3.484375,0 z m 0.390625,-0.390625 0,-5.359375 2.703125,0 0,5.359375 z m 0,0"
               style="stroke:none"
               inkscape:connector-curvature="0" />
          </symbol>
          <symbol
             id="textext-302e98f0-1"
             overflow="visible"
             style="overflow:visible">
            <path
               id="path5292"
               d="m 3.921875,-1.46875 c 0,0.78125 -0.375,1.109375 -1.1875,1.109375 l -1.015625,0 0,-2.21875 1.015625,0 c 0.8125,0 1.1875,0.3125 1.1875,1.109375 z m 0.78125,0 C 4.703125,-1.796875 4.5625,-2.125 4.28125,-2.453125 4.015625,-2.78125 3.453125,-2.9375 2.578125,-2.9375 l -0.859375,0 0,-1.71875 2.34375,0 0,0.71875 0.40625,0 0,-1.140625 -4.078125,0 0,0.359375 0.640625,0 0,4.359375 -0.640625,0 0,0.359375 2.34375,0 c 1.203125,0 1.96875,-0.34375 1.96875,-1.46875 z m 0,0"
               style="stroke:none"
               inkscape:connector-curvature="0" />
          </symbol>
          <symbol
             id="textext-302e98f0-2"
             overflow="visible"
             style="overflow:visible">
            <path
               id="path5295"
               d="M 1,1.546875 C 1.25,1.546875 1.4375,1.5 1.578125,1.390625 1.71875,1.296875 1.84375,1.09375 1.953125,0.8125 l 1.65625,-4.0625 0.40625,0 0,-0.359375 -1.359375,0 0,0.359375 0.546875,0 L 2.1875,-0.765625 1.171875,-3.25 l 0.578125,0 0,-0.359375 -1.671875,0 0,0.359375 L 0.5,-3.25 1.84375,0.0625 1.609375,0.65625 C 1.53125,0.875 1.4375,1.015625 1.359375,1.078125 1.296875,1.15625 1.1875,1.1875 1.0625,1.1875 0.78125,1.1875 0.671875,1.03125 0.640625,0.75 l -0.3125,0 0,0.6875 C 0.53125,1.5 0.75,1.546875 1,1.546875 Z m 0,0"
               style="stroke:none"
               inkscape:connector-curvature="0" />
          </symbol>
          <symbol
             id="textext-302e98f0-3"
             overflow="visible"
             style="overflow:visible">
            <path
               id="path5298"
               d="m 2.421875,-4.9375 0,1.625 L 2.1875,-3.546875 C 2.078125,-3.65625 1.90625,-3.71875 1.671875,-3.71875 1.375,-3.71875 1.0625,-3.546875 0.75,-3.203125 c -0.328125,0.34375 -0.484375,0.8125 -0.484375,1.390625 0,0.59375 0.15625,1.046875 0.484375,1.390625 0.3125,0.34375 0.625,0.515625 0.921875,0.515625 0.234375,0 0.40625,-0.046875 0.515625,-0.15625 l 0.234375,-0.25 0,1.40625 -0.5625,0 0,0.359375 1.75,0 0,-0.359375 -0.5625,0 0,-1.40625 0.21875,0.25 c 0.109375,0.109375 0.28125,0.15625 0.53125,0.15625 0.28125,0 0.59375,-0.171875 0.90625,-0.515625 C 5.03125,-0.765625 5.1875,-1.21875 5.1875,-1.8125 c 0,-0.578125 -0.15625,-1.046875 -0.484375,-1.390625 -0.3125,-0.34375 -0.625,-0.515625 -0.90625,-0.515625 -0.25,0 -0.421875,0.0625 -0.53125,0.171875 l -0.21875,0.234375 0,-1.984375 -1.234375,0 0,0.359375 z m 0,1.96875 0,2.328125 L 2.1875,-0.40625 c -0.09375,0.078125 -0.21875,0.140625 -0.390625,0.140625 -0.1875,0 -0.375,-0.125 -0.546875,-0.375 C 1.09375,-0.90625 1,-1.296875 1,-1.8125 c 0,-0.515625 0.09375,-0.90625 0.25,-1.15625 0.171875,-0.25 0.359375,-0.375 0.546875,-0.375 0.171875,0 0.296875,0.046875 0.390625,0.140625 z m 1.25,-0.375 c 0.1875,0 0.359375,0.125 0.53125,0.375 0.171875,0.25 0.25,0.640625 0.25,1.15625 0,0.515625 -0.078125,0.90625 -0.25,1.171875 -0.171875,0.25 -0.34375,0.375 -0.53125,0.375 -0.1875,0 -0.3125,-0.0625 -0.40625,-0.140625 l -0.21875,-0.234375 0,-2.328125 0.21875,-0.234375 c 0.09375,-0.09375 0.21875,-0.140625 0.40625,-0.140625 z m 0,0"
               style="stroke:none"
               inkscape:connector-curvature="0" />
          </symbol>
          <symbol
             id="textext-302e98f0-4"
             overflow="visible"
             style="overflow:visible">
            <path
               id="path5301"
               d="m 3.71875,-1.09375 -0.5,0 c -0.125,0.515625 -0.4375,0.859375 -1.046875,0.859375 -0.8125,0 -1.09375,-0.609375 -1.09375,-1.484375 l 0,-0.015625 2.703125,0 C 3.75,-2.9375 3.234375,-3.71875 2.0625,-3.71875 c -0.515625,0 -0.921875,0.171875 -1.234375,0.53125 -0.3125,0.34375 -0.484375,0.796875 -0.484375,1.375 0,0.578125 0.171875,1.03125 0.484375,1.390625 0.328125,0.34375 0.75,0.515625 1.28125,0.515625 0.921875,0 1.421875,-0.4375 1.609375,-1.1875 z m -0.6875,-1.015625 -1.953125,0 c 0.0625,-0.6875 0.3125,-1.265625 0.984375,-1.265625 0.703125,0 0.953125,0.53125 0.96875,1.265625 z m 0,0"
               style="stroke:none"
               inkscape:connector-curvature="0" />
          </symbol>
          <symbol
             id="textext-302e98f0-5"
             overflow="visible"
             style="overflow:visible">
            <path
               id="path5304"
               d="m 2.40625,-0.296875 c -0.71875,0 -0.984375,-0.5625 -0.984375,-1.328125 l 0,-0.359375 c 0,-0.765625 0.265625,-1.34375 0.984375,-1.34375 0.3125,0 0.5625,0.140625 0.71875,0.390625 0.171875,0.25 0.25,0.625 0.25,1.125 0,0.828125 -0.21875,1.515625 -0.96875,1.515625 z m 0.1875,0.390625 c 0.453125,0 0.8125,-0.171875 1.09375,-0.53125 0.28125,-0.34375 0.421875,-0.8125 0.421875,-1.375 0,-0.5625 -0.140625,-1.03125 -0.421875,-1.375 -0.28125,-0.359375 -0.640625,-0.53125 -1.09375,-0.53125 -0.59375,0 -0.9375,0.25 -1.171875,0.671875 l 0,-0.5625 -1.21875,0 0,0.359375 0.59375,0 0,4.34375 -0.59375,0 0,0.359375 1.8125,0 0,-0.359375 -0.59375,0 0,-1.65625 C 1.65625,-0.140625 2,0.09375 2.59375,0.09375 Z m 0,0"
               style="stroke:none"
               inkscape:connector-curvature="0" />
          </symbol>
          <symbol
             id="textext-302e98f0-6"
             overflow="visible"
             style="overflow:visible">
            <path
               id="path5307"
               d="m 0.390625,0 2.140625,0 0,-0.359375 -0.8125,0 0,-2.1875 1.734375,0 0,0.640625 0.421875,0 0,-1.6875 -0.421875,0 0,0.625 -1.734375,0 0,-1.6875 2.40625,0 0,0.703125 0.421875,0 0,-1.125 -4.15625,0 0,0.359375 0.640625,0 0,4.359375 -0.640625,0 z m 0,0"
               style="stroke:none"
               inkscape:connector-curvature="0" />
          </symbol>
          <symbol
             id="textext-302e98f0-7"
             overflow="visible"
             style="overflow:visible">
            <path
               id="path5310"
               d="m 1.71875,-0.359375 0,-4.359375 0.65625,0 0,-0.359375 -1.984375,0 0,0.359375 0.640625,0 0,4.359375 -0.640625,0 0,0.359375 1.984375,0 0,-0.359375 z m 0,0"
               style="stroke:none"
               inkscape:connector-curvature="0" />
          </symbol>
          <symbol
             id="textext-302e98f0-8"
             overflow="visible"
             style="overflow:visible">
            <path
               id="path5313"
               d="m 1.171875,-2.53125 c 0,-1.34375 0.4375,-2.28125 1.6875,-2.28125 1.234375,0 1.6875,0.9375 1.6875,2.28125 0,1.328125 -0.453125,2.265625 -1.6875,2.265625 -1.25,0 -1.6875,-0.9375 -1.6875,-2.265625 z m 1.6875,2.625 c 0.765625,0 1.3125,-0.265625 1.71875,-0.671875 0.453125,-0.453125 0.75,-1.078125 0.75,-1.953125 0,-0.796875 -0.234375,-1.4375 -0.6875,-1.921875 -0.453125,-0.46875 -1.046875,-0.71875 -1.78125,-0.71875 -0.765625,0 -1.3125,0.265625 -1.71875,0.671875 -0.46875,0.46875 -0.75,1.078125 -0.75,1.96875 0,0.890625 0.28125,1.5 0.75,1.953125 0.40625,0.40625 0.953125,0.671875 1.71875,0.671875 z m 0,0"
               style="stroke:none"
               inkscape:connector-curvature="0" />
          </symbol>
        </g>
      </defs>
      <g
         id="textext-302e98f0-9">
        <g
           id="g5316"
           style="fill:#000000;fill-opacity:1">
          <use
             id="use5318"
             y="134.765"
             x="383.64899"
             xlink:href="#textext-302e98f0-1"
             width="100%"
             height="100%" />
          <use
             id="use5320"
             y="134.765"
             x="388.77405"
             xlink:href="#textext-302e98f0-2"
             width="100%"
             height="100%" />
          <use
             id="use5322"
             y="134.765"
             x="392.87744"
             xlink:href="#textext-302e98f0-3"
             width="100%"
             height="100%" />
          <use
             id="use5324"
             y="134.765"
             x="398.33582"
             xlink:href="#textext-302e98f0-4"
             width="100%"
             height="100%" />
          <use
             id="use5326"
             y="134.765"
             x="402.46292"
             xlink:href="#textext-302e98f0-5"
             width="100%"
             height="100%" />
        </g>
        <g
           id="g5328"
           style="fill:#000000;fill-opacity:1">
          <use
             id="use5330"
             y="142.735"
             x="386.21301"
             xlink:href="#textext-302e98f0-6"
             width="100%"
             height="100%" />
          <use
             id="use5332"
             y="142.735"
             x="391.05212"
             xlink:href="#textext-302e98f0-7"
             width="100%"
             height="100%" />
          <use
             id="use5334"
             y="142.735"
             x="393.80676"
             xlink:href="#textext-302e98f0-6"
             width="100%"
             height="100%" />
          <use
             id="use5336"
             y="142.735"
             x="398.6459"
             xlink:href="#textext-302e98f0-8"
             width="100%"
             height="100%" />
        </g>
      </g>
    </g>
    <path
       style="fill:none;fill-rule:evenodd;stroke:#000000;stroke-width:1px;stroke-linecap:butt;stroke-linejoin:miter;stroke-opacity:1"
       d="m 237.16209,986.848 7.7949,0 0,-15.05534 2.043,0 0,15.05534 9.80645,0 0,-15.05534 2.04301,0 0,15.05534 9.80645,0 0,-15.05534 2.04301,0 0,15.05534 9.80645,0 0,-15.05534 2.043,0 0,15.05534 9.80644,0 0,-15.05534 2.04301,0 0,15.05534 9.80645,0 0,-15.05534 2.04302,0 0,15.05534 9.80644,0 0,-15.05534 2.04301,0 0,15.05534 9.80645,0 0,-15.05534 2.043,0 0,15.05534 10.02647,0 0,-15.05534 2.04301,0 0,15.05534 9.80644,0 0,-15.05534 2.04302,0 0,15.05534 3.99173,0"
       id="path5964"
       inkscape:connector-curvature="0" />
  </g>
</svg>
