<?xml version="1.0" encoding="UTF-8" standalone="no"?>
<!-- Created with Inkscape (http://www.inkscape.org/) -->

<svg
   xmlns:ns0="http://www.iki.fi/pav/software/textext/"
   xmlns:dc="http://purl.org/dc/elements/1.1/"
   xmlns:cc="http://creativecommons.org/ns#"
   xmlns:rdf="http://www.w3.org/1999/02/22-rdf-syntax-ns#"
   xmlns:svg="http://www.w3.org/2000/svg"
   xmlns="http://www.w3.org/2000/svg"
   xmlns:sodipodi="http://sodipodi.sourceforge.net/DTD/sodipodi-0.dtd"
   xmlns:inkscape="http://www.inkscape.org/namespaces/inkscape"
   width="253.46201pt"
   height="150.50008pt"
   viewBox="0 0 316.82751 188.1251"
   id="svg4889"
   version="1.1"
   inkscape:version="0.91 r13725"
   sodipodi:docname="pict_1_2.svg">
  <sodipodi:namedview
     id="base"
     pagecolor="#ffffff"
     bordercolor="#666666"
     borderopacity="1.0"
     inkscape:pageopacity="0.0"
     inkscape:pageshadow="2"
     inkscape:zoom="2.8"
     inkscape:cx="193.32923"
     inkscape:cy="182.55882"
     inkscape:document-units="pt"
     inkscape:current-layer="layer1"
     showgrid="true"
     units="pt"
     inkscape:snap-bbox="true"
     inkscape:snap-bbox-midpoints="true"
     inkscape:object-nodes="true"
     inkscape:snap-nodes="true"
     inkscape:snap-others="false"
     inkscape:window-width="2560"
     inkscape:window-height="1377"
     inkscape:window-x="-8"
     inkscape:window-y="-8"
     inkscape:window-maximized="1"
     showguides="true"
     inkscape:guide-bbox="true"
     fit-margin-top="0"
     fit-margin-left="0"
     fit-margin-right="0"
     fit-margin-bottom="0">
    <inkscape:grid
       type="xygrid"
       id="grid5930"
       originx="-12.534995"
       originy="-549.68741" />
    <sodipodi:guide
       id="guide7623"
       orientation="1,0"
       position="314.0275,133.12513" />
  </sodipodi:namedview>
  <defs
     id="defs4891">
    <marker
       inkscape:stockid="Arrow2Mend"
       orient="auto"
       refY="0"
       refX="0"
       id="marker6032-0-4"
       style="overflow:visible"
       inkscape:isstock="true">
      <path
         inkscape:connector-curvature="0"
         id="path6034-29-5"
         style="fill:#000000;fill-opacity:1;fill-rule:evenodd;stroke:#000000;stroke-width:0.625;stroke-linejoin:round;stroke-opacity:1"
         d="M 8.7185878,4.0337352 -2.2072895,0.01601326 8.7185884,-4.0017078 c -1.7454984,2.3720609 -1.7354408,5.6174519 -6e-7,8.035443 z"
         transform="scale(-0.6,-0.6)" />
    </marker>
    <marker
       inkscape:stockid="Arrow2Mend"
       orient="auto"
       refY="0"
       refX="0"
       id="marker5910-80-3"
       style="overflow:visible"
       inkscape:isstock="true">
      <path
         inkscape:connector-curvature="0"
         id="path5912-4-4"
         style="fill:#000000;fill-opacity:1;fill-rule:evenodd;stroke:#000000;stroke-width:0.625;stroke-linejoin:round;stroke-opacity:1"
         d="M 8.7185878,4.0337352 -2.2072895,0.01601326 8.7185884,-4.0017078 c -1.7454984,2.3720609 -1.7354408,5.6174519 -6e-7,8.035443 z"
         transform="scale(-0.6,-0.6)" />
    </marker>
    <marker
       inkscape:stockid="Arrow2Mend"
       orient="auto"
       refY="0"
       refX="0"
       id="marker5968-2-9"
       style="overflow:visible"
       inkscape:isstock="true">
      <path
         inkscape:connector-curvature="0"
         id="path5970-1-2"
         style="fill:#000000;fill-opacity:1;fill-rule:evenodd;stroke:#000000;stroke-width:0.625;stroke-linejoin:round;stroke-opacity:1"
         d="M 8.7185878,4.0337352 -2.2072895,0.01601326 8.7185884,-4.0017078 c -1.7454984,2.3720609 -1.7354408,5.6174519 -6e-7,8.035443 z"
         transform="scale(-0.6,-0.6)" />
    </marker>
    <marker
       inkscape:isstock="true"
       style="overflow:visible"
       id="marker5726-8-9"
       refX="0"
       refY="0"
       orient="auto"
       inkscape:stockid="Arrow2Mend">
      <path
         inkscape:connector-curvature="0"
         transform="scale(-0.6,-0.6)"
         d="M 8.7185878,4.0337352 -2.2072895,0.01601326 8.7185884,-4.0017078 c -1.7454984,2.3720609 -1.7354408,5.6174519 -6e-7,8.035443 z"
         style="fill:#000000;fill-opacity:1;fill-rule:evenodd;stroke:#000000;stroke-width:0.625;stroke-linejoin:round;stroke-opacity:1"
         id="path5728-3-3" />
    </marker>
    <marker
       inkscape:isstock="true"
       style="overflow:visible"
       id="marker5760-1-7"
       refX="0"
       refY="0"
       orient="auto"
       inkscape:stockid="Arrow2Mend">
      <path
         inkscape:connector-curvature="0"
         transform="scale(-0.6,-0.6)"
         d="M 8.7185878,4.0337352 -2.2072895,0.01601326 8.7185884,-4.0017078 c -1.7454984,2.3720609 -1.7354408,5.6174519 -6e-7,8.035443 z"
         style="fill:#000000;fill-opacity:1;fill-rule:evenodd;stroke:#000000;stroke-width:0.625;stroke-linejoin:round;stroke-opacity:1"
         id="path5762-0-0" />
    </marker>
    <marker
       inkscape:isstock="true"
       style="overflow:visible"
       id="marker5800-2-4"
       refX="0"
       refY="0"
       orient="auto"
       inkscape:stockid="Arrow2Mend">
      <path
         inkscape:connector-curvature="0"
         transform="scale(-0.6,-0.6)"
         d="M 8.7185878,4.0337352 -2.2072895,0.01601326 8.7185884,-4.0017078 c -1.7454984,2.3720609 -1.7354408,5.6174519 -6e-7,8.035443 z"
         style="fill:#000000;fill-opacity:1;fill-rule:evenodd;stroke:#000000;stroke-width:0.625;stroke-linejoin:round;stroke-opacity:1"
         id="path5802-9-5" />
    </marker>
    <marker
       inkscape:stockid="Arrow2Mend"
       orient="auto"
       refY="0"
       refX="0"
       id="marker6032-0"
       style="overflow:visible"
       inkscape:isstock="true">
      <path
         inkscape:connector-curvature="0"
         id="path6034-29"
         style="fill:#000000;fill-opacity:1;fill-rule:evenodd;stroke:#000000;stroke-width:0.625;stroke-linejoin:round;stroke-opacity:1"
         d="M 8.7185878,4.0337352 -2.2072895,0.01601326 8.7185884,-4.0017078 c -1.7454984,2.3720609 -1.7354408,5.6174519 -6e-7,8.035443 z"
         transform="scale(-0.6,-0.6)" />
    </marker>
    <marker
       inkscape:stockid="Arrow2Mend"
       orient="auto"
       refY="0"
       refX="0"
       id="marker5910-80"
       style="overflow:visible"
       inkscape:isstock="true">
      <path
         inkscape:connector-curvature="0"
         id="path5912-4"
         style="fill:#000000;fill-opacity:1;fill-rule:evenodd;stroke:#000000;stroke-width:0.625;stroke-linejoin:round;stroke-opacity:1"
         d="M 8.7185878,4.0337352 -2.2072895,0.01601326 8.7185884,-4.0017078 c -1.7454984,2.3720609 -1.7354408,5.6174519 -6e-7,8.035443 z"
         transform="scale(-0.6,-0.6)" />
    </marker>
    <marker
       inkscape:stockid="Arrow2Mend"
       orient="auto"
       refY="0"
       refX="0"
       id="marker5968-2"
       style="overflow:visible"
       inkscape:isstock="true">
      <path
         inkscape:connector-curvature="0"
         id="path5970-1"
         style="fill:#000000;fill-opacity:1;fill-rule:evenodd;stroke:#000000;stroke-width:0.625;stroke-linejoin:round;stroke-opacity:1"
         d="M 8.7185878,4.0337352 -2.2072895,0.01601326 8.7185884,-4.0017078 c -1.7454984,2.3720609 -1.7354408,5.6174519 -6e-7,8.035443 z"
         transform="scale(-0.6,-0.6)" />
    </marker>
    <marker
       inkscape:isstock="true"
       style="overflow:visible"
       id="marker5726-8"
       refX="0"
       refY="0"
       orient="auto"
       inkscape:stockid="Arrow2Mend">
      <path
         inkscape:connector-curvature="0"
         transform="scale(-0.6,-0.6)"
         d="M 8.7185878,4.0337352 -2.2072895,0.01601326 8.7185884,-4.0017078 c -1.7454984,2.3720609 -1.7354408,5.6174519 -6e-7,8.035443 z"
         style="fill:#000000;fill-opacity:1;fill-rule:evenodd;stroke:#000000;stroke-width:0.625;stroke-linejoin:round;stroke-opacity:1"
         id="path5728-3" />
    </marker>
    <marker
       inkscape:isstock="true"
       style="overflow:visible"
       id="marker5760-1"
       refX="0"
       refY="0"
       orient="auto"
       inkscape:stockid="Arrow2Mend">
      <path
         inkscape:connector-curvature="0"
         transform="scale(-0.6,-0.6)"
         d="M 8.7185878,4.0337352 -2.2072895,0.01601326 8.7185884,-4.0017078 c -1.7454984,2.3720609 -1.7354408,5.6174519 -6e-7,8.035443 z"
         style="fill:#000000;fill-opacity:1;fill-rule:evenodd;stroke:#000000;stroke-width:0.625;stroke-linejoin:round;stroke-opacity:1"
         id="path5762-0" />
    </marker>
    <marker
       inkscape:isstock="true"
       style="overflow:visible"
       id="marker5800-2"
       refX="0"
       refY="0"
       orient="auto"
       inkscape:stockid="Arrow2Mend">
      <path
         inkscape:connector-curvature="0"
         transform="scale(-0.6,-0.6)"
         d="M 8.7185878,4.0337352 -2.2072895,0.01601326 8.7185884,-4.0017078 c -1.7454984,2.3720609 -1.7354408,5.6174519 -6e-7,8.035443 z"
         style="fill:#000000;fill-opacity:1;fill-rule:evenodd;stroke:#000000;stroke-width:0.625;stroke-linejoin:round;stroke-opacity:1"
         id="path5802-9" />
    </marker>
  </defs>
  <metadata
     id="metadata4894">
    <rdf:RDF>
      <cc:Work
         rdf:about="">
        <dc:format>image/svg+xml</dc:format>
        <dc:type
           rdf:resource="http://purl.org/dc/dcmitype/StillImage" />
        <dc:title></dc:title>
      </cc:Work>
    </rdf:RDF>
  </metadata>
  <g
     inkscape:label="Layer 1"
     inkscape:groupmode="layer"
     id="layer1"
     transform="translate(-12.534995,-314.54971)">
    <path
       style="fill:none;fill-rule:evenodd;stroke:#000000;stroke-width:0.625;stroke-linecap:butt;stroke-linejoin:miter;stroke-miterlimit:4;stroke-dasharray:none;stroke-opacity:1"
       d="m 21.875,342.9872 9.765625,0 90.234375,0 0,71.875 3.125,0"
       id="path4601-4"
       inkscape:connector-curvature="0"
       sodipodi:nodetypes="ccccc" />
    <path
       style="fill:none;fill-rule:evenodd;stroke:#000000;stroke-width:0.625;stroke-linecap:butt;stroke-linejoin:miter;stroke-miterlimit:4;stroke-dasharray:none;stroke-opacity:1"
       d="m 21.875,349.2372 22.265625,0 52.734375,0 0,96.875 26.5625,0"
       id="path4601-2-6"
       inkscape:connector-curvature="0"
       sodipodi:nodetypes="ccccc" />
    <path
       style="fill:none;fill-rule:evenodd;stroke:#000000;stroke-width:0.625;stroke-linecap:butt;stroke-linejoin:miter;stroke-miterlimit:4;stroke-dasharray:none;stroke-opacity:1"
       d="m 21.875,355.4872 6.640625,0 43.359375,0 0,121.875 51.5625,0"
       id="path4601-3-68"
       inkscape:connector-curvature="0"
       sodipodi:nodetypes="ccccc" />
    <path
       style="fill:none;fill-rule:evenodd;stroke:#000000;stroke-width:0.625;stroke-linecap:butt;stroke-linejoin:miter;stroke-miterlimit:4;stroke-dasharray:none;stroke-opacity:1"
       d="m 21.875,361.7372 39.0625,0"
       id="path4601-2-0-5"
       inkscape:connector-curvature="0"
       sodipodi:nodetypes="cc" />
    <path
       style="fill:none;fill-rule:evenodd;stroke:#000000;stroke-width:0.625;stroke-linecap:butt;stroke-linejoin:miter;stroke-miterlimit:4;stroke-dasharray:none;stroke-opacity:1"
       d="m 21.875,367.9872 39.0625,0"
       id="path4601-0-9"
       inkscape:connector-curvature="0"
       sodipodi:nodetypes="cc" />
    <path
       style="fill:none;fill-rule:evenodd;stroke:#000000;stroke-width:0.625;stroke-linecap:butt;stroke-linejoin:miter;stroke-miterlimit:4;stroke-dasharray:none;stroke-opacity:1"
       d="m 21.875,374.2372 9.765625,0 77.734375,0 0,53.125 15.625,0"
       id="path4601-2-5-41"
       inkscape:connector-curvature="0"
       sodipodi:nodetypes="ccccc" />
    <path
       style="fill:none;fill-rule:evenodd;stroke:#000000;stroke-width:0.625;stroke-linecap:butt;stroke-linejoin:miter;stroke-miterlimit:4;stroke-dasharray:none;stroke-opacity:1"
       d="m 21.875,380.4872 28.90625,0 33.59375,0 0,78.125 39.0625,0"
       id="path4601-3-5-2"
       inkscape:connector-curvature="0"
       sodipodi:nodetypes="ccccc" />
    <rect
       style="opacity:1;fill:none;fill-opacity:1;stroke:#000000;stroke-width:0.625;stroke-miterlimit:4;stroke-dasharray:none;stroke-opacity:1"
       id="rect9650"
       width="262.5"
       height="187.50009"
       x="37.5"
       y="314.86221" />
    <path
       style="fill:none;fill-rule:evenodd;stroke:#000000;stroke-width:0.625;stroke-linecap:butt;stroke-linejoin:miter;stroke-miterlimit:4;stroke-dasharray:none;stroke-opacity:1"
       d="m 60.9375,361.7372 254.6875,0"
       id="path11294"
       inkscape:connector-curvature="0"
       sodipodi:nodetypes="cc" />
    <path
       style="fill:none;fill-rule:evenodd;stroke:#000000;stroke-width:0.625;stroke-linecap:butt;stroke-linejoin:miter;stroke-miterlimit:4;stroke-dasharray:none;stroke-opacity:1"
       d="m 60.9375,367.9872 254.6875,0"
       id="path11296"
       inkscape:connector-curvature="0"
       sodipodi:nodetypes="cc" />
    <path
       style="fill:none;fill-rule:evenodd;stroke:#000000;stroke-width:0.625;stroke-linecap:butt;stroke-linejoin:miter;stroke-miterlimit:4;stroke-dasharray:none;stroke-opacity:1"
       d="m 21.875,386.7372 37.5,0 0,103.125 64.0625,0"
       id="path11316"
       inkscape:connector-curvature="0"
       sodipodi:nodetypes="cccc" />
    <circle
       style="opacity:1;fill:#000000;fill-opacity:1;stroke:none;stroke-width:0.625;stroke-miterlimit:4;stroke-dasharray:none;stroke-opacity:1"
       id="path12112"
       cx="96.875"
       cy="349.23718"
       r="1.4650422" />
    <circle
       style="opacity:1;fill:#000000;fill-opacity:1;stroke:none;stroke-width:0.625;stroke-miterlimit:4;stroke-dasharray:none;stroke-opacity:1"
       id="path12112-4"
       cx="109.375"
       cy="374.23718"
       r="1.4650422" />
    <circle
       style="opacity:1;fill:#000000;fill-opacity:1;stroke:none;stroke-width:0.625;stroke-miterlimit:4;stroke-dasharray:none;stroke-opacity:1"
       id="path12112-0"
       cx="71.875"
       cy="355.48718"
       r="1.4650422" />
    <path
       style="fill:none;fill-rule:evenodd;stroke:#000000;stroke-width:0.625;stroke-linecap:butt;stroke-linejoin:miter;stroke-miterlimit:4;stroke-dasharray:none;stroke-opacity:1"
       d="m 123.05147,414.8622 11.32353,0"
       id="path6502"
       inkscape:connector-curvature="0"
       sodipodi:nodetypes="cc" />
    <path
       style="fill:none;fill-rule:evenodd;stroke:#000000;stroke-width:0.625;stroke-linecap:butt;stroke-linejoin:miter;stroke-miterlimit:4;stroke-dasharray:none;stroke-opacity:1"
       d="m 123.4375,427.3622 10.625,0"
       id="path6504"
       inkscape:connector-curvature="0"
       sodipodi:nodetypes="cc" />
    <path
       style="fill:none;fill-rule:evenodd;stroke:#000000;stroke-width:1.25;stroke-linecap:butt;stroke-linejoin:miter;stroke-miterlimit:4;stroke-dasharray:none;stroke-opacity:1"
       d="m 143.6397,408.6626 -10.29411,0 c 15.44117,12.39921 0,24.79841 0,24.79841 l 10.29411,0 c 0,0 15.44118,0 15.44118,-12.3992 0,-12.39921 -15.44118,-12.39921 -15.44118,-12.39921 z"
       id="path6506"
       inkscape:connector-curvature="0"
       sodipodi:nodetypes="cccccc" />
    <path
       style="fill:none;fill-rule:evenodd;stroke:#000000;stroke-width:0.625;stroke-linecap:butt;stroke-linejoin:miter;stroke-miterlimit:4;stroke-dasharray:none;stroke-opacity:1"
       d="m 159.0625,421.1122 7.8125,0"
       id="path6508"
       inkscape:connector-curvature="0"
       sodipodi:nodetypes="cc" />
    <path
       style="fill:none;fill-rule:evenodd;stroke:#000000;stroke-width:1.25;stroke-linecap:butt;stroke-linejoin:miter;stroke-miterlimit:4;stroke-dasharray:none;stroke-opacity:1"
       d="m 128.19853,408.6626 c 18.0147,12.39921 0,24.79841 0,24.79841"
       id="path6510"
       inkscape:connector-curvature="0"
       sodipodi:nodetypes="cc" />
    <path
       style="fill:none;fill-rule:evenodd;stroke:#000000;stroke-width:0.625;stroke-linecap:butt;stroke-linejoin:miter;stroke-miterlimit:4;stroke-dasharray:none;stroke-opacity:1"
       d="m 123.05147,446.1122 11.32353,0"
       id="path6502-6"
       inkscape:connector-curvature="0"
       sodipodi:nodetypes="cc" />
    <path
       style="fill:none;fill-rule:evenodd;stroke:#000000;stroke-width:0.625;stroke-linecap:butt;stroke-linejoin:miter;stroke-miterlimit:4;stroke-dasharray:none;stroke-opacity:1"
       d="m 123.4375,458.6122 10.625,0"
       id="path6504-1"
       inkscape:connector-curvature="0"
       sodipodi:nodetypes="cc" />
    <path
       style="fill:none;fill-rule:evenodd;stroke:#000000;stroke-width:1.25;stroke-linecap:butt;stroke-linejoin:miter;stroke-miterlimit:4;stroke-dasharray:none;stroke-opacity:1"
       d="m 143.6397,439.9126 -10.29411,0 c 15.44117,12.39921 0,24.79841 0,24.79841 l 10.29411,0 c 0,0 15.44118,0 15.44118,-12.3992 0,-12.39921 -15.44118,-12.39921 -15.44118,-12.39921 z"
       id="path6506-9"
       inkscape:connector-curvature="0"
       sodipodi:nodetypes="cccccc" />
    <path
       style="fill:none;fill-rule:evenodd;stroke:#000000;stroke-width:0.625;stroke-linecap:butt;stroke-linejoin:miter;stroke-miterlimit:4;stroke-dasharray:none;stroke-opacity:1"
       d="m 159.13603,452.41259 7.73897,-0.0504"
       id="path6508-0"
       inkscape:connector-curvature="0"
       sodipodi:nodetypes="cc" />
    <path
       style="fill:none;fill-rule:evenodd;stroke:#000000;stroke-width:1.25;stroke-linecap:butt;stroke-linejoin:miter;stroke-miterlimit:4;stroke-dasharray:none;stroke-opacity:1"
       d="m 128.19853,439.9126 c 18.0147,12.39921 0,24.79841 0,24.79841"
       id="path6510-2"
       inkscape:connector-curvature="0"
       sodipodi:nodetypes="cc" />
    <path
       style="fill:none;fill-rule:evenodd;stroke:#000000;stroke-width:0.625;stroke-linecap:butt;stroke-linejoin:miter;stroke-miterlimit:4;stroke-dasharray:none;stroke-opacity:1"
       d="m 123.05147,477.3622 11.32353,0"
       id="path6502-68"
       inkscape:connector-curvature="0"
       sodipodi:nodetypes="cc" />
    <path
       style="fill:none;fill-rule:evenodd;stroke:#000000;stroke-width:0.625;stroke-linecap:butt;stroke-linejoin:miter;stroke-miterlimit:4;stroke-dasharray:none;stroke-opacity:1"
       d="m 123.125,489.8622 10.9375,0"
       id="path6504-9"
       inkscape:connector-curvature="0"
       sodipodi:nodetypes="cc" />
    <path
       style="fill:none;fill-rule:evenodd;stroke:#000000;stroke-width:1.25;stroke-linecap:butt;stroke-linejoin:miter;stroke-miterlimit:4;stroke-dasharray:none;stroke-opacity:1"
       d="m 143.6397,471.1626 -10.29411,0 c 15.44117,12.39921 0,24.79841 0,24.79841 l 10.29411,0 c 0,0 15.44118,0 15.44118,-12.3992 0,-12.39921 -15.44118,-12.39921 -15.44118,-12.39921 z"
       id="path6506-7"
       inkscape:connector-curvature="0"
       sodipodi:nodetypes="cccccc" />
    <path
       style="fill:none;fill-rule:evenodd;stroke:#000000;stroke-width:0.625;stroke-linecap:butt;stroke-linejoin:miter;stroke-miterlimit:4;stroke-dasharray:none;stroke-opacity:1"
       d="m 159.0625,483.6122 7.5,0"
       id="path6508-2"
       inkscape:connector-curvature="0"
       sodipodi:nodetypes="cc" />
    <path
       style="fill:none;fill-rule:evenodd;stroke:#000000;stroke-width:1.25;stroke-linecap:butt;stroke-linejoin:miter;stroke-miterlimit:4;stroke-dasharray:none;stroke-opacity:1"
       d="m 128.19853,471.1626 c 18.0147,12.39921 0,24.79841 0,24.79841"
       id="path6510-0"
       inkscape:connector-curvature="0"
       sodipodi:nodetypes="cc" />
    <path
       style="fill:none;fill-rule:evenodd;stroke:#000000;stroke-width:0.625;stroke-linecap:butt;stroke-linejoin:miter;stroke-miterlimit:4;stroke-dasharray:none;stroke-opacity:1"
       d="m 228.125,405.4872 15.625,0"
       id="path6502-2"
       inkscape:connector-curvature="0"
       sodipodi:nodetypes="cc" />
    <path
       style="fill:none;fill-rule:evenodd;stroke:#000000;stroke-width:0.625;stroke-linecap:butt;stroke-linejoin:miter;stroke-miterlimit:4;stroke-dasharray:none;stroke-opacity:1"
       d="m 227.8125,417.9872 15.625,0"
       id="path6504-5"
       inkscape:connector-curvature="0"
       sodipodi:nodetypes="cc"
       transform="translate(0,2.421875e-6)" />
    <path
       style="fill:none;fill-rule:evenodd;stroke:#000000;stroke-width:1.25;stroke-linecap:butt;stroke-linejoin:miter;stroke-miterlimit:4;stroke-dasharray:none;stroke-opacity:1"
       d="m 248.71323,399.2876 -10.29411,0 c 15.44117,12.39921 0,24.79841 0,24.79841 l 10.29411,0 c 0,0 15.44118,0 15.44118,-12.3992 0,-12.39921 -15.44118,-12.39921 -15.44118,-12.39921 z"
       id="path6506-72"
       inkscape:connector-curvature="0"
       sodipodi:nodetypes="cccccc" />
    <path
       style="fill:none;fill-rule:evenodd;stroke:#000000;stroke-width:0.625;stroke-linecap:butt;stroke-linejoin:miter;stroke-miterlimit:4;stroke-dasharray:none;stroke-opacity:1"
       d="m 264.0625,411.7372 7.8125,0"
       id="path6508-8"
       inkscape:connector-curvature="0"
       sodipodi:nodetypes="cc" />
    <path
       style="fill:none;fill-rule:evenodd;stroke:#000000;stroke-width:0.625;stroke-linecap:butt;stroke-linejoin:miter;stroke-miterlimit:4;stroke-dasharray:none;stroke-opacity:1"
       d="m 165.625,483.6122 150,0"
       id="path6621"
       inkscape:connector-curvature="0"
       sodipodi:nodetypes="cc" />
    <path
       style="fill:none;fill-rule:evenodd;stroke:#000000;stroke-width:0.625;stroke-linecap:butt;stroke-linejoin:miter;stroke-miterlimit:4;stroke-dasharray:none;stroke-opacity:1"
       d="m 165.625,452.3622 9.375,0 0,25 140.625,0"
       id="path6623"
       inkscape:connector-curvature="0"
       sodipodi:nodetypes="cccc" />
    <path
       style="fill:none;fill-rule:evenodd;stroke:#000000;stroke-width:0.625;stroke-linecap:butt;stroke-linejoin:miter;stroke-miterlimit:4;stroke-dasharray:none;stroke-opacity:1"
       d="m 165.625,421.1122 21.875,0 0,50 128.125,0"
       id="path6625"
       inkscape:connector-curvature="0"
       sodipodi:nodetypes="cccc" />
    <path
       style="fill:none;fill-rule:evenodd;stroke:#000000;stroke-width:0.625;stroke-linecap:butt;stroke-linejoin:miter;stroke-miterlimit:4;stroke-dasharray:none;stroke-opacity:1"
       d="m 60.9375,355.4872 254.6875,0"
       id="path11296-9"
       inkscape:connector-curvature="0"
       sodipodi:nodetypes="cc" />
    <path
       style="fill:none;fill-rule:evenodd;stroke:#000000;stroke-width:0.625;stroke-linecap:butt;stroke-linejoin:miter;stroke-miterlimit:4;stroke-dasharray:none;stroke-opacity:1"
       d="M 44.255076,349.26892 315.625,349.2372"
       id="path11296-1"
       inkscape:connector-curvature="0"
       sodipodi:nodetypes="cc" />
    <path
       style="fill:none;fill-rule:evenodd;stroke:#000000;stroke-width:0.625;stroke-linecap:butt;stroke-linejoin:miter;stroke-miterlimit:4;stroke-dasharray:none;stroke-opacity:1"
       d="m 43.75,374.23719 271.875,10e-6"
       id="path11296-3"
       inkscape:connector-curvature="0"
       sodipodi:nodetypes="cc" />
    <path
       style="fill:none;fill-rule:evenodd;stroke:#000000;stroke-width:0.625;stroke-linecap:butt;stroke-linejoin:miter;stroke-miterlimit:4;stroke-dasharray:none;stroke-opacity:1"
       d="m 54.687508,386.7372 36.328125,0 115.234367,0 0,31.25 23.4375,0"
       id="path11296-3-0"
       inkscape:connector-curvature="0"
       sodipodi:nodetypes="ccccc" />
    <circle
       style="opacity:1;fill:#000000;fill-opacity:1;stroke:none;stroke-width:0.625;stroke-miterlimit:4;stroke-dasharray:none;stroke-opacity:1"
       id="path12112-9"
       cx="59.375"
       cy="386.73718"
       r="1.4650422" />
    <circle
       style="opacity:1;fill:#000000;fill-opacity:1;stroke:none;stroke-width:0.625;stroke-miterlimit:4;stroke-dasharray:none;stroke-opacity:1"
       id="path12112-9-2"
       cx="218.75"
       cy="374.23718"
       r="1.4650422" />
    <path
       style="fill:none;fill-rule:evenodd;stroke:#000000;stroke-width:0.625;stroke-linecap:butt;stroke-linejoin:miter;stroke-miterlimit:4;stroke-dasharray:none;stroke-opacity:1"
       d="m 209.375,374.2372 9.375,0 0,31.25 10.9375,0"
       id="path6699"
       inkscape:connector-curvature="0"
       sodipodi:nodetypes="cccc" />
    <path
       style="fill:none;fill-rule:evenodd;stroke:#000000;stroke-width:0.625;stroke-linecap:butt;stroke-linejoin:miter;stroke-miterlimit:4;stroke-dasharray:none;stroke-opacity:1"
       d="m 271.875,411.7372 43.75,0"
       id="path6707"
       inkscape:connector-curvature="0" />
    <path
       style="fill:#000000;fill-opacity:1;fill-rule:evenodd;stroke:#000000;stroke-width:0.625;stroke-linecap:butt;stroke-linejoin:miter;stroke-miterlimit:4;stroke-dasharray:none;stroke-opacity:1"
       d="m 32.374997,342.98719 -1,-2 6,2 -6,2 1,-2"
       id="path7174-4-9-0"
       inkscape:connector-curvature="0"
       sodipodi:nodetypes="ccccc" />
    <path
       style="fill:#000000;fill-opacity:1;fill-rule:evenodd;stroke:#000000;stroke-width:0.625;stroke-linecap:butt;stroke-linejoin:miter;stroke-miterlimit:4;stroke-dasharray:none;stroke-opacity:1"
       d="m 32.374997,349.23719 -1,-2 6,2 -6,2 1,-2"
       id="path7174-4-9-0-7"
       inkscape:connector-curvature="0"
       sodipodi:nodetypes="ccccc" />
    <path
       style="fill:#000000;fill-opacity:1;fill-rule:evenodd;stroke:#000000;stroke-width:0.625;stroke-linecap:butt;stroke-linejoin:miter;stroke-miterlimit:4;stroke-dasharray:none;stroke-opacity:1"
       d="m 32.374997,355.48719 -1,-2 6,2 -6,2 1,-2"
       id="path7174-4-9-0-8"
       inkscape:connector-curvature="0"
       sodipodi:nodetypes="ccccc" />
    <path
       style="fill:#000000;fill-opacity:1;fill-rule:evenodd;stroke:#000000;stroke-width:0.625;stroke-linecap:butt;stroke-linejoin:miter;stroke-miterlimit:4;stroke-dasharray:none;stroke-opacity:1"
       d="m 32.374997,361.73719 -1,-2 6,2 -6,2 1,-2"
       id="path7174-4-9-0-9"
       inkscape:connector-curvature="0"
       sodipodi:nodetypes="ccccc" />
    <path
       style="fill:#000000;fill-opacity:1;fill-rule:evenodd;stroke:#000000;stroke-width:0.625;stroke-linecap:butt;stroke-linejoin:miter;stroke-miterlimit:4;stroke-dasharray:none;stroke-opacity:1"
       d="m 32.374997,367.98719 -1,-2 6,2 -6,2 1,-2"
       id="path7174-4-9-0-79"
       inkscape:connector-curvature="0"
       sodipodi:nodetypes="ccccc" />
    <path
       style="fill:#000000;fill-opacity:1;fill-rule:evenodd;stroke:#000000;stroke-width:0.625;stroke-linecap:butt;stroke-linejoin:miter;stroke-miterlimit:4;stroke-dasharray:none;stroke-opacity:1"
       d="m 32.374997,374.23719 -1,-2 6,2 -6,2 1,-2"
       id="path7174-4-9-0-92"
       inkscape:connector-curvature="0"
       sodipodi:nodetypes="ccccc" />
    <path
       style="fill:#000000;fill-opacity:1;fill-rule:evenodd;stroke:#000000;stroke-width:0.625;stroke-linecap:butt;stroke-linejoin:miter;stroke-miterlimit:4;stroke-dasharray:none;stroke-opacity:1"
       d="m 32.374997,380.48719 -1,-2 6,2 -6,2 1,-2"
       id="path7174-4-9-0-84"
       inkscape:connector-curvature="0"
       sodipodi:nodetypes="ccccc" />
    <path
       style="fill:#000000;fill-opacity:1;fill-rule:evenodd;stroke:#000000;stroke-width:0.625;stroke-linecap:butt;stroke-linejoin:miter;stroke-miterlimit:4;stroke-dasharray:none;stroke-opacity:1"
       d="m 32.374997,386.73719 -1,-2 6,2 -6,2 1,-2"
       id="path7174-4-9-0-3"
       inkscape:connector-curvature="0"
       sodipodi:nodetypes="ccccc" />
    <path
       style="fill:#000000;fill-opacity:1;fill-rule:evenodd;stroke:#000000;stroke-width:0.625;stroke-linecap:butt;stroke-linejoin:miter;stroke-miterlimit:4;stroke-dasharray:none;stroke-opacity:1"
       d="m 313.60001,349.23719 -1,-2 6,2 -6,2 1,-2"
       id="path7174-4-9-0-0"
       inkscape:connector-curvature="0"
       sodipodi:nodetypes="ccccc" />
    <path
       style="fill:#000000;fill-opacity:1;fill-rule:evenodd;stroke:#000000;stroke-width:0.625;stroke-linecap:butt;stroke-linejoin:miter;stroke-miterlimit:4;stroke-dasharray:none;stroke-opacity:1"
       d="m 313.60001,355.48719 -1,-2 6,2 -6,2 1,-2"
       id="path7174-4-9-0-08"
       inkscape:connector-curvature="0"
       sodipodi:nodetypes="ccccc" />
    <path
       style="fill:#000000;fill-opacity:1;fill-rule:evenodd;stroke:#000000;stroke-width:0.625;stroke-linecap:butt;stroke-linejoin:miter;stroke-miterlimit:4;stroke-dasharray:none;stroke-opacity:1"
       d="m 313.60001,361.73719 -1,-2 6,2 -6,2 1,-2"
       id="path7174-4-9-0-95"
       inkscape:connector-curvature="0"
       sodipodi:nodetypes="ccccc" />
    <path
       style="fill:#000000;fill-opacity:1;fill-rule:evenodd;stroke:#000000;stroke-width:0.625;stroke-linecap:butt;stroke-linejoin:miter;stroke-miterlimit:4;stroke-dasharray:none;stroke-opacity:1"
       d="m 313.60001,367.98719 -1,-2 6,2 -6,2 1,-2"
       id="path7174-4-9-0-83"
       inkscape:connector-curvature="0"
       sodipodi:nodetypes="ccccc" />
    <path
       style="fill:#000000;fill-opacity:1;fill-rule:evenodd;stroke:#000000;stroke-width:0.625;stroke-linecap:butt;stroke-linejoin:miter;stroke-miterlimit:4;stroke-dasharray:none;stroke-opacity:1"
       d="m 313.60001,374.23719 -1,-2 6,2 -6,2 1,-2"
       id="path7174-4-9-0-4"
       inkscape:connector-curvature="0"
       sodipodi:nodetypes="ccccc" />
    <path
       style="fill:#000000;fill-opacity:1;fill-rule:evenodd;stroke:#000000;stroke-width:0.625;stroke-linecap:butt;stroke-linejoin:miter;stroke-miterlimit:4;stroke-dasharray:none;stroke-opacity:1"
       d="m 313.60001,411.73719 -1,-2 6,2 -6,2 1,-2"
       id="path7174-4-9-0-6"
       inkscape:connector-curvature="0"
       sodipodi:nodetypes="ccccc" />
    <path
       style="fill:#000000;fill-opacity:1;fill-rule:evenodd;stroke:#000000;stroke-width:0.625;stroke-linecap:butt;stroke-linejoin:miter;stroke-miterlimit:4;stroke-dasharray:none;stroke-opacity:1"
       d="m 313.60001,471.11219 -1,-2 6,2 -6,2 1,-2"
       id="path7174-4-9-0-2"
       inkscape:connector-curvature="0"
       sodipodi:nodetypes="ccccc" />
    <path
       style="fill:#000000;fill-opacity:1;fill-rule:evenodd;stroke:#000000;stroke-width:0.625;stroke-linecap:butt;stroke-linejoin:miter;stroke-miterlimit:4;stroke-dasharray:none;stroke-opacity:1"
       d="m 313.60001,477.36219 -1,-2 6,2 -6,2 1,-2"
       id="path7174-4-9-0-32"
       inkscape:connector-curvature="0"
       sodipodi:nodetypes="ccccc" />
    <path
       style="fill:#000000;fill-opacity:1;fill-rule:evenodd;stroke:#000000;stroke-width:0.625;stroke-linecap:butt;stroke-linejoin:miter;stroke-miterlimit:4;stroke-dasharray:none;stroke-opacity:1"
       d="m 313.60001,483.61219 -1,-2 6,2 -6,2 1,-2"
       id="path7174-4-9-0-37"
       inkscape:connector-curvature="0"
       sodipodi:nodetypes="ccccc" />
    <g
       id="content"
       transform="matrix(1,0,0,-1,-91.145,1030.2147)"
       xml:space="preserve"
       stroke-miterlimit="10.433"
       font-style="normal"
       font-variant="normal"
       font-weight="normal"
       font-stretch="normal"
       font-size-adjust="none"
       letter-spacing="normal"
       word-spacing="normal"
       ns0:text="\\begin{lstlisting}\nbitwise_ops\n\\end{lstlisting}"
       ns0:preamble="D:\\verilog workbook\\textext_preamble.tex"
       style="font-style:normal;font-variant:normal;font-weight:normal;font-stretch:normal;letter-spacing:normal;word-spacing:normal;text-anchor:start;fill:none;fill-opacity:1;fill-rule:evenodd;stroke:#000000;stroke-linecap:butt;stroke-linejoin:miter;stroke-miterlimit:10.43299961;stroke-dasharray:none;stroke-dashoffset:0;stroke-opacity:1">
<path
   d="m 227.85,706.99 -0.28,0.55 c -1.02,0 -1.39,0.82 -1.39,1.91 l 0,0.51 c 0,1.09 0.37,1.9 1.39,1.9 0.46,0 0.8,-0.19 1.04,-0.54 0.24,-0.36 0.36,-0.9 0.36,-1.61 0,-1.18 -0.33,-2.17 -1.4,-2.17 l 0,0 0.28,-0.55 c 0.64,0 1.16,0.24 1.56,0.75 0.39,0.51 0.6,1.16 0.6,1.97 0,0.8 -0.21,1.47 -0.6,1.96 -0.4,0.5 -0.92,0.75 -1.56,0.75 -0.87,0 -1.36,-0.35 -1.67,-0.94 l 0,3.19 -1.76,0 0,-0.51 0.86,0 0,-6.52 -0.86,0 0,-0.51 1.76,0 0,0.8 c 0.31,-0.6 0.8,-0.94 1.67,-0.94 z"
   id="path6962"
   inkscape:connector-curvature="0"
   style="fill:#000000;stroke-width:0" />
<path
   d="m 233.28,713.88 0,0.03 0,0.03 -0.01,0.02 0,0.03 -0.01,0.03 -0.01,0.02 0,0.03 -0.01,0.02 -0.01,0.03 -0.02,0.02 -0.01,0.02 -0.01,0.03 -0.02,0.02 -0.02,0.02 -0.01,0.02 -0.02,0.02 -0.02,0.02 -0.02,0.02 -0.02,0.01 -0.02,0.02 -0.03,0.01 -0.02,0.02 -0.02,0.01 -0.03,0.01 -0.02,0.01 -0.03,0.01 -0.02,0.01 -0.03,0 -0.03,0.01 -0.02,0 -0.03,0.01 -0.03,0 c -0.3,0 -0.56,-0.26 -0.56,-0.56 0,-0.3 0.26,-0.55 0.56,-0.55 0.3,0 0.55,0.25 0.55,0.55 z"
   id="path6964"
   inkscape:connector-curvature="0"
   style="fill:#000000;stroke-width:0" />
<polygon
   points="231.56,711.76 232.42,711.76 232.42,707.64 231.56,707.64 231.56,707.13 234.17,707.13 234.17,707.64 233.32,707.64 233.32,712.28 231.56,712.28 "
   id="polygon6966"
   style="fill:#000000;stroke-width:0" />
<path
   d="m 237.58,706.99 0.09,0 0.09,0 0.08,0.01 0.08,0.01 0.07,0.01 0.08,0.01 0.07,0.02 0.06,0.02 0.07,0.02 0.06,0.02 0.06,0.03 0.05,0.03 0.06,0.03 0.05,0.04 0.05,0.03 0.04,0.05 0.04,0.04 0.04,0.04 0.04,0.05 0.03,0.05 0.04,0.06 0.03,0.05 0.02,0.06 0.03,0.07 0.02,0.06 0.02,0.07 0.02,0.07 0.01,0.07 0.01,0.08 0.01,0.08 0.01,0.08 0.01,0.09 -0.68,0 c -0.01,-0.55 -0.16,-0.88 -0.68,-0.88 -0.23,0 -0.39,0.07 -0.47,0.19 -0.08,0.12 -0.13,0.4 -0.13,0.84 l 0,3.27 1.69,0 0,0.52 -1.69,0 0,1.6 -0.89,0 0,-1.6 -0.79,0 0,-0.52 0.79,0 0,-3.27 c 0,-1.08 0.35,-1.5 1.41,-1.5 z"
   id="path6968"
   inkscape:connector-curvature="0"
   style="fill:#000000;stroke-width:0" />
<polygon
   points="244.59,712.28 243.96,712.28 242.62,708.26 241.46,711.76 242.3,711.76 242.3,712.28 239.96,712.28 239.96,711.76 240.54,711.76 242.07,707.13 242.79,707.13 244.07,710.98 245.35,707.13 246.09,707.13 247.63,711.76 248.21,711.76 248.21,712.28 246.33,712.28 246.33,711.76 247.08,711.76 245.91,708.26 "
   id="polygon6970"
   style="fill:#000000;stroke-width:0" />
<path
   d="m 251.1,713.88 0,0.03 0,0.03 -0.01,0.02 0,0.03 -0.01,0.03 -0.01,0.02 0,0.03 -0.01,0.02 -0.01,0.03 -0.02,0.02 -0.01,0.02 -0.01,0.03 -0.02,0.02 -0.02,0.02 -0.01,0.02 -0.02,0.02 -0.02,0.02 -0.02,0.02 -0.02,0.01 -0.02,0.02 -0.03,0.01 -0.02,0.02 -0.02,0.01 -0.03,0.01 -0.02,0.01 -0.03,0.01 -0.02,0.01 -0.03,0 -0.03,0.01 -0.02,0 -0.03,0.01 -0.03,0 c -0.3,0 -0.56,-0.26 -0.56,-0.56 0,-0.3 0.26,-0.55 0.56,-0.55 0.3,0 0.55,0.25 0.55,0.55 z"
   id="path6972"
   inkscape:connector-curvature="0"
   style="fill:#000000;stroke-width:0" />
<polygon
   points="249.38,711.76 250.24,711.76 250.24,707.64 249.38,707.64 249.38,707.13 251.99,707.13 251.99,707.64 251.14,707.64 251.14,712.28 249.38,712.28 "
   id="polygon6974"
   style="fill:#000000;stroke-width:0" />
<path
   d="m 255.4,706.99 0.11,0 0.11,0 0.1,0.01 0.11,0.01 0.1,0.01 0.1,0.02 0.1,0.02 0.09,0.02 0.1,0.02 0.09,0.03 0.09,0.03 0.08,0.03 0.09,0.04 0.08,0.04 0.07,0.04 0.08,0.05 0.07,0.05 0.06,0.05 0.07,0.06 0.05,0.06 0.06,0.06 0.05,0.07 0.05,0.07 0.04,0.07 0.04,0.08 0.03,0.07 0.03,0.09 0.02,0.08 0.02,0.09 0.02,0.1 0,0.09 0.01,0.1 c 0,0.36 -0.11,0.66 -0.33,0.89 -0.22,0.23 -0.57,0.42 -1.06,0.57 l -0.71,0.21 c -0.44,0.14 -0.73,0.27 -0.88,0.4 -0.14,0.13 -0.22,0.31 -0.22,0.53 0,0.59 0.49,0.79 1.15,0.79 0.73,0 1.22,-0.37 1.25,-1.06 l 0.52,0 0,1.12 c -0.54,0.23 -1.12,0.42 -1.8,0.42 -1.1,0 -1.96,-0.48 -1.96,-1.51 0,-0.33 0.1,-0.61 0.3,-0.82 0.2,-0.2 0.51,-0.39 0.96,-0.53 l 0.65,-0.22 c 0.5,-0.16 0.83,-0.31 0.98,-0.45 0.15,-0.14 0.23,-0.31 0.23,-0.54 0,-0.65 -0.53,-0.89 -1.24,-0.89 -0.86,0 -1.34,0.35 -1.37,1.15 l -0.52,0 0,-1.2 c 0.57,-0.25 1.16,-0.42 1.93,-0.42 z"
   id="path6976"
   inkscape:connector-curvature="0"
   style="fill:#000000;stroke-width:0" />
<path
   d="m 264.03,708.68 -0.71,0 c -0.18,-0.73 -0.63,-1.22 -1.5,-1.22 -1.15,0 -1.55,0.88 -1.55,2.11 l 0,0.04 3.85,0 c -0.03,1.7 -0.77,2.81 -2.45,2.81 l 0,-0.48 c 1,0 1.37,-0.77 1.4,-1.81 l 0,0 -2.8,0 c 0.09,0.99 0.43,1.81 1.4,1.81 l 0,0.48 c -0.74,0 -1.33,-0.25 -1.77,-0.75 -0.45,-0.49 -0.68,-1.15 -0.68,-1.96 0,-0.83 0.23,-1.48 0.69,-1.98 0.45,-0.5 1.06,-0.74 1.82,-0.74 1.32,0 2.04,0.62 2.3,1.69 z"
   id="path6978"
   inkscape:connector-curvature="0"
   style="fill:#000000;stroke-width:0" />
<line
   x1="265.91"
   y1="707.32001"
   x2="268.89999"
   y2="707.32001"
   id="line6980"
   style="stroke-width:0.398" />
<path
   d="m 272.6,712.42 0,-0.48 c 0.48,0 0.84,-0.19 1.09,-0.56 0.25,-0.38 0.37,-0.94 0.37,-1.67 0,-1.23 -0.34,-2.25 -1.46,-2.25 -0.48,0 -0.83,0.19 -1.08,0.57 -0.25,0.38 -0.37,0.94 -0.37,1.68 0,1.23 0.34,2.23 1.45,2.23 l 0,0 0,0.48 c -0.75,0 -1.36,-0.25 -1.82,-0.75 -0.46,-0.49 -0.68,-1.14 -0.68,-1.96 0,-0.83 0.23,-1.48 0.69,-1.98 0.46,-0.5 1.06,-0.74 1.81,-0.74 0.76,0 1.36,0.24 1.82,0.74 0.46,0.5 0.69,1.15 0.69,1.98 0,0.82 -0.23,1.47 -0.69,1.96 -0.46,0.5 -1.06,0.75 -1.82,0.75 z"
   id="path6982"
   inkscape:connector-curvature="0"
   style="fill:#000000;stroke-width:0" />
<path
   d="m 280.02,706.99 -0.28,0.55 c -1.02,0 -1.4,0.82 -1.4,1.91 l 0,0.51 c 0,1.09 0.38,1.9 1.4,1.9 0.46,0 0.8,-0.19 1.03,-0.54 0.24,-0.36 0.36,-0.9 0.36,-1.61 0,-1.18 -0.33,-2.17 -1.39,-2.17 l 0,0 0.28,-0.55 c 0.63,0 1.15,0.24 1.55,0.75 0.4,0.51 0.61,1.16 0.61,1.97 0,0.8 -0.21,1.47 -0.61,1.96 -0.4,0.5 -0.92,0.75 -1.55,0.75 -0.87,0 -1.36,-0.35 -1.68,-0.94 l 0,0.8 -1.75,0 0,-0.52 0.85,0 0,-6.18 -0.85,0 0,-0.52 2.6,0 0,0.52 -0.85,0 0,2.35 c 0.32,-0.6 0.81,-0.94 1.68,-0.94 z"
   id="path6984"
   inkscape:connector-curvature="0"
   style="fill:#000000;stroke-width:0" />
<path
   d="m 285.86,706.99 0.11,0 0.11,0 0.11,0.01 0.1,0.01 0.1,0.01 0.1,0.02 0.1,0.02 0.1,0.02 0.09,0.02 0.09,0.03 0.09,0.03 0.09,0.03 0.08,0.04 0.08,0.04 0.08,0.04 0.07,0.05 0.07,0.05 0.07,0.05 0.06,0.06 0.06,0.06 0.05,0.06 0.05,0.07 0.05,0.07 0.04,0.07 0.04,0.08 0.03,0.07 0.03,0.09 0.03,0.08 0.01,0.09 0.02,0.1 0.01,0.09 0,0.1 c 0,0.36 -0.11,0.66 -0.33,0.89 -0.22,0.23 -0.57,0.42 -1.06,0.57 l -0.71,0.21 c -0.43,0.14 -0.72,0.27 -0.87,0.4 -0.15,0.13 -0.22,0.31 -0.22,0.53 0,0.59 0.49,0.79 1.14,0.79 0.73,0 1.22,-0.37 1.25,-1.06 l 0.52,0 0,1.12 c -0.54,0.23 -1.12,0.42 -1.8,0.42 -1.1,0 -1.96,-0.48 -1.96,-1.51 0,-0.33 0.1,-0.61 0.3,-0.82 0.2,-0.2 0.52,-0.39 0.97,-0.53 l 0.64,-0.22 c 0.5,-0.16 0.83,-0.31 0.98,-0.45 0.15,-0.14 0.23,-0.31 0.23,-0.54 0,-0.65 -0.53,-0.89 -1.24,-0.89 -0.85,0 -1.34,0.35 -1.37,1.15 l -0.52,0 0,-1.2 c 0.57,-0.25 1.17,-0.42 1.93,-0.42 z"
   id="path6986"
   inkscape:connector-curvature="0"
   style="fill:#000000;stroke-width:0" />
</g>    <g
       style="font-style:normal;font-variant:normal;font-weight:normal;font-stretch:normal;letter-spacing:normal;word-spacing:normal;text-anchor:start;fill:none;fill-opacity:1;fill-rule:evenodd;stroke:#000000;stroke-linecap:butt;stroke-linejoin:miter;stroke-miterlimit:10.43299961;stroke-dasharray:none;stroke-dashoffset:0;stroke-opacity:1"
       ns0:preamble="D:\\verilog workbook\\textext_preamble.tex"
       ns0:text="\\begin{lstlisting}\nx\n\\end{lstlisting}"
       word-spacing="normal"
       letter-spacing="normal"
       font-size-adjust="none"
       font-stretch="normal"
       font-weight="normal"
       font-variant="normal"
       font-style="normal"
       stroke-miterlimit="10.433"
       xml:space="preserve"
       transform="matrix(1,0,0,-1,-211.195,1074.7222)"
       id="g7252">
<polygon
   id="polygon7254"
   points="226.04,711.76 226.04,712.28 223.73,712.28 223.73,711.76 224.37,711.76 225.94,709.6 224.52,707.64 223.83,707.64 223.83,707.13 225.79,707.13 225.79,707.64 225.13,707.64 226.25,709.18 227.38,707.64 226.72,707.64 226.72,707.13 229.12,707.13 229.12,707.64 228.44,707.64 226.82,709.86 228.21,711.76 228.9,711.76 228.9,712.28 226.9,712.28 226.9,711.76 227.6,711.76 226.51,710.27 225.43,711.76 "
   style="fill:#000000;stroke-width:0" />
</g>    <g
       id="g7486"
       transform="matrix(1,0,0,-1,100.0275,1071.4422)"
       xml:space="preserve"
       stroke-miterlimit="10.433"
       font-style="normal"
       font-variant="normal"
       font-weight="normal"
       font-stretch="normal"
       font-size-adjust="none"
       letter-spacing="normal"
       word-spacing="normal"
       ns0:text="\\begin{lstlisting}\na\n\\end{lstlisting}"
       ns0:preamble="D:\\verilog workbook\\textext_preamble.tex"
       style="font-style:normal;font-variant:normal;font-weight:normal;font-stretch:normal;letter-spacing:normal;word-spacing:normal;text-anchor:start;fill:none;fill-opacity:1;fill-rule:evenodd;stroke:#000000;stroke-linecap:butt;stroke-linejoin:miter;stroke-miterlimit:10.43299961;stroke-dasharray:none;stroke-dashoffset:0;stroke-opacity:1">
<path
   style="fill:#000000;stroke-width:0"
   inkscape:connector-curvature="0"
   d="m 226.11,712.42 -0.12,0 -0.13,-0.01 -0.12,-0.01 -0.11,-0.01 -0.12,-0.02 -0.11,-0.02 -0.12,-0.02 -0.11,-0.02 -0.1,-0.03 -0.11,-0.03 -0.1,-0.03 -0.11,-0.04 -0.1,-0.04 -0.1,-0.04 -0.1,-0.04 -0.1,-0.04 0,-1.04 0.46,0 c 0.1,0.62 0.52,0.96 1.24,0.96 0.83,0 1.37,-0.41 1.37,-1.23 l 0,-0.36 0,-0.51 0,-1.1 c 0,-0.73 -0.51,-1.24 -1.25,-1.24 l 0,0 c -0.74,0 -1.22,0.45 -1.22,1.17 0,0.83 0.47,1.17 1.31,1.17 l 1.16,0 0,0.51 -1.26,0 c -1.25,0 -2.21,-0.49 -2.21,-1.68 0,-1.07 0.78,-1.68 1.87,-1.68 0.76,0 1.24,0.25 1.6,0.69 l 0,-0.55 1.7,0 0,0.51 -0.8,0 0,2.7 c 0,1.38 -0.8,2.08 -2.21,2.08 z"
   id="path7488" />
</g>    <g
       id="g4597"
       transform="matrix(1,0,0,-1,100.2425,1122.5672)"
       xml:space="preserve"
       stroke-miterlimit="10.433"
       font-style="normal"
       font-variant="normal"
       font-weight="normal"
       font-stretch="normal"
       font-size-adjust="none"
       letter-spacing="normal"
       word-spacing="normal"
       ns0:text="\\begin{lstlisting}\nb\n\\end{lstlisting}"
       ns0:preamble="D:\\verilog workbook\\textext_preamble.tex"
       style="font-style:normal;font-variant:normal;font-weight:normal;font-stretch:normal;letter-spacing:normal;word-spacing:normal;text-anchor:start;fill:none;fill-opacity:1;fill-rule:evenodd;stroke:#000000;stroke-linecap:butt;stroke-linejoin:miter;stroke-miterlimit:10.43299961;stroke-dasharray:none;stroke-dashoffset:0;stroke-opacity:1">
<path
   style="fill:#000000;stroke-width:0"
   inkscape:connector-curvature="0"
   d="m 226.95,706.99 -0.28,0.55 c -1.02,0 -1.39,0.82 -1.39,1.91 l 0,0.51 c 0,1.09 0.37,1.9 1.39,1.9 0.46,0 0.8,-0.19 1.04,-0.54 0.24,-0.36 0.36,-0.9 0.36,-1.61 0,-1.18 -0.33,-2.17 -1.4,-2.17 l 0,0 0.28,-0.55 c 0.64,0 1.16,0.24 1.56,0.75 0.4,0.51 0.61,1.16 0.61,1.97 0,0.8 -0.21,1.47 -0.61,1.96 -0.4,0.5 -0.92,0.75 -1.56,0.75 -0.87,0 -1.35,-0.35 -1.67,-0.94 l 0,3.19 -1.76,0 0,-0.51 0.86,0 0,-6.52 -0.86,0 0,-0.51 1.76,0 0,0.8 c 0.32,-0.6 0.8,-0.94 1.67,-0.94 z"
   id="path4599" />
</g>    <g
       style="font-style:normal;font-variant:normal;font-weight:normal;font-stretch:normal;letter-spacing:normal;word-spacing:normal;text-anchor:start;fill:none;fill-opacity:1;fill-rule:evenodd;stroke:#000000;stroke-linecap:butt;stroke-linejoin:miter;stroke-miterlimit:10.43299961;stroke-dasharray:none;stroke-dashoffset:0;stroke-opacity:1"
       ns0:preamble="D:\\verilog workbook\\textext_preamble.tex"
       ns0:text="\\begin{lstlisting}\nc\n\\end{lstlisting}"
       word-spacing="normal"
       letter-spacing="normal"
       font-size-adjust="none"
       font-stretch="normal"
       font-weight="normal"
       font-variant="normal"
       font-style="normal"
       stroke-miterlimit="10.433"
       xml:space="preserve"
       transform="matrix(1,0,0,-1,99.72,1186.8547)"
       id="g7755">
<path
   id="path7757"
   d="m 228.76,708.67 -0.72,0 c -0.15,-0.73 -0.55,-1.21 -1.4,-1.21 -0.49,0 -0.85,0.19 -1.09,0.57 -0.25,0.38 -0.37,0.93 -0.37,1.68 0,0.74 0.12,1.29 0.37,1.67 0.24,0.37 0.6,0.56 1.09,0.56 0.92,0 1.3,-0.46 1.43,-1.3 l 0.52,0 0,1.32 c -0.57,0.27 -1.19,0.46 -1.96,0.46 -0.75,0 -1.35,-0.24 -1.81,-0.74 -0.46,-0.49 -0.69,-1.15 -0.69,-1.97 0,-0.83 0.23,-1.48 0.69,-1.98 0.46,-0.5 1.06,-0.74 1.81,-0.74 1.22,0 1.89,0.66 2.13,1.68 z"
   inkscape:connector-curvature="0"
   style="fill:#000000;stroke-width:0" />
</g>  </g>
</svg>
