<?xml version="1.0" encoding="UTF-8" standalone="no"?>
<!-- Created with Inkscape (http://www.inkscape.org/) -->

<svg
   xmlns:ns0="http://www.iki.fi/pav/software/textext/"
   xmlns:dc="http://purl.org/dc/elements/1.1/"
   xmlns:cc="http://creativecommons.org/ns#"
   xmlns:rdf="http://www.w3.org/1999/02/22-rdf-syntax-ns#"
   xmlns:svg="http://www.w3.org/2000/svg"
   xmlns="http://www.w3.org/2000/svg"
   xmlns:sodipodi="http://sodipodi.sourceforge.net/DTD/sodipodi-0.dtd"
   xmlns:inkscape="http://www.inkscape.org/namespaces/inkscape"
   inkscape:version="0.91 r13725"
   version="1.1"
   id="svg5197"
   viewBox="0 0 105.05 115.34428"
   height="32.552719mm"
   width="29.647446mm"
   sodipodi:docname="mux.svg">
  <sodipodi:namedview
     inkscape:snap-bbox-midpoints="true"
     inkscape:snap-nodes="true"
     inkscape:window-maximized="1"
     inkscape:window-y="0"
     inkscape:window-x="0"
     inkscape:window-height="976"
     inkscape:window-width="1744"
     inkscape:object-nodes="true"
     inkscape:snap-bbox="true"
     showgrid="true"
     inkscape:current-layer="layer1"
     inkscape:document-units="px"
     inkscape:cy="32.042706"
     inkscape:cx="57.431829"
     inkscape:zoom="2.8"
     inkscape:pageshadow="2"
     inkscape:pageopacity="0.0"
     borderopacity="1.0"
     bordercolor="#666666"
     pagecolor="#ffffff"
     id="base"
     fit-margin-top="0"
     fit-margin-left="0"
     fit-margin-right="0"
     fit-margin-bottom="0">
    <inkscape:grid
       type="xygrid"
       id="grid5205"
       originx="-135.21"
       originy="-620.08928" />
  </sodipodi:namedview>
  <defs
     id="defs5199" />
  <metadata
     id="metadata5202">
    <rdf:RDF>
      <cc:Work
         rdf:about="">
        <dc:format>image/svg+xml</dc:format>
        <dc:type
           rdf:resource="http://purl.org/dc/dcmitype/StillImage" />
        <dc:title></dc:title>
      </cc:Work>
    </rdf:RDF>
  </metadata>
  <g
     inkscape:label="Layer 1"
     inkscape:groupmode="layer"
     id="layer1"
     transform="translate(-135.21,-316.92863)">
    <path
       sodipodi:nodetypes="ccccc"
       inkscape:connector-curvature="0"
       id="path7174-4-9-0-3-7-3"
       d="m 164,332.3622 -1,-2 6,2 -6,2 1,-2"
       style="fill:#000000;fill-opacity:1;fill-rule:evenodd;stroke:#000000;stroke-width:0.625;stroke-linecap:butt;stroke-linejoin:miter;stroke-miterlimit:4;stroke-dasharray:none;stroke-opacity:1" />
    <path
       style="fill:none;fill-rule:evenodd;stroke:#000000;stroke-width:0.625;stroke-linecap:butt;stroke-linejoin:miter;stroke-miterlimit:4;stroke-dasharray:none;stroke-opacity:1"
       d="m 170,407.3622 0,-90 30,10 0,70 z"
       id="path5772"
       inkscape:connector-curvature="0"
       sodipodi:nodetypes="ccccc" />
    <path
       sodipodi:nodetypes="ccccc"
       inkscape:connector-curvature="0"
       id="path7174-4-9-0-3-7-3-6"
       d="m 164,392.3622 -1,-2 6,2 -6,2 1,-2"
       style="fill:#000000;fill-opacity:1;fill-rule:evenodd;stroke:#000000;stroke-width:0.625;stroke-linecap:butt;stroke-linejoin:miter;stroke-miterlimit:4;stroke-dasharray:none;stroke-opacity:1" />
    <path
       sodipodi:nodetypes="ccccc"
       inkscape:connector-curvature="0"
       id="path7174-4-9-0-3-7-3-1"
       d="m 164,352.3622 -1,-2 6,2 -6,2 1,-2"
       style="fill:#000000;fill-opacity:1;fill-rule:evenodd;stroke:#000000;stroke-width:0.625;stroke-linecap:butt;stroke-linejoin:miter;stroke-miterlimit:4;stroke-dasharray:none;stroke-opacity:1" />
    <path
       sodipodi:nodetypes="ccccc"
       inkscape:connector-curvature="0"
       id="path7174-4-9-0-3-7-3-2"
       d="m 164,372.3622 -1,-2 6,2 -6,2 1,-2"
       style="fill:#000000;fill-opacity:1;fill-rule:evenodd;stroke:#000000;stroke-width:0.625;stroke-linecap:butt;stroke-linejoin:miter;stroke-miterlimit:4;stroke-dasharray:none;stroke-opacity:1" />
    <path
       sodipodi:nodetypes="ccccc"
       inkscape:connector-curvature="0"
       id="path7174-4-9-0-3-7-3-9"
       d="m 215,362.3622 -1,-2 6,2 -6,2 1,-2"
       style="fill:#000000;fill-opacity:1;fill-rule:evenodd;stroke:#000000;stroke-width:0.625;stroke-linecap:butt;stroke-linejoin:miter;stroke-miterlimit:4;stroke-dasharray:none;stroke-opacity:1" />
    <path
       style="fill:none;fill-rule:evenodd;stroke:#000000;stroke-width:1.25;stroke-linecap:butt;stroke-linejoin:miter;stroke-miterlimit:4;stroke-dasharray:none;stroke-opacity:1"
       d="m 145,332.3622 20,0"
       id="path5834"
       inkscape:connector-curvature="0" />
    <path
       style="fill:none;fill-rule:evenodd;stroke:#000000;stroke-width:1.25;stroke-linecap:butt;stroke-linejoin:miter;stroke-miterlimit:4;stroke-dasharray:none;stroke-opacity:1"
       d="m 145,352.3622 20,0"
       id="path5834-3"
       inkscape:connector-curvature="0" />
    <path
       style="fill:none;fill-rule:evenodd;stroke:#000000;stroke-width:1.25;stroke-linecap:butt;stroke-linejoin:miter;stroke-miterlimit:4;stroke-dasharray:none;stroke-opacity:1"
       d="m 145,372.3622 20,0"
       id="path5834-1"
       inkscape:connector-curvature="0" />
    <path
       style="fill:none;fill-rule:evenodd;stroke:#000000;stroke-width:1.25;stroke-linecap:butt;stroke-linejoin:miter;stroke-miterlimit:4;stroke-dasharray:none;stroke-opacity:1"
       d="m 145,392.3622 20,0"
       id="path5834-9"
       inkscape:connector-curvature="0" />
    <path
       style="fill:none;fill-rule:evenodd;stroke:#000000;stroke-width:1.25;stroke-linecap:butt;stroke-linejoin:miter;stroke-miterlimit:4;stroke-dasharray:none;stroke-opacity:1"
       d="m 200,362.3622 16,0"
       id="path5834-4"
       inkscape:connector-curvature="0"
       sodipodi:nodetypes="cc" />
    <path
       sodipodi:nodetypes="ccccc"
       inkscape:connector-curvature="0"
       id="path7174-4-9-0-3-7-3-9-7"
       d="m 187,407.54786 -2,1 2,-6 2,6 -2,-1"
       style="fill:#000000;fill-opacity:1;fill-rule:evenodd;stroke:#000000;stroke-width:0.625;stroke-linecap:butt;stroke-linejoin:miter;stroke-miterlimit:4;stroke-dasharray:none;stroke-opacity:1" />
    <path
       style="fill:none;fill-rule:evenodd;stroke:#000000;stroke-width:1.25;stroke-linecap:butt;stroke-linejoin:miter;stroke-miterlimit:4;stroke-dasharray:none;stroke-opacity:1"
       d="m 187,406.54786 c 0,18 0,18 0,18"
       id="path5884"
       inkscape:connector-curvature="0" />
    <path
       style="fill:none;fill-rule:evenodd;stroke:#000000;stroke-width:0.375;stroke-linecap:butt;stroke-linejoin:miter;stroke-miterlimit:4;stroke-dasharray:none;stroke-opacity:1"
       d="m 154,334.3622 c 2,-4 2,-4 2,-4"
       id="path5886"
       inkscape:connector-curvature="0" />
    <path
       style="fill:none;fill-rule:evenodd;stroke:#000000;stroke-width:0.375;stroke-linecap:butt;stroke-linejoin:miter;stroke-miterlimit:4;stroke-dasharray:none;stroke-opacity:1"
       d="m 154,354.3622 c 2,-4 2,-4 2,-4"
       id="path5886-5"
       inkscape:connector-curvature="0" />
    <path
       style="fill:none;fill-rule:evenodd;stroke:#000000;stroke-width:0.375;stroke-linecap:butt;stroke-linejoin:miter;stroke-miterlimit:4;stroke-dasharray:none;stroke-opacity:1"
       d="m 154,374.3622 c 2,-4 2,-4 2,-4"
       id="path5886-0"
       inkscape:connector-curvature="0" />
    <path
       style="fill:none;fill-rule:evenodd;stroke:#000000;stroke-width:0.375;stroke-linecap:butt;stroke-linejoin:miter;stroke-miterlimit:4;stroke-dasharray:none;stroke-opacity:1"
       d="m 154,394.3622 c 2,-4 2,-4 2,-4"
       id="path5886-3"
       inkscape:connector-curvature="0" />
    <path
       style="fill:none;fill-rule:evenodd;stroke:#000000;stroke-width:0.375;stroke-linecap:butt;stroke-linejoin:miter;stroke-miterlimit:4;stroke-dasharray:none;stroke-opacity:1"
       d="m 206,364.3622 c 2,-4 2,-4 2,-4"
       id="path5886-6"
       inkscape:connector-curvature="0" />
    <path
       style="fill:none;fill-rule:evenodd;stroke:#000000;stroke-width:0.375;stroke-linecap:butt;stroke-linejoin:miter;stroke-miterlimit:4;stroke-dasharray:none;stroke-opacity:1"
       d="m 185,415.54786 c 4,-2 4,-2 4,-2"
       id="path5933"
       inkscape:connector-curvature="0" />
    <g
       style="font-style:normal;font-variant:normal;font-weight:normal;font-stretch:normal;letter-spacing:normal;word-spacing:normal;text-anchor:start;fill:none;fill-opacity:1;fill-rule:evenodd;stroke:#000000;stroke-linecap:butt;stroke-linejoin:miter;stroke-miterlimit:10.43299961;stroke-dasharray:none;stroke-dashoffset:0;stroke-opacity:1"
       ns0:preamble="/home/bqwer/workbook/textext_preamble.tex"
       ns0:text="$n$"
       word-spacing="normal"
       letter-spacing="normal"
       font-size-adjust="none"
       font-stretch="normal"
       font-weight="normal"
       font-variant="normal"
       font-style="normal"
       stroke-miterlimit="10.433"
       xml:space="preserve"
       transform="matrix(1,0,0,-1,-71.42,1036.6322)"
       id="content"><path
         id="path6014"
         d="m 224.31,707.71 0,-0.01 -0.01,-0.02 0,-0.01 0,-0.02 -0.01,-0.03 -0.01,-0.03 0,-0.04 -0.01,-0.03 -0.01,-0.03 -0.01,-0.03 0,-0.02 0,-0.01 -0.01,-0.02 0,-0.01 0,-0.01 -0.01,-0.02 0,-0.01 0,-0.01 0,-0.01 0,-0.01 -0.01,-0.01 0,-0.01 0,-0.01 0,-0.01 0,0 0,-0.01 c 0,-0.18 0.14,-0.27 0.29,-0.27 0.12,0 0.3,0.08 0.37,0.28 0.01,0.02 0.13,0.49 0.19,0.74 l 0.22,0.9 c 0.06,0.22 0.11,0.43 0.17,0.66 0.03,0.17 0.11,0.46 0.12,0.5 0.15,0.31 0.68,1.22 1.63,1.22 0.45,0 0.54,-0.37 0.54,-0.7 0,-0.62 -0.49,-1.89 -0.65,-2.32 -0.09,-0.23 -0.1,-0.35 -0.1,-0.46 0,-0.47 0.35,-0.82 0.82,-0.82 0.93,0 1.3,1.46 1.3,1.54 0,0.1 -0.09,0.1 -0.12,0.1 -0.1,0 -0.1,-0.03 -0.15,-0.18 -0.2,-0.68 -0.53,-1.24 -1.01,-1.24 -0.17,0 -0.24,0.1 -0.24,0.33 0,0.25 0.09,0.49 0.18,0.71 0.18,0.53 0.6,1.62 0.6,2.19 0,0.67 -0.42,1.07 -1.14,1.07 -0.9,0 -1.39,-0.64 -1.56,-0.87 -0.05,0.56 -0.45,0.87 -0.91,0.87 -0.46,0 -0.65,-0.39 -0.75,-0.57 -0.16,-0.34 -0.3,-0.93 -0.3,-0.97 0,-0.1 0.1,-0.1 0.12,-0.1 0.1,0 0.11,0.01 0.17,0.23 0.17,0.71 0.37,1.19 0.73,1.19 0.2,0 0.31,-0.13 0.31,-0.46 0,-0.21 -0.03,-0.32 -0.16,-0.84 z"
         inkscape:connector-curvature="0"
         style="fill:#000000;stroke-width:0" /></g>    <g
       style="font-style:normal;font-variant:normal;font-weight:normal;font-stretch:normal;letter-spacing:normal;word-spacing:normal;text-anchor:start;fill:none;fill-opacity:1;fill-rule:evenodd;stroke:#000000;stroke-linecap:butt;stroke-linejoin:miter;stroke-miterlimit:10.43299961;stroke-dasharray:none;stroke-dashoffset:0;stroke-opacity:1"
       ns0:preamble="/home/bqwer/workbook/textext_preamble.tex"
       ns0:text="$n$"
       word-spacing="normal"
       letter-spacing="normal"
       font-size-adjust="none"
       font-stretch="normal"
       font-weight="normal"
       font-variant="normal"
       font-style="normal"
       stroke-miterlimit="10.433"
       xml:space="preserve"
       transform="matrix(1,0,0,-1,-71.419995,1056.6322)"
       id="content-0"><path
         id="path6014-6"
         d="m 224.31,707.71 0,-0.01 -0.01,-0.02 0,-0.01 0,-0.02 -0.01,-0.03 -0.01,-0.03 0,-0.04 -0.01,-0.03 -0.01,-0.03 -0.01,-0.03 0,-0.02 0,-0.01 -0.01,-0.02 0,-0.01 0,-0.01 -0.01,-0.02 0,-0.01 0,-0.01 0,-0.01 0,-0.01 -0.01,-0.01 0,-0.01 0,-0.01 0,-0.01 0,0 0,-0.01 c 0,-0.18 0.14,-0.27 0.29,-0.27 0.12,0 0.3,0.08 0.37,0.28 0.01,0.02 0.13,0.49 0.19,0.74 l 0.22,0.9 c 0.06,0.22 0.11,0.43 0.17,0.66 0.03,0.17 0.11,0.46 0.12,0.5 0.15,0.31 0.68,1.22 1.63,1.22 0.45,0 0.54,-0.37 0.54,-0.7 0,-0.62 -0.49,-1.89 -0.65,-2.32 -0.09,-0.23 -0.1,-0.35 -0.1,-0.46 0,-0.47 0.35,-0.82 0.82,-0.82 0.93,0 1.3,1.46 1.3,1.54 0,0.1 -0.09,0.1 -0.12,0.1 -0.1,0 -0.1,-0.03 -0.15,-0.18 -0.2,-0.68 -0.53,-1.24 -1.01,-1.24 -0.17,0 -0.24,0.1 -0.24,0.33 0,0.25 0.09,0.49 0.18,0.71 0.18,0.53 0.6,1.62 0.6,2.19 0,0.67 -0.42,1.07 -1.14,1.07 -0.9,0 -1.39,-0.64 -1.56,-0.87 -0.05,0.56 -0.45,0.87 -0.91,0.87 -0.46,0 -0.65,-0.39 -0.75,-0.57 -0.16,-0.34 -0.3,-0.93 -0.3,-0.97 0,-0.1 0.1,-0.1 0.12,-0.1 0.1,0 0.11,0.01 0.17,0.23 0.17,0.71 0.37,1.19 0.73,1.19 0.2,0 0.31,-0.13 0.31,-0.46 0,-0.21 -0.03,-0.32 -0.16,-0.84 z"
         inkscape:connector-curvature="0"
         style="fill:#000000;stroke-width:0" /></g>    <g
       style="font-style:normal;font-variant:normal;font-weight:normal;font-stretch:normal;letter-spacing:normal;word-spacing:normal;text-anchor:start;fill:none;fill-opacity:1;fill-rule:evenodd;stroke:#000000;stroke-linecap:butt;stroke-linejoin:miter;stroke-miterlimit:10.43299961;stroke-dasharray:none;stroke-dashoffset:0;stroke-opacity:1"
       ns0:preamble="/home/bqwer/workbook/textext_preamble.tex"
       ns0:text="$n$"
       word-spacing="normal"
       letter-spacing="normal"
       font-size-adjust="none"
       font-stretch="normal"
       font-weight="normal"
       font-variant="normal"
       font-style="normal"
       stroke-miterlimit="10.433"
       xml:space="preserve"
       transform="matrix(1,0,0,-1,-71.419995,1076.6322)"
       id="content-3"><path
         id="path6014-2"
         d="m 224.31,707.71 0,-0.01 -0.01,-0.02 0,-0.01 0,-0.02 -0.01,-0.03 -0.01,-0.03 0,-0.04 -0.01,-0.03 -0.01,-0.03 -0.01,-0.03 0,-0.02 0,-0.01 -0.01,-0.02 0,-0.01 0,-0.01 -0.01,-0.02 0,-0.01 0,-0.01 0,-0.01 0,-0.01 -0.01,-0.01 0,-0.01 0,-0.01 0,-0.01 0,0 0,-0.01 c 0,-0.18 0.14,-0.27 0.29,-0.27 0.12,0 0.3,0.08 0.37,0.28 0.01,0.02 0.13,0.49 0.19,0.74 l 0.22,0.9 c 0.06,0.22 0.11,0.43 0.17,0.66 0.03,0.17 0.11,0.46 0.12,0.5 0.15,0.31 0.68,1.22 1.63,1.22 0.45,0 0.54,-0.37 0.54,-0.7 0,-0.62 -0.49,-1.89 -0.65,-2.32 -0.09,-0.23 -0.1,-0.35 -0.1,-0.46 0,-0.47 0.35,-0.82 0.82,-0.82 0.93,0 1.3,1.46 1.3,1.54 0,0.1 -0.09,0.1 -0.12,0.1 -0.1,0 -0.1,-0.03 -0.15,-0.18 -0.2,-0.68 -0.53,-1.24 -1.01,-1.24 -0.17,0 -0.24,0.1 -0.24,0.33 0,0.25 0.09,0.49 0.18,0.71 0.18,0.53 0.6,1.62 0.6,2.19 0,0.67 -0.42,1.07 -1.14,1.07 -0.9,0 -1.39,-0.64 -1.56,-0.87 -0.05,0.56 -0.45,0.87 -0.91,0.87 -0.46,0 -0.65,-0.39 -0.75,-0.57 -0.16,-0.34 -0.3,-0.93 -0.3,-0.97 0,-0.1 0.1,-0.1 0.12,-0.1 0.1,0 0.11,0.01 0.17,0.23 0.17,0.71 0.37,1.19 0.73,1.19 0.2,0 0.31,-0.13 0.31,-0.46 0,-0.21 -0.03,-0.32 -0.16,-0.84 z"
         inkscape:connector-curvature="0"
         style="fill:#000000;stroke-width:0" /></g>    <g
       style="font-style:normal;font-variant:normal;font-weight:normal;font-stretch:normal;letter-spacing:normal;word-spacing:normal;text-anchor:start;fill:none;fill-opacity:1;fill-rule:evenodd;stroke:#000000;stroke-linecap:butt;stroke-linejoin:miter;stroke-miterlimit:10.43299961;stroke-dasharray:none;stroke-dashoffset:0;stroke-opacity:1"
       ns0:preamble="/home/bqwer/workbook/textext_preamble.tex"
       ns0:text="$n$"
       word-spacing="normal"
       letter-spacing="normal"
       font-size-adjust="none"
       font-stretch="normal"
       font-weight="normal"
       font-variant="normal"
       font-style="normal"
       stroke-miterlimit="10.433"
       xml:space="preserve"
       transform="matrix(1,0,0,-1,-71.419995,1096.6322)"
       id="content-06"><path
         id="path6014-1"
         d="m 224.31,707.71 0,-0.01 -0.01,-0.02 0,-0.01 0,-0.02 -0.01,-0.03 -0.01,-0.03 0,-0.04 -0.01,-0.03 -0.01,-0.03 -0.01,-0.03 0,-0.02 0,-0.01 -0.01,-0.02 0,-0.01 0,-0.01 -0.01,-0.02 0,-0.01 0,-0.01 0,-0.01 0,-0.01 -0.01,-0.01 0,-0.01 0,-0.01 0,-0.01 0,0 0,-0.01 c 0,-0.18 0.14,-0.27 0.29,-0.27 0.12,0 0.3,0.08 0.37,0.28 0.01,0.02 0.13,0.49 0.19,0.74 l 0.22,0.9 c 0.06,0.22 0.11,0.43 0.17,0.66 0.03,0.17 0.11,0.46 0.12,0.5 0.15,0.31 0.68,1.22 1.63,1.22 0.45,0 0.54,-0.37 0.54,-0.7 0,-0.62 -0.49,-1.89 -0.65,-2.32 -0.09,-0.23 -0.1,-0.35 -0.1,-0.46 0,-0.47 0.35,-0.82 0.82,-0.82 0.93,0 1.3,1.46 1.3,1.54 0,0.1 -0.09,0.1 -0.12,0.1 -0.1,0 -0.1,-0.03 -0.15,-0.18 -0.2,-0.68 -0.53,-1.24 -1.01,-1.24 -0.17,0 -0.24,0.1 -0.24,0.33 0,0.25 0.09,0.49 0.18,0.71 0.18,0.53 0.6,1.62 0.6,2.19 0,0.67 -0.42,1.07 -1.14,1.07 -0.9,0 -1.39,-0.64 -1.56,-0.87 -0.05,0.56 -0.45,0.87 -0.91,0.87 -0.46,0 -0.65,-0.39 -0.75,-0.57 -0.16,-0.34 -0.3,-0.93 -0.3,-0.97 0,-0.1 0.1,-0.1 0.12,-0.1 0.1,0 0.11,0.01 0.17,0.23 0.17,0.71 0.37,1.19 0.73,1.19 0.2,0 0.31,-0.13 0.31,-0.46 0,-0.21 -0.03,-0.32 -0.16,-0.84 z"
         inkscape:connector-curvature="0"
         style="fill:#000000;stroke-width:0" /></g>    <g
       style="font-style:normal;font-variant:normal;font-weight:normal;font-stretch:normal;letter-spacing:normal;word-spacing:normal;text-anchor:start;fill:none;fill-opacity:1;fill-rule:evenodd;stroke:#000000;stroke-linecap:butt;stroke-linejoin:miter;stroke-miterlimit:10.43299961;stroke-dasharray:none;stroke-dashoffset:0;stroke-opacity:1"
       ns0:preamble="/home/bqwer/workbook/textext_preamble.tex"
       ns0:text="$n$"
       word-spacing="normal"
       letter-spacing="normal"
       font-size-adjust="none"
       font-stretch="normal"
       font-weight="normal"
       font-variant="normal"
       font-style="normal"
       stroke-miterlimit="10.433"
       xml:space="preserve"
       transform="matrix(1,0,0,-1,-19.419995,1066.6322)"
       id="content-5"><path
         id="path6014-5"
         d="m 224.31,707.71 0,-0.01 -0.01,-0.02 0,-0.01 0,-0.02 -0.01,-0.03 -0.01,-0.03 0,-0.04 -0.01,-0.03 -0.01,-0.03 -0.01,-0.03 0,-0.02 0,-0.01 -0.01,-0.02 0,-0.01 0,-0.01 -0.01,-0.02 0,-0.01 0,-0.01 0,-0.01 0,-0.01 -0.01,-0.01 0,-0.01 0,-0.01 0,-0.01 0,0 0,-0.01 c 0,-0.18 0.14,-0.27 0.29,-0.27 0.12,0 0.3,0.08 0.37,0.28 0.01,0.02 0.13,0.49 0.19,0.74 l 0.22,0.9 c 0.06,0.22 0.11,0.43 0.17,0.66 0.03,0.17 0.11,0.46 0.12,0.5 0.15,0.31 0.68,1.22 1.63,1.22 0.45,0 0.54,-0.37 0.54,-0.7 0,-0.62 -0.49,-1.89 -0.65,-2.32 -0.09,-0.23 -0.1,-0.35 -0.1,-0.46 0,-0.47 0.35,-0.82 0.82,-0.82 0.93,0 1.3,1.46 1.3,1.54 0,0.1 -0.09,0.1 -0.12,0.1 -0.1,0 -0.1,-0.03 -0.15,-0.18 -0.2,-0.68 -0.53,-1.24 -1.01,-1.24 -0.17,0 -0.24,0.1 -0.24,0.33 0,0.25 0.09,0.49 0.18,0.71 0.18,0.53 0.6,1.62 0.6,2.19 0,0.67 -0.42,1.07 -1.14,1.07 -0.9,0 -1.39,-0.64 -1.56,-0.87 -0.05,0.56 -0.45,0.87 -0.91,0.87 -0.46,0 -0.65,-0.39 -0.75,-0.57 -0.16,-0.34 -0.3,-0.93 -0.3,-0.97 0,-0.1 0.1,-0.1 0.12,-0.1 0.1,0 0.11,0.01 0.17,0.23 0.17,0.71 0.37,1.19 0.73,1.19 0.2,0 0.31,-0.13 0.31,-0.46 0,-0.21 -0.03,-0.32 -0.16,-0.84 z"
         inkscape:connector-curvature="0"
         style="fill:#000000;stroke-width:0" /></g>    <g
       style="font-style:normal;font-variant:normal;font-weight:normal;font-stretch:normal;letter-spacing:normal;word-spacing:normal;text-anchor:start;fill:none;fill-opacity:1;fill-rule:evenodd;stroke:#000000;stroke-linecap:butt;stroke-linejoin:miter;stroke-miterlimit:10.43299961;stroke-dasharray:none;stroke-dashoffset:0;stroke-opacity:1"
       ns0:preamble="/home/bqwer/workbook/textext_preamble.tex"
       ns0:text="$n$"
       word-spacing="normal"
       letter-spacing="normal"
       font-size-adjust="none"
       font-stretch="normal"
       font-weight="normal"
       font-variant="normal"
       font-style="normal"
       stroke-miterlimit="10.433"
       xml:space="preserve"
       transform="matrix(1,0,0,-1,-40.419995,1123.6322)"
       id="content-4" />    <g
       id="g6151"
       transform="matrix(1,0,0,-1,-32.92,1124.9879)"
       xml:space="preserve"
       stroke-miterlimit="10.433"
       font-style="normal"
       font-variant="normal"
       font-weight="normal"
       font-stretch="normal"
       font-size-adjust="none"
       letter-spacing="normal"
       word-spacing="normal"
       ns0:text="$2$"
       ns0:preamble="/home/bqwer/workbook/textext_preamble.tex"
       style="font-style:normal;font-variant:normal;font-weight:normal;font-stretch:normal;letter-spacing:normal;word-spacing:normal;text-anchor:start;fill:none;fill-opacity:1;fill-rule:evenodd;stroke:#000000;stroke-linecap:butt;stroke-linejoin:miter;stroke-miterlimit:10.43299961;stroke-dasharray:none;stroke-dashoffset:0;stroke-opacity:1"><path
         style="fill:#000000;stroke-width:0"
         inkscape:connector-curvature="0"
         d="m 224.7,707.89 1.05,1.03 c 1.56,1.37 2.16,1.91 2.16,2.91 0,1.13 -0.9,1.93 -2.12,1.93 -1.12,0 -1.86,-0.92 -1.86,-1.81 0,-0.55 0.5,-0.55 0.53,-0.55 0.17,0 0.52,0.12 0.52,0.52 0,0.26 -0.18,0.52 -0.53,0.52 -0.08,0 -0.1,0 -0.13,-0.01 0.23,0.65 0.77,1.02 1.34,1.02 0.91,0 1.34,-0.81 1.34,-1.62 0,-0.8 -0.5,-1.59 -1.05,-2.21 l -1.91,-2.13 c -0.11,-0.11 -0.11,-0.13 -0.11,-0.37 l 3.7,0 0.28,1.74 -0.25,0 c -0.05,-0.3 -0.12,-0.74 -0.22,-0.89 -0.07,-0.08 -0.73,-0.08 -0.95,-0.08 z"
         id="path6153" /></g>    <g
       ns0:preamble="/home/bqwer/workbook/textext_preamble.tex"
       ns0:text="a"
       word-spacing="normal"
       letter-spacing="normal"
       font-size-adjust="none"
       font-stretch="normal"
       font-weight="normal"
       font-variant="normal"
       font-style="normal"
       stroke-miterlimit="10.433"
       xml:space="preserve"
       transform="matrix(1,0,0,-1,-88.51,1042.0672)"
       id="g6229"
       style="font-style:normal;font-variant:normal;font-weight:normal;font-stretch:normal;letter-spacing:normal;word-spacing:normal;text-anchor:start;fill:none;fill-opacity:1;fill-rule:evenodd;stroke:#000000;stroke-linecap:butt;stroke-linejoin:miter;stroke-miterlimit:10.43299961;stroke-dasharray:none;stroke-dashoffset:0;stroke-opacity:1"><path
         id="path6231"
         d="m 226.09,712.43 -0.12,0 -0.13,0 -0.12,-0.01 -0.11,-0.02 -0.12,-0.01 -0.11,-0.02 -0.12,-0.03 -0.11,-0.02 -0.1,-0.03 -0.11,-0.03 -0.1,-0.03 -0.11,-0.04 -0.1,-0.03 -0.1,-0.04 -0.1,-0.04 -0.1,-0.05 0,-1.04 0.46,0 c 0.1,0.63 0.51,0.96 1.24,0.96 0.83,0 1.37,-0.41 1.37,-1.23 l 0,-0.36 0,-0.52 0,-1.09 c 0,-0.74 -0.51,-1.25 -1.25,-1.25 l 0,0 c -0.74,0 -1.22,0.45 -1.22,1.18 0,0.82 0.47,1.16 1.31,1.16 l 1.16,0 0,0.52 -1.26,0 c -1.25,0 -2.21,-0.5 -2.21,-1.68 0,-1.08 0.78,-1.7 1.87,-1.7 0.76,0 1.24,0.26 1.6,0.7 l 0,-0.56 1.69,0 0,0.52 -0.8,0 0,2.71 c 0,1.38 -0.79,2.08 -2.2,2.08 z"
         inkscape:connector-curvature="0"
         style="fill:#000000;stroke-width:0" /></g>    <g
       id="g6329"
       transform="matrix(1,0,0,-1,-88.509995,1062.0672)"
       xml:space="preserve"
       stroke-miterlimit="10.433"
       font-style="normal"
       font-variant="normal"
       font-weight="normal"
       font-stretch="normal"
       font-size-adjust="none"
       letter-spacing="normal"
       word-spacing="normal"
       ns0:text="b"
       ns0:preamble="/home/bqwer/workbook/textext_preamble.tex"
       style="font-style:normal;font-variant:normal;font-weight:normal;font-stretch:normal;letter-spacing:normal;word-spacing:normal;text-anchor:start;fill:none;fill-opacity:1;fill-rule:evenodd;stroke:#000000;stroke-linecap:butt;stroke-linejoin:miter;stroke-miterlimit:10.43299961;stroke-dasharray:none;stroke-dashoffset:0;stroke-opacity:1"><path
         d="m 227.15,706.98 0.06,0 0.06,0.01 0.06,0 0.05,0 0.06,0.01 0.05,0.01 0.06,0.01 0.05,0.01 0.06,0.01 0.05,0.02 0.05,0.01 0.06,0.02 0.05,0.02 0.05,0.02 0.05,0.02 0.05,0.02 0.04,0.03 0.05,0.02 0.05,0.03 0.04,0.03 0.05,0.03 0.04,0.03 0.05,0.03 0.04,0.04 0.04,0.03 0.05,0.04 0.04,0.04 0.04,0.04 0.04,0.04 0.04,0.05 0.04,0.04 0.03,0.05 c 0.4,0.51 0.61,1.17 0.61,1.97 0,0.81 -0.21,1.48 -0.61,1.97 -0.4,0.5 -0.91,0.75 -1.55,0.75 l -0.28,-0.55 c 0.46,0 0.8,-0.2 1.04,-0.55 0.24,-0.36 0.35,-0.9 0.35,-1.62 0,-1.18 -0.32,-2.17 -1.39,-2.17 l 0,0 c -1.02,0 -1.39,0.82 -1.39,1.91 l 0,0.51 c 0,1.1 0.37,1.92 1.39,1.92 l 0.28,0.55 c -0.87,0 -1.36,-0.35 -1.67,-0.94 l 0,3.2 -1.76,0 0,-0.51 0.86,0 0,-6.54 -0.86,0 0,-0.52 1.76,0 0,0.81 c 0.31,-0.6 0.8,-0.95 1.67,-0.95 z"
         id="path6331"
         inkscape:connector-curvature="0"
         style="fill:#000000;stroke-width:0" /></g>    <g
       style="font-style:normal;font-variant:normal;font-weight:normal;font-stretch:normal;letter-spacing:normal;word-spacing:normal;text-anchor:start;fill:none;fill-opacity:1;fill-rule:evenodd;stroke:#000000;stroke-linecap:butt;stroke-linejoin:miter;stroke-miterlimit:10.43299961;stroke-dasharray:none;stroke-dashoffset:0;stroke-opacity:1"
       ns0:preamble="/home/bqwer/workbook/textext_preamble.tex"
       ns0:text="c"
       word-spacing="normal"
       letter-spacing="normal"
       font-size-adjust="none"
       font-stretch="normal"
       font-weight="normal"
       font-variant="normal"
       font-style="normal"
       stroke-miterlimit="10.433"
       xml:space="preserve"
       transform="matrix(1,0,0,-1,-88.509995,1082.0672)"
       id="g6423"><path
         id="path6425"
         d="m 228.55,708.68 -0.71,0 c -0.15,-0.74 -0.55,-1.22 -1.4,-1.22 -0.49,0 -0.85,0.19 -1.09,0.57 -0.25,0.38 -0.37,0.94 -0.37,1.68 0,0.75 0.12,1.3 0.37,1.68 0.24,0.38 0.6,0.56 1.09,0.56 0.92,0 1.3,-0.46 1.43,-1.3 l 0.51,0 0,1.32 c -0.56,0.27 -1.18,0.46 -1.95,0.46 -0.76,0 -1.35,-0.24 -1.81,-0.73 -0.46,-0.5 -0.69,-1.16 -0.69,-1.99 0,-0.82 0.23,-1.48 0.69,-1.98 0.46,-0.5 1.05,-0.75 1.81,-0.75 1.22,0 1.88,0.67 2.12,1.7 z"
         inkscape:connector-curvature="0"
         style="fill:#000000;stroke-width:0" /></g>    <g
       id="g6521"
       transform="matrix(1,0,0,-1,-88.509995,1102.0672)"
       xml:space="preserve"
       stroke-miterlimit="10.433"
       font-style="normal"
       font-variant="normal"
       font-weight="normal"
       font-stretch="normal"
       font-size-adjust="none"
       letter-spacing="normal"
       word-spacing="normal"
       ns0:text="d"
       ns0:preamble="/home/bqwer/workbook/textext_preamble.tex"
       style="font-style:normal;font-variant:normal;font-weight:normal;font-stretch:normal;letter-spacing:normal;word-spacing:normal;text-anchor:start;fill:none;fill-opacity:1;fill-rule:evenodd;stroke:#000000;stroke-linecap:butt;stroke-linejoin:miter;stroke-miterlimit:10.43299961;stroke-dasharray:none;stroke-dashoffset:0;stroke-opacity:1"><path
         d="m 227.77,707.93 0,-0.81 1.75,0 0,0.52 -0.86,0 0,7.05 -1.74,0 0,-0.51 0.85,0 0,-2.69 c -0.32,0.59 -0.81,0.94 -1.68,0.94 l 0.28,-0.55 c 1.02,0 1.4,-0.82 1.4,-1.92 l 0,-0.51 c 0,-1.09 -0.38,-1.91 -1.4,-1.91 l 0,0 c -1.07,0 -1.39,0.98 -1.39,2.17 0,1.2 0.32,2.17 1.39,2.17 l -0.28,0.55 c -0.63,0 -1.16,-0.25 -1.56,-0.75 -0.4,-0.49 -0.6,-1.16 -0.6,-1.97 0,-0.8 0.2,-1.46 0.61,-1.97 0.41,-0.51 0.92,-0.76 1.55,-0.76 0.87,0 1.36,0.35 1.68,0.95 z"
         id="path6523"
         inkscape:connector-curvature="0"
         style="fill:#000000;stroke-width:0" /></g>    <g
       style="font-style:normal;font-variant:normal;font-weight:normal;font-stretch:normal;letter-spacing:normal;word-spacing:normal;text-anchor:start;fill:none;fill-opacity:1;fill-rule:evenodd;stroke:#000000;stroke-linecap:butt;stroke-linejoin:miter;stroke-miterlimit:10.43299961;stroke-dasharray:none;stroke-dashoffset:0;stroke-opacity:1"
       ns0:preamble="/home/bqwer/workbook/textext_preamble.tex"
       ns0:text="out"
       word-spacing="normal"
       letter-spacing="normal"
       font-size-adjust="none"
       font-stretch="normal"
       font-weight="normal"
       font-variant="normal"
       font-style="normal"
       stroke-miterlimit="10.433"
       xml:space="preserve"
       transform="matrix(1,0,0,-1,0.49,1072.0672)"
       id="g6623"><path
         id="path6625"
         d="m 226.43,712.43 -0.07,0 -0.07,0 -0.07,0 -0.07,-0.01 -0.06,-0.01 -0.07,0 -0.06,-0.01 -0.07,-0.01 -0.06,-0.02 -0.07,-0.01 -0.06,-0.02 -0.06,-0.01 -0.06,-0.02 -0.06,-0.02 -0.06,-0.02 -0.05,-0.02 -0.06,-0.03 -0.05,-0.02 -0.06,-0.03 -0.05,-0.03 -0.06,-0.03 -0.05,-0.03 -0.05,-0.03 -0.05,-0.04 -0.05,-0.03 -0.05,-0.04 -0.05,-0.04 -0.04,-0.04 -0.05,-0.04 -0.04,-0.04 -0.05,-0.05 -0.04,-0.05 c -0.46,-0.49 -0.68,-1.14 -0.68,-1.97 0,-0.82 0.23,-1.48 0.69,-1.98 0.46,-0.5 1.05,-0.75 1.81,-0.75 l 0,0.48 c -0.48,0 -0.84,0.19 -1.08,0.57 -0.25,0.38 -0.37,0.95 -0.37,1.68 0,1.24 0.34,2.24 1.45,2.24 l 0,0 c 0.48,0 0.84,-0.18 1.09,-0.56 0.25,-0.38 0.37,-0.94 0.37,-1.68 0,-1.23 -0.34,-2.25 -1.46,-2.25 l 0,-0.48 c 0.76,0 1.36,0.25 1.81,0.75 0.46,0.5 0.69,1.16 0.69,1.98 0,0.83 -0.23,1.48 -0.69,1.97 -0.45,0.5 -1.05,0.75 -1.81,0.75 z"
         inkscape:connector-curvature="0"
         style="fill:#000000;stroke-width:0" /><path
         id="path6627"
         d="m 232.46,707.64 -0.04,0 -0.03,0 -0.04,0 -0.03,0.01 -0.04,0 -0.03,0 -0.03,0.01 -0.04,0 -0.03,0.01 -0.03,0.01 -0.03,0 -0.03,0.01 -0.02,0.01 -0.03,0.01 -0.03,0.01 -0.03,0.01 -0.02,0.01 -0.03,0.01 -0.02,0.01 -0.02,0.02 -0.03,0.01 -0.02,0.02 -0.02,0.01 -0.02,0.02 -0.02,0.01 -0.02,0.02 -0.02,0.02 -0.01,0.02 -0.02,0.02 -0.02,0.02 -0.01,0.02 -0.02,0.02 c -0.14,0.23 -0.23,0.67 -0.23,1.29 l 0,3.01 -1.7,0 0,-0.51 0.81,0 0,-2.77 c 0,-1.3 0.44,-2.03 1.67,-2.03 0.8,0 1.28,0.47 1.56,1.06 l 0,-0.92 1.74,0 0,0.52 -0.85,0 0,4.65 -1.67,0 0,-0.51 0.78,0 0,-2.36 c 0,-1.01 -0.34,-1.78 -1.28,-1.78 z"
         inkscape:connector-curvature="0"
         style="fill:#000000;stroke-width:0" /><path
         id="path6629"
         d="m 238.34,706.98 0.08,0 0.09,0.01 0.08,0 0.08,0.01 0.08,0.01 0.07,0.02 0.07,0.02 0.07,0.01 0.06,0.03 0.06,0.02 0.06,0.03 0.06,0.03 0.05,0.03 0.05,0.03 0.05,0.04 0.04,0.04 0.05,0.05 0.03,0.04 0.04,0.05 0.04,0.05 0.03,0.06 0.03,0.05 0.02,0.06 0.03,0.07 0.02,0.06 0.02,0.07 0.02,0.07 0.01,0.07 0.02,0.08 0.01,0.08 0,0.08 0.01,0.09 -0.68,0 c -0.01,-0.55 -0.16,-0.88 -0.68,-0.88 -0.22,0 -0.38,0.07 -0.46,0.19 -0.08,0.12 -0.13,0.4 -0.13,0.84 l 0,3.29 1.68,0 0,0.51 -1.68,0 0,1.61 -0.9,0 0,-1.61 -0.79,0 0,-0.51 0.79,0 0,-3.29 c 0,-1.08 0.36,-1.51 1.42,-1.51 z"
         inkscape:connector-curvature="0"
         style="fill:#000000;stroke-width:0" /></g>    <g
       id="g6737"
       transform="matrix(1,0,0,-1,-39.015,1139.2529)"
       xml:space="preserve"
       stroke-miterlimit="10.433"
       font-style="normal"
       font-variant="normal"
       font-weight="normal"
       font-stretch="normal"
       font-size-adjust="none"
       letter-spacing="normal"
       word-spacing="normal"
       ns0:text="s"
       ns0:preamble="/home/bqwer/workbook/textext_preamble.tex"
       style="font-style:normal;font-variant:normal;font-weight:normal;font-stretch:normal;letter-spacing:normal;word-spacing:normal;text-anchor:start;fill:none;fill-opacity:1;fill-rule:evenodd;stroke:#000000;stroke-linecap:butt;stroke-linejoin:miter;stroke-miterlimit:10.43299961;stroke-dasharray:none;stroke-dashoffset:0;stroke-opacity:1"><path
         style="fill:#000000;stroke-width:0"
         inkscape:connector-curvature="0"
         d="m 225.92,706.98 0.11,0 0.11,0.01 0.1,0.01 0.11,0.01 0.1,0.01 0.1,0.01 0.1,0.02 0.09,0.02 0.1,0.03 0.09,0.03 0.09,0.03 0.08,0.03 0.09,0.04 0.08,0.04 0.07,0.04 0.08,0.05 0.07,0.05 0.06,0.05 0.07,0.06 0.05,0.06 0.06,0.06 0.05,0.07 0.05,0.07 0.04,0.07 0.04,0.08 0.03,0.07 0.03,0.09 0.02,0.08 0.02,0.09 0.01,0.1 0.01,0.1 0.01,0.1 c 0,0.36 -0.11,0.66 -0.33,0.88 -0.22,0.23 -0.57,0.42 -1.06,0.57 l -0.71,0.22 c -0.43,0.14 -0.72,0.27 -0.87,0.4 -0.15,0.13 -0.22,0.31 -0.22,0.53 0,0.6 0.49,0.79 1.14,0.79 0.73,0 1.22,-0.37 1.25,-1.06 l 0.52,0 0,1.12 c -0.54,0.23 -1.12,0.42 -1.8,0.42 -1.1,0 -1.96,-0.48 -1.96,-1.51 0,-0.33 0.1,-0.61 0.3,-0.82 0.2,-0.21 0.52,-0.4 0.97,-0.54 l 0.64,-0.22 c 0.5,-0.16 0.83,-0.31 0.98,-0.44 0.15,-0.14 0.23,-0.32 0.23,-0.55 0,-0.65 -0.53,-0.89 -1.24,-0.89 -0.85,0 -1.34,0.35 -1.37,1.16 l -0.52,0 0,-1.21 c 0.57,-0.26 1.17,-0.43 1.93,-0.43 z"
         id="path6739" /></g>    <g
       style="font-style:normal;font-variant:normal;font-weight:normal;font-stretch:normal;letter-spacing:normal;word-spacing:normal;text-anchor:start;fill:none;fill-opacity:1;fill-rule:evenodd;stroke:#000000;stroke-linecap:butt;stroke-linejoin:miter;stroke-miterlimit:10.43299961;stroke-dasharray:none;stroke-dashoffset:0;stroke-opacity:1"
       ns0:preamble="/home/bqwer/workbook/textext_preamble.tex"
       ns0:text="MX"
       word-spacing="normal"
       letter-spacing="normal"
       font-size-adjust="none"
       font-stretch="normal"
       font-weight="normal"
       font-variant="normal"
       font-style="normal"
       stroke-miterlimit="10.433"
       xml:space="preserve"
       transform="matrix(1,0,0,-1,-46.305,1073.1172)"
       id="g6851"><polygon
         id="polygon6853"
         points="227.99,708.19 228.68,708.19 231.17,713.25 231.17,707.64 230.25,707.64 230.25,707.12 233.09,707.12 233.09,707.64 232.16,707.64 232.16,713.87 233.13,713.87 233.13,714.39 231.14,714.39 228.59,709.22 226.04,714.39 223.93,714.39 223.93,713.87 224.91,713.87 224.91,707.64 223.98,707.64 223.98,707.12 226.43,707.12 226.43,707.64 225.51,707.64 225.51,713.25 "
         style="fill:#000000;stroke-width:0" /><polygon
         id="polygon6855"
         points="237.8,707.12 240.68,707.12 240.68,707.64 239.9,707.64 237.61,711.07 239.53,713.87 240.35,713.87 240.35,714.39 237.97,714.39 237.97,713.87 238.9,713.87 237.3,711.53 235.74,713.87 236.6,713.87 236.6,714.39 233.72,714.39 233.72,713.87 234.5,713.87 236.62,710.69 234.53,707.64 233.69,707.64 233.69,707.12 236.09,707.12 236.09,707.64 235.16,707.64 236.93,710.23 238.66,707.64 237.8,707.64 "
         style="fill:#000000;stroke-width:0" /></g>  </g>
</svg>
