<?xml version="1.0" encoding="UTF-8" standalone="no"?>
<!-- Created with Inkscape (http://www.inkscape.org/) -->

<svg
   xmlns:ns0="http://www.iki.fi/pav/software/textext/"
   xmlns:dc="http://purl.org/dc/elements/1.1/"
   xmlns:cc="http://creativecommons.org/ns#"
   xmlns:rdf="http://www.w3.org/1999/02/22-rdf-syntax-ns#"
   xmlns:svg="http://www.w3.org/2000/svg"
   xmlns="http://www.w3.org/2000/svg"
   xmlns:xlink="http://www.w3.org/1999/xlink"
   xmlns:sodipodi="http://sodipodi.sourceforge.net/DTD/sodipodi-0.dtd"
   xmlns:inkscape="http://www.inkscape.org/namespaces/inkscape"
   width="185"
   height="140"
   viewBox="0 0 185 140"
   id="svg2"
   version="1.1"
   inkscape:version="0.91 r13725"
   sodipodi:docname="blackbox_3.svg">
  <sodipodi:namedview
     id="base"
     pagecolor="#ffffff"
     bordercolor="#666666"
     borderopacity="1.0"
     inkscape:pageopacity="0.0"
     inkscape:pageshadow="2"
     inkscape:zoom="3.959798"
     inkscape:cx="134.70077"
     inkscape:cy="81.594183"
     inkscape:document-units="px"
     inkscape:current-layer="layer1"
     showgrid="true"
     inkscape:snap-midpoints="true"
     inkscape:snap-smooth-nodes="true"
     inkscape:object-nodes="true"
     inkscape:snap-intersection-paths="true"
     inkscape:object-paths="true"
     inkscape:snap-grids="true"
     inkscape:window-width="1920"
     inkscape:window-height="901"
     inkscape:window-x="0"
     inkscape:window-y="25"
     inkscape:window-maximized="1"
     units="px">
    <inkscape:grid
       id="grid4136"
       type="xygrid" />
  </sodipodi:namedview>
  <defs
     id="defs4">
    <linearGradient
       id="linearGradient4142"
       inkscape:collect="always">
      <stop
         id="stop4144"
         offset="0"
         style="stop-color:#ffffff;stop-opacity:1;" />
      <stop
         id="stop4146"
         offset="1"
         style="stop-color:#ffffff;stop-opacity:0;" />
    </linearGradient>
    <linearGradient
       gradientTransform="matrix(0.68448451,0,0,0.7842098,-75.304822,334.37723)"
       gradientUnits="userSpaceOnUse"
       y2="782.36218"
       x2="325"
       y1="782.36218"
       x1="380"
       id="linearGradient4148"
       xlink:href="#linearGradient4142"
       inkscape:collect="always" />
  </defs>
  <metadata
     id="metadata7">
    <rdf:RDF>
      <cc:Work
         rdf:about="">
        <dc:format>image/svg+xml</dc:format>
        <dc:type
           rdf:resource="http://purl.org/dc/dcmitype/StillImage" />
        <dc:title></dc:title>
      </cc:Work>
    </rdf:RDF>
  </metadata>
  <g
     transform="translate(0,-912.36218)"
     id="layer1"
     inkscape:groupmode="layer"
     inkscape:label="Layer 1">
    <rect
       y="916.5224"
       x="54.727604"
       height="133.0675"
       width="90.335587"
       id="rect4138"
       style="opacity:1;fill:url(#linearGradient4148);fill-opacity:1;stroke:#000000;stroke-width:1;stroke-miterlimit:4;stroke-dasharray:none;stroke-opacity:1" />
    <path
       style="fill:#000000;fill-opacity:1;fill-rule:evenodd;stroke:#000000;stroke-width:1;stroke-linecap:butt;stroke-linejoin:miter;stroke-miterlimit:4;stroke-dasharray:none;stroke-opacity:1"
       d="M 178.78421,943.18557 178,941.61716 l 4.70526,1.56841 -4.70526,1.56842 0.78421,-1.56842"
       id="path7174-4-9-0"
       inkscape:connector-curvature="0"
       sodipodi:nodetypes="ccccc" />
    <path
       style="fill:none;fill-rule:evenodd;stroke:#000000;stroke-width:1;stroke-linecap:butt;stroke-linejoin:miter;stroke-miterlimit:4;stroke-dasharray:none;stroke-opacity:1"
       d="m 145.06319,943.18557 33.72102,0"
       id="path4205"
       inkscape:connector-curvature="0" />
    <path
       style="fill:#000000;fill-opacity:1;fill-rule:evenodd;stroke:#000000;stroke-width:1;stroke-linecap:butt;stroke-linejoin:miter;stroke-miterlimit:4;stroke-dasharray:none;stroke-opacity:1"
       d="M 178.78421,969.84871 178,968.28029 l 4.70526,1.56842 -4.70526,1.56842 0.78421,-1.56842"
       id="path7174-4-9-0-5"
       inkscape:connector-curvature="0"
       sodipodi:nodetypes="ccccc" />
    <path
       style="fill:none;fill-rule:evenodd;stroke:#000000;stroke-width:1;stroke-linecap:butt;stroke-linejoin:miter;stroke-miterlimit:4;stroke-dasharray:none;stroke-opacity:1"
       d="m 145.06319,969.84871 33.72102,0"
       id="path4205-3"
       inkscape:connector-curvature="0" />
    <path
       style="fill:#000000;fill-opacity:1;fill-rule:evenodd;stroke:#000000;stroke-width:1;stroke-linecap:butt;stroke-linejoin:miter;stroke-miterlimit:4;stroke-dasharray:none;stroke-opacity:1"
       d="M 178.78421,996.38775 178,994.81933 l 4.70526,1.56842 -4.70526,1.56842 0.78421,-1.56842"
       id="path7174-4-9-0-5-6"
       inkscape:connector-curvature="0"
       sodipodi:nodetypes="ccccc" />
    <path
       style="fill:none;fill-rule:evenodd;stroke:#000000;stroke-width:1;stroke-linecap:butt;stroke-linejoin:miter;stroke-miterlimit:4;stroke-dasharray:none;stroke-opacity:1"
       d="m 145.06319,996.38775 33.72102,0"
       id="path4205-3-2"
       inkscape:connector-curvature="0" />
    <path
       style="fill:#000000;fill-opacity:1;fill-rule:evenodd;stroke:#000000;stroke-width:1;stroke-linecap:butt;stroke-linejoin:miter;stroke-miterlimit:4;stroke-dasharray:none;stroke-opacity:1"
       d="M 178.78421,1023.0509 178,1021.4825 l 4.70526,1.5684 -4.70526,1.5683 0.78421,-1.5683"
       id="path7174-4-9-0-5-6-9"
       inkscape:connector-curvature="0"
       sodipodi:nodetypes="ccccc" />
    <path
       style="fill:none;fill-rule:evenodd;stroke:#000000;stroke-width:1;stroke-linecap:butt;stroke-linejoin:miter;stroke-miterlimit:4;stroke-dasharray:none;stroke-opacity:1"
       d="m 145.06319,1023.0509 33.72102,0"
       id="path4205-3-2-1"
       inkscape:connector-curvature="0" />
    <path
       style="fill:#000000;fill-opacity:1;fill-rule:evenodd;stroke:#000000;stroke-width:1;stroke-linecap:butt;stroke-linejoin:miter;stroke-miterlimit:4;stroke-dasharray:none;stroke-opacity:1"
       d="m 50.044823,1034.1765 -0.784211,-1.5685 4.70526,1.5685 -4.70526,1.5684 0.784211,-1.5684"
       id="path7174-4-9-0-5-6-9-2"
       inkscape:connector-curvature="0"
       sodipodi:nodetypes="ccccc" />
    <path
       style="fill:none;fill-rule:evenodd;stroke:#000000;stroke-width:1;stroke-linecap:butt;stroke-linejoin:miter;stroke-miterlimit:4;stroke-dasharray:none;stroke-opacity:1"
       d="m 16.323801,1034.1765 33.721022,0"
       id="path4205-3-2-1-7"
       inkscape:connector-curvature="0" />
    <path
       style="fill:#000000;fill-opacity:1;fill-rule:evenodd;stroke:#000000;stroke-width:1;stroke-linecap:butt;stroke-linejoin:miter;stroke-miterlimit:4;stroke-dasharray:none;stroke-opacity:1"
       d="m 50.044823,932.22914 -0.784211,-1.56841 4.70526,1.56841 -4.70526,1.56842 0.784211,-1.56842"
       id="path7174-4-9-0-5-6-9-2-0"
       inkscape:connector-curvature="0"
       sodipodi:nodetypes="ccccc" />
    <path
       style="fill:none;fill-rule:evenodd;stroke:#000000;stroke-width:1;stroke-linecap:butt;stroke-linejoin:miter;stroke-miterlimit:4;stroke-dasharray:none;stroke-opacity:1"
       d="m 16.323801,932.22914 33.721022,0"
       id="path4205-3-2-1-7-9"
       inkscape:connector-curvature="0" />
    <path
       style="fill:#000000;fill-opacity:1;fill-rule:evenodd;stroke:#000000;stroke-width:1;stroke-linecap:butt;stroke-linejoin:miter;stroke-miterlimit:4;stroke-dasharray:none;stroke-opacity:1"
       d="m 50.044823,948.69755 -0.784211,-1.56842 4.70526,1.56842 -4.70526,1.56842 0.784211,-1.56842"
       id="path7174-4-9-0-5-6-9-2-3"
       inkscape:connector-curvature="0"
       sodipodi:nodetypes="ccccc" />
    <path
       style="fill:none;fill-rule:evenodd;stroke:#000000;stroke-width:1;stroke-linecap:butt;stroke-linejoin:miter;stroke-miterlimit:4;stroke-dasharray:none;stroke-opacity:1"
       d="m 16.323801,948.69755 33.721022,0"
       id="path4205-3-2-1-7-6"
       inkscape:connector-curvature="0" />
    <g
       id="g4180"
       ns0:preamble="/home/bqwer/textext.preamble.tex"
       ns0:text="start\\_stop"
       transform="translate(-222.65256,792.70388)">
      <defs
         id="defs4182">
        <g
           id="g4184">
          <symbol
             style="overflow:visible"
             id="textext-ce21b671-0"
             overflow="visible">
            <path
               inkscape:connector-curvature="0"
               id="path4187"
               d=""
               style="stroke:none" />
          </symbol>
          <symbol
             style="overflow:visible"
             id="textext-ce21b671-1"
             overflow="visible">
            <path
               inkscape:connector-curvature="0"
               id="path4190"
               d="M 1.75,-4.46875 C 1.390625,-4.421875 1,-4.359375 0.703125,-4.109375 c -0.234375,0.21875 -0.375,0.546875 -0.375,0.875 C 0.328125,-1.53125 3.09375,-2.5 3.09375,-1 3.09375,-0.40625 2.546875,-0.125 2,-0.125 1.25,-0.125 0.734375,-0.65625 0.59375,-1.515625 0.578125,-1.609375 0.5625,-1.6875 0.453125,-1.6875 c -0.078125,0 -0.125,0.046875 -0.125,0.125 l 0,1.578125 C 0.34375,0.0625 0.375,0.09375 0.421875,0.09375 l 0.015625,0 c 0.15625,0 0.3125,-0.359375 0.4375,-0.390625 l 0.015625,0 c 0.078125,0 0.34375,0.25 0.5625,0.3125 0.15625,0.0625 0.34375,0.078125 0.515625,0.078125 0.828125,0 1.625,-0.4375 1.625,-1.34375 0,-0.65625 -0.484375,-1.203125 -1.140625,-1.375 -0.625,-0.171875 -1.640625,-0.171875 -1.640625,-0.890625 0,-0.609375 0.671875,-0.765625 1.109375,-0.765625 0.484375,0 1.171875,0.28125 1.171875,1.125 0,0.09375 0,0.171875 0.109375,0.171875 0.109375,0 0.140625,-0.078125 0.140625,-0.171875 0,-0.046875 0,-0.109375 0,-0.140625 l 0,-1.03125 c 0,-0.0625 -0.03125,-0.140625 -0.109375,-0.140625 -0.15625,0 -0.265625,0.25 -0.375,0.25 l -0.015625,0 c -0.078125,0 -0.234375,-0.125 -0.34375,-0.171875 -0.1875,-0.0625 -0.390625,-0.078125 -0.578125,-0.078125 -0.0625,0 -0.109375,0 -0.171875,0 z m 0,0"
               style="stroke:none" />
          </symbol>
          <symbol
             style="overflow:visible"
             id="textext-ce21b671-2"
             overflow="visible">
            <path
               inkscape:connector-curvature="0"
               id="path4194"
               d="m 1.484375,-6.140625 c 0,0.6875 -0.28125,1.9375 -1.3125,1.9375 l 0,0.21875 0.859375,0 0,2.5625 c 0,0.328125 0.03125,0.671875 0.1875,0.953125 0.21875,0.40625 0.6875,0.5625 1.125,0.5625 0.8125,0 0.96875,-0.90625 0.96875,-1.546875 l 0,-0.359375 -0.234375,0 c 0,0.140625 0,0.296875 0,0.453125 0,0.4375 -0.09375,1.203125 -0.6875,1.203125 -0.5625,0 -0.65625,-0.6875 -0.65625,-1.125 l 0,-2.703125 1.421875,0 0,-0.3125 -1.421875,0 0,-1.84375 z m 0,0"
               style="stroke:none" />
          </symbol>
          <symbol
             style="overflow:visible"
             id="textext-ce21b671-3"
             overflow="visible">
            <path
               inkscape:connector-curvature="0"
               id="path4197"
               d="m 1.109375,-3.796875 c 0.25,-0.3125 0.6875,-0.453125 1.0625,-0.453125 0.734375,0 1.0625,0.671875 1.0625,1.375 l 0,0.265625 c -1.140625,0 -2.828125,0.359375 -2.828125,1.65625 l 0,0.078125 c 0.078125,0.78125 1.046875,0.96875 1.625,0.96875 0.5,0 1.15625,-0.328125 1.28125,-0.84375 0.0625,0.4375 0.34375,0.796875 0.78125,0.796875 0.40625,0 0.765625,-0.328125 0.828125,-0.78125 l 0,-0.71875 -0.25,0 0,0.5 c 0,0.28125 -0.0625,0.6875 -0.359375,0.6875 -0.328125,0 -0.375,-0.390625 -0.375,-0.65625 l 0,-1.671875 c 0,-0.125 0.015625,-0.25 0.015625,-0.375 0,-0.96875 -0.90625,-1.5 -1.734375,-1.5 -0.640625,0 -1.515625,0.3125 -1.515625,1.109375 0,0.28125 0.203125,0.484375 0.46875,0.484375 0.28125,0 0.4375,-0.21875 0.4375,-0.46875 0,-0.28125 -0.21875,-0.453125 -0.5,-0.453125 z m 2.125,1.390625 0,1.015625 c 0,0.6875 -0.46875,1.234375 -1.125,1.265625 l -0.03125,0 C 1.609375,-0.125 1.1875,-0.484375 1.1875,-0.96875 l 0,-0.046875 C 1.25,-2.03125 2.375,-2.375 3.234375,-2.40625 Z m 0,0"
               style="stroke:none" />
          </symbol>
          <symbol
             style="overflow:visible"
             id="textext-ce21b671-4"
             overflow="visible">
            <path
               inkscape:connector-curvature="0"
               id="path4200"
               d="m 0.265625,-4.296875 0,0.3125 0.15625,0 c 0.328125,0 0.625,0.03125 0.625,0.5 l 0,2.75 c 0,0.40625 -0.28125,0.421875 -0.71875,0.421875 l -0.0625,0 0,0.296875 2.421875,0 0,-0.296875 c -0.125,0 -0.265625,0 -0.390625,0 -0.3125,0 -0.578125,-0.046875 -0.578125,-0.421875 l 0,-1.3125 c 0,-0.859375 0.1875,-2.140625 1.171875,-2.140625 0.046875,0 0.0625,0 0.109375,0.015625 -0.15625,0.0625 -0.234375,0.21875 -0.234375,0.390625 0,0.21875 0.15625,0.375 0.390625,0.421875 0.28125,0 0.46875,-0.171875 0.46875,-0.421875 0,-0.40625 -0.375,-0.625 -0.734375,-0.625 -0.59375,0 -1.109375,0.53125 -1.21875,1.0625 l 0,-1.0625 z m 0,0"
               style="stroke:none" />
          </symbol>
          <symbol
             style="overflow:visible"
             id="textext-ce21b671-5"
             overflow="visible">
            <path
               inkscape:connector-curvature="0"
               id="path4203"
               d="M 0.984375,1.921875 C 0.875,1.9375 0.828125,2.03125 0.828125,2.109375 c 0,0.125 0.09375,0.203125 0.234375,0.203125 l 5.390625,0 c 0.046875,0 0.109375,0.015625 0.1875,0.015625 0.125,0 0.28125,-0.0625 0.28125,-0.21875 0,-0.15625 -0.15625,-0.203125 -0.296875,-0.203125 -0.09375,0 -0.171875,0 -0.265625,0 l -5.296875,0 c -0.03125,0 -0.0625,0 -0.078125,0.015625 z m 0,0"
               style="stroke:none" />
          </symbol>
          <symbol
             style="overflow:visible"
             id="textext-ce21b671-6"
             overflow="visible">
            <path
               inkscape:connector-curvature="0"
               id="path4206"
               d="m 2.34375,-4.46875 c -1.25,0.125 -2.0625,1.1875 -2.0625,2.34375 0,1.125 0.890625,2.21875 2.21875,2.21875 1.1875,0 2.1875,-0.96875 2.1875,-2.234375 0,-1.171875 -0.890625,-2.328125 -2.21875,-2.328125 -0.03125,0 -0.09375,0 -0.125,0 z m -1.234375,2.578125 0,-0.4375 c 0,-0.765625 0.25,-1.921875 1.375,-1.921875 0.8125,0 1.265625,0.6875 1.359375,1.4375 0.015625,0.21875 0.015625,0.4375 0.015625,0.65625 0,0.640625 -0.078125,1.453125 -0.703125,1.8125 C 2.953125,-0.203125 2.734375,-0.15625 2.5,-0.15625 1.78125,-0.15625 1.265625,-0.71875 1.15625,-1.5 1.140625,-1.625 1.140625,-1.765625 1.109375,-1.890625 Z m 0,0"
               style="stroke:none" />
          </symbol>
          <symbol
             style="overflow:visible"
             id="textext-ce21b671-7"
             overflow="visible">
            <path
               inkscape:connector-curvature="0"
               id="path4209"
               d="m 0.265625,-4.296875 0,0.3125 0.1875,0 c 0.296875,0 0.59375,0.03125 0.59375,0.421875 l 0,4.78125 C 1.046875,1.578125 0.78125,1.609375 0.5,1.609375 l -0.234375,0 0,0.3125 2.25,0 0,-0.3125 -0.234375,0 C 1.984375,1.609375 1.75,1.578125 1.75,1.21875 l 0,-1.734375 c 0.234375,0.421875 0.796875,0.609375 1.21875,0.609375 1.234375,0 2.21875,-1.046875 2.21875,-2.25 0,-1.203125 -0.921875,-2.25 -2.09375,-2.25 -0.546875,0 -1.015625,0.234375 -1.375,0.640625 l 0,-0.640625 z m 4.078125,2.3125 C 4.296875,-1.25 3.90625,-0.203125 3,-0.125 l -0.0625,0 C 2.515625,-0.125 2.125,-0.359375 1.890625,-0.71875 1.796875,-0.828125 1.75,-0.921875 1.75,-1.0625 l 0,-1.671875 C 1.75,-2.875 1.734375,-3 1.734375,-3.125 1.734375,-3.65625 2.40625,-4.15625 3,-4.15625 c 1,0 1.359375,1.3125 1.359375,2.015625 0,0.046875 0,0.109375 -0.015625,0.15625 z m 0,0"
               style="stroke:none" />
          </symbol>
        </g>
      </defs>
      <g
         id="textext-ce21b671-8">
        <g
           id="g4212"
           style="fill:#000000;fill-opacity:1">
          <use
             height="100%"
             width="100%"
             id="use4214"
             y="134.765"
             x="223.43201"
             xlink:href="#textext-ce21b671-1" />
          <use
             height="100%"
             width="100%"
             id="use4216"
             y="134.765"
             x="227.36026"
             xlink:href="#textext-ce21b671-2" />
          <use
             height="100%"
             width="100%"
             id="use4218"
             y="134.765"
             x="231.23372"
             xlink:href="#textext-ce21b671-3" />
          <use
             height="100%"
             width="100%"
             id="use4220"
             y="134.765"
             x="236.21402"
             xlink:href="#textext-ce21b671-4" />
          <use
             height="100%"
             width="100%"
             id="use4222"
             y="134.765"
             x="240.11537"
             xlink:href="#textext-ce21b671-2" />
          <use
             height="100%"
             width="100%"
             id="use4224"
             y="134.765"
             x="243.98883"
             xlink:href="#textext-ce21b671-5" />
          <use
             height="100%"
             width="100%"
             id="use4226"
             y="134.765"
             x="251.73575"
             xlink:href="#textext-ce21b671-1" />
          <use
             height="100%"
             width="100%"
             id="use4228"
             y="134.765"
             x="255.664"
             xlink:href="#textext-ce21b671-2" />
          <use
             height="100%"
             width="100%"
             id="use4230"
             y="134.765"
             x="259.53745"
             xlink:href="#textext-ce21b671-6" />
          <use
             height="100%"
             width="100%"
             id="use4232"
             y="134.765"
             x="264.51776"
             xlink:href="#textext-ce21b671-7" />
        </g>
      </g>
    </g>
    <g
       transform="translate(-209.5428,811.49604)"
       ns0:text="reset"
       ns0:preamble="/home/bqwer/textext.preamble.tex"
       id="g4490">
      <defs
         id="defs4492">
        <g
           id="g4494">
          <symbol
             style="overflow:visible"
             overflow="visible"
             id="textext-32fd81ee-0">
            <path
               inkscape:connector-curvature="0"
               style="stroke:none"
               d=""
               id="path4497" />
          </symbol>
          <symbol
             style="overflow:visible"
             overflow="visible"
             id="textext-32fd81ee-1">
            <path
               inkscape:connector-curvature="0"
               style="stroke:none"
               d="m 0.265625,-4.296875 0,0.3125 0.15625,0 c 0.328125,0 0.625,0.03125 0.625,0.5 l 0,2.75 c 0,0.40625 -0.28125,0.421875 -0.71875,0.421875 l -0.0625,0 0,0.296875 2.421875,0 0,-0.296875 c -0.125,0 -0.265625,0 -0.390625,0 -0.3125,0 -0.578125,-0.046875 -0.578125,-0.421875 l 0,-1.3125 c 0,-0.859375 0.1875,-2.140625 1.171875,-2.140625 0.046875,0 0.0625,0 0.109375,0.015625 -0.15625,0.0625 -0.234375,0.21875 -0.234375,0.390625 0,0.21875 0.15625,0.375 0.390625,0.421875 0.28125,0 0.46875,-0.171875 0.46875,-0.421875 0,-0.40625 -0.375,-0.625 -0.734375,-0.625 -0.59375,0 -1.109375,0.53125 -1.21875,1.0625 l 0,-1.0625 z m 0,0"
               id="path4500" />
          </symbol>
          <symbol
             style="overflow:visible"
             overflow="visible"
             id="textext-32fd81ee-2">
            <path
               inkscape:connector-curvature="0"
               style="stroke:none"
               d="m 1.109375,-2.3125 2.875,0 c 0.109375,0 0.15625,-0.0625 0.15625,-0.1875 0,-1.046875 -0.640625,-1.96875 -1.765625,-1.96875 -1.21875,0 -2.09375,1.09375 -2.09375,2.28125 0,0.90625 0.5,1.734375 1.390625,2.125 0.21875,0.109375 0.484375,0.15625 0.734375,0.15625 l 0.03125,0 c 0.765625,0 1.40625,-0.421875 1.671875,-1.1875 C 4.125,-1.125 4.125,-1.171875 4.125,-1.203125 4.125,-1.265625 4.09375,-1.3125 4.015625,-1.3125 3.875,-1.3125 3.8125,-0.984375 3.75,-0.875 3.5,-0.4375 3.015625,-0.15625 2.5,-0.15625 c -0.359375,0 -0.6875,-0.203125 -0.953125,-0.46875 -0.40625,-0.46875 -0.4375,-1.109375 -0.4375,-1.6875 z M 1.125,-2.515625 C 1.125,-3.296875 1.53125,-4.25 2.359375,-4.25 l 0.046875,0 c 0.96875,0.09375 0.96875,1.125 1.0625,1.734375 z m 0,0"
               id="path4503" />
          </symbol>
          <symbol
             style="overflow:visible"
             overflow="visible"
             id="textext-32fd81ee-3">
            <path
               inkscape:connector-curvature="0"
               style="stroke:none"
               d="M 1.75,-4.46875 C 1.390625,-4.421875 1,-4.359375 0.703125,-4.109375 c -0.234375,0.21875 -0.375,0.546875 -0.375,0.875 C 0.328125,-1.53125 3.09375,-2.5 3.09375,-1 3.09375,-0.40625 2.546875,-0.125 2,-0.125 1.25,-0.125 0.734375,-0.65625 0.59375,-1.515625 0.578125,-1.609375 0.5625,-1.6875 0.453125,-1.6875 c -0.078125,0 -0.125,0.046875 -0.125,0.125 l 0,1.578125 C 0.34375,0.0625 0.375,0.09375 0.421875,0.09375 l 0.015625,0 c 0.15625,0 0.3125,-0.359375 0.4375,-0.390625 l 0.015625,0 c 0.078125,0 0.34375,0.25 0.5625,0.3125 0.15625,0.0625 0.34375,0.078125 0.515625,0.078125 0.828125,0 1.625,-0.4375 1.625,-1.34375 0,-0.65625 -0.484375,-1.203125 -1.140625,-1.375 -0.625,-0.171875 -1.640625,-0.171875 -1.640625,-0.890625 0,-0.609375 0.671875,-0.765625 1.109375,-0.765625 0.484375,0 1.171875,0.28125 1.171875,1.125 0,0.09375 0,0.171875 0.109375,0.171875 0.109375,0 0.140625,-0.078125 0.140625,-0.171875 0,-0.046875 0,-0.109375 0,-0.140625 l 0,-1.03125 c 0,-0.0625 -0.03125,-0.140625 -0.109375,-0.140625 -0.15625,0 -0.265625,0.25 -0.375,0.25 l -0.015625,0 c -0.078125,0 -0.234375,-0.125 -0.34375,-0.171875 -0.1875,-0.0625 -0.390625,-0.078125 -0.578125,-0.078125 -0.0625,0 -0.109375,0 -0.171875,0 z m 0,0"
               id="path4506" />
          </symbol>
          <symbol
             style="overflow:visible"
             overflow="visible"
             id="textext-32fd81ee-4">
            <path
               inkscape:connector-curvature="0"
               style="stroke:none"
               d="m 1.484375,-6.140625 c 0,0.6875 -0.28125,1.9375 -1.3125,1.9375 l 0,0.21875 0.859375,0 0,2.5625 c 0,0.328125 0.03125,0.671875 0.1875,0.953125 0.21875,0.40625 0.6875,0.5625 1.125,0.5625 0.8125,0 0.96875,-0.90625 0.96875,-1.546875 l 0,-0.359375 -0.234375,0 c 0,0.140625 0,0.296875 0,0.453125 0,0.4375 -0.09375,1.203125 -0.6875,1.203125 -0.5625,0 -0.65625,-0.6875 -0.65625,-1.125 l 0,-2.703125 1.421875,0 0,-0.3125 -1.421875,0 0,-1.84375 z m 0,0"
               id="path4509" />
          </symbol>
        </g>
      </defs>
      <g
         id="textext-32fd81ee-5">
        <g
           style="fill:#000000;fill-opacity:1"
           id="g4512">
          <use
             height="100%"
             width="100%"
             xlink:href="#textext-32fd81ee-1"
             x="223.43201"
             y="134.765"
             id="use4514" />
          <use
             height="100%"
             width="100%"
             xlink:href="#textext-32fd81ee-2"
             x="227.33336"
             y="134.765"
             id="use4516" />
          <use
             height="100%"
             width="100%"
             xlink:href="#textext-32fd81ee-3"
             x="231.75974"
             y="134.765"
             id="use4518" />
          <use
             height="100%"
             width="100%"
             xlink:href="#textext-32fd81ee-2"
             x="235.68799"
             y="134.765"
             id="use4520" />
          <use
             height="100%"
             width="100%"
             xlink:href="#textext-32fd81ee-4"
             x="240.11438"
             y="134.765"
             id="use4522" />
        </g>
      </g>
    </g>
    <g
       id="g4674"
       ns0:preamble="/home/bqwer/textext.preamble.tex"
       ns0:text="clk"
       transform="translate(-205.67433,896.82378)">
      <defs
         id="defs4676">
        <g
           id="g4678">
          <symbol
             style="overflow:visible"
             id="textext-6a55eccd-0"
             overflow="visible">
            <path
               inkscape:connector-curvature="0"
               id="path4681"
               d=""
               style="stroke:none" />
          </symbol>
          <symbol
             style="overflow:visible"
             id="textext-6a55eccd-1"
             overflow="visible">
            <path
               inkscape:connector-curvature="0"
               id="path4684"
               d="m 3.578125,-3.859375 c -0.265625,0.015625 -0.46875,0.1875 -0.46875,0.453125 0,0.28125 0.1875,0.46875 0.453125,0.46875 0.3125,0 0.46875,-0.21875 0.46875,-0.5 l 0,-0.0625 C 3.921875,-4.234375 3.078125,-4.46875 2.5,-4.46875 c -1.21875,0 -2.171875,1.0625 -2.171875,2.3125 0,1.125 0.875,2.25 2.171875,2.25 0.65625,0 1.296875,-0.359375 1.5625,-1.046875 0.03125,-0.0625 0.078125,-0.15625 0.078125,-0.21875 0,-0.078125 -0.046875,-0.125 -0.125,-0.125 -0.140625,0 -0.234375,0.375 -0.3125,0.515625 -0.234375,0.375 -0.640625,0.625 -1.09375,0.625 -1.0625,0 -1.390625,-1.0625 -1.4375,-1.84375 l 0,-0.125 c 0,-0.796875 0.1875,-1.984375 1.28125,-2.09375 l 0.078125,0 c 0.375,0 0.765625,0.109375 1.046875,0.359375 z m 0,0"
               style="stroke:none" />
          </symbol>
          <symbol
             style="overflow:visible"
             id="textext-6a55eccd-2"
             overflow="visible">
            <path
               inkscape:connector-curvature="0"
               id="path4687"
               d="m 0.328125,-6.8125 0,0.296875 0.15625,0 c 0.359375,0 0.625,0.046875 0.625,0.53125 l 0,5.03125 c 0,0.0625 0,0.140625 0,0.21875 0,0.375 -0.265625,0.421875 -0.546875,0.421875 l -0.234375,0 0,0.296875 2.21875,0 0,-0.296875 -0.25,0 c -0.28125,0 -0.515625,-0.046875 -0.515625,-0.4375 l 0,-6.171875 z m 0,0"
               style="stroke:none" />
          </symbol>
          <symbol
             style="overflow:visible"
             id="textext-6a55eccd-3"
             overflow="visible">
            <path
               inkscape:connector-curvature="0"
               id="path4690"
               d="m 0.265625,-6.8125 0,0.296875 0.171875,0 c 0.3125,0 0.609375,0.046875 0.609375,0.53125 l 0,5.03125 c 0,0.0625 0.015625,0.140625 0.015625,0.21875 0,0.375 -0.28125,0.421875 -0.546875,0.421875 l -0.25,0 0,0.296875 2.203125,0 0,-0.296875 -0.234375,0 C 1.9375,-0.3125 1.6875,-0.359375 1.6875,-0.734375 l 0,-0.9375 c 0,-0.203125 0.390625,-0.484375 0.640625,-0.65625 0.078125,0.171875 0.21875,0.3125 0.328125,0.46875 0.234375,0.328125 0.46875,0.65625 0.6875,0.984375 0.0625,0.09375 0.140625,0.21875 0.140625,0.34375 0,0.171875 -0.1875,0.21875 -0.34375,0.21875 l 0,0.296875 1.953125,0 0,-0.296875 c -0.171875,0 -0.359375,0 -0.515625,-0.09375 -0.234375,-0.125 -0.390625,-0.359375 -0.53125,-0.578125 -0.25,-0.34375 -0.5,-0.703125 -0.75,-1.046875 L 2.9375,-2.546875 C 2.890625,-2.59375 2.828125,-2.6875 2.828125,-2.71875 l 0,-0.015625 c 0,-0.078125 0.296875,-0.296875 0.4375,-0.40625 0.453125,-0.390625 0.96875,-0.84375 1.609375,-0.84375 l 0,-0.3125 -1.8125,0 0,0.3125 c 0.140625,0 0.28125,0.109375 0.28125,0.25 0,0.296875 -0.46875,0.59375 -0.734375,0.8125 -0.3125,0.265625 -0.59375,0.515625 -0.890625,0.765625 l 0,-4.765625 z m 0,0"
               style="stroke:none" />
          </symbol>
        </g>
      </defs>
      <g
         id="textext-6a55eccd-4">
        <g
           id="g4693"
           style="fill:#000000;fill-opacity:1">
          <use
             height="100%"
             width="100%"
             id="use4695"
             y="134.765"
             x="223.43201"
             xlink:href="#textext-6a55eccd-1" />
          <use
             height="100%"
             width="100%"
             id="use4697"
             y="134.765"
             x="227.85838"
             xlink:href="#textext-6a55eccd-2" />
          <use
             height="100%"
             width="100%"
             id="use4699"
             y="134.765"
             x="230.625"
             xlink:href="#textext-6a55eccd-3" />
        </g>
      </g>
    </g>
    <g
       transform="translate(-60.198896,804.39434)"
       ns0:text="hex0"
       ns0:preamble="/home/bqwer/textext.preamble.tex"
       id="g4883">
      <defs
         id="defs4885">
        <g
           id="g4887">
          <symbol
             style="overflow:visible"
             overflow="visible"
             id="textext-9f2fe10b-0">
            <path
               inkscape:connector-curvature="0"
               style="stroke:none"
               d=""
               id="path4890" />
          </symbol>
          <symbol
             style="overflow:visible"
             overflow="visible"
             id="textext-9f2fe10b-1">
            <path
               inkscape:connector-curvature="0"
               style="stroke:none"
               d="m 0.3125,-6.8125 0,0.296875 0.15625,0 c 0.375,0 0.625,0.046875 0.625,0.53125 l 0,5.03125 c 0,0.0625 0.015625,0.140625 0.015625,0.21875 0,0.375 -0.265625,0.421875 -0.546875,0.421875 l -0.25,0 0,0.296875 2.265625,0 0,-0.296875 -0.265625,0 c -0.28125,0 -0.515625,-0.046875 -0.515625,-0.421875 l 0,-1.8125 c 0,-0.71875 0.359375,-1.640625 1.359375,-1.640625 0.625,0 0.6875,0.6875 0.6875,1.109375 l 0,2.390625 c 0,0.34375 -0.28125,0.375 -0.59375,0.375 l -0.171875,0 0,0.296875 2.25,0 0,-0.296875 -0.25,0 c -0.265625,0 -0.53125,-0.046875 -0.53125,-0.390625 l 0,-2.171875 c 0,-0.328125 -0.015625,-0.65625 -0.15625,-0.96875 -0.25,-0.4375 -0.734375,-0.5625 -1.203125,-0.5625 -0.578125,0 -1.21875,0.390625 -1.40625,0.953125 l -0.015625,-3.46875 z m 0,0"
               id="path4893" />
          </symbol>
          <symbol
             style="overflow:visible"
             overflow="visible"
             id="textext-9f2fe10b-2">
            <path
               inkscape:connector-curvature="0"
               style="stroke:none"
               d="m 1.109375,-2.3125 2.875,0 c 0.109375,0 0.15625,-0.0625 0.15625,-0.1875 0,-1.046875 -0.640625,-1.96875 -1.765625,-1.96875 -1.21875,0 -2.09375,1.09375 -2.09375,2.28125 0,0.90625 0.5,1.734375 1.390625,2.125 0.21875,0.109375 0.484375,0.15625 0.734375,0.15625 l 0.03125,0 c 0.765625,0 1.40625,-0.421875 1.671875,-1.1875 C 4.125,-1.125 4.125,-1.171875 4.125,-1.203125 4.125,-1.265625 4.09375,-1.3125 4.015625,-1.3125 3.875,-1.3125 3.8125,-0.984375 3.75,-0.875 3.5,-0.4375 3.015625,-0.15625 2.5,-0.15625 c -0.359375,0 -0.6875,-0.203125 -0.953125,-0.46875 -0.40625,-0.46875 -0.4375,-1.109375 -0.4375,-1.6875 z M 1.125,-2.515625 C 1.125,-3.296875 1.53125,-4.25 2.359375,-4.25 l 0.046875,0 c 0.96875,0.09375 0.96875,1.125 1.0625,1.734375 z m 0,0"
               id="path4896" />
          </symbol>
          <symbol
             style="overflow:visible"
             overflow="visible"
             id="textext-9f2fe10b-3">
            <path
               inkscape:connector-curvature="0"
               style="stroke:none"
               d="m 0.171875,-4.296875 0,0.3125 0.203125,0 c 0.515625,0 0.65625,0.203125 0.875,0.5 l 0.9375,1.21875 c 0.046875,0.046875 0.125,0.125 0.125,0.1875 -0.015625,0.046875 -0.09375,0.125 -0.125,0.171875 -0.59375,0.6875 -1.03125,1.59375 -2.0625,1.59375 l 0,0.296875 1.78125,0 0,-0.296875 c -0.1875,0 -0.296875,-0.1875 -0.296875,-0.328125 0,-0.203125 0.15625,-0.34375 0.28125,-0.484375 C 2,-1.28125 2.125,-1.4375 2.25,-1.578125 2.328125,-1.6875 2.421875,-1.78125 2.484375,-1.890625 2.734375,-1.609375 2.9375,-1.296875 3.15625,-1 l 0.1875,0.25 c 0.046875,0.046875 0.109375,0.109375 0.109375,0.1875 0,0.15625 -0.21875,0.25 -0.359375,0.25 l 0,0.296875 2.046875,0 0,-0.296875 -0.171875,0 c -0.171875,0 -0.359375,-0.015625 -0.515625,-0.09375 C 4.28125,-0.5 4.15625,-0.6875 4.03125,-0.84375 c -0.328125,-0.4375 -0.671875,-0.875 -1,-1.3125 L 2.9375,-2.265625 c -0.015625,-0.03125 -0.03125,-0.0625 -0.046875,-0.09375 0,-0.046875 0.0625,-0.109375 0.09375,-0.15625 l 0.3125,-0.375 c 0.1875,-0.21875 0.34375,-0.453125 0.546875,-0.65625 0.3125,-0.28125 0.703125,-0.4375 1.125,-0.4375 l 0,-0.3125 -1.78125,0 0,0.3125 c 0.203125,0.046875 0.28125,0.140625 0.28125,0.3125 0,0.28125 -0.3125,0.546875 -0.484375,0.765625 -0.078125,0.09375 -0.21875,0.296875 -0.265625,0.296875 -0.0625,0 -0.203125,-0.21875 -0.296875,-0.328125 -0.21875,-0.28125 -0.5625,-0.640625 -0.5625,-0.8125 0,-0.140625 0.21875,-0.234375 0.34375,-0.234375 l 0,-0.3125 z m 0,0"
               id="path4899" />
          </symbol>
          <symbol
             style="overflow:visible"
             overflow="visible"
             id="textext-9f2fe10b-4">
            <path
               inkscape:connector-curvature="0"
               style="stroke:none"
               d="m 2.359375,-6.65625 c -1.9375,0.171875 -1.96875,2.53125 -1.96875,3.5 0,0.9375 0.078125,2.015625 0.703125,2.75 0.328125,0.390625 0.875,0.625 1.375,0.625 0.84375,0 1.515625,-0.546875 1.8125,-1.3125 0.28125,-0.6875 0.296875,-1.453125 0.296875,-2.171875 0,-0.9375 -0.09375,-2.078125 -0.703125,-2.765625 C 3.53125,-6.421875 3,-6.65625 2.5,-6.65625 c -0.0625,0 -0.09375,0 -0.140625,0 z M 1.21875,-2.578125 c 0,-0.09375 0,-0.171875 0,-0.265625 l 0,-0.46875 c 0,-0.484375 0,-0.953125 0.046875,-1.4375 0.03125,-0.375 0.0625,-0.796875 0.28125,-1.125 0.21875,-0.328125 0.5625,-0.5625 0.953125,-0.5625 1.171875,0 1.25,1.46875 1.25,2.453125 l 0,0.46875 c 0,0.265625 0.015625,0.5625 0.015625,0.859375 0,1.265625 -0.171875,2.640625 -1.265625,2.640625 -1.34375,0 -1.21875,-1.921875 -1.28125,-2.5625 z m 0,0"
               id="path4902" />
          </symbol>
        </g>
      </defs>
      <g
         id="textext-9f2fe10b-5">
        <g
           style="fill:#000000;fill-opacity:1"
           id="g4905">
          <use
             height="100%"
             width="100%"
             xlink:href="#textext-9f2fe10b-1"
             x="223.43201"
             y="134.765"
             id="use4907" />
          <use
             height="100%"
             width="100%"
             xlink:href="#textext-9f2fe10b-2"
             x="228.96523"
             y="134.765"
             id="use4909" />
          <use
             height="100%"
             width="100%"
             xlink:href="#textext-9f2fe10b-3"
             x="233.39162"
             y="134.765"
             id="use4911" />
          <use
             height="100%"
             width="100%"
             xlink:href="#textext-9f2fe10b-4"
             x="238.64888"
             y="134.765"
             id="use4913" />
        </g>
      </g>
    </g>
    <g
       id="g5135"
       ns0:preamble="/home/bqwer/textext.preamble.tex"
       ns0:text="hex1"
       transform="translate(-59.820933,830.99343)">
      <defs
         id="defs5137">
        <g
           id="g5139">
          <symbol
             style="overflow:visible"
             id="textext-2122a875-0"
             overflow="visible">
            <path
               inkscape:connector-curvature="0"
               id="path5142"
               d=""
               style="stroke:none" />
          </symbol>
          <symbol
             style="overflow:visible"
             id="textext-2122a875-1"
             overflow="visible">
            <path
               inkscape:connector-curvature="0"
               id="path5145"
               d="m 0.3125,-6.8125 0,0.296875 0.15625,0 c 0.375,0 0.625,0.046875 0.625,0.53125 l 0,5.03125 c 0,0.0625 0.015625,0.140625 0.015625,0.21875 0,0.375 -0.265625,0.421875 -0.546875,0.421875 l -0.25,0 0,0.296875 2.265625,0 0,-0.296875 -0.265625,0 c -0.28125,0 -0.515625,-0.046875 -0.515625,-0.421875 l 0,-1.8125 c 0,-0.71875 0.359375,-1.640625 1.359375,-1.640625 0.625,0 0.6875,0.6875 0.6875,1.109375 l 0,2.390625 c 0,0.34375 -0.28125,0.375 -0.59375,0.375 l -0.171875,0 0,0.296875 2.25,0 0,-0.296875 -0.25,0 c -0.265625,0 -0.53125,-0.046875 -0.53125,-0.390625 l 0,-2.171875 c 0,-0.328125 -0.015625,-0.65625 -0.15625,-0.96875 -0.25,-0.4375 -0.734375,-0.5625 -1.203125,-0.5625 -0.578125,0 -1.21875,0.390625 -1.40625,0.953125 l -0.015625,-3.46875 z m 0,0"
               style="stroke:none" />
          </symbol>
          <symbol
             style="overflow:visible"
             id="textext-2122a875-2"
             overflow="visible">
            <path
               inkscape:connector-curvature="0"
               id="path5148"
               d="m 1.109375,-2.3125 2.875,0 c 0.109375,0 0.15625,-0.0625 0.15625,-0.1875 0,-1.046875 -0.640625,-1.96875 -1.765625,-1.96875 -1.21875,0 -2.09375,1.09375 -2.09375,2.28125 0,0.90625 0.5,1.734375 1.390625,2.125 0.21875,0.109375 0.484375,0.15625 0.734375,0.15625 l 0.03125,0 c 0.765625,0 1.40625,-0.421875 1.671875,-1.1875 C 4.125,-1.125 4.125,-1.171875 4.125,-1.203125 4.125,-1.265625 4.09375,-1.3125 4.015625,-1.3125 3.875,-1.3125 3.8125,-0.984375 3.75,-0.875 3.5,-0.4375 3.015625,-0.15625 2.5,-0.15625 c -0.359375,0 -0.6875,-0.203125 -0.953125,-0.46875 -0.40625,-0.46875 -0.4375,-1.109375 -0.4375,-1.6875 z M 1.125,-2.515625 C 1.125,-3.296875 1.53125,-4.25 2.359375,-4.25 l 0.046875,0 c 0.96875,0.09375 0.96875,1.125 1.0625,1.734375 z m 0,0"
               style="stroke:none" />
          </symbol>
          <symbol
             style="overflow:visible"
             id="textext-2122a875-3"
             overflow="visible">
            <path
               inkscape:connector-curvature="0"
               id="path5151"
               d="m 0.171875,-4.296875 0,0.3125 0.203125,0 c 0.515625,0 0.65625,0.203125 0.875,0.5 l 0.9375,1.21875 c 0.046875,0.046875 0.125,0.125 0.125,0.1875 -0.015625,0.046875 -0.09375,0.125 -0.125,0.171875 -0.59375,0.6875 -1.03125,1.59375 -2.0625,1.59375 l 0,0.296875 1.78125,0 0,-0.296875 c -0.1875,0 -0.296875,-0.1875 -0.296875,-0.328125 0,-0.203125 0.15625,-0.34375 0.28125,-0.484375 C 2,-1.28125 2.125,-1.4375 2.25,-1.578125 2.328125,-1.6875 2.421875,-1.78125 2.484375,-1.890625 2.734375,-1.609375 2.9375,-1.296875 3.15625,-1 l 0.1875,0.25 c 0.046875,0.046875 0.109375,0.109375 0.109375,0.1875 0,0.15625 -0.21875,0.25 -0.359375,0.25 l 0,0.296875 2.046875,0 0,-0.296875 -0.171875,0 c -0.171875,0 -0.359375,-0.015625 -0.515625,-0.09375 C 4.28125,-0.5 4.15625,-0.6875 4.03125,-0.84375 c -0.328125,-0.4375 -0.671875,-0.875 -1,-1.3125 L 2.9375,-2.265625 c -0.015625,-0.03125 -0.03125,-0.0625 -0.046875,-0.09375 0,-0.046875 0.0625,-0.109375 0.09375,-0.15625 l 0.3125,-0.375 c 0.1875,-0.21875 0.34375,-0.453125 0.546875,-0.65625 0.3125,-0.28125 0.703125,-0.4375 1.125,-0.4375 l 0,-0.3125 -1.78125,0 0,0.3125 c 0.203125,0.046875 0.28125,0.140625 0.28125,0.3125 0,0.28125 -0.3125,0.546875 -0.484375,0.765625 -0.078125,0.09375 -0.21875,0.296875 -0.265625,0.296875 -0.0625,0 -0.203125,-0.21875 -0.296875,-0.328125 -0.21875,-0.28125 -0.5625,-0.640625 -0.5625,-0.8125 0,-0.140625 0.21875,-0.234375 0.34375,-0.234375 l 0,-0.3125 z m 0,0"
               style="stroke:none" />
          </symbol>
          <symbol
             style="overflow:visible"
             id="textext-2122a875-4"
             overflow="visible">
            <path
               inkscape:connector-curvature="0"
               id="path5154"
               d="m 0.890625,-6.015625 0,0.3125 c 0.4375,0 0.90625,-0.046875 1.296875,-0.265625 l 0,5.21875 c 0,0.375 -0.375,0.4375 -0.765625,0.4375 -0.171875,0 -0.328125,0 -0.46875,0 l 0,0.296875 3.234375,0 0,-0.296875 c -0.171875,0 -0.34375,0 -0.5,0 -0.390625,0 -0.75,-0.0625 -0.75,-0.4375 l 0,-5.734375 C 2.9375,-6.578125 2.90625,-6.65625 2.796875,-6.65625 2.65625,-6.65625 2.5,-6.453125 2.375,-6.375 1.9375,-6.09375 1.40625,-6.015625 0.890625,-6.015625 Z m 0,0"
               style="stroke:none" />
          </symbol>
        </g>
      </defs>
      <g
         id="textext-2122a875-5">
        <g
           id="g5157"
           style="fill:#000000;fill-opacity:1">
          <use
             height="100%"
             width="100%"
             id="use5159"
             y="134.765"
             x="223.43201"
             xlink:href="#textext-2122a875-1" />
          <use
             height="100%"
             width="100%"
             id="use5161"
             y="134.765"
             x="228.96523"
             xlink:href="#textext-2122a875-2" />
          <use
             height="100%"
             width="100%"
             id="use5163"
             y="134.765"
             x="233.39162"
             xlink:href="#textext-2122a875-3" />
          <use
             height="100%"
             width="100%"
             id="use5165"
             y="134.765"
             x="238.64888"
             xlink:href="#textext-2122a875-4" />
        </g>
      </g>
    </g>
    <g
       transform="translate(-60.126884,857.48144)"
       ns0:text="hex2"
       ns0:preamble="/home/bqwer/textext.preamble.tex"
       id="g5425">
      <defs
         id="defs5427">
        <g
           id="g5429">
          <symbol
             style="overflow:visible"
             overflow="visible"
             id="textext-a5c24c1d-0">
            <path
               inkscape:connector-curvature="0"
               style="stroke:none"
               d=""
               id="path5432" />
          </symbol>
          <symbol
             style="overflow:visible"
             overflow="visible"
             id="textext-a5c24c1d-1">
            <path
               inkscape:connector-curvature="0"
               style="stroke:none"
               d="m 0.3125,-6.8125 0,0.296875 0.15625,0 c 0.375,0 0.625,0.046875 0.625,0.53125 l 0,5.03125 c 0,0.0625 0.015625,0.140625 0.015625,0.21875 0,0.375 -0.265625,0.421875 -0.546875,0.421875 l -0.25,0 0,0.296875 2.265625,0 0,-0.296875 -0.265625,0 c -0.28125,0 -0.515625,-0.046875 -0.515625,-0.421875 l 0,-1.8125 c 0,-0.71875 0.359375,-1.640625 1.359375,-1.640625 0.625,0 0.6875,0.6875 0.6875,1.109375 l 0,2.390625 c 0,0.34375 -0.28125,0.375 -0.59375,0.375 l -0.171875,0 0,0.296875 2.25,0 0,-0.296875 -0.25,0 c -0.265625,0 -0.53125,-0.046875 -0.53125,-0.390625 l 0,-2.171875 c 0,-0.328125 -0.015625,-0.65625 -0.15625,-0.96875 -0.25,-0.4375 -0.734375,-0.5625 -1.203125,-0.5625 -0.578125,0 -1.21875,0.390625 -1.40625,0.953125 l -0.015625,-3.46875 z m 0,0"
               id="path5435" />
          </symbol>
          <symbol
             style="overflow:visible"
             overflow="visible"
             id="textext-a5c24c1d-2">
            <path
               inkscape:connector-curvature="0"
               style="stroke:none"
               d="m 1.109375,-2.3125 2.875,0 c 0.109375,0 0.15625,-0.0625 0.15625,-0.1875 0,-1.046875 -0.640625,-1.96875 -1.765625,-1.96875 -1.21875,0 -2.09375,1.09375 -2.09375,2.28125 0,0.90625 0.5,1.734375 1.390625,2.125 0.21875,0.109375 0.484375,0.15625 0.734375,0.15625 l 0.03125,0 c 0.765625,0 1.40625,-0.421875 1.671875,-1.1875 C 4.125,-1.125 4.125,-1.171875 4.125,-1.203125 4.125,-1.265625 4.09375,-1.3125 4.015625,-1.3125 3.875,-1.3125 3.8125,-0.984375 3.75,-0.875 3.5,-0.4375 3.015625,-0.15625 2.5,-0.15625 c -0.359375,0 -0.6875,-0.203125 -0.953125,-0.46875 -0.40625,-0.46875 -0.4375,-1.109375 -0.4375,-1.6875 z M 1.125,-2.515625 C 1.125,-3.296875 1.53125,-4.25 2.359375,-4.25 l 0.046875,0 c 0.96875,0.09375 0.96875,1.125 1.0625,1.734375 z m 0,0"
               id="path5438" />
          </symbol>
          <symbol
             style="overflow:visible"
             overflow="visible"
             id="textext-a5c24c1d-3">
            <path
               inkscape:connector-curvature="0"
               style="stroke:none"
               d="m 0.171875,-4.296875 0,0.3125 0.203125,0 c 0.515625,0 0.65625,0.203125 0.875,0.5 l 0.9375,1.21875 c 0.046875,0.046875 0.125,0.125 0.125,0.1875 -0.015625,0.046875 -0.09375,0.125 -0.125,0.171875 -0.59375,0.6875 -1.03125,1.59375 -2.0625,1.59375 l 0,0.296875 1.78125,0 0,-0.296875 c -0.1875,0 -0.296875,-0.1875 -0.296875,-0.328125 0,-0.203125 0.15625,-0.34375 0.28125,-0.484375 C 2,-1.28125 2.125,-1.4375 2.25,-1.578125 2.328125,-1.6875 2.421875,-1.78125 2.484375,-1.890625 2.734375,-1.609375 2.9375,-1.296875 3.15625,-1 l 0.1875,0.25 c 0.046875,0.046875 0.109375,0.109375 0.109375,0.1875 0,0.15625 -0.21875,0.25 -0.359375,0.25 l 0,0.296875 2.046875,0 0,-0.296875 -0.171875,0 c -0.171875,0 -0.359375,-0.015625 -0.515625,-0.09375 C 4.28125,-0.5 4.15625,-0.6875 4.03125,-0.84375 c -0.328125,-0.4375 -0.671875,-0.875 -1,-1.3125 L 2.9375,-2.265625 c -0.015625,-0.03125 -0.03125,-0.0625 -0.046875,-0.09375 0,-0.046875 0.0625,-0.109375 0.09375,-0.15625 l 0.3125,-0.375 c 0.1875,-0.21875 0.34375,-0.453125 0.546875,-0.65625 0.3125,-0.28125 0.703125,-0.4375 1.125,-0.4375 l 0,-0.3125 -1.78125,0 0,0.3125 c 0.203125,0.046875 0.28125,0.140625 0.28125,0.3125 0,0.28125 -0.3125,0.546875 -0.484375,0.765625 -0.078125,0.09375 -0.21875,0.296875 -0.265625,0.296875 -0.0625,0 -0.203125,-0.21875 -0.296875,-0.328125 -0.21875,-0.28125 -0.5625,-0.640625 -0.5625,-0.8125 0,-0.140625 0.21875,-0.234375 0.34375,-0.234375 l 0,-0.3125 z m 0,0"
               id="path5441" />
          </symbol>
          <symbol
             style="overflow:visible"
             overflow="visible"
             id="textext-a5c24c1d-4">
            <path
               inkscape:connector-curvature="0"
               style="stroke:none"
               d="M 0.890625,-5.328125 C 1.125,-5.828125 1.5,-6.34375 2.21875,-6.34375 c 0.9375,0 1.34375,0.859375 1.34375,1.640625 0,0.921875 -0.609375,1.671875 -1.1875,2.328125 -0.5625,0.671875 -1.171875,1.3125 -1.75,1.96875 C 0.53125,-0.3125 0.5,-0.265625 0.5,-0.125 l 0,0.109375 3.703125,0 L 4.46875,-1.75 l -0.234375,0 c -0.09375,0.453125 -0.03125,0.953125 -0.546875,0.953125 l -0.390625,0 C 3,-0.78125 2.71875,-0.78125 2.421875,-0.78125 c -0.390625,0 -0.765625,0 -1.140625,0 l 0.6875,-0.671875 c 0.28125,-0.265625 0.546875,-0.53125 0.828125,-0.78125 0.734375,-0.65625 1.671875,-1.375 1.671875,-2.484375 0,-1.125 -0.953125,-1.9375 -2.078125,-1.9375 C 1.4375,-6.65625 0.5,-5.9375 0.5,-4.859375 c 0,0.25 0.09375,0.5625 0.515625,0.5625 0.296875,0 0.53125,-0.203125 0.53125,-0.515625 0,-0.265625 -0.203125,-0.515625 -0.515625,-0.515625 -0.046875,0 -0.09375,0 -0.140625,0 z m 0,0"
               id="path5444" />
          </symbol>
        </g>
      </defs>
      <g
         id="textext-a5c24c1d-5">
        <g
           style="fill:#000000;fill-opacity:1"
           id="g5447">
          <use
             height="100%"
             width="100%"
             xlink:href="#textext-a5c24c1d-1"
             x="223.43201"
             y="134.765"
             id="use5449" />
          <use
             height="100%"
             width="100%"
             xlink:href="#textext-a5c24c1d-2"
             x="228.96523"
             y="134.765"
             id="use5451" />
          <use
             height="100%"
             width="100%"
             xlink:href="#textext-a5c24c1d-3"
             x="233.39162"
             y="134.765"
             id="use5453" />
          <use
             height="100%"
             width="100%"
             xlink:href="#textext-a5c24c1d-4"
             x="238.64888"
             y="134.765"
             id="use5455" />
        </g>
      </g>
    </g>
    <g
       id="g5753"
       ns0:preamble="/home/bqwer/textext.preamble.tex"
       ns0:text="hex3"
       transform="translate(-60.195122,884.13835)">
      <defs
         id="defs5755">
        <g
           id="g5757">
          <symbol
             style="overflow:visible"
             id="textext-0cce1ce4-0"
             overflow="visible">
            <path
               inkscape:connector-curvature="0"
               id="path5760"
               d=""
               style="stroke:none" />
          </symbol>
          <symbol
             style="overflow:visible"
             id="textext-0cce1ce4-1"
             overflow="visible">
            <path
               inkscape:connector-curvature="0"
               id="path5763"
               d="m 0.3125,-6.8125 0,0.296875 0.15625,0 c 0.375,0 0.625,0.046875 0.625,0.53125 l 0,5.03125 c 0,0.0625 0.015625,0.140625 0.015625,0.21875 0,0.375 -0.265625,0.421875 -0.546875,0.421875 l -0.25,0 0,0.296875 2.265625,0 0,-0.296875 -0.265625,0 c -0.28125,0 -0.515625,-0.046875 -0.515625,-0.421875 l 0,-1.8125 c 0,-0.71875 0.359375,-1.640625 1.359375,-1.640625 0.625,0 0.6875,0.6875 0.6875,1.109375 l 0,2.390625 c 0,0.34375 -0.28125,0.375 -0.59375,0.375 l -0.171875,0 0,0.296875 2.25,0 0,-0.296875 -0.25,0 c -0.265625,0 -0.53125,-0.046875 -0.53125,-0.390625 l 0,-2.171875 c 0,-0.328125 -0.015625,-0.65625 -0.15625,-0.96875 -0.25,-0.4375 -0.734375,-0.5625 -1.203125,-0.5625 -0.578125,0 -1.21875,0.390625 -1.40625,0.953125 l -0.015625,-3.46875 z m 0,0"
               style="stroke:none" />
          </symbol>
          <symbol
             style="overflow:visible"
             id="textext-0cce1ce4-2"
             overflow="visible">
            <path
               inkscape:connector-curvature="0"
               id="path5766"
               d="m 1.109375,-2.3125 2.875,0 c 0.109375,0 0.15625,-0.0625 0.15625,-0.1875 0,-1.046875 -0.640625,-1.96875 -1.765625,-1.96875 -1.21875,0 -2.09375,1.09375 -2.09375,2.28125 0,0.90625 0.5,1.734375 1.390625,2.125 0.21875,0.109375 0.484375,0.15625 0.734375,0.15625 l 0.03125,0 c 0.765625,0 1.40625,-0.421875 1.671875,-1.1875 C 4.125,-1.125 4.125,-1.171875 4.125,-1.203125 4.125,-1.265625 4.09375,-1.3125 4.015625,-1.3125 3.875,-1.3125 3.8125,-0.984375 3.75,-0.875 3.5,-0.4375 3.015625,-0.15625 2.5,-0.15625 c -0.359375,0 -0.6875,-0.203125 -0.953125,-0.46875 -0.40625,-0.46875 -0.4375,-1.109375 -0.4375,-1.6875 z M 1.125,-2.515625 C 1.125,-3.296875 1.53125,-4.25 2.359375,-4.25 l 0.046875,0 c 0.96875,0.09375 0.96875,1.125 1.0625,1.734375 z m 0,0"
               style="stroke:none" />
          </symbol>
          <symbol
             style="overflow:visible"
             id="textext-0cce1ce4-3"
             overflow="visible">
            <path
               inkscape:connector-curvature="0"
               id="path5769"
               d="m 0.171875,-4.296875 0,0.3125 0.203125,0 c 0.515625,0 0.65625,0.203125 0.875,0.5 l 0.9375,1.21875 c 0.046875,0.046875 0.125,0.125 0.125,0.1875 -0.015625,0.046875 -0.09375,0.125 -0.125,0.171875 -0.59375,0.6875 -1.03125,1.59375 -2.0625,1.59375 l 0,0.296875 1.78125,0 0,-0.296875 c -0.1875,0 -0.296875,-0.1875 -0.296875,-0.328125 0,-0.203125 0.15625,-0.34375 0.28125,-0.484375 C 2,-1.28125 2.125,-1.4375 2.25,-1.578125 2.328125,-1.6875 2.421875,-1.78125 2.484375,-1.890625 2.734375,-1.609375 2.9375,-1.296875 3.15625,-1 l 0.1875,0.25 c 0.046875,0.046875 0.109375,0.109375 0.109375,0.1875 0,0.15625 -0.21875,0.25 -0.359375,0.25 l 0,0.296875 2.046875,0 0,-0.296875 -0.171875,0 c -0.171875,0 -0.359375,-0.015625 -0.515625,-0.09375 C 4.28125,-0.5 4.15625,-0.6875 4.03125,-0.84375 c -0.328125,-0.4375 -0.671875,-0.875 -1,-1.3125 L 2.9375,-2.265625 c -0.015625,-0.03125 -0.03125,-0.0625 -0.046875,-0.09375 0,-0.046875 0.0625,-0.109375 0.09375,-0.15625 l 0.3125,-0.375 c 0.1875,-0.21875 0.34375,-0.453125 0.546875,-0.65625 0.3125,-0.28125 0.703125,-0.4375 1.125,-0.4375 l 0,-0.3125 -1.78125,0 0,0.3125 c 0.203125,0.046875 0.28125,0.140625 0.28125,0.3125 0,0.28125 -0.3125,0.546875 -0.484375,0.765625 -0.078125,0.09375 -0.21875,0.296875 -0.265625,0.296875 -0.0625,0 -0.203125,-0.21875 -0.296875,-0.328125 -0.21875,-0.28125 -0.5625,-0.640625 -0.5625,-0.8125 0,-0.140625 0.21875,-0.234375 0.34375,-0.234375 l 0,-0.3125 z m 0,0"
               style="stroke:none" />
          </symbol>
          <symbol
             style="overflow:visible"
             id="textext-0cce1ce4-4"
             overflow="visible">
            <path
               inkscape:connector-curvature="0"
               id="path5772"
               d="m 1.09375,-5.78125 c 0.328125,-0.46875 0.875,-0.625 1.40625,-0.625 0.59375,0 0.859375,0.609375 0.859375,1.109375 0,0.625 -0.203125,1.4375 -0.875,1.640625 -0.234375,0.0625 -0.8125,-0.015625 -0.8125,0.171875 l 0,0.03125 C 1.671875,-3.375 1.75,-3.375 1.828125,-3.375 l 0.109375,0 c 0.109375,0 0.234375,0 0.359375,0 0.96875,0 1.234375,0.921875 1.234375,1.640625 l 0,0.15625 C 3.515625,-0.953125 3.234375,-0.0625 2.375,-0.0625 c -0.546875,0 -1.203125,-0.265625 -1.5,-0.78125 0.03125,0 0.0625,0.015625 0.109375,0.015625 0.3125,0 0.546875,-0.25 0.546875,-0.5625 0,-0.28125 -0.203125,-0.5 -0.46875,-0.546875 l -0.0625,0 c -0.40625,0 -0.578125,0.28125 -0.578125,0.59375 0,1.046875 1.125,1.546875 2,1.546875 1.078125,0 2.140625,-0.78125 2.140625,-1.921875 0,-0.9375 -0.796875,-1.640625 -1.6875,-1.796875 0.734375,-0.265625 1.40625,-0.875 1.40625,-1.734375 0,-0.875 -0.90625,-1.40625 -1.84375,-1.40625 -0.765625,0 -1.75,0.421875 -1.75,1.375 0,0.3125 0.234375,0.5 0.515625,0.5 0.265625,0 0.484375,-0.1875 0.484375,-0.5 0,-0.296875 -0.21875,-0.5 -0.515625,-0.5 z m 0,0"
               style="stroke:none" />
          </symbol>
        </g>
      </defs>
      <g
         id="textext-0cce1ce4-5">
        <g
           id="g5775"
           style="fill:#000000;fill-opacity:1">
          <use
             height="100%"
             width="100%"
             id="use5777"
             y="134.765"
             x="223.43201"
             xlink:href="#textext-0cce1ce4-1" />
          <use
             height="100%"
             width="100%"
             id="use5779"
             y="134.765"
             x="228.96523"
             xlink:href="#textext-0cce1ce4-2" />
          <use
             height="100%"
             width="100%"
             id="use5781"
             y="134.765"
             x="233.39162"
             xlink:href="#textext-0cce1ce4-3" />
          <use
             height="100%"
             width="100%"
             id="use5783"
             y="134.765"
             x="238.64888"
             xlink:href="#textext-0cce1ce4-4" />
        </g>
      </g>
    </g>
  </g>
</svg>
