<?xml version="1.0" encoding="UTF-8" standalone="no"?>
<!-- Created with Inkscape (http://www.inkscape.org/) -->

<svg
   xmlns:ns0="http://www.iki.fi/pav/software/textext/"
   xmlns:dc="http://purl.org/dc/elements/1.1/"
   xmlns:cc="http://creativecommons.org/ns#"
   xmlns:rdf="http://www.w3.org/1999/02/22-rdf-syntax-ns#"
   xmlns:svg="http://www.w3.org/2000/svg"
   xmlns="http://www.w3.org/2000/svg"
   xmlns:xlink="http://www.w3.org/1999/xlink"
   xmlns:sodipodi="http://sodipodi.sourceforge.net/DTD/sodipodi-0.dtd"
   xmlns:inkscape="http://www.inkscape.org/namespaces/inkscape"
   width="183"
   height="95"
   viewBox="0 0 183.00002 95.000001"
   id="svg7479"
   version="1.1"
   inkscape:version="0.91 r13725"
   sodipodi:docname="sync_reset.svg">
  <sodipodi:namedview
     id="base"
     pagecolor="#ffffff"
     bordercolor="#666666"
     borderopacity="1.0"
     inkscape:pageopacity="0.0"
     inkscape:pageshadow="2"
     inkscape:zoom="3.959798"
     inkscape:cx="91.18904"
     inkscape:cy="61.430388"
     inkscape:document-units="px"
     inkscape:current-layer="layer1"
     showgrid="true"
     inkscape:object-paths="true"
     inkscape:snap-intersection-paths="true"
     inkscape:object-nodes="true"
     inkscape:snap-smooth-nodes="true"
     inkscape:snap-midpoints="true"
     inkscape:snap-grids="false"
     inkscape:window-width="1920"
     inkscape:window-height="901"
     inkscape:window-x="0"
     inkscape:window-y="25"
     inkscape:window-maximized="1"
     units="px">
    <inkscape:grid
       type="xygrid"
       id="grid7487" />
  </sodipodi:namedview>
  <defs
     id="defs7481" />
  <metadata
     id="metadata7484">
    <rdf:RDF>
      <cc:Work
         rdf:about="">
        <dc:format>image/svg+xml</dc:format>
        <dc:type
           rdf:resource="http://purl.org/dc/dcmitype/StillImage" />
        <dc:title></dc:title>
      </cc:Work>
    </rdf:RDF>
  </metadata>
  <g
     inkscape:label="Layer 1"
     inkscape:groupmode="layer"
     id="layer1"
     transform="translate(0,-957.36217)">
    <rect
       style="opacity:1;fill:#000000;fill-opacity:0;stroke:#000000;stroke-width:1.00000012;stroke-miterlimit:4;stroke-dasharray:none;stroke-opacity:1"
       id="rect7489"
       width="39.543999"
       height="69.521805"
       x="126.50001"
       y="974.98315" />
    <path
       style="fill:none;fill-rule:evenodd;stroke:#000000;stroke-width:1.00000012;stroke-linecap:butt;stroke-linejoin:miter;stroke-miterlimit:4;stroke-dasharray:none;stroke-opacity:1"
       d="m 126.50002,987.97316 -24.76607,0"
       id="path8033"
       inkscape:connector-curvature="0" />
    <path
       style="fill:none;fill-rule:evenodd;stroke:#000000;stroke-width:1.00000012;stroke-linecap:butt;stroke-linejoin:miter;stroke-miterlimit:4;stroke-dasharray:none;stroke-opacity:1"
       d="m 126.39021,1038.3714 6.85647,-6.8564 -6.85647,-6.8565"
       id="path8045"
       inkscape:connector-curvature="0" />
    <path
       style="fill:none;fill-rule:evenodd;stroke:#000000;stroke-width:1.00000012;stroke-linecap:butt;stroke-linejoin:miter;stroke-miterlimit:4;stroke-dasharray:none;stroke-opacity:1"
       d="m 181.62891,987.97315 -15.58491,0"
       id="path8033-6"
       inkscape:connector-curvature="0" />
    <g
       transform="matrix(0.89517353,0,0,0.89517353,-68.481146,866.75954)"
       ns0:text="D"
       ns0:preamble="/home/bqwer/workbook git/textext_preamble.tex"
       id="g4503"
       style="stroke-width:1.11710191;stroke-miterlimit:4;stroke-dasharray:none">
      <defs
         id="defs4505">
        <g
           id="g4507">
          <symbol
             style="overflow:visible"
             overflow="visible"
             id="textext-c3690971-0">
            <path
               inkscape:connector-curvature="0"
               style="stroke:none"
               d="m 0.5,1.765625 4.984375,0 0,-8.796875 -4.984375,0 z m 0.5625,-0.5625 0,-7.671875 3.859375,0 0,7.671875 z m 0,0"
               id="path4510" />
          </symbol>
          <symbol
             style="overflow:visible"
             overflow="visible"
             id="textext-c3690971-1">
            <path
               inkscape:connector-curvature="0"
               style="stroke:none"
               d="m 6.296875,-3.640625 c 0,1.96875 -1,3.125 -2.921875,3.125 l -0.90625,0 0,-6.234375 0.90625,0 c 1.921875,0 2.921875,1.140625 2.921875,3.109375 z m 1.125,0 c 0,-2.34375 -1.578125,-3.625 -3.984375,-3.625 l -2.890625,0 0,0.515625 0.921875,0 0,6.234375 -0.921875,0 0,0.515625 2.890625,0 c 2.40625,0 3.984375,-1.28125 3.984375,-3.640625 z m 0,0"
               id="path4513" />
          </symbol>
        </g>
      </defs>
      <g
         id="textext-c3690971-2"
         style="stroke-width:1.11710191;stroke-miterlimit:4;stroke-dasharray:none">
        <g
           style="fill:#000000;fill-opacity:1;stroke-width:1.11710191;stroke-miterlimit:4;stroke-dasharray:none"
           id="g4516">
          <use
             height="100%"
             width="100%"
             xlink:href="#textext-c3690971-1"
             x="223.43201"
             y="134.765"
             id="use4518"
             style="stroke-width:1.11710191;stroke-miterlimit:4;stroke-dasharray:none" />
        </g>
      </g>
    </g>
    <path
       style="fill:none;fill-rule:evenodd;stroke:#000000;stroke-width:1.00000012;stroke-linecap:butt;stroke-linejoin:miter;stroke-miterlimit:4;stroke-dasharray:none;stroke-opacity:1"
       d="m 83.053458,1015.9939 0,-56.04148 18.680492,6.22683 0,43.58785 z"
       id="path5772"
       inkscape:connector-curvature="0"
       sodipodi:nodetypes="ccccc" />
    <path
       style="fill:none;fill-rule:evenodd;stroke:#000000;stroke-width:1.00000012;stroke-linecap:butt;stroke-linejoin:miter;stroke-miterlimit:4;stroke-dasharray:none;stroke-opacity:1"
       d="m 126.50002,1031.515 -17.21026,0 -0.20502,16.3691 -52.584742,0"
       id="path4289"
       inkscape:connector-curvature="0" />
    <path
       style="fill:none;fill-rule:evenodd;stroke:#000000;stroke-width:1.00000012;stroke-linecap:butt;stroke-linejoin:miter;stroke-miterlimit:4;stroke-dasharray:none;stroke-opacity:1"
       d="m 92.393688,1012.8805 0,15.0036 -35.89369,0"
       id="path4291"
       inkscape:connector-curvature="0" />
    <path
       style="fill:none;fill-rule:evenodd;stroke:#000000;stroke-width:1.00000012;stroke-linecap:butt;stroke-linejoin:miter;stroke-miterlimit:4;stroke-dasharray:none;stroke-opacity:1"
       d="m 83.053458,1015.9939 0,-28.02071"
       id="path4293"
       inkscape:connector-curvature="0" />
    <path
       style="fill:none;fill-rule:evenodd;stroke:#000000;stroke-width:1.00000012;stroke-linecap:butt;stroke-linejoin:miter;stroke-miterlimit:4;stroke-dasharray:none;stroke-opacity:1"
       d="m 83.053438,973.96271 -16.55344,0"
       id="path4295"
       inkscape:connector-curvature="0" />
    <path
       style="fill:none;fill-rule:evenodd;stroke:#000000;stroke-width:1.00000012;stroke-linecap:butt;stroke-linejoin:miter;stroke-miterlimit:4;stroke-dasharray:none;stroke-opacity:1"
       d="m 83.053448,1001.9835 -16.55345,0"
       id="path4297"
       inkscape:connector-curvature="0" />
    <g
       transform="translate(-181.02887,842.84371)"
       ns0:text="data"
       ns0:preamble="/home/bqwer/make/textext_preamble.tex"
       id="g4180">
      <defs
         id="defs4182">
        <g
           id="g4184">
          <symbol
             style="overflow:visible"
             overflow="visible"
             id="textext-d7fb38ce-0">
            <path
               inkscape:connector-curvature="0"
               style="stroke:none"
               d="m 0.5,1.765625 4.984375,0 0,-8.796875 -4.984375,0 z m 0.5625,-0.5625 0,-7.671875 3.859375,0 0,7.671875 z m 0,0"
               id="path4187" />
          </symbol>
          <symbol
             style="overflow:visible"
             overflow="visible"
             id="textext-d7fb38ce-1">
            <path
               inkscape:connector-curvature="0"
               style="stroke:none"
               d="m 4.34375,-0.8125 0,0.8125 1.75,0 0,-0.515625 -0.859375,0 0,-7.0625 -1.75,0 0,0.515625 0.859375,0 0,2.703125 C 4.015625,-4.96875 3.53125,-5.3125 2.65625,-5.3125 c -0.625,0 -1.15625,0.25 -1.5625,0.75 C 0.703125,-4.0625 0.5,-3.40625 0.5,-2.59375 c 0,0.8125 0.203125,1.46875 0.609375,1.96875 0.40625,0.515625 0.921875,0.765625 1.546875,0.765625 0.875,0 1.359375,-0.34375 1.6875,-0.953125 z M 2.9375,-0.421875 c -1.078125,0 -1.390625,-0.96875 -1.390625,-2.171875 0,-1.1875 0.3125,-2.15625 1.390625,-2.15625 1.015625,0 1.40625,0.8125 1.40625,1.90625 l 0,0.515625 c 0,1.09375 -0.390625,1.90625 -1.40625,1.90625 z m 0,0"
               id="path4190" />
          </symbol>
          <symbol
             style="overflow:visible"
             overflow="visible"
             id="textext-d7fb38ce-2">
            <path
               inkscape:connector-curvature="0"
               style="stroke:none"
               d="M 2.71875,-0.375 C 1.984375,-0.375 1.5,-0.828125 1.5,-1.5625 1.5,-2.375 1.96875,-2.71875 2.8125,-2.71875 l 1.15625,0 0,1.09375 c 0,0.734375 -0.515625,1.25 -1.25,1.25 z m -0.0625,-4.9375 c -0.671875,0 -1.234375,0.171875 -1.765625,0.390625 l 0,1.046875 0.46875,0 c 0.09375,-0.625 0.515625,-0.953125 1.25,-0.953125 0.8125,0 1.359375,0.40625 1.359375,1.234375 l 0,0.359375 -1.25,0 c -1.265625,0 -2.21875,0.5 -2.21875,1.671875 0,1.078125 0.78125,1.703125 1.875,1.703125 0.75,0 1.234375,-0.265625 1.59375,-0.703125 l 0,0.5625 1.6875,0 0,-0.515625 -0.796875,0 0,-2.71875 c 0,-1.375 -0.796875,-2.078125 -2.203125,-2.078125 z m 0,0"
               id="path4193" />
          </symbol>
          <symbol
             style="overflow:visible"
             overflow="visible"
             id="textext-d7fb38ce-3">
            <path
               inkscape:connector-curvature="0"
               style="stroke:none"
               d="m 2.5,0.140625 c 0.953125,0 1.375,-0.4375 1.421875,-1.359375 l -0.671875,0 c -0.015625,0.546875 -0.15625,0.875 -0.671875,0.875 -0.234375,0 -0.390625,-0.0625 -0.46875,-0.1875 C 2.03125,-0.640625 1.96875,-0.921875 1.96875,-1.359375 l 0,-3.296875 1.6875,0 0,-0.515625 -1.6875,0 0,-1.609375 -0.890625,0 0,1.609375 -0.78125,0 0,0.515625 0.78125,0 0,3.296875 c 0,1.0625 0.359375,1.5 1.421875,1.5 z m 0,0"
               id="path4196" />
          </symbol>
        </g>
      </defs>
      <g
         id="textext-d7fb38ce-4">
        <g
           style="fill:#000000;fill-opacity:1"
           id="g4199">
          <use
             height="100%"
             width="100%"
             xlink:href="#textext-d7fb38ce-1"
             x="223.43201"
             y="134.765"
             id="use4201" />
          <use
             height="100%"
             width="100%"
             xlink:href="#textext-d7fb38ce-2"
             x="229.80907"
             y="134.765"
             id="use4203" />
          <use
             height="100%"
             width="100%"
             xlink:href="#textext-d7fb38ce-3"
             x="235.74876"
             y="134.765"
             id="use4205" />
          <use
             height="100%"
             width="100%"
             xlink:href="#textext-d7fb38ce-2"
             x="239.75273"
             y="134.765"
             id="use4207" />
        </g>
      </g>
    </g>
    <g
       id="g4293"
       ns0:preamble="/home/bqwer/make/textext_preamble.tex"
       ns0:text="0"
       transform="translate(-164.82309,870.75819)">
      <defs
         id="defs4295">
        <g
           id="g4297">
          <symbol
             style="overflow:visible"
             id="textext-9ee24be6-0"
             overflow="visible">
            <path
               inkscape:connector-curvature="0"
               id="path4300"
               d="m 0.5,1.765625 4.984375,0 0,-8.796875 -4.984375,0 z m 0.5625,-0.5625 0,-7.671875 3.859375,0 0,7.671875 z m 0,0"
               style="stroke:none" />
          </symbol>
          <symbol
             style="overflow:visible"
             id="textext-9ee24be6-1"
             overflow="visible">
            <path
               inkscape:connector-curvature="0"
               id="path4303"
               d="m 3.171875,-0.34375 c -0.5,0 -0.875,-0.265625 -1.125,-0.8125 -0.25,-0.546875 -0.359375,-1.375 -0.359375,-2.46875 0,-1.109375 0.109375,-1.921875 0.359375,-2.46875 0.25,-0.5625 0.625,-0.828125 1.125,-0.828125 0.5,0 0.859375,0.265625 1.109375,0.828125 0.25,0.546875 0.375,1.359375 0.375,2.46875 0,1.09375 -0.125,1.921875 -0.375,2.46875 -0.25,0.546875 -0.609375,0.8125 -1.109375,0.8125 z m 0,0.484375 c 0.78125,0 1.40625,-0.328125 1.84375,-0.984375 C 5.453125,-1.5 5.6875,-2.4375 5.6875,-3.625 c 0,-1.1875 -0.234375,-2.125 -0.671875,-2.78125 -0.4375,-0.65625 -1.0625,-0.984375 -1.84375,-0.984375 -0.796875,0 -1.40625,0.328125 -1.84375,0.984375 C 0.890625,-5.75 0.65625,-4.8125 0.65625,-3.625 c 0,1.1875 0.234375,2.125 0.671875,2.78125 0.4375,0.65625 1.046875,0.984375 1.84375,0.984375 z m 0,0"
               style="stroke:none" />
          </symbol>
        </g>
      </defs>
      <g
         id="textext-9ee24be6-2">
        <g
           id="g4306"
           style="fill:#000000;fill-opacity:1">
          <use
             height="100%"
             width="100%"
             id="use4308"
             y="134.765"
             x="223.43201"
             xlink:href="#textext-9ee24be6-1" />
        </g>
      </g>
    </g>
    <g
       transform="translate(-222.14618,895.36164)"
       ns0:text="sync\\_reset"
       ns0:preamble="/home/bqwer/make/textext_preamble.tex"
       id="g4414">
      <defs
         id="defs4416">
        <g
           id="g4418">
          <symbol
             style="overflow:visible"
             overflow="visible"
             id="textext-a6710aa7-0">
            <path
               inkscape:connector-curvature="0"
               style="stroke:none"
               d="m 0.5,1.765625 4.984375,0 0,-8.796875 -4.984375,0 z m 0.5625,-0.5625 0,-7.671875 3.859375,0 0,7.671875 z m 0,0"
               id="path4421" />
          </symbol>
          <symbol
             style="overflow:visible"
             overflow="visible"
             id="textext-a6710aa7-1">
            <path
               inkscape:connector-curvature="0"
               style="stroke:none"
               d="m 2.5,0.140625 c 1.15625,0 2.109375,-0.484375 2.109375,-1.578125 0,-0.359375 -0.109375,-0.65625 -0.328125,-0.890625 -0.21875,-0.21875 -0.578125,-0.40625 -1.0625,-0.5625 L 2.515625,-3.109375 C 2.078125,-3.25 1.78125,-3.375 1.640625,-3.515625 c -0.15625,-0.125 -0.21875,-0.296875 -0.21875,-0.515625 0,-0.609375 0.484375,-0.796875 1.140625,-0.796875 0.734375,0 1.21875,0.375 1.25,1.0625 l 0.515625,0 0,-1.125 C 3.78125,-5.125 3.203125,-5.3125 2.53125,-5.3125 c -1.109375,0 -1.96875,0.484375 -1.96875,1.515625 0,0.328125 0.109375,0.609375 0.3125,0.8125 0.1875,0.21875 0.515625,0.40625 0.953125,0.546875 l 0.65625,0.21875 c 0.5,0.15625 0.828125,0.3125 0.96875,0.4375 0.15625,0.140625 0.234375,0.328125 0.234375,0.5625 0,0.640625 -0.53125,0.875 -1.234375,0.875 -0.859375,0 -1.34375,-0.34375 -1.375,-1.15625 l -0.515625,0 0,1.203125 c 0.5625,0.265625 1.15625,0.4375 1.9375,0.4375 z m 0,0"
               id="path4424" />
          </symbol>
          <symbol
             style="overflow:visible"
             overflow="visible"
             id="textext-a6710aa7-2">
            <path
               inkscape:connector-curvature="0"
               style="stroke:none"
               d="M 1.28125,2.21875 C 1.640625,2.21875 1.90625,2.140625 2.109375,2 2.3125,1.84375 2.5,1.5625 2.65625,1.171875 l 2.375,-5.828125 0.578125,0 0,-0.515625 -1.953125,0 0,0.515625 0.78125,0 -1.453125,3.5625 -1.453125,-3.5625 0.828125,0 0,-0.515625 -2.390625,0 0,0.515625 0.59375,0 1.9375,4.75 -0.34375,0.859375 c -0.125,0.296875 -0.25,0.5 -0.359375,0.59375 C 1.6875,1.640625 1.5625,1.6875 1.375,1.6875 0.953125,1.6875 0.8125,1.484375 0.78125,1.078125 l -0.46875,0 0,0.984375 c 0.296875,0.09375 0.609375,0.15625 0.96875,0.15625 z m 0,0"
               id="path4427" />
          </symbol>
          <symbol
             style="overflow:visible"
             overflow="visible"
             id="textext-a6710aa7-3">
            <path
               inkscape:connector-curvature="0"
               style="stroke:none"
               d="m 3.390625,-4.671875 c 0.390625,0 0.65625,0.125 0.8125,0.359375 0.15625,0.25 0.25,0.671875 0.25,1.296875 l 0,2.5 -0.78125,0 0,0.515625 2.46875,0 0,-0.515625 -0.796875,0 0,-2.78125 c 0,-1.28125 -0.4375,-2.015625 -1.671875,-2.015625 -0.796875,0 -1.28125,0.453125 -1.5625,1.0625 l 0,-0.921875 -1.75,0 0,0.515625 0.859375,0 0,4.140625 -0.8125,0 0,0.515625 2.484375,0 0,-0.515625 -0.78125,0 0,-2.359375 c 0,-1.015625 0.34375,-1.796875 1.28125,-1.796875 z m 0,0"
               id="path4430" />
          </symbol>
          <symbol
             style="overflow:visible"
             overflow="visible"
             id="textext-a6710aa7-4">
            <path
               inkscape:connector-curvature="0"
               style="stroke:none"
               d="m 5.125,-1.5625 -0.71875,0 c -0.15625,0.75 -0.546875,1.21875 -1.390625,1.21875 -0.5,0 -0.859375,-0.1875 -1.109375,-0.5625 -0.234375,-0.375 -0.359375,-0.9375 -0.359375,-1.6875 0,-0.75 0.125,-1.296875 0.359375,-1.671875 0.25,-0.375 0.609375,-0.5625 1.109375,-0.5625 0.90625,0 1.296875,0.46875 1.421875,1.296875 l 0.515625,0 0,-1.328125 C 4.390625,-5.125 3.765625,-5.3125 3,-5.3125 c -0.75,0 -1.359375,0.234375 -1.8125,0.734375 -0.453125,0.5 -0.6875,1.15625 -0.6875,1.984375 0,0.828125 0.234375,1.484375 0.6875,1.984375 0.453125,0.5 1.0625,0.75 1.8125,0.75 1.21875,0 1.890625,-0.671875 2.125,-1.703125 z m 0,0"
               id="path4433" />
          </symbol>
          <symbol
             style="overflow:visible"
             overflow="visible"
             id="textext-a6710aa7-5">
            <path
               inkscape:connector-curvature="0"
               style="stroke:none"
               d="m 4.984375,1.96875 -4.984375,0 0,0.390625 4.984375,0 z m 0,0"
               id="path4436" />
          </symbol>
          <symbol
             style="overflow:visible"
             overflow="visible"
             id="textext-a6710aa7-6">
            <path
               inkscape:connector-curvature="0"
               style="stroke:none"
               d="m 3.796875,-5.3125 c -0.890625,0 -1.375,0.421875 -1.6875,1.0625 l 0,-0.921875 -1.75,0 0,0.5 0.859375,0 0,4.15625 -0.8125,0 0,0.515625 2.75,0 0,-0.515625 -1.046875,0 0,-2.359375 c 0,-1.03125 0.40625,-1.78125 1.375,-1.78125 0.5,0 0.734375,0.28125 0.765625,0.765625 l 0.515625,0 0,-1.296875 c -0.3125,-0.0625 -0.625,-0.125 -0.96875,-0.125 z m 0,0"
               id="path4439" />
          </symbol>
          <symbol
             style="overflow:visible"
             overflow="visible"
             id="textext-a6710aa7-7">
            <path
               inkscape:connector-curvature="0"
               style="stroke:none"
               d="m 5.3125,-1.5625 -0.71875,0 c -0.171875,0.734375 -0.625,1.21875 -1.5,1.21875 -1.140625,0 -1.546875,-0.875 -1.546875,-2.109375 l 0,-0.046875 3.859375,0 C 5.375,-4.203125 4.625,-5.3125 2.953125,-5.3125 c -0.734375,0 -1.328125,0.25 -1.78125,0.75 C 0.734375,-4.0625 0.5,-3.40625 0.5,-2.59375 c 0,0.828125 0.234375,1.484375 0.6875,1.984375 0.453125,0.5 1.0625,0.75 1.828125,0.75 1.3125,0 2.03125,-0.625 2.296875,-1.703125 z m -0.96875,-1.453125 -2.796875,0 c 0.09375,-0.984375 0.4375,-1.8125 1.40625,-1.8125 1,0 1.359375,0.765625 1.390625,1.8125 z m 0,0"
               id="path4442" />
          </symbol>
          <symbol
             style="overflow:visible"
             overflow="visible"
             id="textext-a6710aa7-8">
            <path
               inkscape:connector-curvature="0"
               style="stroke:none"
               d="m 2.5,0.140625 c 0.953125,0 1.375,-0.4375 1.421875,-1.359375 l -0.671875,0 c -0.015625,0.546875 -0.15625,0.875 -0.671875,0.875 -0.234375,0 -0.390625,-0.0625 -0.46875,-0.1875 C 2.03125,-0.640625 1.96875,-0.921875 1.96875,-1.359375 l 0,-3.296875 1.6875,0 0,-0.515625 -1.6875,0 0,-1.609375 -0.890625,0 0,1.609375 -0.78125,0 0,0.515625 0.78125,0 0,3.296875 c 0,1.0625 0.359375,1.5 1.421875,1.5 z m 0,0"
               id="path4445" />
          </symbol>
        </g>
      </defs>
      <g
         id="textext-a6710aa7-9">
        <g
           style="fill:#000000;fill-opacity:1"
           id="g4448">
          <use
             height="100%"
             width="100%"
             xlink:href="#textext-a6710aa7-1"
             x="223.43201"
             y="134.765"
             id="use4450" />
          <use
             height="100%"
             width="100%"
             xlink:href="#textext-a6710aa7-2"
             x="228.5448"
             y="134.765"
             id="use4452" />
          <use
             height="100%"
             width="100%"
             xlink:href="#textext-a6710aa7-3"
             x="234.17268"
             y="134.765"
             id="use4454" />
          <use
             height="100%"
             width="100%"
             xlink:href="#textext-a6710aa7-4"
             x="240.58859"
             y="134.765"
             id="use4456" />
          <use
             height="100%"
             width="100%"
             xlink:href="#textext-a6710aa7-5"
             x="246.16864"
             y="134.765"
             id="use4458" />
          <use
             height="100%"
             width="100%"
             xlink:href="#textext-a6710aa7-6"
             x="251.14995"
             y="134.765"
             id="use4460" />
          <use
             height="100%"
             width="100%"
             xlink:href="#textext-a6710aa7-7"
             x="255.91206"
             y="134.765"
             id="use4462" />
          <use
             height="100%"
             width="100%"
             xlink:href="#textext-a6710aa7-1"
             x="261.80792"
             y="134.765"
             id="use4464" />
          <use
             height="100%"
             width="100%"
             xlink:href="#textext-a6710aa7-7"
             x="266.92075"
             y="134.765"
             id="use4466" />
          <use
             height="100%"
             width="100%"
             xlink:href="#textext-a6710aa7-8"
             x="272.81662"
             y="134.765"
             id="use4468" />
        </g>
      </g>
    </g>
    <g
       id="g4640"
       ns0:preamble="/home/bqwer/make/textext_preamble.tex"
       ns0:text="clk"
       transform="translate(-183.81379,916.85576)">
      <defs
         id="defs4642">
        <g
           id="g4644">
          <symbol
             style="overflow:visible"
             id="textext-916a5eeb-0"
             overflow="visible">
            <path
               inkscape:connector-curvature="0"
               id="path4647"
               d="m 0.5,1.765625 4.984375,0 0,-8.796875 -4.984375,0 z m 0.5625,-0.5625 0,-7.671875 3.859375,0 0,7.671875 z m 0,0"
               style="stroke:none" />
          </symbol>
          <symbol
             style="overflow:visible"
             id="textext-916a5eeb-1"
             overflow="visible">
            <path
               inkscape:connector-curvature="0"
               id="path4650"
               d="m 5.125,-1.5625 -0.71875,0 c -0.15625,0.75 -0.546875,1.21875 -1.390625,1.21875 -0.5,0 -0.859375,-0.1875 -1.109375,-0.5625 -0.234375,-0.375 -0.359375,-0.9375 -0.359375,-1.6875 0,-0.75 0.125,-1.296875 0.359375,-1.671875 0.25,-0.375 0.609375,-0.5625 1.109375,-0.5625 0.90625,0 1.296875,0.46875 1.421875,1.296875 l 0.515625,0 0,-1.328125 C 4.390625,-5.125 3.765625,-5.3125 3,-5.3125 c -0.75,0 -1.359375,0.234375 -1.8125,0.734375 -0.453125,0.5 -0.6875,1.15625 -0.6875,1.984375 0,0.828125 0.234375,1.484375 0.6875,1.984375 0.453125,0.5 1.0625,0.75 1.8125,0.75 1.21875,0 1.890625,-0.671875 2.125,-1.703125 z m 0,0"
               style="stroke:none" />
          </symbol>
          <symbol
             style="overflow:visible"
             id="textext-916a5eeb-2"
             overflow="visible">
            <path
               inkscape:connector-curvature="0"
               id="path4653"
               d="m 2.046875,-0.515625 0,-7.0625 -1.75,0 0,0.515625 0.84375,0 0,6.546875 -0.84375,0 0,0.515625 2.59375,0 0,-0.515625 z m 0,0"
               style="stroke:none" />
          </symbol>
          <symbol
             style="overflow:visible"
             id="textext-916a5eeb-3"
             overflow="visible">
            <path
               inkscape:connector-curvature="0"
               id="path4656"
               d="m 2.84375,0 0,-0.515625 -0.796875,0 0,-1.46875 0.703125,-0.65625 1.546875,2.125 -0.734375,0 0,0.515625 2.546875,0 0,-0.515625 -0.75,0 -1.953125,-2.71875 1.53125,-1.421875 0.890625,0 0,-0.515625 -2.34375,0 0,0.515625 0.75,0 -2.1875,2.015625 0,-4.9375 -1.75,0 0,0.515625 0.84375,0 0,6.546875 -0.796875,0 0,0.515625 z m 0,0"
               style="stroke:none" />
          </symbol>
        </g>
      </defs>
      <g
         id="textext-916a5eeb-4">
        <g
           id="g4659"
           style="fill:#000000;fill-opacity:1">
          <use
             height="100%"
             width="100%"
             id="use4661"
             y="134.765"
             x="223.43201"
             xlink:href="#textext-916a5eeb-1" />
          <use
             height="100%"
             width="100%"
             id="use4663"
             y="134.765"
             x="229.01205"
             xlink:href="#textext-916a5eeb-2" />
          <use
             height="100%"
             width="100%"
             id="use4665"
             y="134.765"
             x="232.19809"
             xlink:href="#textext-916a5eeb-3" />
        </g>
      </g>
    </g>
  </g>
</svg>
